%TF.GenerationSoftware,KiCad,Pcbnew,(6.0.8)*%
%TF.CreationDate,2022-11-07T17:30:20-05:00*%
%TF.ProjectId,Riego_potencia,52696567-6f5f-4706-9f74-656e6369612e,rev?*%
%TF.SameCoordinates,Original*%
%TF.FileFunction,Soldermask,Top*%
%TF.FilePolarity,Negative*%
%FSLAX46Y46*%
G04 Gerber Fmt 4.6, Leading zero omitted, Abs format (unit mm)*
G04 Created by KiCad (PCBNEW (6.0.8)) date 2022-11-07 17:30:20*
%MOMM*%
%LPD*%
G01*
G04 APERTURE LIST*
G04 Aperture macros list*
%AMRoundRect*
0 Rectangle with rounded corners*
0 $1 Rounding radius*
0 $2 $3 $4 $5 $6 $7 $8 $9 X,Y pos of 4 corners*
0 Add a 4 corners polygon primitive as box body*
4,1,4,$2,$3,$4,$5,$6,$7,$8,$9,$2,$3,0*
0 Add four circle primitives for the rounded corners*
1,1,$1+$1,$2,$3*
1,1,$1+$1,$4,$5*
1,1,$1+$1,$6,$7*
1,1,$1+$1,$8,$9*
0 Add four rect primitives between the rounded corners*
20,1,$1+$1,$2,$3,$4,$5,0*
20,1,$1+$1,$4,$5,$6,$7,0*
20,1,$1+$1,$6,$7,$8,$9,0*
20,1,$1+$1,$8,$9,$2,$3,0*%
G04 Aperture macros list end*
%ADD10RoundRect,0.150000X-0.587500X-0.150000X0.587500X-0.150000X0.587500X0.150000X-0.587500X0.150000X0*%
%ADD11RoundRect,0.250000X-0.450000X0.350000X-0.450000X-0.350000X0.450000X-0.350000X0.450000X0.350000X0*%
%ADD12RoundRect,0.249999X-1.425001X0.512501X-1.425001X-0.512501X1.425001X-0.512501X1.425001X0.512501X0*%
%ADD13C,1.950000*%
%ADD14RoundRect,0.237500X-0.237500X0.287500X-0.237500X-0.287500X0.237500X-0.287500X0.237500X0.287500X0*%
%ADD15RoundRect,0.237500X0.237500X-0.287500X0.237500X0.287500X-0.237500X0.287500X-0.237500X-0.287500X0*%
%ADD16R,2.600000X2.600000*%
%ADD17C,2.600000*%
%ADD18RoundRect,0.250000X-0.350000X-0.450000X0.350000X-0.450000X0.350000X0.450000X-0.350000X0.450000X0*%
%ADD19RoundRect,0.250000X0.350000X0.450000X-0.350000X0.450000X-0.350000X-0.450000X0.350000X-0.450000X0*%
%ADD20RoundRect,0.249999X1.425001X-0.512501X1.425001X0.512501X-1.425001X0.512501X-1.425001X-0.512501X0*%
%ADD21C,3.200000*%
%ADD22R,1.500000X1.500000*%
%ADD23C,1.500000*%
%ADD24R,2.400000X1.500000*%
%ADD25RoundRect,0.150000X0.587500X0.150000X-0.587500X0.150000X-0.587500X-0.150000X0.587500X-0.150000X0*%
%ADD26R,1.500000X2.400000*%
G04 APERTURE END LIST*
D10*
%TO.C,Q1*%
X80342500Y-42230000D03*
X80342500Y-44130000D03*
X82217500Y-43180000D03*
%TD*%
D11*
%TO.C,RL1*%
X71120000Y-32020000D03*
X71120000Y-34020000D03*
%TD*%
D10*
%TO.C,Q5*%
X47322500Y-110810000D03*
X47322500Y-112710000D03*
X49197500Y-111760000D03*
%TD*%
D12*
%TO.C,D3*%
X81280000Y-78292500D03*
X81280000Y-84267500D03*
%TD*%
D11*
%TO.C,RL4*%
X111760000Y-110760000D03*
X111760000Y-112760000D03*
%TD*%
D10*
%TO.C,Q3*%
X80342500Y-87950000D03*
X80342500Y-89850000D03*
X82217500Y-88900000D03*
%TD*%
D13*
%TO.C,K5*%
X57400000Y-100680000D03*
X57400000Y-112680000D03*
X71600000Y-106680000D03*
X69600000Y-100680000D03*
X69600000Y-112680000D03*
%TD*%
D14*
%TO.C,DL4*%
X111760000Y-105805000D03*
X111760000Y-107555000D03*
%TD*%
D15*
%TO.C,DL3*%
X71120000Y-84695000D03*
X71120000Y-82945000D03*
%TD*%
D11*
%TO.C,RL2*%
X71120000Y-54880000D03*
X71120000Y-56880000D03*
%TD*%
D16*
%TO.C,J4*%
X124460000Y-91440000D03*
D17*
X124460000Y-86440000D03*
%TD*%
D11*
%TO.C,RL3*%
X71120000Y-77740000D03*
X71120000Y-79740000D03*
%TD*%
%TO.C,RL5*%
X40640000Y-100600000D03*
X40640000Y-102600000D03*
%TD*%
D18*
%TO.C,R3*%
X71120000Y-88900000D03*
X73120000Y-88900000D03*
%TD*%
D12*
%TO.C,D5*%
X48260000Y-101152500D03*
X48260000Y-107127500D03*
%TD*%
D15*
%TO.C,DL5*%
X40640000Y-107555000D03*
X40640000Y-105805000D03*
%TD*%
D19*
%TO.C,R2*%
X73120000Y-66040000D03*
X71120000Y-66040000D03*
%TD*%
%TO.C,R1*%
X73120000Y-43180000D03*
X71120000Y-43180000D03*
%TD*%
D12*
%TO.C,D2*%
X81280000Y-55432500D03*
X81280000Y-61407500D03*
%TD*%
D20*
%TO.C,D4*%
X104140000Y-112207500D03*
X104140000Y-106232500D03*
%TD*%
D18*
%TO.C,R5*%
X39640000Y-111760000D03*
X41640000Y-111760000D03*
%TD*%
D13*
%TO.C,K1*%
X90420000Y-32100000D03*
X90420000Y-44100000D03*
X104620000Y-38100000D03*
X102620000Y-32100000D03*
X102620000Y-44100000D03*
%TD*%
D16*
%TO.C,J5*%
X124460000Y-109220000D03*
D17*
X124460000Y-104220000D03*
%TD*%
D16*
%TO.C,Jent1*%
X40640000Y-55880000D03*
D17*
X40640000Y-60880000D03*
%TD*%
D10*
%TO.C,Q2*%
X80342500Y-65090000D03*
X80342500Y-66990000D03*
X82217500Y-66040000D03*
%TD*%
D21*
%TO.C,J45*%
X39390000Y-78267500D03*
X39390000Y-89697500D03*
D22*
X45740000Y-79537500D03*
D23*
X48280000Y-80807500D03*
X45740000Y-82077500D03*
X48280000Y-83347500D03*
X45740000Y-84617500D03*
X48280000Y-85887500D03*
X45740000Y-87157500D03*
X48280000Y-88427500D03*
%TD*%
D15*
%TO.C,DL2*%
X71120000Y-61835000D03*
X71120000Y-60085000D03*
%TD*%
D24*
%TO.C,L1*%
X58420000Y-66250000D03*
X58420000Y-60750000D03*
%TD*%
D13*
%TO.C,K4*%
X95000000Y-112680000D03*
X95000000Y-100680000D03*
X80800000Y-106680000D03*
X82800000Y-112680000D03*
X82800000Y-100680000D03*
%TD*%
D19*
%TO.C,R4*%
X112760000Y-101600000D03*
X110760000Y-101600000D03*
%TD*%
D25*
%TO.C,Q4*%
X105077500Y-102550000D03*
X105077500Y-100650000D03*
X103202500Y-101600000D03*
%TD*%
D12*
%TO.C,D1*%
X81280000Y-32572500D03*
X81280000Y-38547500D03*
%TD*%
D16*
%TO.C,J3*%
X124460000Y-73740000D03*
D17*
X124460000Y-68740000D03*
%TD*%
D13*
%TO.C,K3*%
X90420000Y-77820000D03*
X90420000Y-89820000D03*
X104620000Y-83820000D03*
X102620000Y-77820000D03*
X102620000Y-89820000D03*
%TD*%
D16*
%TO.C,J2*%
X124460000Y-55880000D03*
D17*
X124460000Y-50880000D03*
%TD*%
D13*
%TO.C,K2*%
X90420000Y-54960000D03*
X90420000Y-66960000D03*
X104620000Y-60960000D03*
X102620000Y-54960000D03*
X102620000Y-66960000D03*
%TD*%
D15*
%TO.C,DL1*%
X71120000Y-38975000D03*
X71120000Y-37225000D03*
%TD*%
D26*
%TO.C,L2*%
X61170000Y-40640000D03*
X55670000Y-40640000D03*
%TD*%
D16*
%TO.C,Jent2*%
X40640000Y-35560000D03*
D17*
X40640000Y-40560000D03*
%TD*%
D16*
%TO.C,J1*%
X124460000Y-38180000D03*
D17*
X124460000Y-33180000D03*
%TD*%
M02*
