%TF.GenerationSoftware,KiCad,Pcbnew,(6.0.8)*%
%TF.CreationDate,2022-11-07T17:30:20-05:00*%
%TF.ProjectId,Riego_potencia,52696567-6f5f-4706-9f74-656e6369612e,rev?*%
%TF.SameCoordinates,Original*%
%TF.FileFunction,Copper,L2,Bot*%
%TF.FilePolarity,Positive*%
%FSLAX46Y46*%
G04 Gerber Fmt 4.6, Leading zero omitted, Abs format (unit mm)*
G04 Created by KiCad (PCBNEW (6.0.8)) date 2022-11-07 17:30:20*
%MOMM*%
%LPD*%
G01*
G04 APERTURE LIST*
%TA.AperFunction,ComponentPad*%
%ADD10C,1.950000*%
%TD*%
%TA.AperFunction,ComponentPad*%
%ADD11R,2.600000X2.600000*%
%TD*%
%TA.AperFunction,ComponentPad*%
%ADD12C,2.600000*%
%TD*%
%TA.AperFunction,ComponentPad*%
%ADD13R,1.500000X1.500000*%
%TD*%
%TA.AperFunction,ComponentPad*%
%ADD14C,1.500000*%
%TD*%
%TA.AperFunction,ViaPad*%
%ADD15C,0.800000*%
%TD*%
%TA.AperFunction,ViaPad*%
%ADD16C,3.800000*%
%TD*%
%TA.AperFunction,Conductor*%
%ADD17C,0.500000*%
%TD*%
%TA.AperFunction,Conductor*%
%ADD18C,0.690000*%
%TD*%
%TA.AperFunction,Conductor*%
%ADD19C,1.400000*%
%TD*%
G04 APERTURE END LIST*
D10*
%TO.P,K5,COIL1*%
%TO.N,/Potencia_Bomba/VCC_5*%
X57400000Y-100680000D03*
%TO.P,K5,COIL2*%
%TO.N,Net-(D5-Pad2)*%
X57400000Y-112680000D03*
%TO.P,K5,COM*%
%TO.N,/Potencia_ElectroV/VCC_12*%
X71600000Y-106680000D03*
%TO.P,K5,NC*%
%TO.N,unconnected-(K5-PadNC)*%
X69600000Y-100680000D03*
%TO.P,K5,NO*%
%TO.N,/Potencia_ElectroV/Activ_EV_2*%
X69600000Y-112680000D03*
%TD*%
D11*
%TO.P,J4,1,Pin_1*%
%TO.N,/Potencia_ElectroV/Activ_EV_1*%
X124460000Y-91440000D03*
D12*
%TO.P,J4,2,Pin_2*%
%TO.N,GND*%
X124460000Y-86440000D03*
%TD*%
D10*
%TO.P,K1,COIL1*%
%TO.N,/Potencia_Bomba/VCC_5*%
X90420000Y-32100000D03*
%TO.P,K1,COIL2*%
%TO.N,Net-(D1-Pad2)*%
X90420000Y-44100000D03*
%TO.P,K1,COM*%
%TO.N,/Potencia_Bomba/VCC_5*%
X104620000Y-38100000D03*
%TO.P,K1,NC*%
%TO.N,unconnected-(K1-PadNC)*%
X102620000Y-32100000D03*
%TO.P,K1,NO*%
%TO.N,/Potencia_Bomba/Activ_bomba_1*%
X102620000Y-44100000D03*
%TD*%
D11*
%TO.P,J5,1,Pin_1*%
%TO.N,/Potencia_ElectroV/Activ_EV_2*%
X124460000Y-109220000D03*
D12*
%TO.P,J5,2,Pin_2*%
%TO.N,GND*%
X124460000Y-104220000D03*
%TD*%
D11*
%TO.P,Jent1,1*%
%TO.N,GND*%
X40640000Y-55880000D03*
D12*
%TO.P,Jent1,2*%
%TO.N,Net-(Jjack1-Pad2)*%
X40640000Y-60880000D03*
%TD*%
D13*
%TO.P,J45,1*%
%TO.N,GND*%
X45740000Y-79537500D03*
D14*
%TO.P,J45,2*%
%TO.N,/Potencia_ElectroV/Ev_2*%
X48280000Y-80807500D03*
%TO.P,J45,3*%
%TO.N,/Potencia_ElectroV/Ev_1*%
X45740000Y-82077500D03*
%TO.P,J45,4*%
%TO.N,/Potencia_Bomba/Cb_1*%
X48280000Y-83347500D03*
%TO.P,J45,5*%
%TO.N,/Potencia_Bomba/Cb_2*%
X45740000Y-84617500D03*
%TO.P,J45,6*%
%TO.N,/Potencia_Bomba/Cb_3*%
X48280000Y-85887500D03*
%TO.P,J45,7*%
%TO.N,unconnected-(J45-Pad7)*%
X45740000Y-87157500D03*
%TO.P,J45,8*%
%TO.N,unconnected-(J45-Pad8)*%
X48280000Y-88427500D03*
%TD*%
D10*
%TO.P,K4,COIL1*%
%TO.N,/Potencia_Bomba/VCC_5*%
X95000000Y-112680000D03*
%TO.P,K4,COIL2*%
%TO.N,Net-(D4-Pad2)*%
X95000000Y-100680000D03*
%TO.P,K4,COM*%
%TO.N,/Potencia_ElectroV/VCC_12*%
X80800000Y-106680000D03*
%TO.P,K4,NC*%
%TO.N,unconnected-(K4-PadNC)*%
X82800000Y-112680000D03*
%TO.P,K4,NO*%
%TO.N,/Potencia_ElectroV/Activ_EV_1*%
X82800000Y-100680000D03*
%TD*%
D11*
%TO.P,J3,1,Pin_1*%
%TO.N,/Potencia_Bomba/Activ_bomba_3*%
X124460000Y-73740000D03*
D12*
%TO.P,J3,2,Pin_2*%
%TO.N,GND*%
X124460000Y-68740000D03*
%TD*%
D10*
%TO.P,K3,COIL1*%
%TO.N,/Potencia_Bomba/VCC_5*%
X90420000Y-77820000D03*
%TO.P,K3,COIL2*%
%TO.N,Net-(D3-Pad2)*%
X90420000Y-89820000D03*
%TO.P,K3,COM*%
%TO.N,/Potencia_Bomba/VCC_5*%
X104620000Y-83820000D03*
%TO.P,K3,NC*%
%TO.N,unconnected-(K3-PadNC)*%
X102620000Y-77820000D03*
%TO.P,K3,NO*%
%TO.N,/Potencia_Bomba/Activ_bomba_3*%
X102620000Y-89820000D03*
%TD*%
D11*
%TO.P,J2,1,Pin_1*%
%TO.N,/Potencia_Bomba/Activ_bomba_2*%
X124460000Y-55880000D03*
D12*
%TO.P,J2,2,Pin_2*%
%TO.N,GND*%
X124460000Y-50880000D03*
%TD*%
D10*
%TO.P,K2,COIL1*%
%TO.N,/Potencia_Bomba/VCC_5*%
X90420000Y-54960000D03*
%TO.P,K2,COIL2*%
%TO.N,Net-(D2-Pad2)*%
X90420000Y-66960000D03*
%TO.P,K2,COM*%
%TO.N,/Potencia_Bomba/VCC_5*%
X104620000Y-60960000D03*
%TO.P,K2,NC*%
%TO.N,unconnected-(K2-PadNC)*%
X102620000Y-54960000D03*
%TO.P,K2,NO*%
%TO.N,/Potencia_Bomba/Activ_bomba_2*%
X102620000Y-66960000D03*
%TD*%
D11*
%TO.P,Jent2,1,Pin_1*%
%TO.N,GND*%
X40640000Y-35560000D03*
D12*
%TO.P,Jent2,2,Pin_2*%
%TO.N,Net-(Jent2-Pad2)*%
X40640000Y-40560000D03*
%TD*%
D11*
%TO.P,J1,1,Pin_1*%
%TO.N,/Potencia_Bomba/Activ_bomba_1*%
X124460000Y-38180000D03*
D12*
%TO.P,J1,2,Pin_2*%
%TO.N,GND*%
X124460000Y-33180000D03*
%TD*%
D15*
%TO.N,Net-(D3-Pad2)*%
X90420000Y-84301200D03*
%TO.N,/Potencia_ElectroV/Ev_2*%
X43536100Y-111390800D03*
%TO.N,/Potencia_Bomba/Cb_1*%
X71199700Y-45231700D03*
%TO.N,/Potencia_Bomba/Cb_2*%
X69586300Y-66587700D03*
D16*
%TO.N,GND*%
X129540000Y-119380000D03*
X129540000Y-25400000D03*
X35560000Y-25400000D03*
X35560000Y-119380000D03*
%TD*%
D17*
%TO.N,Net-(D3-Pad2)*%
X90420000Y-89820000D02*
X90420000Y-84301200D01*
D18*
%TO.N,/Potencia_ElectroV/Activ_EV_2*%
X124460000Y-109220000D02*
X122314700Y-109220000D01*
X71440900Y-114520900D02*
X117013800Y-114520900D01*
X117013800Y-114520900D02*
X122314700Y-109220000D01*
X69600000Y-112680000D02*
X71440900Y-114520900D01*
D17*
%TO.N,/Potencia_ElectroV/Ev_2*%
X48280000Y-80807500D02*
X48280000Y-81283800D01*
X46216300Y-83347500D02*
X45312400Y-83347500D01*
X43536100Y-85123800D02*
X43536100Y-111390800D01*
X48280000Y-81283800D02*
X46216300Y-83347500D01*
X45312400Y-83347500D02*
X43536100Y-85123800D01*
%TO.N,/Potencia_Bomba/Cb_1*%
X71199700Y-60427800D02*
X71199700Y-45231700D01*
X48280000Y-83347500D02*
X71199700Y-60427800D01*
%TO.N,/Potencia_Bomba/Cb_2*%
X45740000Y-84617500D02*
X51556500Y-84617500D01*
X51556500Y-84617500D02*
X69586300Y-66587700D01*
D19*
%TO.N,/Potencia_Bomba/VCC_5*%
X88489000Y-79751000D02*
X88489000Y-98447600D01*
X88489000Y-98447600D02*
X88489000Y-106169000D01*
X88287600Y-96520000D02*
X86360000Y-98447600D01*
X88489000Y-106169000D02*
X95000000Y-112680000D01*
X59632400Y-98447600D02*
X57400000Y-100680000D01*
X86360000Y-98447600D02*
X59632400Y-98447600D01*
X90420000Y-77820000D02*
X88489000Y-79751000D01*
%TD*%
%TA.AperFunction,Conductor*%
%TO.N,GND*%
G36*
X129482121Y-25420002D02*
G01*
X129528614Y-25473658D01*
X129540000Y-25526000D01*
X129540000Y-119254000D01*
X129519998Y-119322121D01*
X129466342Y-119368614D01*
X129414000Y-119380000D01*
X35686000Y-119380000D01*
X35617879Y-119359998D01*
X35571386Y-119306342D01*
X35560000Y-119254000D01*
X35560000Y-112643631D01*
X55911860Y-112643631D01*
X55912157Y-112648783D01*
X55912157Y-112648787D01*
X55923558Y-112846499D01*
X55925903Y-112887171D01*
X55927040Y-112892217D01*
X55927041Y-112892223D01*
X55950107Y-112994575D01*
X55979533Y-113125147D01*
X55981475Y-113129929D01*
X55981476Y-113129933D01*
X56069367Y-113346382D01*
X56071311Y-113351169D01*
X56198772Y-113559166D01*
X56358492Y-113743553D01*
X56546183Y-113899377D01*
X56756804Y-114022453D01*
X56984698Y-114109478D01*
X56989764Y-114110509D01*
X56989765Y-114110509D01*
X57218667Y-114157080D01*
X57218671Y-114157080D01*
X57223746Y-114158113D01*
X57228922Y-114158303D01*
X57228924Y-114158303D01*
X57462363Y-114166863D01*
X57462367Y-114166863D01*
X57467527Y-114167052D01*
X57472647Y-114166396D01*
X57472649Y-114166396D01*
X57549377Y-114156567D01*
X57709494Y-114136055D01*
X57714443Y-114134570D01*
X57714449Y-114134569D01*
X57938200Y-114067440D01*
X57938199Y-114067440D01*
X57943150Y-114065955D01*
X58162219Y-113958634D01*
X58166424Y-113955634D01*
X58166430Y-113955631D01*
X58356614Y-113819974D01*
X58356616Y-113819972D01*
X58360818Y-113816975D01*
X58533614Y-113644781D01*
X58675966Y-113446677D01*
X58784050Y-113227984D01*
X58816827Y-113120105D01*
X58853462Y-112999527D01*
X58853463Y-112999521D01*
X58854966Y-112994575D01*
X58886807Y-112752717D01*
X58888584Y-112680000D01*
X58868596Y-112436876D01*
X58809167Y-112200280D01*
X58711894Y-111976568D01*
X58579390Y-111771748D01*
X58415212Y-111591319D01*
X58411161Y-111588120D01*
X58411157Y-111588116D01*
X58227825Y-111443329D01*
X58227821Y-111443327D01*
X58223770Y-111440127D01*
X58010205Y-111322233D01*
X58005336Y-111320509D01*
X58005332Y-111320507D01*
X57785127Y-111242528D01*
X57785123Y-111242527D01*
X57780252Y-111240802D01*
X57775159Y-111239895D01*
X57775156Y-111239894D01*
X57545177Y-111198928D01*
X57545171Y-111198927D01*
X57540088Y-111198022D01*
X57460380Y-111197048D01*
X57301332Y-111195105D01*
X57301330Y-111195105D01*
X57296162Y-111195042D01*
X57055024Y-111231941D01*
X56823150Y-111307729D01*
X56818558Y-111310119D01*
X56818559Y-111310119D01*
X56676184Y-111384235D01*
X56606769Y-111420370D01*
X56602636Y-111423473D01*
X56602633Y-111423475D01*
X56415825Y-111563735D01*
X56411690Y-111566840D01*
X56243153Y-111743204D01*
X56240239Y-111747476D01*
X56240238Y-111747477D01*
X56220719Y-111776091D01*
X56105684Y-111944726D01*
X56088705Y-111981305D01*
X56047689Y-112069666D01*
X56002974Y-112165995D01*
X55937783Y-112401067D01*
X55911860Y-112643631D01*
X35560000Y-112643631D01*
X35560000Y-111390800D01*
X42622596Y-111390800D01*
X42642558Y-111580728D01*
X42701573Y-111762356D01*
X42797060Y-111927744D01*
X42801478Y-111932651D01*
X42801479Y-111932652D01*
X42816580Y-111949423D01*
X42924847Y-112069666D01*
X43079348Y-112181918D01*
X43085376Y-112184602D01*
X43085378Y-112184603D01*
X43131847Y-112205292D01*
X43253812Y-112259594D01*
X43347213Y-112279447D01*
X43434156Y-112297928D01*
X43434161Y-112297928D01*
X43440613Y-112299300D01*
X43631587Y-112299300D01*
X43638039Y-112297928D01*
X43638044Y-112297928D01*
X43724987Y-112279447D01*
X43818388Y-112259594D01*
X43940353Y-112205292D01*
X43986822Y-112184603D01*
X43986824Y-112184602D01*
X43992852Y-112181918D01*
X44147353Y-112069666D01*
X44255620Y-111949423D01*
X44270721Y-111932652D01*
X44270722Y-111932651D01*
X44275140Y-111927744D01*
X44370627Y-111762356D01*
X44429642Y-111580728D01*
X44449604Y-111390800D01*
X44433743Y-111239894D01*
X44430332Y-111207435D01*
X44430332Y-111207433D01*
X44429642Y-111200872D01*
X44370627Y-111019244D01*
X44311481Y-110916800D01*
X44294600Y-110853801D01*
X44294600Y-106643631D01*
X70111860Y-106643631D01*
X70112157Y-106648783D01*
X70112157Y-106648787D01*
X70120371Y-106791228D01*
X70125903Y-106887171D01*
X70127040Y-106892217D01*
X70127041Y-106892223D01*
X70150107Y-106994575D01*
X70179533Y-107125147D01*
X70181475Y-107129929D01*
X70181476Y-107129933D01*
X70269367Y-107346382D01*
X70271311Y-107351169D01*
X70398772Y-107559166D01*
X70558492Y-107743553D01*
X70746183Y-107899377D01*
X70956804Y-108022453D01*
X71184698Y-108109478D01*
X71189764Y-108110509D01*
X71189765Y-108110509D01*
X71418667Y-108157080D01*
X71418671Y-108157080D01*
X71423746Y-108158113D01*
X71428922Y-108158303D01*
X71428924Y-108158303D01*
X71662363Y-108166863D01*
X71662367Y-108166863D01*
X71667527Y-108167052D01*
X71672647Y-108166396D01*
X71672649Y-108166396D01*
X71749377Y-108156567D01*
X71909494Y-108136055D01*
X71914443Y-108134570D01*
X71914449Y-108134569D01*
X72138200Y-108067440D01*
X72138199Y-108067440D01*
X72143150Y-108065955D01*
X72362219Y-107958634D01*
X72366424Y-107955634D01*
X72366430Y-107955631D01*
X72556614Y-107819974D01*
X72556616Y-107819972D01*
X72560818Y-107816975D01*
X72733614Y-107644781D01*
X72875966Y-107446677D01*
X72890435Y-107417402D01*
X72981756Y-107232626D01*
X72981757Y-107232624D01*
X72984050Y-107227984D01*
X73016827Y-107120105D01*
X73053462Y-106999527D01*
X73053463Y-106999521D01*
X73054966Y-106994575D01*
X73084344Y-106771428D01*
X73086370Y-106756038D01*
X73086370Y-106756034D01*
X73086807Y-106752717D01*
X73086945Y-106747077D01*
X73088502Y-106683365D01*
X73088502Y-106683361D01*
X73088584Y-106680000D01*
X73085594Y-106643631D01*
X79311860Y-106643631D01*
X79312157Y-106648783D01*
X79312157Y-106648787D01*
X79320371Y-106791228D01*
X79325903Y-106887171D01*
X79327040Y-106892217D01*
X79327041Y-106892223D01*
X79350107Y-106994575D01*
X79379533Y-107125147D01*
X79381475Y-107129929D01*
X79381476Y-107129933D01*
X79469367Y-107346382D01*
X79471311Y-107351169D01*
X79598772Y-107559166D01*
X79758492Y-107743553D01*
X79946183Y-107899377D01*
X80156804Y-108022453D01*
X80384698Y-108109478D01*
X80389764Y-108110509D01*
X80389765Y-108110509D01*
X80618667Y-108157080D01*
X80618671Y-108157080D01*
X80623746Y-108158113D01*
X80628922Y-108158303D01*
X80628924Y-108158303D01*
X80862363Y-108166863D01*
X80862367Y-108166863D01*
X80867527Y-108167052D01*
X80872647Y-108166396D01*
X80872649Y-108166396D01*
X80949377Y-108156567D01*
X81109494Y-108136055D01*
X81114443Y-108134570D01*
X81114449Y-108134569D01*
X81338200Y-108067440D01*
X81338199Y-108067440D01*
X81343150Y-108065955D01*
X81562219Y-107958634D01*
X81566424Y-107955634D01*
X81566430Y-107955631D01*
X81756614Y-107819974D01*
X81756616Y-107819972D01*
X81760818Y-107816975D01*
X81933614Y-107644781D01*
X82075966Y-107446677D01*
X82090435Y-107417402D01*
X82181756Y-107232626D01*
X82181757Y-107232624D01*
X82184050Y-107227984D01*
X82216827Y-107120105D01*
X82253462Y-106999527D01*
X82253463Y-106999521D01*
X82254966Y-106994575D01*
X82284344Y-106771428D01*
X82286370Y-106756038D01*
X82286370Y-106756034D01*
X82286807Y-106752717D01*
X82286945Y-106747077D01*
X82288502Y-106683365D01*
X82288502Y-106683361D01*
X82288584Y-106680000D01*
X82268596Y-106436876D01*
X82209167Y-106200280D01*
X82135902Y-106031783D01*
X82113954Y-105981305D01*
X82113952Y-105981302D01*
X82111894Y-105976568D01*
X81979390Y-105771748D01*
X81918953Y-105705328D01*
X81818690Y-105595141D01*
X81818688Y-105595140D01*
X81815212Y-105591319D01*
X81811161Y-105588120D01*
X81811157Y-105588116D01*
X81627825Y-105443329D01*
X81627821Y-105443327D01*
X81623770Y-105440127D01*
X81410205Y-105322233D01*
X81405336Y-105320509D01*
X81405332Y-105320507D01*
X81185127Y-105242528D01*
X81185123Y-105242527D01*
X81180252Y-105240802D01*
X81175159Y-105239895D01*
X81175156Y-105239894D01*
X80945177Y-105198928D01*
X80945171Y-105198927D01*
X80940088Y-105198022D01*
X80860380Y-105197048D01*
X80701332Y-105195105D01*
X80701330Y-105195105D01*
X80696162Y-105195042D01*
X80455024Y-105231941D01*
X80223150Y-105307729D01*
X80006769Y-105420370D01*
X80002636Y-105423473D01*
X80002633Y-105423475D01*
X79815825Y-105563735D01*
X79811690Y-105566840D01*
X79643153Y-105743204D01*
X79640239Y-105747476D01*
X79640238Y-105747477D01*
X79620719Y-105776091D01*
X79505684Y-105944726D01*
X79402974Y-106165995D01*
X79337783Y-106401067D01*
X79311860Y-106643631D01*
X73085594Y-106643631D01*
X73068596Y-106436876D01*
X73009167Y-106200280D01*
X72935902Y-106031783D01*
X72913954Y-105981305D01*
X72913952Y-105981302D01*
X72911894Y-105976568D01*
X72779390Y-105771748D01*
X72718953Y-105705328D01*
X72618690Y-105595141D01*
X72618688Y-105595140D01*
X72615212Y-105591319D01*
X72611161Y-105588120D01*
X72611157Y-105588116D01*
X72427825Y-105443329D01*
X72427821Y-105443327D01*
X72423770Y-105440127D01*
X72210205Y-105322233D01*
X72205336Y-105320509D01*
X72205332Y-105320507D01*
X71985127Y-105242528D01*
X71985123Y-105242527D01*
X71980252Y-105240802D01*
X71975159Y-105239895D01*
X71975156Y-105239894D01*
X71745177Y-105198928D01*
X71745171Y-105198927D01*
X71740088Y-105198022D01*
X71660380Y-105197048D01*
X71501332Y-105195105D01*
X71501330Y-105195105D01*
X71496162Y-105195042D01*
X71255024Y-105231941D01*
X71023150Y-105307729D01*
X70806769Y-105420370D01*
X70802636Y-105423473D01*
X70802633Y-105423475D01*
X70615825Y-105563735D01*
X70611690Y-105566840D01*
X70443153Y-105743204D01*
X70440239Y-105747476D01*
X70440238Y-105747477D01*
X70420719Y-105776091D01*
X70305684Y-105944726D01*
X70202974Y-106165995D01*
X70137783Y-106401067D01*
X70111860Y-106643631D01*
X44294600Y-106643631D01*
X44294600Y-100643631D01*
X55911860Y-100643631D01*
X55912157Y-100648783D01*
X55912157Y-100648787D01*
X55923558Y-100846499D01*
X55925903Y-100887171D01*
X55927040Y-100892217D01*
X55927041Y-100892223D01*
X55950107Y-100994575D01*
X55979533Y-101125147D01*
X55981475Y-101129929D01*
X55981476Y-101129933D01*
X56069367Y-101346382D01*
X56071311Y-101351169D01*
X56198772Y-101559166D01*
X56358492Y-101743553D01*
X56546183Y-101899377D01*
X56756804Y-102022453D01*
X56984698Y-102109478D01*
X56989764Y-102110509D01*
X56989765Y-102110509D01*
X57218667Y-102157080D01*
X57218671Y-102157080D01*
X57223746Y-102158113D01*
X57228922Y-102158303D01*
X57228924Y-102158303D01*
X57462363Y-102166863D01*
X57462367Y-102166863D01*
X57467527Y-102167052D01*
X57472647Y-102166396D01*
X57472649Y-102166396D01*
X57549377Y-102156567D01*
X57709494Y-102136055D01*
X57714443Y-102134570D01*
X57714449Y-102134569D01*
X57938200Y-102067440D01*
X57938199Y-102067440D01*
X57943150Y-102065955D01*
X58162219Y-101958634D01*
X58166424Y-101955634D01*
X58166430Y-101955631D01*
X58356614Y-101819974D01*
X58356616Y-101819972D01*
X58360818Y-101816975D01*
X58533614Y-101644781D01*
X58675966Y-101446677D01*
X58784050Y-101227984D01*
X58816827Y-101120105D01*
X58853462Y-100999527D01*
X58853463Y-100999521D01*
X58854966Y-100994575D01*
X58858550Y-100967349D01*
X58887271Y-100902423D01*
X58894377Y-100894700D01*
X60096072Y-99693005D01*
X60158384Y-99658979D01*
X60185167Y-99656100D01*
X68264096Y-99656100D01*
X68332217Y-99676102D01*
X68378710Y-99729758D01*
X68388814Y-99800032D01*
X68368186Y-99853102D01*
X68305684Y-99944726D01*
X68202974Y-100165995D01*
X68137783Y-100401067D01*
X68111860Y-100643631D01*
X68112157Y-100648783D01*
X68112157Y-100648787D01*
X68123558Y-100846499D01*
X68125903Y-100887171D01*
X68127040Y-100892217D01*
X68127041Y-100892223D01*
X68150107Y-100994575D01*
X68179533Y-101125147D01*
X68181475Y-101129929D01*
X68181476Y-101129933D01*
X68269367Y-101346382D01*
X68271311Y-101351169D01*
X68398772Y-101559166D01*
X68558492Y-101743553D01*
X68746183Y-101899377D01*
X68956804Y-102022453D01*
X69184698Y-102109478D01*
X69189764Y-102110509D01*
X69189765Y-102110509D01*
X69418667Y-102157080D01*
X69418671Y-102157080D01*
X69423746Y-102158113D01*
X69428922Y-102158303D01*
X69428924Y-102158303D01*
X69662363Y-102166863D01*
X69662367Y-102166863D01*
X69667527Y-102167052D01*
X69672647Y-102166396D01*
X69672649Y-102166396D01*
X69749377Y-102156567D01*
X69909494Y-102136055D01*
X69914443Y-102134570D01*
X69914449Y-102134569D01*
X70138200Y-102067440D01*
X70138199Y-102067440D01*
X70143150Y-102065955D01*
X70362219Y-101958634D01*
X70366424Y-101955634D01*
X70366430Y-101955631D01*
X70556614Y-101819974D01*
X70556616Y-101819972D01*
X70560818Y-101816975D01*
X70733614Y-101644781D01*
X70875966Y-101446677D01*
X70984050Y-101227984D01*
X71016827Y-101120105D01*
X71053462Y-100999527D01*
X71053463Y-100999521D01*
X71054966Y-100994575D01*
X71086807Y-100752717D01*
X71088584Y-100680000D01*
X71068596Y-100436876D01*
X71009167Y-100200280D01*
X70911894Y-99976568D01*
X70830363Y-99850540D01*
X70810156Y-99782480D01*
X70829952Y-99714299D01*
X70883468Y-99667645D01*
X70936155Y-99656100D01*
X81464096Y-99656100D01*
X81532217Y-99676102D01*
X81578710Y-99729758D01*
X81588814Y-99800032D01*
X81568186Y-99853102D01*
X81505684Y-99944726D01*
X81402974Y-100165995D01*
X81337783Y-100401067D01*
X81311860Y-100643631D01*
X81312157Y-100648783D01*
X81312157Y-100648787D01*
X81323558Y-100846499D01*
X81325903Y-100887171D01*
X81327040Y-100892217D01*
X81327041Y-100892223D01*
X81350107Y-100994575D01*
X81379533Y-101125147D01*
X81381475Y-101129929D01*
X81381476Y-101129933D01*
X81469367Y-101346382D01*
X81471311Y-101351169D01*
X81598772Y-101559166D01*
X81758492Y-101743553D01*
X81946183Y-101899377D01*
X82156804Y-102022453D01*
X82384698Y-102109478D01*
X82389764Y-102110509D01*
X82389765Y-102110509D01*
X82618667Y-102157080D01*
X82618671Y-102157080D01*
X82623746Y-102158113D01*
X82628922Y-102158303D01*
X82628924Y-102158303D01*
X82862363Y-102166863D01*
X82862367Y-102166863D01*
X82867527Y-102167052D01*
X82872647Y-102166396D01*
X82872649Y-102166396D01*
X82949377Y-102156567D01*
X83109494Y-102136055D01*
X83114443Y-102134570D01*
X83114449Y-102134569D01*
X83338200Y-102067440D01*
X83338199Y-102067440D01*
X83343150Y-102065955D01*
X83562219Y-101958634D01*
X83566424Y-101955634D01*
X83566430Y-101955631D01*
X83756614Y-101819974D01*
X83756616Y-101819972D01*
X83760818Y-101816975D01*
X83933614Y-101644781D01*
X84075966Y-101446677D01*
X84184050Y-101227984D01*
X84216827Y-101120105D01*
X84253462Y-100999527D01*
X84253463Y-100999521D01*
X84254966Y-100994575D01*
X84286807Y-100752717D01*
X84288584Y-100680000D01*
X84268596Y-100436876D01*
X84209167Y-100200280D01*
X84111894Y-99976568D01*
X84030363Y-99850540D01*
X84010156Y-99782480D01*
X84029952Y-99714299D01*
X84083468Y-99667645D01*
X84136155Y-99656100D01*
X86271915Y-99656100D01*
X86288360Y-99657178D01*
X86309189Y-99659920D01*
X86314788Y-99659656D01*
X86314790Y-99659656D01*
X86387223Y-99656240D01*
X86393158Y-99656100D01*
X86414735Y-99656100D01*
X86417521Y-99655851D01*
X86417529Y-99655851D01*
X86439601Y-99653881D01*
X86444865Y-99653522D01*
X86497653Y-99651032D01*
X86524675Y-99649758D01*
X86530134Y-99648508D01*
X86530139Y-99648507D01*
X86541132Y-99645989D01*
X86558063Y-99643308D01*
X86562174Y-99642941D01*
X86574872Y-99641808D01*
X86580284Y-99640327D01*
X86580292Y-99640326D01*
X86651941Y-99620725D01*
X86657059Y-99619439D01*
X86672029Y-99616010D01*
X86734957Y-99601598D01*
X86740114Y-99599398D01*
X86740121Y-99599396D01*
X86750483Y-99594976D01*
X86766670Y-99589339D01*
X86777537Y-99586366D01*
X86777544Y-99586363D01*
X86782952Y-99584884D01*
X86788010Y-99582472D01*
X86788014Y-99582470D01*
X86855080Y-99550481D01*
X86859879Y-99548314D01*
X86933386Y-99516960D01*
X86938074Y-99513881D01*
X86938077Y-99513879D01*
X86947494Y-99507693D01*
X86962428Y-99499278D01*
X86972594Y-99494429D01*
X86972595Y-99494428D01*
X86977663Y-99492011D01*
X86982218Y-99488738D01*
X86982228Y-99488732D01*
X87042544Y-99445390D01*
X87046895Y-99442399D01*
X87054156Y-99437630D01*
X87075705Y-99423475D01*
X87085325Y-99417156D01*
X87153242Y-99396475D01*
X87221559Y-99415796D01*
X87268585Y-99468985D01*
X87280500Y-99522469D01*
X87280500Y-106080915D01*
X87279422Y-106097360D01*
X87276680Y-106118189D01*
X87276944Y-106123788D01*
X87276944Y-106123790D01*
X87280360Y-106196223D01*
X87280500Y-106202158D01*
X87280500Y-106223735D01*
X87280749Y-106226521D01*
X87280749Y-106226529D01*
X87282719Y-106248601D01*
X87283078Y-106253865D01*
X87286842Y-106333675D01*
X87288092Y-106339134D01*
X87288093Y-106339139D01*
X87290611Y-106350132D01*
X87293292Y-106367063D01*
X87294792Y-106383872D01*
X87296273Y-106389284D01*
X87296274Y-106389292D01*
X87315875Y-106460941D01*
X87317161Y-106466059D01*
X87335002Y-106543957D01*
X87337202Y-106549114D01*
X87337204Y-106549121D01*
X87341624Y-106559483D01*
X87347261Y-106575670D01*
X87350234Y-106586537D01*
X87350237Y-106586544D01*
X87351716Y-106591952D01*
X87354128Y-106597010D01*
X87354130Y-106597014D01*
X87386119Y-106664080D01*
X87388286Y-106668879D01*
X87419640Y-106742386D01*
X87422719Y-106747074D01*
X87422721Y-106747077D01*
X87428907Y-106756494D01*
X87437322Y-106771428D01*
X87444589Y-106786663D01*
X87447862Y-106791218D01*
X87447868Y-106791228D01*
X87491210Y-106851544D01*
X87494200Y-106855894D01*
X87518064Y-106892223D01*
X87538078Y-106922692D01*
X87541145Y-106926134D01*
X87555691Y-106942460D01*
X87563938Y-106952755D01*
X87570474Y-106961851D01*
X87574504Y-106965756D01*
X87644150Y-107033248D01*
X87645560Y-107034637D01*
X93508192Y-112897269D01*
X93542014Y-112958663D01*
X93579533Y-113125147D01*
X93581475Y-113129929D01*
X93581476Y-113129933D01*
X93669367Y-113346382D01*
X93671311Y-113351169D01*
X93674010Y-113355573D01*
X93747541Y-113475565D01*
X93766079Y-113544099D01*
X93744623Y-113611775D01*
X93689983Y-113657108D01*
X93640108Y-113667400D01*
X84163057Y-113667400D01*
X84094936Y-113647398D01*
X84048443Y-113593742D01*
X84038339Y-113523468D01*
X84060735Y-113467873D01*
X84072947Y-113450878D01*
X84075966Y-113446677D01*
X84184050Y-113227984D01*
X84216827Y-113120105D01*
X84253462Y-112999527D01*
X84253463Y-112999521D01*
X84254966Y-112994575D01*
X84286807Y-112752717D01*
X84288584Y-112680000D01*
X84268596Y-112436876D01*
X84209167Y-112200280D01*
X84111894Y-111976568D01*
X83979390Y-111771748D01*
X83815212Y-111591319D01*
X83811161Y-111588120D01*
X83811157Y-111588116D01*
X83627825Y-111443329D01*
X83627821Y-111443327D01*
X83623770Y-111440127D01*
X83410205Y-111322233D01*
X83405336Y-111320509D01*
X83405332Y-111320507D01*
X83185127Y-111242528D01*
X83185123Y-111242527D01*
X83180252Y-111240802D01*
X83175159Y-111239895D01*
X83175156Y-111239894D01*
X82945177Y-111198928D01*
X82945171Y-111198927D01*
X82940088Y-111198022D01*
X82860380Y-111197048D01*
X82701332Y-111195105D01*
X82701330Y-111195105D01*
X82696162Y-111195042D01*
X82455024Y-111231941D01*
X82223150Y-111307729D01*
X82218558Y-111310119D01*
X82218559Y-111310119D01*
X82076184Y-111384235D01*
X82006769Y-111420370D01*
X82002636Y-111423473D01*
X82002633Y-111423475D01*
X81815825Y-111563735D01*
X81811690Y-111566840D01*
X81643153Y-111743204D01*
X81640239Y-111747476D01*
X81640238Y-111747477D01*
X81620719Y-111776091D01*
X81505684Y-111944726D01*
X81488705Y-111981305D01*
X81447689Y-112069666D01*
X81402974Y-112165995D01*
X81337783Y-112401067D01*
X81311860Y-112643631D01*
X81312157Y-112648783D01*
X81312157Y-112648787D01*
X81323558Y-112846499D01*
X81325903Y-112887171D01*
X81327040Y-112892217D01*
X81327041Y-112892223D01*
X81350107Y-112994575D01*
X81379533Y-113125147D01*
X81381475Y-113129929D01*
X81381476Y-113129933D01*
X81469367Y-113346382D01*
X81471311Y-113351169D01*
X81474010Y-113355573D01*
X81547541Y-113475565D01*
X81566079Y-113544099D01*
X81544623Y-113611775D01*
X81489983Y-113657108D01*
X81440108Y-113667400D01*
X71846622Y-113667400D01*
X71778501Y-113647398D01*
X71757527Y-113630495D01*
X71106656Y-112979624D01*
X71072630Y-112917312D01*
X71070829Y-112874083D01*
X71086370Y-112756038D01*
X71086370Y-112756034D01*
X71086807Y-112752717D01*
X71088584Y-112680000D01*
X71068596Y-112436876D01*
X71009167Y-112200280D01*
X70911894Y-111976568D01*
X70779390Y-111771748D01*
X70615212Y-111591319D01*
X70611161Y-111588120D01*
X70611157Y-111588116D01*
X70427825Y-111443329D01*
X70427821Y-111443327D01*
X70423770Y-111440127D01*
X70210205Y-111322233D01*
X70205336Y-111320509D01*
X70205332Y-111320507D01*
X69985127Y-111242528D01*
X69985123Y-111242527D01*
X69980252Y-111240802D01*
X69975159Y-111239895D01*
X69975156Y-111239894D01*
X69745177Y-111198928D01*
X69745171Y-111198927D01*
X69740088Y-111198022D01*
X69660380Y-111197048D01*
X69501332Y-111195105D01*
X69501330Y-111195105D01*
X69496162Y-111195042D01*
X69255024Y-111231941D01*
X69023150Y-111307729D01*
X69018558Y-111310119D01*
X69018559Y-111310119D01*
X68876184Y-111384235D01*
X68806769Y-111420370D01*
X68802636Y-111423473D01*
X68802633Y-111423475D01*
X68615825Y-111563735D01*
X68611690Y-111566840D01*
X68443153Y-111743204D01*
X68440239Y-111747476D01*
X68440238Y-111747477D01*
X68420719Y-111776091D01*
X68305684Y-111944726D01*
X68288705Y-111981305D01*
X68247689Y-112069666D01*
X68202974Y-112165995D01*
X68137783Y-112401067D01*
X68111860Y-112643631D01*
X68112157Y-112648783D01*
X68112157Y-112648787D01*
X68123558Y-112846499D01*
X68125903Y-112887171D01*
X68127040Y-112892217D01*
X68127041Y-112892223D01*
X68150107Y-112994575D01*
X68179533Y-113125147D01*
X68181475Y-113129929D01*
X68181476Y-113129933D01*
X68269367Y-113346382D01*
X68271311Y-113351169D01*
X68398772Y-113559166D01*
X68558492Y-113743553D01*
X68746183Y-113899377D01*
X68956804Y-114022453D01*
X69184698Y-114109478D01*
X69189764Y-114110509D01*
X69189765Y-114110509D01*
X69418667Y-114157080D01*
X69418671Y-114157080D01*
X69423746Y-114158113D01*
X69428922Y-114158303D01*
X69428924Y-114158303D01*
X69662363Y-114166863D01*
X69662367Y-114166863D01*
X69667527Y-114167052D01*
X69794531Y-114150782D01*
X69864640Y-114161966D01*
X69899635Y-114186666D01*
X70808254Y-115095285D01*
X70815396Y-115103051D01*
X70848839Y-115142625D01*
X70906630Y-115186809D01*
X70912964Y-115191652D01*
X70915380Y-115193546D01*
X70978348Y-115244173D01*
X70984456Y-115247204D01*
X70987143Y-115248923D01*
X70987512Y-115249181D01*
X70987612Y-115249243D01*
X70988026Y-115249471D01*
X70990733Y-115251110D01*
X70996157Y-115255258D01*
X71002345Y-115258143D01*
X71002344Y-115258143D01*
X71069333Y-115289381D01*
X71072099Y-115290712D01*
X71144450Y-115326627D01*
X71151067Y-115328277D01*
X71154064Y-115329380D01*
X71154498Y-115329561D01*
X71154563Y-115329584D01*
X71155001Y-115329713D01*
X71158044Y-115330749D01*
X71164224Y-115333630D01*
X71243049Y-115351250D01*
X71246027Y-115351954D01*
X71324384Y-115371490D01*
X71331204Y-115371680D01*
X71334355Y-115372112D01*
X71335278Y-115372278D01*
X71340151Y-115372954D01*
X71345200Y-115374083D01*
X71350870Y-115374400D01*
X71426797Y-115374400D01*
X71430315Y-115374449D01*
X71509754Y-115376668D01*
X71516458Y-115375389D01*
X71523259Y-115374842D01*
X71523301Y-115375368D01*
X71533554Y-115374400D01*
X116972617Y-115374400D01*
X116983159Y-115374842D01*
X117034776Y-115379176D01*
X117041536Y-115378274D01*
X117041538Y-115378274D01*
X117114795Y-115368499D01*
X117117852Y-115368129D01*
X117198157Y-115359405D01*
X117204624Y-115357228D01*
X117207737Y-115356544D01*
X117208191Y-115356464D01*
X117208287Y-115356442D01*
X117208739Y-115356310D01*
X117211823Y-115355552D01*
X117218589Y-115354650D01*
X117294495Y-115327023D01*
X117297345Y-115326025D01*
X117367447Y-115302433D01*
X117373913Y-115300257D01*
X117379759Y-115296744D01*
X117382662Y-115295403D01*
X117383080Y-115295230D01*
X117383172Y-115295186D01*
X117383584Y-115294962D01*
X117386431Y-115293561D01*
X117392847Y-115291226D01*
X117459100Y-115249181D01*
X117461062Y-115247936D01*
X117463681Y-115246319D01*
X117527018Y-115208262D01*
X117532868Y-115204747D01*
X117537824Y-115200060D01*
X117540362Y-115198134D01*
X117541161Y-115197579D01*
X117545064Y-115194627D01*
X117549421Y-115191862D01*
X117553655Y-115188076D01*
X117607328Y-115134403D01*
X117609850Y-115131949D01*
X117662650Y-115082019D01*
X117662652Y-115082017D01*
X117667606Y-115077332D01*
X117671439Y-115071691D01*
X117675865Y-115066491D01*
X117676269Y-115066835D01*
X117682834Y-115058897D01*
X122436405Y-110305326D01*
X122498717Y-110271300D01*
X122569532Y-110276365D01*
X122626368Y-110318912D01*
X122651179Y-110385432D01*
X122651500Y-110394421D01*
X122651500Y-110568134D01*
X122658255Y-110630316D01*
X122709385Y-110766705D01*
X122796739Y-110883261D01*
X122913295Y-110970615D01*
X123049684Y-111021745D01*
X123111866Y-111028500D01*
X125808134Y-111028500D01*
X125870316Y-111021745D01*
X126006705Y-110970615D01*
X126123261Y-110883261D01*
X126210615Y-110766705D01*
X126261745Y-110630316D01*
X126268500Y-110568134D01*
X126268500Y-107871866D01*
X126261745Y-107809684D01*
X126210615Y-107673295D01*
X126123261Y-107556739D01*
X126006705Y-107469385D01*
X125870316Y-107418255D01*
X125808134Y-107411500D01*
X123111866Y-107411500D01*
X123049684Y-107418255D01*
X122913295Y-107469385D01*
X122796739Y-107556739D01*
X122709385Y-107673295D01*
X122658255Y-107809684D01*
X122651500Y-107871866D01*
X122651500Y-108240500D01*
X122631498Y-108308621D01*
X122577842Y-108355114D01*
X122525500Y-108366500D01*
X122355893Y-108366500D01*
X122345350Y-108366058D01*
X122293725Y-108361723D01*
X122286965Y-108362625D01*
X122286964Y-108362625D01*
X122213670Y-108372405D01*
X122210614Y-108372775D01*
X122130343Y-108381495D01*
X122123870Y-108383673D01*
X122120769Y-108384355D01*
X122120300Y-108384437D01*
X122120216Y-108384457D01*
X122119783Y-108384583D01*
X122116675Y-108385347D01*
X122109912Y-108386249D01*
X122103500Y-108388583D01*
X122103499Y-108388583D01*
X122034018Y-108413872D01*
X122031115Y-108414889D01*
X121954587Y-108440643D01*
X121948739Y-108444157D01*
X121945852Y-108445491D01*
X121945430Y-108445665D01*
X121945318Y-108445718D01*
X121944919Y-108445936D01*
X121942071Y-108447337D01*
X121935653Y-108449673D01*
X121867400Y-108492988D01*
X121864832Y-108494573D01*
X121795632Y-108536153D01*
X121790667Y-108540849D01*
X121788161Y-108542751D01*
X121787359Y-108543308D01*
X121783445Y-108546268D01*
X121779079Y-108549038D01*
X121774845Y-108552823D01*
X121721153Y-108606515D01*
X121718631Y-108608969D01*
X121660894Y-108663568D01*
X121657058Y-108669212D01*
X121652638Y-108674406D01*
X121652235Y-108674063D01*
X121645671Y-108681997D01*
X116697174Y-113630495D01*
X116634862Y-113664521D01*
X116608079Y-113667400D01*
X96363057Y-113667400D01*
X96294936Y-113647398D01*
X96248443Y-113593742D01*
X96238339Y-113523468D01*
X96260735Y-113467873D01*
X96272947Y-113450878D01*
X96275966Y-113446677D01*
X96384050Y-113227984D01*
X96416827Y-113120105D01*
X96453462Y-112999527D01*
X96453463Y-112999521D01*
X96454966Y-112994575D01*
X96486807Y-112752717D01*
X96488584Y-112680000D01*
X96468596Y-112436876D01*
X96409167Y-112200280D01*
X96311894Y-111976568D01*
X96179390Y-111771748D01*
X96015212Y-111591319D01*
X96011161Y-111588120D01*
X96011157Y-111588116D01*
X95827825Y-111443329D01*
X95827821Y-111443327D01*
X95823770Y-111440127D01*
X95610205Y-111322233D01*
X95605336Y-111320509D01*
X95605332Y-111320507D01*
X95385127Y-111242528D01*
X95385123Y-111242527D01*
X95380252Y-111240802D01*
X95284948Y-111223826D01*
X95217952Y-111188875D01*
X89734405Y-105705328D01*
X89712332Y-105664906D01*
X123379839Y-105664906D01*
X123388553Y-105676427D01*
X123495452Y-105754809D01*
X123503351Y-105759745D01*
X123732905Y-105880519D01*
X123741454Y-105884236D01*
X123986327Y-105969749D01*
X123995336Y-105972163D01*
X124250166Y-106020544D01*
X124259423Y-106021598D01*
X124518607Y-106031783D01*
X124527921Y-106031457D01*
X124785753Y-106003220D01*
X124794930Y-106001519D01*
X125045758Y-105935481D01*
X125054574Y-105932445D01*
X125292880Y-105830062D01*
X125301167Y-105825748D01*
X125521718Y-105689266D01*
X125529268Y-105683780D01*
X125534559Y-105679301D01*
X125542997Y-105666497D01*
X125536935Y-105656145D01*
X124472812Y-104592022D01*
X124458868Y-104584408D01*
X124457035Y-104584539D01*
X124450420Y-104588790D01*
X123386497Y-105652713D01*
X123379839Y-105664906D01*
X89712332Y-105664906D01*
X89700379Y-105643016D01*
X89697500Y-105616233D01*
X89697500Y-104177211D01*
X122647775Y-104177211D01*
X122660220Y-104436288D01*
X122661356Y-104445543D01*
X122711961Y-104699945D01*
X122714449Y-104708917D01*
X122802095Y-104953033D01*
X122805895Y-104961568D01*
X122928658Y-105190042D01*
X122933666Y-105197904D01*
X123003720Y-105291716D01*
X123014979Y-105300165D01*
X123027397Y-105293393D01*
X124087978Y-104232812D01*
X124094356Y-104221132D01*
X124824408Y-104221132D01*
X124824539Y-104222965D01*
X124828790Y-104229580D01*
X125896094Y-105296884D01*
X125908474Y-105303644D01*
X125916815Y-105297400D01*
X126050832Y-105089048D01*
X126055275Y-105080864D01*
X126161807Y-104844370D01*
X126164997Y-104835605D01*
X126235402Y-104585972D01*
X126237262Y-104576830D01*
X126270187Y-104318019D01*
X126270668Y-104311733D01*
X126272987Y-104223160D01*
X126272836Y-104216851D01*
X126253501Y-103956663D01*
X126252125Y-103947457D01*
X126194878Y-103694467D01*
X126192154Y-103685556D01*
X126098143Y-103443806D01*
X126094132Y-103435397D01*
X125965422Y-103210202D01*
X125960211Y-103202476D01*
X125916996Y-103147658D01*
X125905071Y-103139187D01*
X125893537Y-103145673D01*
X124832022Y-104207188D01*
X124824408Y-104221132D01*
X124094356Y-104221132D01*
X124095592Y-104218868D01*
X124095461Y-104217035D01*
X124091210Y-104210420D01*
X123025816Y-103145026D01*
X123012507Y-103137758D01*
X123002472Y-103144878D01*
X122986937Y-103163556D01*
X122981531Y-103171135D01*
X122846965Y-103392891D01*
X122842736Y-103401192D01*
X122742432Y-103640389D01*
X122739471Y-103649239D01*
X122675628Y-103900625D01*
X122674006Y-103909822D01*
X122648020Y-104167885D01*
X122647775Y-104177211D01*
X89697500Y-104177211D01*
X89697500Y-102772689D01*
X123377102Y-102772689D01*
X123381675Y-102782465D01*
X124447188Y-103847978D01*
X124461132Y-103855592D01*
X124462965Y-103855461D01*
X124469580Y-103851210D01*
X125534349Y-102786441D01*
X125540733Y-102774751D01*
X125531321Y-102762641D01*
X125384045Y-102660471D01*
X125376010Y-102655738D01*
X125143376Y-102541016D01*
X125134743Y-102537528D01*
X124887703Y-102458450D01*
X124878643Y-102456274D01*
X124622630Y-102414580D01*
X124613343Y-102413768D01*
X124353992Y-102410373D01*
X124344681Y-102410943D01*
X124087682Y-102445919D01*
X124078546Y-102447860D01*
X123829543Y-102520439D01*
X123820800Y-102523707D01*
X123585252Y-102632296D01*
X123577097Y-102636816D01*
X123386240Y-102761947D01*
X123377102Y-102772689D01*
X89697500Y-102772689D01*
X89697500Y-100643631D01*
X93511860Y-100643631D01*
X93512157Y-100648783D01*
X93512157Y-100648787D01*
X93523558Y-100846499D01*
X93525903Y-100887171D01*
X93527040Y-100892217D01*
X93527041Y-100892223D01*
X93550107Y-100994575D01*
X93579533Y-101125147D01*
X93581475Y-101129929D01*
X93581476Y-101129933D01*
X93669367Y-101346382D01*
X93671311Y-101351169D01*
X93798772Y-101559166D01*
X93958492Y-101743553D01*
X94146183Y-101899377D01*
X94356804Y-102022453D01*
X94584698Y-102109478D01*
X94589764Y-102110509D01*
X94589765Y-102110509D01*
X94818667Y-102157080D01*
X94818671Y-102157080D01*
X94823746Y-102158113D01*
X94828922Y-102158303D01*
X94828924Y-102158303D01*
X95062363Y-102166863D01*
X95062367Y-102166863D01*
X95067527Y-102167052D01*
X95072647Y-102166396D01*
X95072649Y-102166396D01*
X95149377Y-102156567D01*
X95309494Y-102136055D01*
X95314443Y-102134570D01*
X95314449Y-102134569D01*
X95538200Y-102067440D01*
X95538199Y-102067440D01*
X95543150Y-102065955D01*
X95762219Y-101958634D01*
X95766424Y-101955634D01*
X95766430Y-101955631D01*
X95956614Y-101819974D01*
X95956616Y-101819972D01*
X95960818Y-101816975D01*
X96133614Y-101644781D01*
X96275966Y-101446677D01*
X96384050Y-101227984D01*
X96416827Y-101120105D01*
X96453462Y-100999527D01*
X96453463Y-100999521D01*
X96454966Y-100994575D01*
X96486807Y-100752717D01*
X96488584Y-100680000D01*
X96468596Y-100436876D01*
X96409167Y-100200280D01*
X96311894Y-99976568D01*
X96179390Y-99771748D01*
X96127116Y-99714299D01*
X96018690Y-99595141D01*
X96018688Y-99595140D01*
X96015212Y-99591319D01*
X96011161Y-99588120D01*
X96011157Y-99588116D01*
X95827825Y-99443329D01*
X95827821Y-99443327D01*
X95823770Y-99440127D01*
X95610205Y-99322233D01*
X95605336Y-99320509D01*
X95605332Y-99320507D01*
X95385127Y-99242528D01*
X95385123Y-99242527D01*
X95380252Y-99240802D01*
X95375159Y-99239895D01*
X95375156Y-99239894D01*
X95145177Y-99198928D01*
X95145171Y-99198927D01*
X95140088Y-99198022D01*
X95060380Y-99197048D01*
X94901332Y-99195105D01*
X94901330Y-99195105D01*
X94896162Y-99195042D01*
X94655024Y-99231941D01*
X94423150Y-99307729D01*
X94418558Y-99310119D01*
X94418559Y-99310119D01*
X94215556Y-99415796D01*
X94206769Y-99420370D01*
X94202636Y-99423473D01*
X94202633Y-99423475D01*
X94034987Y-99549348D01*
X94011690Y-99566840D01*
X93843153Y-99743204D01*
X93840239Y-99747476D01*
X93840238Y-99747477D01*
X93769933Y-99850540D01*
X93705684Y-99944726D01*
X93602974Y-100165995D01*
X93537783Y-100401067D01*
X93511860Y-100643631D01*
X89697500Y-100643631D01*
X89697500Y-92788134D01*
X122651500Y-92788134D01*
X122658255Y-92850316D01*
X122709385Y-92986705D01*
X122796739Y-93103261D01*
X122913295Y-93190615D01*
X123049684Y-93241745D01*
X123111866Y-93248500D01*
X125808134Y-93248500D01*
X125870316Y-93241745D01*
X126006705Y-93190615D01*
X126123261Y-93103261D01*
X126210615Y-92986705D01*
X126261745Y-92850316D01*
X126268500Y-92788134D01*
X126268500Y-90091866D01*
X126261745Y-90029684D01*
X126210615Y-89893295D01*
X126123261Y-89776739D01*
X126006705Y-89689385D01*
X125870316Y-89638255D01*
X125808134Y-89631500D01*
X123111866Y-89631500D01*
X123049684Y-89638255D01*
X122913295Y-89689385D01*
X122796739Y-89776739D01*
X122709385Y-89893295D01*
X122658255Y-90029684D01*
X122651500Y-90091866D01*
X122651500Y-92788134D01*
X89697500Y-92788134D01*
X89697500Y-91315159D01*
X89717502Y-91247038D01*
X89771158Y-91200545D01*
X89841432Y-91190441D01*
X89868448Y-91197449D01*
X90004698Y-91249478D01*
X90009764Y-91250509D01*
X90009765Y-91250509D01*
X90238667Y-91297080D01*
X90238671Y-91297080D01*
X90243746Y-91298113D01*
X90248922Y-91298303D01*
X90248924Y-91298303D01*
X90482363Y-91306863D01*
X90482367Y-91306863D01*
X90487527Y-91307052D01*
X90492647Y-91306396D01*
X90492649Y-91306396D01*
X90569377Y-91296567D01*
X90729494Y-91276055D01*
X90734443Y-91274570D01*
X90734449Y-91274569D01*
X90958200Y-91207440D01*
X90958199Y-91207440D01*
X90963150Y-91205955D01*
X91182219Y-91098634D01*
X91186424Y-91095634D01*
X91186430Y-91095631D01*
X91376614Y-90959974D01*
X91376616Y-90959972D01*
X91380818Y-90956975D01*
X91553614Y-90784781D01*
X91695966Y-90586677D01*
X91783646Y-90409270D01*
X91801756Y-90372626D01*
X91801757Y-90372624D01*
X91804050Y-90367984D01*
X91873004Y-90141034D01*
X91873462Y-90139527D01*
X91873463Y-90139521D01*
X91874966Y-90134575D01*
X91906807Y-89892717D01*
X91906889Y-89889365D01*
X91908502Y-89823365D01*
X91908502Y-89823361D01*
X91908584Y-89820000D01*
X91905594Y-89783631D01*
X101131860Y-89783631D01*
X101132157Y-89788783D01*
X101132157Y-89788787D01*
X101138668Y-89901703D01*
X101145903Y-90027171D01*
X101147040Y-90032217D01*
X101147041Y-90032223D01*
X101170107Y-90134575D01*
X101199533Y-90265147D01*
X101201475Y-90269929D01*
X101201476Y-90269933D01*
X101251260Y-90392536D01*
X101291311Y-90491169D01*
X101418772Y-90699166D01*
X101578492Y-90883553D01*
X101766183Y-91039377D01*
X101976804Y-91162453D01*
X102204698Y-91249478D01*
X102209764Y-91250509D01*
X102209765Y-91250509D01*
X102438667Y-91297080D01*
X102438671Y-91297080D01*
X102443746Y-91298113D01*
X102448922Y-91298303D01*
X102448924Y-91298303D01*
X102682363Y-91306863D01*
X102682367Y-91306863D01*
X102687527Y-91307052D01*
X102692647Y-91306396D01*
X102692649Y-91306396D01*
X102769377Y-91296567D01*
X102929494Y-91276055D01*
X102934443Y-91274570D01*
X102934449Y-91274569D01*
X103158200Y-91207440D01*
X103158199Y-91207440D01*
X103163150Y-91205955D01*
X103382219Y-91098634D01*
X103386424Y-91095634D01*
X103386430Y-91095631D01*
X103576614Y-90959974D01*
X103576616Y-90959972D01*
X103580818Y-90956975D01*
X103753614Y-90784781D01*
X103895966Y-90586677D01*
X103983646Y-90409270D01*
X104001756Y-90372626D01*
X104001757Y-90372624D01*
X104004050Y-90367984D01*
X104073004Y-90141034D01*
X104073462Y-90139527D01*
X104073463Y-90139521D01*
X104074966Y-90134575D01*
X104106807Y-89892717D01*
X104106889Y-89889365D01*
X104108502Y-89823365D01*
X104108502Y-89823361D01*
X104108584Y-89820000D01*
X104088596Y-89576876D01*
X104029167Y-89340280D01*
X103931894Y-89116568D01*
X103799390Y-88911748D01*
X103747085Y-88854265D01*
X103638690Y-88735141D01*
X103638688Y-88735140D01*
X103635212Y-88731319D01*
X103631161Y-88728120D01*
X103631157Y-88728116D01*
X103447825Y-88583329D01*
X103447821Y-88583327D01*
X103443770Y-88580127D01*
X103230205Y-88462233D01*
X103225336Y-88460509D01*
X103225332Y-88460507D01*
X103005127Y-88382528D01*
X103005123Y-88382527D01*
X103000252Y-88380802D01*
X102995159Y-88379895D01*
X102995156Y-88379894D01*
X102765177Y-88338928D01*
X102765171Y-88338927D01*
X102760088Y-88338022D01*
X102680380Y-88337048D01*
X102521332Y-88335105D01*
X102521330Y-88335105D01*
X102516162Y-88335042D01*
X102275024Y-88371941D01*
X102043150Y-88447729D01*
X101826769Y-88560370D01*
X101822636Y-88563473D01*
X101822633Y-88563475D01*
X101635825Y-88703735D01*
X101631690Y-88706840D01*
X101628118Y-88710578D01*
X101480969Y-88864561D01*
X101463153Y-88883204D01*
X101460239Y-88887476D01*
X101460238Y-88887477D01*
X101440719Y-88916091D01*
X101325684Y-89084726D01*
X101308705Y-89121305D01*
X101233174Y-89284022D01*
X101222974Y-89305995D01*
X101157783Y-89541067D01*
X101131860Y-89783631D01*
X91905594Y-89783631D01*
X91888596Y-89576876D01*
X91829167Y-89340280D01*
X91731894Y-89116568D01*
X91599390Y-88911748D01*
X91547085Y-88854265D01*
X91438690Y-88735141D01*
X91438688Y-88735140D01*
X91435212Y-88731319D01*
X91431161Y-88728120D01*
X91431157Y-88728116D01*
X91247824Y-88583328D01*
X91247819Y-88583324D01*
X91243770Y-88580127D01*
X91239253Y-88577633D01*
X91234934Y-88574764D01*
X91236287Y-88572727D01*
X91193505Y-88529361D01*
X91178500Y-88469727D01*
X91178500Y-87884906D01*
X123379839Y-87884906D01*
X123388553Y-87896427D01*
X123495452Y-87974809D01*
X123503351Y-87979745D01*
X123732905Y-88100519D01*
X123741454Y-88104236D01*
X123986327Y-88189749D01*
X123995336Y-88192163D01*
X124250166Y-88240544D01*
X124259423Y-88241598D01*
X124518607Y-88251783D01*
X124527921Y-88251457D01*
X124785753Y-88223220D01*
X124794930Y-88221519D01*
X125045758Y-88155481D01*
X125054574Y-88152445D01*
X125292880Y-88050062D01*
X125301167Y-88045748D01*
X125521718Y-87909266D01*
X125529268Y-87903780D01*
X125534559Y-87899301D01*
X125542997Y-87886497D01*
X125536935Y-87876145D01*
X124472812Y-86812022D01*
X124458868Y-86804408D01*
X124457035Y-86804539D01*
X124450420Y-86808790D01*
X123386497Y-87872713D01*
X123379839Y-87884906D01*
X91178500Y-87884906D01*
X91178500Y-86397211D01*
X122647775Y-86397211D01*
X122660220Y-86656288D01*
X122661356Y-86665543D01*
X122711961Y-86919945D01*
X122714449Y-86928917D01*
X122802095Y-87173033D01*
X122805895Y-87181568D01*
X122928658Y-87410042D01*
X122933666Y-87417904D01*
X123003720Y-87511716D01*
X123014979Y-87520165D01*
X123027397Y-87513393D01*
X124087978Y-86452812D01*
X124094356Y-86441132D01*
X124824408Y-86441132D01*
X124824539Y-86442965D01*
X124828790Y-86449580D01*
X125896094Y-87516884D01*
X125908474Y-87523644D01*
X125916815Y-87517400D01*
X126050832Y-87309048D01*
X126055275Y-87300864D01*
X126161807Y-87064370D01*
X126164997Y-87055605D01*
X126235402Y-86805972D01*
X126237262Y-86796830D01*
X126270187Y-86538019D01*
X126270668Y-86531733D01*
X126272987Y-86443160D01*
X126272836Y-86436851D01*
X126253501Y-86176663D01*
X126252125Y-86167457D01*
X126194878Y-85914467D01*
X126192154Y-85905556D01*
X126098143Y-85663806D01*
X126094132Y-85655397D01*
X125965422Y-85430202D01*
X125960211Y-85422476D01*
X125916996Y-85367658D01*
X125905071Y-85359187D01*
X125893537Y-85365673D01*
X124832022Y-86427188D01*
X124824408Y-86441132D01*
X124094356Y-86441132D01*
X124095592Y-86438868D01*
X124095461Y-86437035D01*
X124091210Y-86430420D01*
X123025816Y-85365026D01*
X123012507Y-85357758D01*
X123002472Y-85364878D01*
X122986937Y-85383556D01*
X122981531Y-85391135D01*
X122846965Y-85612891D01*
X122842736Y-85621192D01*
X122742432Y-85860389D01*
X122739471Y-85869239D01*
X122675628Y-86120625D01*
X122674006Y-86129822D01*
X122648020Y-86387885D01*
X122647775Y-86397211D01*
X91178500Y-86397211D01*
X91178500Y-84838199D01*
X91195381Y-84775199D01*
X91205584Y-84757528D01*
X91254527Y-84672756D01*
X91313542Y-84491128D01*
X91327006Y-84363030D01*
X91332814Y-84307765D01*
X91333504Y-84301200D01*
X91313542Y-84111272D01*
X91254527Y-83929644D01*
X91170226Y-83783631D01*
X103131860Y-83783631D01*
X103132157Y-83788783D01*
X103132157Y-83788787D01*
X103139949Y-83923921D01*
X103145903Y-84027171D01*
X103147040Y-84032217D01*
X103147041Y-84032223D01*
X103170107Y-84134575D01*
X103199533Y-84265147D01*
X103201475Y-84269929D01*
X103201476Y-84269933D01*
X103288629Y-84484565D01*
X103291311Y-84491169D01*
X103294010Y-84495573D01*
X103415915Y-84694503D01*
X103418772Y-84699166D01*
X103578492Y-84883553D01*
X103766183Y-85039377D01*
X103976804Y-85162453D01*
X104204698Y-85249478D01*
X104209764Y-85250509D01*
X104209765Y-85250509D01*
X104438667Y-85297080D01*
X104438671Y-85297080D01*
X104443746Y-85298113D01*
X104448922Y-85298303D01*
X104448924Y-85298303D01*
X104682363Y-85306863D01*
X104682367Y-85306863D01*
X104687527Y-85307052D01*
X104692647Y-85306396D01*
X104692649Y-85306396D01*
X104769377Y-85296567D01*
X104929494Y-85276055D01*
X104934443Y-85274570D01*
X104934449Y-85274569D01*
X105140678Y-85212697D01*
X105163150Y-85205955D01*
X105382219Y-85098634D01*
X105386424Y-85095634D01*
X105386430Y-85095631D01*
X105530749Y-84992689D01*
X123377102Y-84992689D01*
X123381675Y-85002465D01*
X124447188Y-86067978D01*
X124461132Y-86075592D01*
X124462965Y-86075461D01*
X124469580Y-86071210D01*
X125534349Y-85006441D01*
X125540733Y-84994751D01*
X125531321Y-84982641D01*
X125384045Y-84880471D01*
X125376010Y-84875738D01*
X125143376Y-84761016D01*
X125134743Y-84757528D01*
X124887703Y-84678450D01*
X124878643Y-84676274D01*
X124622630Y-84634580D01*
X124613343Y-84633768D01*
X124353992Y-84630373D01*
X124344681Y-84630943D01*
X124087682Y-84665919D01*
X124078546Y-84667860D01*
X123829543Y-84740439D01*
X123820800Y-84743707D01*
X123585252Y-84852296D01*
X123577097Y-84856816D01*
X123386240Y-84981947D01*
X123377102Y-84992689D01*
X105530749Y-84992689D01*
X105576614Y-84959974D01*
X105576616Y-84959972D01*
X105580818Y-84956975D01*
X105753614Y-84784781D01*
X105895966Y-84586677D01*
X105908682Y-84560949D01*
X106001756Y-84372626D01*
X106001757Y-84372624D01*
X106004050Y-84367984D01*
X106036827Y-84260105D01*
X106073462Y-84139527D01*
X106073463Y-84139521D01*
X106074966Y-84134575D01*
X106106807Y-83892717D01*
X106108584Y-83820000D01*
X106088596Y-83576876D01*
X106029167Y-83340280D01*
X105931894Y-83116568D01*
X105799390Y-82911748D01*
X105660465Y-82759071D01*
X105638690Y-82735141D01*
X105638688Y-82735140D01*
X105635212Y-82731319D01*
X105631161Y-82728120D01*
X105631157Y-82728116D01*
X105447825Y-82583329D01*
X105447821Y-82583327D01*
X105443770Y-82580127D01*
X105230205Y-82462233D01*
X105225336Y-82460509D01*
X105225332Y-82460507D01*
X105005127Y-82382528D01*
X105005123Y-82382527D01*
X105000252Y-82380802D01*
X104995159Y-82379895D01*
X104995156Y-82379894D01*
X104765177Y-82338928D01*
X104765171Y-82338927D01*
X104760088Y-82338022D01*
X104680380Y-82337048D01*
X104521332Y-82335105D01*
X104521330Y-82335105D01*
X104516162Y-82335042D01*
X104275024Y-82371941D01*
X104043150Y-82447729D01*
X104038558Y-82450119D01*
X104038559Y-82450119D01*
X103934546Y-82504265D01*
X103826769Y-82560370D01*
X103822636Y-82563473D01*
X103822633Y-82563475D01*
X103635825Y-82703735D01*
X103631690Y-82706840D01*
X103463153Y-82883204D01*
X103460239Y-82887476D01*
X103460238Y-82887477D01*
X103440719Y-82916091D01*
X103325684Y-83084726D01*
X103222974Y-83305995D01*
X103157783Y-83541067D01*
X103131860Y-83783631D01*
X91170226Y-83783631D01*
X91159040Y-83764256D01*
X91031253Y-83622334D01*
X90876752Y-83510082D01*
X90870724Y-83507398D01*
X90870722Y-83507397D01*
X90708319Y-83435091D01*
X90708318Y-83435091D01*
X90702288Y-83432406D01*
X90608887Y-83412553D01*
X90521944Y-83394072D01*
X90521939Y-83394072D01*
X90515487Y-83392700D01*
X90324513Y-83392700D01*
X90318061Y-83394072D01*
X90318056Y-83394072D01*
X90231113Y-83412553D01*
X90137712Y-83432406D01*
X90131682Y-83435091D01*
X90131681Y-83435091D01*
X89969278Y-83507397D01*
X89969276Y-83507398D01*
X89963248Y-83510082D01*
X89897559Y-83557808D01*
X89830694Y-83581665D01*
X89761542Y-83565585D01*
X89712062Y-83514672D01*
X89697500Y-83455871D01*
X89697500Y-80303767D01*
X89717502Y-80235646D01*
X89734405Y-80214672D01*
X90634307Y-79314770D01*
X90696619Y-79280744D01*
X90707394Y-79278886D01*
X90724361Y-79276713D01*
X90724366Y-79276712D01*
X90729494Y-79276055D01*
X90734443Y-79274570D01*
X90734449Y-79274569D01*
X90958200Y-79207440D01*
X90958199Y-79207440D01*
X90963150Y-79205955D01*
X91182219Y-79098634D01*
X91186424Y-79095634D01*
X91186430Y-79095631D01*
X91376614Y-78959974D01*
X91376616Y-78959972D01*
X91380818Y-78956975D01*
X91553614Y-78784781D01*
X91695966Y-78586677D01*
X91777214Y-78422284D01*
X91801756Y-78372626D01*
X91801757Y-78372624D01*
X91804050Y-78367984D01*
X91836827Y-78260105D01*
X91873462Y-78139527D01*
X91873463Y-78139521D01*
X91874966Y-78134575D01*
X91906807Y-77892717D01*
X91907958Y-77845624D01*
X91908502Y-77823365D01*
X91908502Y-77823361D01*
X91908584Y-77820000D01*
X91905594Y-77783631D01*
X101131860Y-77783631D01*
X101132157Y-77788783D01*
X101132157Y-77788787D01*
X101143558Y-77986499D01*
X101145903Y-78027171D01*
X101147040Y-78032217D01*
X101147041Y-78032223D01*
X101169200Y-78130549D01*
X101199533Y-78265147D01*
X101201475Y-78269929D01*
X101201476Y-78269933D01*
X101265066Y-78426536D01*
X101291311Y-78491169D01*
X101418772Y-78699166D01*
X101578492Y-78883553D01*
X101668642Y-78958397D01*
X101756928Y-79031693D01*
X101766183Y-79039377D01*
X101976804Y-79162453D01*
X102204698Y-79249478D01*
X102209764Y-79250509D01*
X102209765Y-79250509D01*
X102438667Y-79297080D01*
X102438671Y-79297080D01*
X102443746Y-79298113D01*
X102448922Y-79298303D01*
X102448924Y-79298303D01*
X102682363Y-79306863D01*
X102682367Y-79306863D01*
X102687527Y-79307052D01*
X102692647Y-79306396D01*
X102692649Y-79306396D01*
X102769377Y-79296567D01*
X102929494Y-79276055D01*
X102934443Y-79274570D01*
X102934449Y-79274569D01*
X103158200Y-79207440D01*
X103158199Y-79207440D01*
X103163150Y-79205955D01*
X103382219Y-79098634D01*
X103386424Y-79095634D01*
X103386430Y-79095631D01*
X103576614Y-78959974D01*
X103576616Y-78959972D01*
X103580818Y-78956975D01*
X103753614Y-78784781D01*
X103895966Y-78586677D01*
X103977214Y-78422284D01*
X104001756Y-78372626D01*
X104001757Y-78372624D01*
X104004050Y-78367984D01*
X104036827Y-78260105D01*
X104073462Y-78139527D01*
X104073463Y-78139521D01*
X104074966Y-78134575D01*
X104106807Y-77892717D01*
X104107958Y-77845624D01*
X104108502Y-77823365D01*
X104108502Y-77823361D01*
X104108584Y-77820000D01*
X104088596Y-77576876D01*
X104029167Y-77340280D01*
X103931894Y-77116568D01*
X103799390Y-76911748D01*
X103728668Y-76834025D01*
X103638690Y-76735141D01*
X103638688Y-76735140D01*
X103635212Y-76731319D01*
X103631161Y-76728120D01*
X103631157Y-76728116D01*
X103447825Y-76583329D01*
X103447821Y-76583327D01*
X103443770Y-76580127D01*
X103230205Y-76462233D01*
X103225336Y-76460509D01*
X103225332Y-76460507D01*
X103005127Y-76382528D01*
X103005123Y-76382527D01*
X103000252Y-76380802D01*
X102995159Y-76379895D01*
X102995156Y-76379894D01*
X102765177Y-76338928D01*
X102765171Y-76338927D01*
X102760088Y-76338022D01*
X102680380Y-76337048D01*
X102521332Y-76335105D01*
X102521330Y-76335105D01*
X102516162Y-76335042D01*
X102275024Y-76371941D01*
X102043150Y-76447729D01*
X101826769Y-76560370D01*
X101822636Y-76563473D01*
X101822633Y-76563475D01*
X101718012Y-76642027D01*
X101631690Y-76706840D01*
X101628118Y-76710578D01*
X101504140Y-76840314D01*
X101463153Y-76883204D01*
X101460239Y-76887476D01*
X101460238Y-76887477D01*
X101440719Y-76916091D01*
X101325684Y-77084726D01*
X101308705Y-77121305D01*
X101229335Y-77292292D01*
X101222974Y-77305995D01*
X101157783Y-77541067D01*
X101131860Y-77783631D01*
X91905594Y-77783631D01*
X91888596Y-77576876D01*
X91829167Y-77340280D01*
X91731894Y-77116568D01*
X91599390Y-76911748D01*
X91528668Y-76834025D01*
X91438690Y-76735141D01*
X91438688Y-76735140D01*
X91435212Y-76731319D01*
X91431161Y-76728120D01*
X91431157Y-76728116D01*
X91247825Y-76583329D01*
X91247821Y-76583327D01*
X91243770Y-76580127D01*
X91030205Y-76462233D01*
X91025336Y-76460509D01*
X91025332Y-76460507D01*
X90805127Y-76382528D01*
X90805123Y-76382527D01*
X90800252Y-76380802D01*
X90795159Y-76379895D01*
X90795156Y-76379894D01*
X90565177Y-76338928D01*
X90565171Y-76338927D01*
X90560088Y-76338022D01*
X90480380Y-76337048D01*
X90321332Y-76335105D01*
X90321330Y-76335105D01*
X90316162Y-76335042D01*
X90075024Y-76371941D01*
X89843150Y-76447729D01*
X89626769Y-76560370D01*
X89622636Y-76563473D01*
X89622633Y-76563475D01*
X89518012Y-76642027D01*
X89431690Y-76706840D01*
X89428118Y-76710578D01*
X89304140Y-76840314D01*
X89263153Y-76883204D01*
X89260239Y-76887476D01*
X89260238Y-76887477D01*
X89240719Y-76916091D01*
X89125684Y-77084726D01*
X89108705Y-77121305D01*
X89029335Y-77292292D01*
X89022974Y-77305995D01*
X88957783Y-77541067D01*
X88957586Y-77542910D01*
X88923346Y-77607577D01*
X87696752Y-78834171D01*
X87684361Y-78845038D01*
X87672140Y-78854415D01*
X87672136Y-78854419D01*
X87667689Y-78857831D01*
X87663914Y-78861980D01*
X87615098Y-78915628D01*
X87610999Y-78919924D01*
X87595758Y-78935165D01*
X87593957Y-78937318D01*
X87593956Y-78937320D01*
X87579740Y-78954322D01*
X87576279Y-78958289D01*
X87522503Y-79017389D01*
X87519520Y-79022144D01*
X87513529Y-79031693D01*
X87503459Y-79045553D01*
X87492630Y-79058505D01*
X87471454Y-79095631D01*
X87453038Y-79127917D01*
X87450342Y-79132422D01*
X87407866Y-79200135D01*
X87405772Y-79205345D01*
X87405771Y-79205346D01*
X87401569Y-79215799D01*
X87394110Y-79231228D01*
X87385747Y-79245891D01*
X87383876Y-79251174D01*
X87383873Y-79251181D01*
X87359070Y-79321224D01*
X87357215Y-79326132D01*
X87327403Y-79400293D01*
X87326264Y-79405791D01*
X87326264Y-79405792D01*
X87323978Y-79416830D01*
X87319373Y-79433326D01*
X87313736Y-79449244D01*
X87312830Y-79454778D01*
X87312829Y-79454781D01*
X87300826Y-79528083D01*
X87299864Y-79533274D01*
X87283656Y-79611537D01*
X87283390Y-79616148D01*
X87283390Y-79616149D01*
X87282132Y-79637966D01*
X87280685Y-79651071D01*
X87279828Y-79656305D01*
X87278874Y-79662134D01*
X87278962Y-79667748D01*
X87278962Y-79667750D01*
X87280484Y-79764635D01*
X87280500Y-79766614D01*
X87280500Y-95765833D01*
X87260498Y-95833954D01*
X87243595Y-95854928D01*
X85896328Y-97202195D01*
X85834016Y-97236221D01*
X85807233Y-97239100D01*
X59720485Y-97239100D01*
X59704039Y-97238022D01*
X59700974Y-97237619D01*
X59683211Y-97235280D01*
X59677611Y-97235544D01*
X59677610Y-97235544D01*
X59605176Y-97238960D01*
X59599241Y-97239100D01*
X59577665Y-97239100D01*
X59574881Y-97239348D01*
X59574869Y-97239349D01*
X59552797Y-97241319D01*
X59547534Y-97241678D01*
X59473335Y-97245177D01*
X59473331Y-97245178D01*
X59467724Y-97245442D01*
X59462249Y-97246696D01*
X59451267Y-97249211D01*
X59434337Y-97251892D01*
X59423119Y-97252893D01*
X59423118Y-97252893D01*
X59417528Y-97253392D01*
X59340431Y-97274484D01*
X59335334Y-97275764D01*
X59257443Y-97293603D01*
X59252285Y-97295803D01*
X59252276Y-97295806D01*
X59241919Y-97300224D01*
X59225732Y-97305861D01*
X59214856Y-97308836D01*
X59214851Y-97308838D01*
X59209448Y-97310316D01*
X59156451Y-97335595D01*
X59137312Y-97344723D01*
X59132503Y-97346894D01*
X59059014Y-97378240D01*
X59054326Y-97381319D01*
X59054323Y-97381321D01*
X59044906Y-97387507D01*
X59029972Y-97395922D01*
X59014737Y-97403189D01*
X59010182Y-97406462D01*
X59010172Y-97406468D01*
X58949856Y-97449810D01*
X58945506Y-97452800D01*
X58882568Y-97494142D01*
X58882564Y-97494145D01*
X58878708Y-97496678D01*
X58875266Y-97499745D01*
X58858940Y-97514291D01*
X58848645Y-97522538D01*
X58839549Y-97529074D01*
X58835644Y-97533104D01*
X58768152Y-97602750D01*
X58766763Y-97604160D01*
X57183357Y-99187566D01*
X57121045Y-99221592D01*
X57113329Y-99223019D01*
X57055024Y-99231941D01*
X56823150Y-99307729D01*
X56818558Y-99310119D01*
X56818559Y-99310119D01*
X56615556Y-99415796D01*
X56606769Y-99420370D01*
X56602636Y-99423473D01*
X56602633Y-99423475D01*
X56434987Y-99549348D01*
X56411690Y-99566840D01*
X56243153Y-99743204D01*
X56240239Y-99747476D01*
X56240238Y-99747477D01*
X56169933Y-99850540D01*
X56105684Y-99944726D01*
X56002974Y-100165995D01*
X55937783Y-100401067D01*
X55911860Y-100643631D01*
X44294600Y-100643631D01*
X44294600Y-87582730D01*
X44314602Y-87514609D01*
X44368258Y-87468116D01*
X44438532Y-87458012D01*
X44503112Y-87487506D01*
X44542306Y-87550118D01*
X44551453Y-87584254D01*
X44551457Y-87584264D01*
X44552880Y-87589576D01*
X44590132Y-87669464D01*
X44643618Y-87784166D01*
X44643621Y-87784171D01*
X44645944Y-87789153D01*
X44649100Y-87793660D01*
X44649101Y-87793662D01*
X44726207Y-87903780D01*
X44772251Y-87969538D01*
X44927962Y-88125249D01*
X44932471Y-88128406D01*
X44932473Y-88128408D01*
X45007241Y-88180761D01*
X45108346Y-88251556D01*
X45307924Y-88344620D01*
X45520629Y-88401615D01*
X45740000Y-88420807D01*
X45959371Y-88401615D01*
X46172076Y-88344620D01*
X46371654Y-88251556D01*
X46472759Y-88180761D01*
X46547527Y-88128408D01*
X46547529Y-88128406D01*
X46552038Y-88125249D01*
X46707749Y-87969538D01*
X46753794Y-87903780D01*
X46830899Y-87793662D01*
X46830900Y-87793660D01*
X46834056Y-87789153D01*
X46836379Y-87784171D01*
X46836382Y-87784166D01*
X46889868Y-87669464D01*
X46927120Y-87589576D01*
X46984115Y-87376871D01*
X47003307Y-87157500D01*
X46984115Y-86938129D01*
X46927120Y-86725424D01*
X46836801Y-86531733D01*
X46836382Y-86530834D01*
X46836379Y-86530829D01*
X46834056Y-86525847D01*
X46825877Y-86514166D01*
X46710908Y-86349973D01*
X46710906Y-86349970D01*
X46707749Y-86345462D01*
X46552038Y-86189751D01*
X46371654Y-86063444D01*
X46366672Y-86061121D01*
X46366667Y-86061118D01*
X46239232Y-86001695D01*
X46185947Y-85954778D01*
X46166486Y-85886501D01*
X46187028Y-85818541D01*
X46239232Y-85773305D01*
X46366667Y-85713882D01*
X46366672Y-85713879D01*
X46371654Y-85711556D01*
X46472759Y-85640761D01*
X46547527Y-85588408D01*
X46547529Y-85588406D01*
X46552038Y-85585249D01*
X46707749Y-85429538D01*
X46710908Y-85425027D01*
X46714284Y-85421004D01*
X46773395Y-85381681D01*
X46810802Y-85376000D01*
X46949954Y-85376000D01*
X47018075Y-85396002D01*
X47064568Y-85449658D01*
X47074672Y-85519932D01*
X47071661Y-85534611D01*
X47037308Y-85662816D01*
X47037307Y-85662823D01*
X47035885Y-85668129D01*
X47016693Y-85887500D01*
X47035885Y-86106871D01*
X47092880Y-86319576D01*
X47124733Y-86387885D01*
X47183618Y-86514166D01*
X47183621Y-86514171D01*
X47185944Y-86519153D01*
X47189100Y-86523660D01*
X47189101Y-86523662D01*
X47194753Y-86531733D01*
X47312251Y-86699538D01*
X47467962Y-86855249D01*
X47648346Y-86981556D01*
X47653328Y-86983879D01*
X47653333Y-86983882D01*
X47780768Y-87043305D01*
X47834053Y-87090222D01*
X47853514Y-87158499D01*
X47832972Y-87226459D01*
X47780768Y-87271695D01*
X47653334Y-87331118D01*
X47653329Y-87331121D01*
X47648347Y-87333444D01*
X47643840Y-87336600D01*
X47643838Y-87336601D01*
X47472473Y-87456592D01*
X47472470Y-87456594D01*
X47467962Y-87459751D01*
X47312251Y-87615462D01*
X47309094Y-87619970D01*
X47309092Y-87619973D01*
X47211143Y-87759859D01*
X47185944Y-87795847D01*
X47183621Y-87800829D01*
X47183618Y-87800834D01*
X47144415Y-87884906D01*
X47092880Y-87995424D01*
X47035885Y-88208129D01*
X47016693Y-88427500D01*
X47035885Y-88646871D01*
X47092880Y-88859576D01*
X47115424Y-88907922D01*
X47183618Y-89054166D01*
X47183621Y-89054171D01*
X47185944Y-89059153D01*
X47312251Y-89239538D01*
X47467962Y-89395249D01*
X47648346Y-89521556D01*
X47847924Y-89614620D01*
X48060629Y-89671615D01*
X48280000Y-89690807D01*
X48499371Y-89671615D01*
X48712076Y-89614620D01*
X48911654Y-89521556D01*
X49092038Y-89395249D01*
X49247749Y-89239538D01*
X49374056Y-89059153D01*
X49376379Y-89054171D01*
X49376382Y-89054166D01*
X49444576Y-88907922D01*
X49467120Y-88859576D01*
X49524115Y-88646871D01*
X49543307Y-88427500D01*
X49524115Y-88208129D01*
X49467120Y-87995424D01*
X49415585Y-87884906D01*
X49376382Y-87800834D01*
X49376379Y-87800829D01*
X49374056Y-87795847D01*
X49348857Y-87759859D01*
X49250908Y-87619973D01*
X49250906Y-87619970D01*
X49247749Y-87615462D01*
X49092038Y-87459751D01*
X48911654Y-87333444D01*
X48906672Y-87331121D01*
X48906667Y-87331118D01*
X48779232Y-87271695D01*
X48725947Y-87224778D01*
X48706486Y-87156501D01*
X48727028Y-87088541D01*
X48779232Y-87043305D01*
X48906667Y-86983882D01*
X48906672Y-86983879D01*
X48911654Y-86981556D01*
X49092038Y-86855249D01*
X49247749Y-86699538D01*
X49365248Y-86531733D01*
X49370899Y-86523662D01*
X49370900Y-86523660D01*
X49374056Y-86519153D01*
X49376379Y-86514171D01*
X49376382Y-86514166D01*
X49435267Y-86387885D01*
X49467120Y-86319576D01*
X49524115Y-86106871D01*
X49543307Y-85887500D01*
X49524115Y-85668129D01*
X49522693Y-85662823D01*
X49522692Y-85662816D01*
X49488339Y-85534611D01*
X49490029Y-85463635D01*
X49529823Y-85404839D01*
X49595087Y-85376891D01*
X49610046Y-85376000D01*
X51489430Y-85376000D01*
X51508380Y-85377433D01*
X51522615Y-85379599D01*
X51522619Y-85379599D01*
X51529849Y-85380699D01*
X51537141Y-85380106D01*
X51537144Y-85380106D01*
X51582518Y-85376415D01*
X51592733Y-85376000D01*
X51600793Y-85376000D01*
X51614083Y-85374451D01*
X51629007Y-85372711D01*
X51633382Y-85372278D01*
X51698839Y-85366954D01*
X51698842Y-85366953D01*
X51706137Y-85366360D01*
X51713101Y-85364104D01*
X51719060Y-85362913D01*
X51724915Y-85361529D01*
X51732181Y-85360682D01*
X51800827Y-85335765D01*
X51804955Y-85334348D01*
X51867436Y-85314107D01*
X51867438Y-85314106D01*
X51874399Y-85311851D01*
X51880654Y-85308055D01*
X51886128Y-85305549D01*
X51891558Y-85302830D01*
X51898437Y-85300333D01*
X51935467Y-85276055D01*
X51959476Y-85260314D01*
X51963180Y-85257977D01*
X52025607Y-85220095D01*
X52033984Y-85212697D01*
X52034008Y-85212724D01*
X52037000Y-85210071D01*
X52040233Y-85207368D01*
X52046352Y-85203356D01*
X52099628Y-85147117D01*
X52102006Y-85144675D01*
X62158547Y-75088134D01*
X122651500Y-75088134D01*
X122658255Y-75150316D01*
X122709385Y-75286705D01*
X122796739Y-75403261D01*
X122913295Y-75490615D01*
X123049684Y-75541745D01*
X123111866Y-75548500D01*
X125808134Y-75548500D01*
X125870316Y-75541745D01*
X126006705Y-75490615D01*
X126123261Y-75403261D01*
X126210615Y-75286705D01*
X126261745Y-75150316D01*
X126268500Y-75088134D01*
X126268500Y-72391866D01*
X126261745Y-72329684D01*
X126210615Y-72193295D01*
X126123261Y-72076739D01*
X126006705Y-71989385D01*
X125870316Y-71938255D01*
X125808134Y-71931500D01*
X123111866Y-71931500D01*
X123049684Y-71938255D01*
X122913295Y-71989385D01*
X122796739Y-72076739D01*
X122709385Y-72193295D01*
X122658255Y-72329684D01*
X122651500Y-72391866D01*
X122651500Y-75088134D01*
X62158547Y-75088134D01*
X67061775Y-70184906D01*
X123379839Y-70184906D01*
X123388553Y-70196427D01*
X123495452Y-70274809D01*
X123503351Y-70279745D01*
X123732905Y-70400519D01*
X123741454Y-70404236D01*
X123986327Y-70489749D01*
X123995336Y-70492163D01*
X124250166Y-70540544D01*
X124259423Y-70541598D01*
X124518607Y-70551783D01*
X124527921Y-70551457D01*
X124785753Y-70523220D01*
X124794930Y-70521519D01*
X125045758Y-70455481D01*
X125054574Y-70452445D01*
X125292880Y-70350062D01*
X125301167Y-70345748D01*
X125521718Y-70209266D01*
X125529268Y-70203780D01*
X125534559Y-70199301D01*
X125542997Y-70186497D01*
X125536935Y-70176145D01*
X124472812Y-69112022D01*
X124458868Y-69104408D01*
X124457035Y-69104539D01*
X124450420Y-69108790D01*
X123386497Y-70172713D01*
X123379839Y-70184906D01*
X67061775Y-70184906D01*
X68549470Y-68697211D01*
X122647775Y-68697211D01*
X122660220Y-68956288D01*
X122661356Y-68965543D01*
X122711961Y-69219945D01*
X122714449Y-69228917D01*
X122802095Y-69473033D01*
X122805895Y-69481568D01*
X122928658Y-69710042D01*
X122933666Y-69717904D01*
X123003720Y-69811716D01*
X123014979Y-69820165D01*
X123027397Y-69813393D01*
X124087978Y-68752812D01*
X124094356Y-68741132D01*
X124824408Y-68741132D01*
X124824539Y-68742965D01*
X124828790Y-68749580D01*
X125896094Y-69816884D01*
X125908474Y-69823644D01*
X125916815Y-69817400D01*
X126050832Y-69609048D01*
X126055275Y-69600864D01*
X126161807Y-69364370D01*
X126164997Y-69355605D01*
X126235402Y-69105972D01*
X126237262Y-69096830D01*
X126270187Y-68838019D01*
X126270668Y-68831733D01*
X126272987Y-68743160D01*
X126272836Y-68736851D01*
X126253501Y-68476663D01*
X126252125Y-68467457D01*
X126194878Y-68214467D01*
X126192154Y-68205556D01*
X126098143Y-67963806D01*
X126094132Y-67955397D01*
X125965422Y-67730202D01*
X125960211Y-67722476D01*
X125916996Y-67667658D01*
X125905071Y-67659187D01*
X125893537Y-67665673D01*
X124832022Y-68727188D01*
X124824408Y-68741132D01*
X124094356Y-68741132D01*
X124095592Y-68738868D01*
X124095461Y-68737035D01*
X124091210Y-68730420D01*
X123025816Y-67665026D01*
X123012507Y-67657758D01*
X123002472Y-67664878D01*
X122986937Y-67683556D01*
X122981531Y-67691135D01*
X122846965Y-67912891D01*
X122842736Y-67921192D01*
X122742432Y-68160389D01*
X122739471Y-68169239D01*
X122675628Y-68420625D01*
X122674006Y-68429822D01*
X122648020Y-68687885D01*
X122647775Y-68697211D01*
X68549470Y-68697211D01*
X69742631Y-67504050D01*
X69805528Y-67469899D01*
X69862124Y-67457869D01*
X69862133Y-67457866D01*
X69868588Y-67456494D01*
X69874619Y-67453809D01*
X70037022Y-67381503D01*
X70037024Y-67381502D01*
X70043052Y-67378818D01*
X70197553Y-67266566D01*
X70325340Y-67124644D01*
X70411002Y-66976274D01*
X70417523Y-66964979D01*
X70417524Y-66964978D01*
X70420827Y-66959256D01*
X70432402Y-66923631D01*
X88931860Y-66923631D01*
X88932157Y-66928783D01*
X88932157Y-66928787D01*
X88938595Y-67040439D01*
X88945903Y-67167171D01*
X88947040Y-67172217D01*
X88947041Y-67172223D01*
X88974654Y-67294751D01*
X88999533Y-67405147D01*
X89001475Y-67409929D01*
X89001476Y-67409933D01*
X89089367Y-67626382D01*
X89091311Y-67631169D01*
X89218772Y-67839166D01*
X89378492Y-68023553D01*
X89566183Y-68179377D01*
X89776804Y-68302453D01*
X90004698Y-68389478D01*
X90009764Y-68390509D01*
X90009765Y-68390509D01*
X90238667Y-68437080D01*
X90238671Y-68437080D01*
X90243746Y-68438113D01*
X90248922Y-68438303D01*
X90248924Y-68438303D01*
X90482363Y-68446863D01*
X90482367Y-68446863D01*
X90487527Y-68447052D01*
X90492647Y-68446396D01*
X90492649Y-68446396D01*
X90569377Y-68436567D01*
X90729494Y-68416055D01*
X90734443Y-68414570D01*
X90734449Y-68414569D01*
X90958200Y-68347440D01*
X90958199Y-68347440D01*
X90963150Y-68345955D01*
X91182219Y-68238634D01*
X91186424Y-68235634D01*
X91186430Y-68235631D01*
X91376614Y-68099974D01*
X91376616Y-68099972D01*
X91380818Y-68096975D01*
X91553614Y-67924781D01*
X91695966Y-67726677D01*
X91729322Y-67659187D01*
X91801756Y-67512626D01*
X91801757Y-67512624D01*
X91804050Y-67507984D01*
X91836827Y-67400105D01*
X91873462Y-67279527D01*
X91873463Y-67279521D01*
X91874966Y-67274575D01*
X91895457Y-67118926D01*
X91906370Y-67036038D01*
X91906370Y-67036034D01*
X91906807Y-67032717D01*
X91908133Y-66978450D01*
X91908502Y-66963365D01*
X91908502Y-66963361D01*
X91908584Y-66960000D01*
X91905594Y-66923631D01*
X101131860Y-66923631D01*
X101132157Y-66928783D01*
X101132157Y-66928787D01*
X101138595Y-67040439D01*
X101145903Y-67167171D01*
X101147040Y-67172217D01*
X101147041Y-67172223D01*
X101174654Y-67294751D01*
X101199533Y-67405147D01*
X101201475Y-67409929D01*
X101201476Y-67409933D01*
X101289367Y-67626382D01*
X101291311Y-67631169D01*
X101418772Y-67839166D01*
X101578492Y-68023553D01*
X101766183Y-68179377D01*
X101976804Y-68302453D01*
X102204698Y-68389478D01*
X102209764Y-68390509D01*
X102209765Y-68390509D01*
X102438667Y-68437080D01*
X102438671Y-68437080D01*
X102443746Y-68438113D01*
X102448922Y-68438303D01*
X102448924Y-68438303D01*
X102682363Y-68446863D01*
X102682367Y-68446863D01*
X102687527Y-68447052D01*
X102692647Y-68446396D01*
X102692649Y-68446396D01*
X102769377Y-68436567D01*
X102929494Y-68416055D01*
X102934443Y-68414570D01*
X102934449Y-68414569D01*
X103158200Y-68347440D01*
X103158199Y-68347440D01*
X103163150Y-68345955D01*
X103382219Y-68238634D01*
X103386424Y-68235634D01*
X103386430Y-68235631D01*
X103576614Y-68099974D01*
X103576616Y-68099972D01*
X103580818Y-68096975D01*
X103753614Y-67924781D01*
X103895966Y-67726677D01*
X103929322Y-67659187D01*
X104001756Y-67512626D01*
X104001757Y-67512624D01*
X104004050Y-67507984D01*
X104036827Y-67400105D01*
X104069463Y-67292689D01*
X123377102Y-67292689D01*
X123381675Y-67302465D01*
X124447188Y-68367978D01*
X124461132Y-68375592D01*
X124462965Y-68375461D01*
X124469580Y-68371210D01*
X125534349Y-67306441D01*
X125540733Y-67294751D01*
X125531321Y-67282641D01*
X125384045Y-67180471D01*
X125376010Y-67175738D01*
X125143376Y-67061016D01*
X125134743Y-67057528D01*
X124887703Y-66978450D01*
X124878643Y-66976274D01*
X124622630Y-66934580D01*
X124613343Y-66933768D01*
X124353992Y-66930373D01*
X124344681Y-66930943D01*
X124087682Y-66965919D01*
X124078546Y-66967860D01*
X123829543Y-67040439D01*
X123820800Y-67043707D01*
X123585252Y-67152296D01*
X123577097Y-67156816D01*
X123386240Y-67281947D01*
X123377102Y-67292689D01*
X104069463Y-67292689D01*
X104073462Y-67279527D01*
X104073463Y-67279521D01*
X104074966Y-67274575D01*
X104095457Y-67118926D01*
X104106370Y-67036038D01*
X104106370Y-67036034D01*
X104106807Y-67032717D01*
X104108133Y-66978450D01*
X104108502Y-66963365D01*
X104108502Y-66963361D01*
X104108584Y-66960000D01*
X104088596Y-66716876D01*
X104029167Y-66480280D01*
X103931894Y-66256568D01*
X103850893Y-66131360D01*
X103802200Y-66056091D01*
X103802198Y-66056088D01*
X103799390Y-66051748D01*
X103794022Y-66045848D01*
X103638690Y-65875141D01*
X103638688Y-65875140D01*
X103635212Y-65871319D01*
X103631161Y-65868120D01*
X103631157Y-65868116D01*
X103447825Y-65723329D01*
X103447821Y-65723327D01*
X103443770Y-65720127D01*
X103230205Y-65602233D01*
X103225336Y-65600509D01*
X103225332Y-65600507D01*
X103005127Y-65522528D01*
X103005123Y-65522527D01*
X103000252Y-65520802D01*
X102995159Y-65519895D01*
X102995156Y-65519894D01*
X102765177Y-65478928D01*
X102765171Y-65478927D01*
X102760088Y-65478022D01*
X102680380Y-65477048D01*
X102521332Y-65475105D01*
X102521330Y-65475105D01*
X102516162Y-65475042D01*
X102275024Y-65511941D01*
X102043150Y-65587729D01*
X102038558Y-65590119D01*
X102038559Y-65590119D01*
X101864801Y-65680572D01*
X101826769Y-65700370D01*
X101822636Y-65703473D01*
X101822633Y-65703475D01*
X101702203Y-65793897D01*
X101631690Y-65846840D01*
X101463153Y-66023204D01*
X101460239Y-66027476D01*
X101460238Y-66027477D01*
X101440719Y-66056091D01*
X101325684Y-66224726D01*
X101308705Y-66261305D01*
X101228011Y-66435144D01*
X101222974Y-66445995D01*
X101157783Y-66681067D01*
X101131860Y-66923631D01*
X91905594Y-66923631D01*
X91888596Y-66716876D01*
X91829167Y-66480280D01*
X91731894Y-66256568D01*
X91650893Y-66131360D01*
X91602200Y-66056091D01*
X91602198Y-66056088D01*
X91599390Y-66051748D01*
X91594022Y-66045848D01*
X91438690Y-65875141D01*
X91438688Y-65875140D01*
X91435212Y-65871319D01*
X91431161Y-65868120D01*
X91431157Y-65868116D01*
X91247825Y-65723329D01*
X91247821Y-65723327D01*
X91243770Y-65720127D01*
X91030205Y-65602233D01*
X91025336Y-65600509D01*
X91025332Y-65600507D01*
X90805127Y-65522528D01*
X90805123Y-65522527D01*
X90800252Y-65520802D01*
X90795159Y-65519895D01*
X90795156Y-65519894D01*
X90565177Y-65478928D01*
X90565171Y-65478927D01*
X90560088Y-65478022D01*
X90480380Y-65477048D01*
X90321332Y-65475105D01*
X90321330Y-65475105D01*
X90316162Y-65475042D01*
X90075024Y-65511941D01*
X89843150Y-65587729D01*
X89838558Y-65590119D01*
X89838559Y-65590119D01*
X89664801Y-65680572D01*
X89626769Y-65700370D01*
X89622636Y-65703473D01*
X89622633Y-65703475D01*
X89502203Y-65793897D01*
X89431690Y-65846840D01*
X89263153Y-66023204D01*
X89260239Y-66027476D01*
X89260238Y-66027477D01*
X89240719Y-66056091D01*
X89125684Y-66224726D01*
X89108705Y-66261305D01*
X89028011Y-66435144D01*
X89022974Y-66445995D01*
X88957783Y-66681067D01*
X88931860Y-66923631D01*
X70432402Y-66923631D01*
X70479842Y-66777628D01*
X70499804Y-66587700D01*
X70485434Y-66450979D01*
X70480532Y-66404335D01*
X70480532Y-66404333D01*
X70479842Y-66397772D01*
X70420827Y-66216144D01*
X70325340Y-66050756D01*
X70197553Y-65908834D01*
X70043052Y-65796582D01*
X70037024Y-65793898D01*
X70037022Y-65793897D01*
X69874619Y-65721591D01*
X69874618Y-65721591D01*
X69868588Y-65718906D01*
X69770144Y-65697981D01*
X69688244Y-65680572D01*
X69688239Y-65680572D01*
X69681787Y-65679200D01*
X69490813Y-65679200D01*
X69484361Y-65680572D01*
X69484356Y-65680572D01*
X69402456Y-65697981D01*
X69304012Y-65718906D01*
X69297982Y-65721591D01*
X69297981Y-65721591D01*
X69135578Y-65793897D01*
X69135576Y-65793898D01*
X69129548Y-65796582D01*
X68975047Y-65908834D01*
X68847260Y-66050756D01*
X68751773Y-66216144D01*
X68749731Y-66222429D01*
X68696913Y-66384985D01*
X68666175Y-66435144D01*
X51279224Y-83822095D01*
X51216912Y-83856121D01*
X51190129Y-83859000D01*
X49610046Y-83859000D01*
X49541925Y-83838998D01*
X49495432Y-83785342D01*
X49485328Y-83715068D01*
X49488339Y-83700389D01*
X49522692Y-83572184D01*
X49522693Y-83572177D01*
X49524115Y-83566871D01*
X49543307Y-83347500D01*
X49539676Y-83305995D01*
X49533092Y-83230739D01*
X49547081Y-83161135D01*
X49569518Y-83130663D01*
X71688611Y-61011570D01*
X71703023Y-60999184D01*
X71714618Y-60990651D01*
X71714623Y-60990646D01*
X71720518Y-60986308D01*
X71725257Y-60980730D01*
X71725260Y-60980727D01*
X71754735Y-60946032D01*
X71761665Y-60938516D01*
X71767361Y-60932820D01*
X71769624Y-60929959D01*
X71769629Y-60929954D01*
X71774631Y-60923631D01*
X103131860Y-60923631D01*
X103132157Y-60928783D01*
X103132157Y-60928787D01*
X103141819Y-61096349D01*
X103145903Y-61167171D01*
X103147040Y-61172217D01*
X103147041Y-61172223D01*
X103170107Y-61274575D01*
X103199533Y-61405147D01*
X103201475Y-61409929D01*
X103201476Y-61409933D01*
X103289367Y-61626382D01*
X103291311Y-61631169D01*
X103418772Y-61839166D01*
X103578492Y-62023553D01*
X103766183Y-62179377D01*
X103976804Y-62302453D01*
X104204698Y-62389478D01*
X104209764Y-62390509D01*
X104209765Y-62390509D01*
X104438667Y-62437080D01*
X104438671Y-62437080D01*
X104443746Y-62438113D01*
X104448922Y-62438303D01*
X104448924Y-62438303D01*
X104682363Y-62446863D01*
X104682367Y-62446863D01*
X104687527Y-62447052D01*
X104692647Y-62446396D01*
X104692649Y-62446396D01*
X104769377Y-62436567D01*
X104929494Y-62416055D01*
X104934443Y-62414570D01*
X104934449Y-62414569D01*
X105134337Y-62354599D01*
X105163150Y-62345955D01*
X105382219Y-62238634D01*
X105386424Y-62235634D01*
X105386430Y-62235631D01*
X105576614Y-62099974D01*
X105576616Y-62099972D01*
X105580818Y-62096975D01*
X105753614Y-61924781D01*
X105895966Y-61726677D01*
X105947818Y-61621763D01*
X106001756Y-61512626D01*
X106001757Y-61512624D01*
X106004050Y-61507984D01*
X106048988Y-61360079D01*
X106073462Y-61279527D01*
X106073463Y-61279521D01*
X106074966Y-61274575D01*
X106106807Y-61032717D01*
X106107489Y-61004826D01*
X106108502Y-60963365D01*
X106108502Y-60963361D01*
X106108584Y-60960000D01*
X106088596Y-60716876D01*
X106035622Y-60505978D01*
X106030426Y-60485292D01*
X106030426Y-60485291D01*
X106029167Y-60480280D01*
X105931894Y-60256568D01*
X105839416Y-60113619D01*
X105802200Y-60056091D01*
X105802198Y-60056088D01*
X105799390Y-60051748D01*
X105635212Y-59871319D01*
X105631161Y-59868120D01*
X105631157Y-59868116D01*
X105447825Y-59723329D01*
X105447821Y-59723327D01*
X105443770Y-59720127D01*
X105230205Y-59602233D01*
X105225336Y-59600509D01*
X105225332Y-59600507D01*
X105005127Y-59522528D01*
X105005123Y-59522527D01*
X105000252Y-59520802D01*
X104995159Y-59519895D01*
X104995156Y-59519894D01*
X104765177Y-59478928D01*
X104765171Y-59478927D01*
X104760088Y-59478022D01*
X104680380Y-59477048D01*
X104521332Y-59475105D01*
X104521330Y-59475105D01*
X104516162Y-59475042D01*
X104275024Y-59511941D01*
X104043150Y-59587729D01*
X104038558Y-59590119D01*
X104038559Y-59590119D01*
X103914368Y-59654769D01*
X103826769Y-59700370D01*
X103822636Y-59703473D01*
X103822633Y-59703475D01*
X103635825Y-59843735D01*
X103631690Y-59846840D01*
X103463153Y-60023204D01*
X103460239Y-60027476D01*
X103460238Y-60027477D01*
X103437388Y-60060974D01*
X103325684Y-60224726D01*
X103308705Y-60261305D01*
X103267644Y-60349763D01*
X103222974Y-60445995D01*
X103157783Y-60681067D01*
X103131860Y-60923631D01*
X71774631Y-60923631D01*
X71784985Y-60910544D01*
X71787774Y-60907142D01*
X71830296Y-60857091D01*
X71830297Y-60857090D01*
X71835033Y-60851515D01*
X71838361Y-60844998D01*
X71841727Y-60839950D01*
X71844890Y-60834828D01*
X71849435Y-60829084D01*
X71880364Y-60762905D01*
X71882263Y-60759021D01*
X71915469Y-60693992D01*
X71917210Y-60686877D01*
X71919313Y-60681222D01*
X71921222Y-60675483D01*
X71924322Y-60668850D01*
X71939191Y-60597365D01*
X71940161Y-60593082D01*
X71947014Y-60565077D01*
X71957508Y-60522190D01*
X71958200Y-60511036D01*
X71958235Y-60511038D01*
X71958475Y-60507066D01*
X71958852Y-60502845D01*
X71960341Y-60495685D01*
X71958246Y-60418258D01*
X71958200Y-60414850D01*
X71958200Y-57228134D01*
X122651500Y-57228134D01*
X122658255Y-57290316D01*
X122709385Y-57426705D01*
X122796739Y-57543261D01*
X122913295Y-57630615D01*
X123049684Y-57681745D01*
X123111866Y-57688500D01*
X125808134Y-57688500D01*
X125870316Y-57681745D01*
X126006705Y-57630615D01*
X126123261Y-57543261D01*
X126210615Y-57426705D01*
X126261745Y-57290316D01*
X126268500Y-57228134D01*
X126268500Y-54531866D01*
X126261745Y-54469684D01*
X126210615Y-54333295D01*
X126123261Y-54216739D01*
X126006705Y-54129385D01*
X125870316Y-54078255D01*
X125808134Y-54071500D01*
X123111866Y-54071500D01*
X123049684Y-54078255D01*
X122913295Y-54129385D01*
X122796739Y-54216739D01*
X122709385Y-54333295D01*
X122658255Y-54469684D01*
X122651500Y-54531866D01*
X122651500Y-57228134D01*
X71958200Y-57228134D01*
X71958200Y-54923631D01*
X88931860Y-54923631D01*
X88932157Y-54928783D01*
X88932157Y-54928787D01*
X88943558Y-55126499D01*
X88945903Y-55167171D01*
X88947040Y-55172217D01*
X88947041Y-55172223D01*
X88970107Y-55274575D01*
X88999533Y-55405147D01*
X89001475Y-55409929D01*
X89001476Y-55409933D01*
X89089212Y-55626000D01*
X89091311Y-55631169D01*
X89218772Y-55839166D01*
X89378492Y-56023553D01*
X89566183Y-56179377D01*
X89776804Y-56302453D01*
X90004698Y-56389478D01*
X90009764Y-56390509D01*
X90009765Y-56390509D01*
X90238667Y-56437080D01*
X90238671Y-56437080D01*
X90243746Y-56438113D01*
X90248922Y-56438303D01*
X90248924Y-56438303D01*
X90482363Y-56446863D01*
X90482367Y-56446863D01*
X90487527Y-56447052D01*
X90492647Y-56446396D01*
X90492649Y-56446396D01*
X90569377Y-56436567D01*
X90729494Y-56416055D01*
X90734443Y-56414570D01*
X90734449Y-56414569D01*
X90958200Y-56347440D01*
X90958199Y-56347440D01*
X90963150Y-56345955D01*
X91182219Y-56238634D01*
X91186424Y-56235634D01*
X91186430Y-56235631D01*
X91376614Y-56099974D01*
X91376616Y-56099972D01*
X91380818Y-56096975D01*
X91553614Y-55924781D01*
X91695966Y-55726677D01*
X91745724Y-55626000D01*
X91801756Y-55512626D01*
X91801757Y-55512624D01*
X91804050Y-55507984D01*
X91836827Y-55400105D01*
X91873462Y-55279527D01*
X91873463Y-55279521D01*
X91874966Y-55274575D01*
X91906807Y-55032717D01*
X91908584Y-54960000D01*
X91905594Y-54923631D01*
X101131860Y-54923631D01*
X101132157Y-54928783D01*
X101132157Y-54928787D01*
X101143558Y-55126499D01*
X101145903Y-55167171D01*
X101147040Y-55172217D01*
X101147041Y-55172223D01*
X101170107Y-55274575D01*
X101199533Y-55405147D01*
X101201475Y-55409929D01*
X101201476Y-55409933D01*
X101289212Y-55626000D01*
X101291311Y-55631169D01*
X101418772Y-55839166D01*
X101578492Y-56023553D01*
X101766183Y-56179377D01*
X101976804Y-56302453D01*
X102204698Y-56389478D01*
X102209764Y-56390509D01*
X102209765Y-56390509D01*
X102438667Y-56437080D01*
X102438671Y-56437080D01*
X102443746Y-56438113D01*
X102448922Y-56438303D01*
X102448924Y-56438303D01*
X102682363Y-56446863D01*
X102682367Y-56446863D01*
X102687527Y-56447052D01*
X102692647Y-56446396D01*
X102692649Y-56446396D01*
X102769377Y-56436567D01*
X102929494Y-56416055D01*
X102934443Y-56414570D01*
X102934449Y-56414569D01*
X103158200Y-56347440D01*
X103158199Y-56347440D01*
X103163150Y-56345955D01*
X103382219Y-56238634D01*
X103386424Y-56235634D01*
X103386430Y-56235631D01*
X103576614Y-56099974D01*
X103576616Y-56099972D01*
X103580818Y-56096975D01*
X103753614Y-55924781D01*
X103895966Y-55726677D01*
X103945724Y-55626000D01*
X104001756Y-55512626D01*
X104001757Y-55512624D01*
X104004050Y-55507984D01*
X104036827Y-55400105D01*
X104073462Y-55279527D01*
X104073463Y-55279521D01*
X104074966Y-55274575D01*
X104106807Y-55032717D01*
X104108584Y-54960000D01*
X104088596Y-54716876D01*
X104029167Y-54480280D01*
X103931894Y-54256568D01*
X103847577Y-54126233D01*
X103802200Y-54056091D01*
X103802198Y-54056088D01*
X103799390Y-54051748D01*
X103635212Y-53871319D01*
X103631161Y-53868120D01*
X103631157Y-53868116D01*
X103447825Y-53723329D01*
X103447821Y-53723327D01*
X103443770Y-53720127D01*
X103230205Y-53602233D01*
X103225336Y-53600509D01*
X103225332Y-53600507D01*
X103005127Y-53522528D01*
X103005123Y-53522527D01*
X103000252Y-53520802D01*
X102995159Y-53519895D01*
X102995156Y-53519894D01*
X102765177Y-53478928D01*
X102765171Y-53478927D01*
X102760088Y-53478022D01*
X102680380Y-53477048D01*
X102521332Y-53475105D01*
X102521330Y-53475105D01*
X102516162Y-53475042D01*
X102275024Y-53511941D01*
X102043150Y-53587729D01*
X101826769Y-53700370D01*
X101822636Y-53703473D01*
X101822633Y-53703475D01*
X101635825Y-53843735D01*
X101631690Y-53846840D01*
X101463153Y-54023204D01*
X101460239Y-54027476D01*
X101460238Y-54027477D01*
X101428726Y-54073672D01*
X101325684Y-54224726D01*
X101222974Y-54445995D01*
X101157783Y-54681067D01*
X101131860Y-54923631D01*
X91905594Y-54923631D01*
X91888596Y-54716876D01*
X91829167Y-54480280D01*
X91731894Y-54256568D01*
X91647577Y-54126233D01*
X91602200Y-54056091D01*
X91602198Y-54056088D01*
X91599390Y-54051748D01*
X91435212Y-53871319D01*
X91431161Y-53868120D01*
X91431157Y-53868116D01*
X91247825Y-53723329D01*
X91247821Y-53723327D01*
X91243770Y-53720127D01*
X91030205Y-53602233D01*
X91025336Y-53600509D01*
X91025332Y-53600507D01*
X90805127Y-53522528D01*
X90805123Y-53522527D01*
X90800252Y-53520802D01*
X90795159Y-53519895D01*
X90795156Y-53519894D01*
X90565177Y-53478928D01*
X90565171Y-53478927D01*
X90560088Y-53478022D01*
X90480380Y-53477048D01*
X90321332Y-53475105D01*
X90321330Y-53475105D01*
X90316162Y-53475042D01*
X90075024Y-53511941D01*
X89843150Y-53587729D01*
X89626769Y-53700370D01*
X89622636Y-53703473D01*
X89622633Y-53703475D01*
X89435825Y-53843735D01*
X89431690Y-53846840D01*
X89263153Y-54023204D01*
X89260239Y-54027476D01*
X89260238Y-54027477D01*
X89228726Y-54073672D01*
X89125684Y-54224726D01*
X89022974Y-54445995D01*
X88957783Y-54681067D01*
X88931860Y-54923631D01*
X71958200Y-54923631D01*
X71958200Y-52324906D01*
X123379839Y-52324906D01*
X123388553Y-52336427D01*
X123495452Y-52414809D01*
X123503351Y-52419745D01*
X123732905Y-52540519D01*
X123741454Y-52544236D01*
X123986327Y-52629749D01*
X123995336Y-52632163D01*
X124250166Y-52680544D01*
X124259423Y-52681598D01*
X124518607Y-52691783D01*
X124527921Y-52691457D01*
X124785753Y-52663220D01*
X124794930Y-52661519D01*
X125045758Y-52595481D01*
X125054574Y-52592445D01*
X125292880Y-52490062D01*
X125301167Y-52485748D01*
X125521718Y-52349266D01*
X125529268Y-52343780D01*
X125534559Y-52339301D01*
X125542997Y-52326497D01*
X125536935Y-52316145D01*
X124472812Y-51252022D01*
X124458868Y-51244408D01*
X124457035Y-51244539D01*
X124450420Y-51248790D01*
X123386497Y-52312713D01*
X123379839Y-52324906D01*
X71958200Y-52324906D01*
X71958200Y-50837211D01*
X122647775Y-50837211D01*
X122660220Y-51096288D01*
X122661356Y-51105543D01*
X122711961Y-51359945D01*
X122714449Y-51368917D01*
X122802095Y-51613033D01*
X122805895Y-51621568D01*
X122928658Y-51850042D01*
X122933666Y-51857904D01*
X123003720Y-51951716D01*
X123014979Y-51960165D01*
X123027397Y-51953393D01*
X124087978Y-50892812D01*
X124094356Y-50881132D01*
X124824408Y-50881132D01*
X124824539Y-50882965D01*
X124828790Y-50889580D01*
X125896094Y-51956884D01*
X125908474Y-51963644D01*
X125916815Y-51957400D01*
X126050832Y-51749048D01*
X126055275Y-51740864D01*
X126161807Y-51504370D01*
X126164997Y-51495605D01*
X126235402Y-51245972D01*
X126237262Y-51236830D01*
X126270187Y-50978019D01*
X126270668Y-50971733D01*
X126272987Y-50883160D01*
X126272836Y-50876851D01*
X126253501Y-50616663D01*
X126252125Y-50607457D01*
X126194878Y-50354467D01*
X126192154Y-50345556D01*
X126098143Y-50103806D01*
X126094132Y-50095397D01*
X125965422Y-49870202D01*
X125960211Y-49862476D01*
X125916996Y-49807658D01*
X125905071Y-49799187D01*
X125893537Y-49805673D01*
X124832022Y-50867188D01*
X124824408Y-50881132D01*
X124094356Y-50881132D01*
X124095592Y-50878868D01*
X124095461Y-50877035D01*
X124091210Y-50870420D01*
X123025816Y-49805026D01*
X123012507Y-49797758D01*
X123002472Y-49804878D01*
X122986937Y-49823556D01*
X122981531Y-49831135D01*
X122846965Y-50052891D01*
X122842736Y-50061192D01*
X122742432Y-50300389D01*
X122739471Y-50309239D01*
X122675628Y-50560625D01*
X122674006Y-50569822D01*
X122648020Y-50827885D01*
X122647775Y-50837211D01*
X71958200Y-50837211D01*
X71958200Y-49432689D01*
X123377102Y-49432689D01*
X123381675Y-49442465D01*
X124447188Y-50507978D01*
X124461132Y-50515592D01*
X124462965Y-50515461D01*
X124469580Y-50511210D01*
X125534349Y-49446441D01*
X125540733Y-49434751D01*
X125531321Y-49422641D01*
X125384045Y-49320471D01*
X125376010Y-49315738D01*
X125143376Y-49201016D01*
X125134743Y-49197528D01*
X124887703Y-49118450D01*
X124878643Y-49116274D01*
X124622630Y-49074580D01*
X124613343Y-49073768D01*
X124353992Y-49070373D01*
X124344681Y-49070943D01*
X124087682Y-49105919D01*
X124078546Y-49107860D01*
X123829543Y-49180439D01*
X123820800Y-49183707D01*
X123585252Y-49292296D01*
X123577097Y-49296816D01*
X123386240Y-49421947D01*
X123377102Y-49432689D01*
X71958200Y-49432689D01*
X71958200Y-45768699D01*
X71975081Y-45705699D01*
X72030923Y-45608979D01*
X72030924Y-45608978D01*
X72034227Y-45603256D01*
X72093242Y-45421628D01*
X72097522Y-45380911D01*
X72112514Y-45238265D01*
X72113204Y-45231700D01*
X72096044Y-45068429D01*
X72093932Y-45048335D01*
X72093932Y-45048333D01*
X72093242Y-45041772D01*
X72034227Y-44860144D01*
X71938740Y-44694756D01*
X71896627Y-44647984D01*
X71815375Y-44557745D01*
X71815374Y-44557744D01*
X71810953Y-44552834D01*
X71656452Y-44440582D01*
X71650424Y-44437898D01*
X71650422Y-44437897D01*
X71488019Y-44365591D01*
X71488018Y-44365591D01*
X71481988Y-44362906D01*
X71388587Y-44343053D01*
X71301644Y-44324572D01*
X71301639Y-44324572D01*
X71295187Y-44323200D01*
X71104213Y-44323200D01*
X71097761Y-44324572D01*
X71097756Y-44324572D01*
X71010813Y-44343053D01*
X70917412Y-44362906D01*
X70911382Y-44365591D01*
X70911381Y-44365591D01*
X70748978Y-44437897D01*
X70748976Y-44437898D01*
X70742948Y-44440582D01*
X70588447Y-44552834D01*
X70584026Y-44557744D01*
X70584025Y-44557745D01*
X70502774Y-44647984D01*
X70460660Y-44694756D01*
X70365173Y-44860144D01*
X70306158Y-45041772D01*
X70305468Y-45048333D01*
X70305468Y-45048335D01*
X70303356Y-45068429D01*
X70286196Y-45231700D01*
X70286886Y-45238265D01*
X70301879Y-45380911D01*
X70306158Y-45421628D01*
X70365173Y-45603256D01*
X70368476Y-45608978D01*
X70368477Y-45608979D01*
X70424319Y-45705699D01*
X70441200Y-45768699D01*
X70441200Y-60061429D01*
X70421198Y-60129550D01*
X70404295Y-60150524D01*
X49750786Y-80804033D01*
X49688474Y-80838059D01*
X49617659Y-80832994D01*
X49560823Y-80790447D01*
X49536170Y-80725920D01*
X49524594Y-80593605D01*
X49524115Y-80588129D01*
X49467120Y-80375424D01*
X49423585Y-80282062D01*
X49376382Y-80180834D01*
X49376379Y-80180829D01*
X49374056Y-80175847D01*
X49363826Y-80161237D01*
X49250908Y-79999973D01*
X49250906Y-79999970D01*
X49247749Y-79995462D01*
X49092038Y-79839751D01*
X48911654Y-79713444D01*
X48712076Y-79620380D01*
X48499371Y-79563385D01*
X48280000Y-79544193D01*
X48060629Y-79563385D01*
X47847924Y-79620380D01*
X47810211Y-79637966D01*
X47653334Y-79711118D01*
X47653329Y-79711121D01*
X47648347Y-79713444D01*
X47643840Y-79716600D01*
X47643838Y-79716601D01*
X47472473Y-79836592D01*
X47472470Y-79836594D01*
X47467962Y-79839751D01*
X47312251Y-79995462D01*
X47309094Y-79999970D01*
X47309092Y-79999973D01*
X47227213Y-80116909D01*
X47171756Y-80161237D01*
X47101137Y-80168546D01*
X47037776Y-80136515D01*
X47001791Y-80075314D01*
X46998000Y-80044638D01*
X46998000Y-79809615D01*
X46993525Y-79794376D01*
X46992135Y-79793171D01*
X46984452Y-79791500D01*
X44500116Y-79791500D01*
X44484877Y-79795975D01*
X44483672Y-79797365D01*
X44482001Y-79805048D01*
X44482001Y-80332169D01*
X44482371Y-80338990D01*
X44487895Y-80389852D01*
X44491521Y-80405104D01*
X44536676Y-80525554D01*
X44545214Y-80541149D01*
X44621715Y-80643224D01*
X44634276Y-80655785D01*
X44736351Y-80732286D01*
X44751946Y-80740824D01*
X44872394Y-80785978D01*
X44887649Y-80789605D01*
X44938514Y-80795131D01*
X44945328Y-80795500D01*
X44977138Y-80795500D01*
X45045259Y-80815502D01*
X45091752Y-80869158D01*
X45101856Y-80939432D01*
X45072362Y-81004012D01*
X45049410Y-81024712D01*
X45015577Y-81048402D01*
X44932473Y-81106592D01*
X44932470Y-81106594D01*
X44927962Y-81109751D01*
X44772251Y-81265462D01*
X44769094Y-81269970D01*
X44769092Y-81269973D01*
X44649101Y-81441338D01*
X44645944Y-81445847D01*
X44643621Y-81450829D01*
X44643618Y-81450834D01*
X44623978Y-81492953D01*
X44552880Y-81645424D01*
X44495885Y-81858129D01*
X44476693Y-82077500D01*
X44495885Y-82296871D01*
X44552880Y-82509576D01*
X44606936Y-82625499D01*
X44643418Y-82703735D01*
X44645944Y-82709153D01*
X44680901Y-82759077D01*
X44703587Y-82826345D01*
X44686303Y-82895206D01*
X44666781Y-82920438D01*
X43047189Y-84540030D01*
X43032777Y-84552416D01*
X43021182Y-84560949D01*
X43021177Y-84560954D01*
X43015282Y-84565292D01*
X43010543Y-84570870D01*
X43010540Y-84570873D01*
X42981065Y-84605568D01*
X42974135Y-84613084D01*
X42968440Y-84618779D01*
X42966160Y-84621661D01*
X42950819Y-84641051D01*
X42948028Y-84644455D01*
X42905509Y-84694503D01*
X42900767Y-84700085D01*
X42897439Y-84706601D01*
X42894072Y-84711650D01*
X42890905Y-84716779D01*
X42886366Y-84722516D01*
X42855445Y-84788675D01*
X42853542Y-84792569D01*
X42820331Y-84857608D01*
X42818592Y-84864716D01*
X42816493Y-84870359D01*
X42814576Y-84876122D01*
X42811478Y-84882750D01*
X42809988Y-84889912D01*
X42809988Y-84889913D01*
X42796614Y-84954212D01*
X42795644Y-84958496D01*
X42778292Y-85029410D01*
X42777944Y-85035012D01*
X42777944Y-85035015D01*
X42777674Y-85039377D01*
X42777600Y-85040564D01*
X42777564Y-85040562D01*
X42777325Y-85044555D01*
X42776951Y-85048747D01*
X42775460Y-85055915D01*
X42775658Y-85063232D01*
X42777554Y-85133321D01*
X42777600Y-85136728D01*
X42777600Y-110853801D01*
X42760719Y-110916800D01*
X42701573Y-111019244D01*
X42642558Y-111200872D01*
X42641868Y-111207433D01*
X42641868Y-111207435D01*
X42638457Y-111239894D01*
X42622596Y-111390800D01*
X35560000Y-111390800D01*
X35560000Y-89830203D01*
X37280743Y-89830203D01*
X37318268Y-90115234D01*
X37394129Y-90392536D01*
X37395813Y-90396484D01*
X37476938Y-90586677D01*
X37506923Y-90656976D01*
X37532173Y-90699166D01*
X37644503Y-90886855D01*
X37654561Y-90903661D01*
X37834313Y-91128028D01*
X37872532Y-91164296D01*
X38013746Y-91298303D01*
X38042851Y-91325923D01*
X38276317Y-91493686D01*
X38280112Y-91495695D01*
X38280113Y-91495696D01*
X38301869Y-91507215D01*
X38530392Y-91628212D01*
X38800373Y-91727011D01*
X39081264Y-91788255D01*
X39109841Y-91790504D01*
X39304282Y-91805807D01*
X39304291Y-91805807D01*
X39306739Y-91806000D01*
X39462271Y-91806000D01*
X39464407Y-91805854D01*
X39464418Y-91805854D01*
X39672548Y-91791665D01*
X39672554Y-91791664D01*
X39676825Y-91791373D01*
X39681020Y-91790504D01*
X39681022Y-91790504D01*
X39817584Y-91762223D01*
X39958342Y-91733074D01*
X40229343Y-91637107D01*
X40484812Y-91505250D01*
X40488313Y-91502789D01*
X40488317Y-91502787D01*
X40602418Y-91422595D01*
X40720023Y-91339941D01*
X40870031Y-91200545D01*
X40927479Y-91147161D01*
X40927481Y-91147158D01*
X40930622Y-91144240D01*
X41112713Y-90921768D01*
X41262927Y-90676642D01*
X41378483Y-90413398D01*
X41457244Y-90136906D01*
X41497751Y-89852284D01*
X41497845Y-89834451D01*
X41499235Y-89569083D01*
X41499235Y-89569076D01*
X41499257Y-89564797D01*
X41461732Y-89279766D01*
X41385871Y-89002464D01*
X41273077Y-88738024D01*
X41166753Y-88560370D01*
X41127643Y-88495021D01*
X41127640Y-88495017D01*
X41125439Y-88491339D01*
X40945687Y-88266972D01*
X40796342Y-88125249D01*
X40740258Y-88072027D01*
X40740255Y-88072025D01*
X40737149Y-88069077D01*
X40503683Y-87901314D01*
X40481843Y-87889750D01*
X40449665Y-87872713D01*
X40249608Y-87766788D01*
X39979627Y-87667989D01*
X39698736Y-87606745D01*
X39667685Y-87604301D01*
X39475718Y-87589193D01*
X39475709Y-87589193D01*
X39473261Y-87589000D01*
X39317729Y-87589000D01*
X39315593Y-87589146D01*
X39315582Y-87589146D01*
X39107452Y-87603335D01*
X39107446Y-87603336D01*
X39103175Y-87603627D01*
X39098980Y-87604496D01*
X39098978Y-87604496D01*
X38962417Y-87632776D01*
X38821658Y-87661926D01*
X38550657Y-87757893D01*
X38546848Y-87759859D01*
X38301491Y-87886497D01*
X38295188Y-87889750D01*
X38291687Y-87892211D01*
X38291683Y-87892213D01*
X38188080Y-87965027D01*
X38059977Y-88055059D01*
X38044892Y-88069077D01*
X37860372Y-88240544D01*
X37849378Y-88250760D01*
X37667287Y-88473232D01*
X37517073Y-88718358D01*
X37515347Y-88722291D01*
X37515346Y-88722292D01*
X37510059Y-88734337D01*
X37401517Y-88981602D01*
X37400342Y-88985729D01*
X37400341Y-88985730D01*
X37373360Y-89080447D01*
X37322756Y-89258094D01*
X37310346Y-89345292D01*
X37284930Y-89523881D01*
X37282249Y-89542716D01*
X37282227Y-89547005D01*
X37282226Y-89547012D01*
X37280765Y-89825917D01*
X37280743Y-89830203D01*
X35560000Y-89830203D01*
X35560000Y-78400203D01*
X37280743Y-78400203D01*
X37281302Y-78404447D01*
X37281302Y-78404451D01*
X37292089Y-78486382D01*
X37318268Y-78685234D01*
X37394129Y-78962536D01*
X37395813Y-78966484D01*
X37502156Y-79215799D01*
X37506923Y-79226976D01*
X37554848Y-79307052D01*
X37643262Y-79454781D01*
X37654561Y-79473661D01*
X37834313Y-79698028D01*
X37947089Y-79805048D01*
X37987765Y-79843648D01*
X38042851Y-79895923D01*
X38276317Y-80063686D01*
X38280112Y-80065695D01*
X38280113Y-80065696D01*
X38298278Y-80075314D01*
X38530392Y-80198212D01*
X38800373Y-80297011D01*
X39081264Y-80358255D01*
X39109841Y-80360504D01*
X39304282Y-80375807D01*
X39304291Y-80375807D01*
X39306739Y-80376000D01*
X39462271Y-80376000D01*
X39464407Y-80375854D01*
X39464418Y-80375854D01*
X39672548Y-80361665D01*
X39672554Y-80361664D01*
X39676825Y-80361373D01*
X39681020Y-80360504D01*
X39681022Y-80360504D01*
X39817847Y-80332169D01*
X39958342Y-80303074D01*
X40229343Y-80207107D01*
X40484812Y-80075250D01*
X40488313Y-80072789D01*
X40488317Y-80072787D01*
X40603884Y-79991565D01*
X40720023Y-79909941D01*
X40798956Y-79836592D01*
X40927479Y-79717161D01*
X40927481Y-79717158D01*
X40930622Y-79714240D01*
X41112713Y-79491768D01*
X41251441Y-79265385D01*
X44482000Y-79265385D01*
X44486475Y-79280624D01*
X44487865Y-79281829D01*
X44495548Y-79283500D01*
X45467885Y-79283500D01*
X45483124Y-79279025D01*
X45484329Y-79277635D01*
X45486000Y-79269952D01*
X45486000Y-79265385D01*
X45994000Y-79265385D01*
X45998475Y-79280624D01*
X45999865Y-79281829D01*
X46007548Y-79283500D01*
X46979884Y-79283500D01*
X46995123Y-79279025D01*
X46996328Y-79277635D01*
X46997999Y-79269952D01*
X46997999Y-78742831D01*
X46997629Y-78736010D01*
X46992105Y-78685148D01*
X46988479Y-78669896D01*
X46943324Y-78549446D01*
X46934786Y-78533851D01*
X46858285Y-78431776D01*
X46845724Y-78419215D01*
X46743649Y-78342714D01*
X46728054Y-78334176D01*
X46607606Y-78289022D01*
X46592351Y-78285395D01*
X46541486Y-78279869D01*
X46534672Y-78279500D01*
X46012115Y-78279500D01*
X45996876Y-78283975D01*
X45995671Y-78285365D01*
X45994000Y-78293048D01*
X45994000Y-79265385D01*
X45486000Y-79265385D01*
X45486000Y-78297616D01*
X45481525Y-78282377D01*
X45480135Y-78281172D01*
X45472452Y-78279501D01*
X44945331Y-78279501D01*
X44938510Y-78279871D01*
X44887648Y-78285395D01*
X44872396Y-78289021D01*
X44751946Y-78334176D01*
X44736351Y-78342714D01*
X44634276Y-78419215D01*
X44621715Y-78431776D01*
X44545214Y-78533851D01*
X44536676Y-78549446D01*
X44491522Y-78669894D01*
X44487895Y-78685149D01*
X44482369Y-78736014D01*
X44482000Y-78742828D01*
X44482000Y-79265385D01*
X41251441Y-79265385D01*
X41260686Y-79250299D01*
X41262927Y-79246642D01*
X41280136Y-79207440D01*
X41376757Y-78987330D01*
X41378483Y-78983398D01*
X41457244Y-78706906D01*
X41497751Y-78422284D01*
X41497845Y-78404451D01*
X41499235Y-78139083D01*
X41499235Y-78139076D01*
X41499257Y-78134797D01*
X41461732Y-77849766D01*
X41385871Y-77572464D01*
X41370353Y-77536082D01*
X41274763Y-77311976D01*
X41274761Y-77311972D01*
X41273077Y-77308024D01*
X41125439Y-77061339D01*
X40945687Y-76836972D01*
X40737149Y-76639077D01*
X40503683Y-76471314D01*
X40481843Y-76459750D01*
X40456104Y-76446122D01*
X40249608Y-76336788D01*
X39979627Y-76237989D01*
X39698736Y-76176745D01*
X39667685Y-76174301D01*
X39475718Y-76159193D01*
X39475709Y-76159193D01*
X39473261Y-76159000D01*
X39317729Y-76159000D01*
X39315593Y-76159146D01*
X39315582Y-76159146D01*
X39107452Y-76173335D01*
X39107446Y-76173336D01*
X39103175Y-76173627D01*
X39098980Y-76174496D01*
X39098978Y-76174496D01*
X38962416Y-76202777D01*
X38821658Y-76231926D01*
X38550657Y-76327893D01*
X38295188Y-76459750D01*
X38291687Y-76462211D01*
X38291683Y-76462213D01*
X38291655Y-76462233D01*
X38059977Y-76625059D01*
X37849378Y-76820760D01*
X37667287Y-77043232D01*
X37517073Y-77288358D01*
X37401517Y-77551602D01*
X37322756Y-77828094D01*
X37282249Y-78112716D01*
X37282227Y-78117005D01*
X37282226Y-78117012D01*
X37280887Y-78372626D01*
X37280743Y-78400203D01*
X35560000Y-78400203D01*
X35560000Y-60832526D01*
X38827050Y-60832526D01*
X38827274Y-60837192D01*
X38827274Y-60837197D01*
X38831992Y-60935408D01*
X38839947Y-61101019D01*
X38892388Y-61364656D01*
X38983220Y-61617646D01*
X38985431Y-61621761D01*
X38985432Y-61621763D01*
X39039312Y-61722038D01*
X39110450Y-61854431D01*
X39113241Y-61858168D01*
X39113245Y-61858175D01*
X39194887Y-61967506D01*
X39271281Y-62069810D01*
X39274590Y-62073090D01*
X39274595Y-62073096D01*
X39441585Y-62238634D01*
X39462180Y-62259050D01*
X39465942Y-62261808D01*
X39465945Y-62261811D01*
X39582415Y-62347210D01*
X39678954Y-62417995D01*
X39683089Y-62420171D01*
X39683093Y-62420173D01*
X39912698Y-62540975D01*
X39916840Y-62543154D01*
X40170613Y-62631775D01*
X40175206Y-62632647D01*
X40430109Y-62681042D01*
X40430112Y-62681042D01*
X40434698Y-62681913D01*
X40562370Y-62686929D01*
X40698625Y-62692283D01*
X40698630Y-62692283D01*
X40703293Y-62692466D01*
X40807607Y-62681042D01*
X40965844Y-62663713D01*
X40965850Y-62663712D01*
X40970497Y-62663203D01*
X40975021Y-62662012D01*
X41225918Y-62595956D01*
X41225920Y-62595955D01*
X41230441Y-62594765D01*
X41234738Y-62592919D01*
X41473120Y-62490502D01*
X41473122Y-62490501D01*
X41477414Y-62488657D01*
X41640664Y-62387635D01*
X41702017Y-62349669D01*
X41702021Y-62349666D01*
X41705990Y-62347210D01*
X41911149Y-62173530D01*
X42088382Y-61971434D01*
X42118391Y-61924781D01*
X42231269Y-61749291D01*
X42233797Y-61745361D01*
X42344199Y-61500278D01*
X42381209Y-61369051D01*
X42415893Y-61246072D01*
X42415894Y-61246069D01*
X42417163Y-61241568D01*
X42435043Y-61101019D01*
X42450688Y-60978045D01*
X42450688Y-60978041D01*
X42451086Y-60974915D01*
X42451389Y-60963365D01*
X42453488Y-60883160D01*
X42453571Y-60880000D01*
X42441076Y-60711857D01*
X42433996Y-60616592D01*
X42433996Y-60616591D01*
X42433650Y-60611937D01*
X42430354Y-60597371D01*
X42375361Y-60354331D01*
X42375360Y-60354326D01*
X42374327Y-60349763D01*
X42276902Y-60099238D01*
X42143518Y-59865864D01*
X41977105Y-59654769D01*
X41781317Y-59470591D01*
X41560457Y-59317374D01*
X41556264Y-59315306D01*
X41323564Y-59200551D01*
X41323561Y-59200550D01*
X41319376Y-59198486D01*
X41271745Y-59183239D01*
X41217621Y-59165914D01*
X41063370Y-59116538D01*
X41058763Y-59115788D01*
X41058760Y-59115787D01*
X40802674Y-59074081D01*
X40802675Y-59074081D01*
X40798063Y-59073330D01*
X40667719Y-59071624D01*
X40533961Y-59069873D01*
X40533958Y-59069873D01*
X40529284Y-59069812D01*
X40262937Y-59106060D01*
X40004874Y-59181278D01*
X39760763Y-59293815D01*
X39756854Y-59296378D01*
X39539881Y-59438631D01*
X39539876Y-59438635D01*
X39535968Y-59441197D01*
X39497171Y-59475825D01*
X39357477Y-59600507D01*
X39335426Y-59620188D01*
X39163544Y-59826854D01*
X39024096Y-60056656D01*
X39022287Y-60060970D01*
X39022285Y-60060974D01*
X38993529Y-60129550D01*
X38920148Y-60304545D01*
X38853981Y-60565077D01*
X38827050Y-60832526D01*
X35560000Y-60832526D01*
X35560000Y-57224669D01*
X38832001Y-57224669D01*
X38832371Y-57231490D01*
X38837895Y-57282352D01*
X38841521Y-57297604D01*
X38886676Y-57418054D01*
X38895214Y-57433649D01*
X38971715Y-57535724D01*
X38984276Y-57548285D01*
X39086351Y-57624786D01*
X39101946Y-57633324D01*
X39222394Y-57678478D01*
X39237649Y-57682105D01*
X39288514Y-57687631D01*
X39295328Y-57688000D01*
X40367885Y-57688000D01*
X40383124Y-57683525D01*
X40384329Y-57682135D01*
X40386000Y-57674452D01*
X40386000Y-57669884D01*
X40894000Y-57669884D01*
X40898475Y-57685123D01*
X40899865Y-57686328D01*
X40907548Y-57687999D01*
X41984669Y-57687999D01*
X41991490Y-57687629D01*
X42042352Y-57682105D01*
X42057604Y-57678479D01*
X42178054Y-57633324D01*
X42193649Y-57624786D01*
X42295724Y-57548285D01*
X42308285Y-57535724D01*
X42384786Y-57433649D01*
X42393324Y-57418054D01*
X42438478Y-57297606D01*
X42442105Y-57282351D01*
X42447631Y-57231486D01*
X42448000Y-57224672D01*
X42448000Y-56152115D01*
X42443525Y-56136876D01*
X42442135Y-56135671D01*
X42434452Y-56134000D01*
X40912115Y-56134000D01*
X40896876Y-56138475D01*
X40895671Y-56139865D01*
X40894000Y-56147548D01*
X40894000Y-57669884D01*
X40386000Y-57669884D01*
X40386000Y-56152115D01*
X40381525Y-56136876D01*
X40380135Y-56135671D01*
X40372452Y-56134000D01*
X38850116Y-56134000D01*
X38834877Y-56138475D01*
X38833672Y-56139865D01*
X38832001Y-56147548D01*
X38832001Y-57224669D01*
X35560000Y-57224669D01*
X35560000Y-55607885D01*
X38832000Y-55607885D01*
X38836475Y-55623124D01*
X38837865Y-55624329D01*
X38845548Y-55626000D01*
X40367885Y-55626000D01*
X40383124Y-55621525D01*
X40384329Y-55620135D01*
X40386000Y-55612452D01*
X40386000Y-55607885D01*
X40894000Y-55607885D01*
X40898475Y-55623124D01*
X40899865Y-55624329D01*
X40907548Y-55626000D01*
X42429884Y-55626000D01*
X42445123Y-55621525D01*
X42446328Y-55620135D01*
X42447999Y-55612452D01*
X42447999Y-54535331D01*
X42447629Y-54528510D01*
X42442105Y-54477648D01*
X42438479Y-54462396D01*
X42393324Y-54341946D01*
X42384786Y-54326351D01*
X42308285Y-54224276D01*
X42295724Y-54211715D01*
X42193649Y-54135214D01*
X42178054Y-54126676D01*
X42057606Y-54081522D01*
X42042351Y-54077895D01*
X41991486Y-54072369D01*
X41984672Y-54072000D01*
X40912115Y-54072000D01*
X40896876Y-54076475D01*
X40895671Y-54077865D01*
X40894000Y-54085548D01*
X40894000Y-55607885D01*
X40386000Y-55607885D01*
X40386000Y-54090116D01*
X40381525Y-54074877D01*
X40380135Y-54073672D01*
X40372452Y-54072001D01*
X39295331Y-54072001D01*
X39288510Y-54072371D01*
X39237648Y-54077895D01*
X39222396Y-54081521D01*
X39101946Y-54126676D01*
X39086351Y-54135214D01*
X38984276Y-54211715D01*
X38971715Y-54224276D01*
X38895214Y-54326351D01*
X38886676Y-54341946D01*
X38841522Y-54462394D01*
X38837895Y-54477649D01*
X38832369Y-54528514D01*
X38832000Y-54535328D01*
X38832000Y-55607885D01*
X35560000Y-55607885D01*
X35560000Y-44063631D01*
X88931860Y-44063631D01*
X88932157Y-44068783D01*
X88932157Y-44068787D01*
X88943558Y-44266499D01*
X88945903Y-44307171D01*
X88947040Y-44312217D01*
X88947041Y-44312223D01*
X88970107Y-44414575D01*
X88999533Y-44545147D01*
X89001475Y-44549929D01*
X89001476Y-44549933D01*
X89089367Y-44766382D01*
X89091311Y-44771169D01*
X89218772Y-44979166D01*
X89378492Y-45163553D01*
X89566183Y-45319377D01*
X89776804Y-45442453D01*
X90004698Y-45529478D01*
X90009764Y-45530509D01*
X90009765Y-45530509D01*
X90238667Y-45577080D01*
X90238671Y-45577080D01*
X90243746Y-45578113D01*
X90248922Y-45578303D01*
X90248924Y-45578303D01*
X90482363Y-45586863D01*
X90482367Y-45586863D01*
X90487527Y-45587052D01*
X90492647Y-45586396D01*
X90492649Y-45586396D01*
X90569377Y-45576567D01*
X90729494Y-45556055D01*
X90734443Y-45554570D01*
X90734449Y-45554569D01*
X90958200Y-45487440D01*
X90958199Y-45487440D01*
X90963150Y-45485955D01*
X91182219Y-45378634D01*
X91186424Y-45375634D01*
X91186430Y-45375631D01*
X91376614Y-45239974D01*
X91376616Y-45239972D01*
X91380818Y-45236975D01*
X91553614Y-45064781D01*
X91695966Y-44866677D01*
X91702024Y-44854421D01*
X91801756Y-44652626D01*
X91801757Y-44652624D01*
X91804050Y-44647984D01*
X91836827Y-44540105D01*
X91873462Y-44419527D01*
X91873463Y-44419521D01*
X91874966Y-44414575D01*
X91906807Y-44172717D01*
X91908584Y-44100000D01*
X91905594Y-44063631D01*
X101131860Y-44063631D01*
X101132157Y-44068783D01*
X101132157Y-44068787D01*
X101143558Y-44266499D01*
X101145903Y-44307171D01*
X101147040Y-44312217D01*
X101147041Y-44312223D01*
X101170107Y-44414575D01*
X101199533Y-44545147D01*
X101201475Y-44549929D01*
X101201476Y-44549933D01*
X101289367Y-44766382D01*
X101291311Y-44771169D01*
X101418772Y-44979166D01*
X101578492Y-45163553D01*
X101766183Y-45319377D01*
X101976804Y-45442453D01*
X102204698Y-45529478D01*
X102209764Y-45530509D01*
X102209765Y-45530509D01*
X102438667Y-45577080D01*
X102438671Y-45577080D01*
X102443746Y-45578113D01*
X102448922Y-45578303D01*
X102448924Y-45578303D01*
X102682363Y-45586863D01*
X102682367Y-45586863D01*
X102687527Y-45587052D01*
X102692647Y-45586396D01*
X102692649Y-45586396D01*
X102769377Y-45576567D01*
X102929494Y-45556055D01*
X102934443Y-45554570D01*
X102934449Y-45554569D01*
X103158200Y-45487440D01*
X103158199Y-45487440D01*
X103163150Y-45485955D01*
X103382219Y-45378634D01*
X103386424Y-45375634D01*
X103386430Y-45375631D01*
X103576614Y-45239974D01*
X103576616Y-45239972D01*
X103580818Y-45236975D01*
X103753614Y-45064781D01*
X103895966Y-44866677D01*
X103902024Y-44854421D01*
X104001756Y-44652626D01*
X104001757Y-44652624D01*
X104004050Y-44647984D01*
X104036827Y-44540105D01*
X104073462Y-44419527D01*
X104073463Y-44419521D01*
X104074966Y-44414575D01*
X104106807Y-44172717D01*
X104108584Y-44100000D01*
X104088596Y-43856876D01*
X104029167Y-43620280D01*
X103931894Y-43396568D01*
X103799390Y-43191748D01*
X103635212Y-43011319D01*
X103631161Y-43008120D01*
X103631157Y-43008116D01*
X103447825Y-42863329D01*
X103447821Y-42863327D01*
X103443770Y-42860127D01*
X103230205Y-42742233D01*
X103225336Y-42740509D01*
X103225332Y-42740507D01*
X103005127Y-42662528D01*
X103005123Y-42662527D01*
X103000252Y-42660802D01*
X102995159Y-42659895D01*
X102995156Y-42659894D01*
X102765177Y-42618928D01*
X102765171Y-42618927D01*
X102760088Y-42618022D01*
X102680380Y-42617048D01*
X102521332Y-42615105D01*
X102521330Y-42615105D01*
X102516162Y-42615042D01*
X102275024Y-42651941D01*
X102043150Y-42727729D01*
X101826769Y-42840370D01*
X101822636Y-42843473D01*
X101822633Y-42843475D01*
X101635825Y-42983735D01*
X101631690Y-42986840D01*
X101463153Y-43163204D01*
X101460239Y-43167476D01*
X101460238Y-43167477D01*
X101440719Y-43196091D01*
X101325684Y-43364726D01*
X101222974Y-43585995D01*
X101157783Y-43821067D01*
X101131860Y-44063631D01*
X91905594Y-44063631D01*
X91888596Y-43856876D01*
X91829167Y-43620280D01*
X91731894Y-43396568D01*
X91599390Y-43191748D01*
X91435212Y-43011319D01*
X91431161Y-43008120D01*
X91431157Y-43008116D01*
X91247825Y-42863329D01*
X91247821Y-42863327D01*
X91243770Y-42860127D01*
X91030205Y-42742233D01*
X91025336Y-42740509D01*
X91025332Y-42740507D01*
X90805127Y-42662528D01*
X90805123Y-42662527D01*
X90800252Y-42660802D01*
X90795159Y-42659895D01*
X90795156Y-42659894D01*
X90565177Y-42618928D01*
X90565171Y-42618927D01*
X90560088Y-42618022D01*
X90480380Y-42617048D01*
X90321332Y-42615105D01*
X90321330Y-42615105D01*
X90316162Y-42615042D01*
X90075024Y-42651941D01*
X89843150Y-42727729D01*
X89626769Y-42840370D01*
X89622636Y-42843473D01*
X89622633Y-42843475D01*
X89435825Y-42983735D01*
X89431690Y-42986840D01*
X89263153Y-43163204D01*
X89260239Y-43167476D01*
X89260238Y-43167477D01*
X89240719Y-43196091D01*
X89125684Y-43364726D01*
X89022974Y-43585995D01*
X88957783Y-43821067D01*
X88931860Y-44063631D01*
X35560000Y-44063631D01*
X35560000Y-40512526D01*
X38827050Y-40512526D01*
X38839947Y-40781019D01*
X38892388Y-41044656D01*
X38983220Y-41297646D01*
X39110450Y-41534431D01*
X39113241Y-41538168D01*
X39113245Y-41538175D01*
X39194887Y-41647506D01*
X39271281Y-41749810D01*
X39274590Y-41753090D01*
X39274595Y-41753096D01*
X39458863Y-41935762D01*
X39462180Y-41939050D01*
X39465942Y-41941808D01*
X39465945Y-41941811D01*
X39578299Y-42024192D01*
X39678954Y-42097995D01*
X39683089Y-42100171D01*
X39683093Y-42100173D01*
X39912698Y-42220975D01*
X39916840Y-42223154D01*
X40170613Y-42311775D01*
X40175206Y-42312647D01*
X40430109Y-42361042D01*
X40430112Y-42361042D01*
X40434698Y-42361913D01*
X40562370Y-42366929D01*
X40698625Y-42372283D01*
X40698630Y-42372283D01*
X40703293Y-42372466D01*
X40807607Y-42361042D01*
X40965844Y-42343713D01*
X40965850Y-42343712D01*
X40970497Y-42343203D01*
X40975021Y-42342012D01*
X41225918Y-42275956D01*
X41225920Y-42275955D01*
X41230441Y-42274765D01*
X41234738Y-42272919D01*
X41473120Y-42170502D01*
X41473122Y-42170501D01*
X41477414Y-42168657D01*
X41596071Y-42095230D01*
X41702017Y-42029669D01*
X41702021Y-42029666D01*
X41705990Y-42027210D01*
X41911149Y-41853530D01*
X42088382Y-41651434D01*
X42233797Y-41425361D01*
X42344199Y-41180278D01*
X42381209Y-41049051D01*
X42415893Y-40926072D01*
X42415894Y-40926069D01*
X42417163Y-40921568D01*
X42435043Y-40781019D01*
X42450688Y-40658045D01*
X42450688Y-40658041D01*
X42451086Y-40654915D01*
X42453571Y-40560000D01*
X42433650Y-40291937D01*
X42374327Y-40029763D01*
X42276902Y-39779238D01*
X42143518Y-39545864D01*
X42130601Y-39529478D01*
X42061996Y-39442453D01*
X41977105Y-39334769D01*
X41781317Y-39150591D01*
X41560457Y-38997374D01*
X41556264Y-38995306D01*
X41323564Y-38880551D01*
X41323561Y-38880550D01*
X41319376Y-38878486D01*
X41295603Y-38870876D01*
X41217621Y-38845914D01*
X41063370Y-38796538D01*
X41058763Y-38795788D01*
X41058760Y-38795787D01*
X40802674Y-38754081D01*
X40802675Y-38754081D01*
X40798063Y-38753330D01*
X40667719Y-38751624D01*
X40533961Y-38749873D01*
X40533958Y-38749873D01*
X40529284Y-38749812D01*
X40262937Y-38786060D01*
X40004874Y-38861278D01*
X40000621Y-38863238D01*
X40000620Y-38863239D01*
X39984054Y-38870876D01*
X39760763Y-38973815D01*
X39746648Y-38983069D01*
X39539881Y-39118631D01*
X39539876Y-39118635D01*
X39535968Y-39121197D01*
X39335426Y-39300188D01*
X39163544Y-39506854D01*
X39024096Y-39736656D01*
X39022287Y-39740970D01*
X39022285Y-39740974D01*
X38945021Y-39925229D01*
X38920148Y-39984545D01*
X38853981Y-40245077D01*
X38827050Y-40512526D01*
X35560000Y-40512526D01*
X35560000Y-38063631D01*
X103131860Y-38063631D01*
X103132157Y-38068783D01*
X103132157Y-38068787D01*
X103143558Y-38266499D01*
X103145903Y-38307171D01*
X103147040Y-38312217D01*
X103147041Y-38312223D01*
X103170107Y-38414575D01*
X103199533Y-38545147D01*
X103201475Y-38549929D01*
X103201476Y-38549933D01*
X103284067Y-38753330D01*
X103291311Y-38771169D01*
X103418772Y-38979166D01*
X103578492Y-39163553D01*
X103766183Y-39319377D01*
X103976804Y-39442453D01*
X104204698Y-39529478D01*
X104209764Y-39530509D01*
X104209765Y-39530509D01*
X104438667Y-39577080D01*
X104438671Y-39577080D01*
X104443746Y-39578113D01*
X104448922Y-39578303D01*
X104448924Y-39578303D01*
X104682363Y-39586863D01*
X104682367Y-39586863D01*
X104687527Y-39587052D01*
X104692647Y-39586396D01*
X104692649Y-39586396D01*
X104769377Y-39576567D01*
X104929494Y-39556055D01*
X104934443Y-39554570D01*
X104934449Y-39554569D01*
X105022561Y-39528134D01*
X122651500Y-39528134D01*
X122658255Y-39590316D01*
X122709385Y-39726705D01*
X122796739Y-39843261D01*
X122913295Y-39930615D01*
X123049684Y-39981745D01*
X123111866Y-39988500D01*
X125808134Y-39988500D01*
X125870316Y-39981745D01*
X126006705Y-39930615D01*
X126123261Y-39843261D01*
X126210615Y-39726705D01*
X126261745Y-39590316D01*
X126268500Y-39528134D01*
X126268500Y-36831866D01*
X126261745Y-36769684D01*
X126210615Y-36633295D01*
X126123261Y-36516739D01*
X126006705Y-36429385D01*
X125870316Y-36378255D01*
X125808134Y-36371500D01*
X123111866Y-36371500D01*
X123049684Y-36378255D01*
X122913295Y-36429385D01*
X122796739Y-36516739D01*
X122709385Y-36633295D01*
X122658255Y-36769684D01*
X122651500Y-36831866D01*
X122651500Y-39528134D01*
X105022561Y-39528134D01*
X105158200Y-39487440D01*
X105158199Y-39487440D01*
X105163150Y-39485955D01*
X105382219Y-39378634D01*
X105386424Y-39375634D01*
X105386430Y-39375631D01*
X105576614Y-39239974D01*
X105576616Y-39239972D01*
X105580818Y-39236975D01*
X105753614Y-39064781D01*
X105895966Y-38866677D01*
X105898635Y-38861278D01*
X106001756Y-38652626D01*
X106001757Y-38652624D01*
X106004050Y-38647984D01*
X106036827Y-38540105D01*
X106073462Y-38419527D01*
X106073463Y-38419521D01*
X106074966Y-38414575D01*
X106106807Y-38172717D01*
X106108584Y-38100000D01*
X106088596Y-37856876D01*
X106029167Y-37620280D01*
X105931894Y-37396568D01*
X105799390Y-37191748D01*
X105728326Y-37113649D01*
X105638690Y-37015141D01*
X105638688Y-37015140D01*
X105635212Y-37011319D01*
X105631161Y-37008120D01*
X105631157Y-37008116D01*
X105447825Y-36863329D01*
X105447821Y-36863327D01*
X105443770Y-36860127D01*
X105230205Y-36742233D01*
X105225336Y-36740509D01*
X105225332Y-36740507D01*
X105005127Y-36662528D01*
X105005123Y-36662527D01*
X105000252Y-36660802D01*
X104995159Y-36659895D01*
X104995156Y-36659894D01*
X104765177Y-36618928D01*
X104765171Y-36618927D01*
X104760088Y-36618022D01*
X104680380Y-36617048D01*
X104521332Y-36615105D01*
X104521330Y-36615105D01*
X104516162Y-36615042D01*
X104275024Y-36651941D01*
X104043150Y-36727729D01*
X104038558Y-36730119D01*
X104038559Y-36730119D01*
X103849631Y-36828469D01*
X103826769Y-36840370D01*
X103822636Y-36843473D01*
X103822633Y-36843475D01*
X103643991Y-36977604D01*
X103631690Y-36986840D01*
X103463153Y-37163204D01*
X103460239Y-37167476D01*
X103460238Y-37167477D01*
X103440719Y-37196091D01*
X103325684Y-37364726D01*
X103222974Y-37585995D01*
X103157783Y-37821067D01*
X103131860Y-38063631D01*
X35560000Y-38063631D01*
X35560000Y-36904669D01*
X38832001Y-36904669D01*
X38832371Y-36911490D01*
X38837895Y-36962352D01*
X38841521Y-36977604D01*
X38886676Y-37098054D01*
X38895214Y-37113649D01*
X38971715Y-37215724D01*
X38984276Y-37228285D01*
X39086351Y-37304786D01*
X39101946Y-37313324D01*
X39222394Y-37358478D01*
X39237649Y-37362105D01*
X39288514Y-37367631D01*
X39295328Y-37368000D01*
X40367885Y-37368000D01*
X40383124Y-37363525D01*
X40384329Y-37362135D01*
X40386000Y-37354452D01*
X40386000Y-37349884D01*
X40894000Y-37349884D01*
X40898475Y-37365123D01*
X40899865Y-37366328D01*
X40907548Y-37367999D01*
X41984669Y-37367999D01*
X41991490Y-37367629D01*
X42042352Y-37362105D01*
X42057604Y-37358479D01*
X42178054Y-37313324D01*
X42193649Y-37304786D01*
X42295724Y-37228285D01*
X42308285Y-37215724D01*
X42384786Y-37113649D01*
X42393324Y-37098054D01*
X42438478Y-36977606D01*
X42442105Y-36962351D01*
X42447631Y-36911486D01*
X42448000Y-36904672D01*
X42448000Y-35832115D01*
X42443525Y-35816876D01*
X42442135Y-35815671D01*
X42434452Y-35814000D01*
X40912115Y-35814000D01*
X40896876Y-35818475D01*
X40895671Y-35819865D01*
X40894000Y-35827548D01*
X40894000Y-37349884D01*
X40386000Y-37349884D01*
X40386000Y-35832115D01*
X40381525Y-35816876D01*
X40380135Y-35815671D01*
X40372452Y-35814000D01*
X38850116Y-35814000D01*
X38834877Y-35818475D01*
X38833672Y-35819865D01*
X38832001Y-35827548D01*
X38832001Y-36904669D01*
X35560000Y-36904669D01*
X35560000Y-35287885D01*
X38832000Y-35287885D01*
X38836475Y-35303124D01*
X38837865Y-35304329D01*
X38845548Y-35306000D01*
X40367885Y-35306000D01*
X40383124Y-35301525D01*
X40384329Y-35300135D01*
X40386000Y-35292452D01*
X40386000Y-35287885D01*
X40894000Y-35287885D01*
X40898475Y-35303124D01*
X40899865Y-35304329D01*
X40907548Y-35306000D01*
X42429884Y-35306000D01*
X42445123Y-35301525D01*
X42446328Y-35300135D01*
X42447999Y-35292452D01*
X42447999Y-34624906D01*
X123379839Y-34624906D01*
X123388553Y-34636427D01*
X123495452Y-34714809D01*
X123503351Y-34719745D01*
X123732905Y-34840519D01*
X123741454Y-34844236D01*
X123986327Y-34929749D01*
X123995336Y-34932163D01*
X124250166Y-34980544D01*
X124259423Y-34981598D01*
X124518607Y-34991783D01*
X124527921Y-34991457D01*
X124785753Y-34963220D01*
X124794930Y-34961519D01*
X125045758Y-34895481D01*
X125054574Y-34892445D01*
X125292880Y-34790062D01*
X125301167Y-34785748D01*
X125521718Y-34649266D01*
X125529268Y-34643780D01*
X125534559Y-34639301D01*
X125542997Y-34626497D01*
X125536935Y-34616145D01*
X124472812Y-33552022D01*
X124458868Y-33544408D01*
X124457035Y-33544539D01*
X124450420Y-33548790D01*
X123386497Y-34612713D01*
X123379839Y-34624906D01*
X42447999Y-34624906D01*
X42447999Y-34215331D01*
X42447629Y-34208510D01*
X42442105Y-34157648D01*
X42438479Y-34142396D01*
X42393324Y-34021946D01*
X42384786Y-34006351D01*
X42308285Y-33904276D01*
X42295724Y-33891715D01*
X42193649Y-33815214D01*
X42178054Y-33806676D01*
X42057606Y-33761522D01*
X42042351Y-33757895D01*
X41991486Y-33752369D01*
X41984672Y-33752000D01*
X40912115Y-33752000D01*
X40896876Y-33756475D01*
X40895671Y-33757865D01*
X40894000Y-33765548D01*
X40894000Y-35287885D01*
X40386000Y-35287885D01*
X40386000Y-33770116D01*
X40381525Y-33754877D01*
X40380135Y-33753672D01*
X40372452Y-33752001D01*
X39295331Y-33752001D01*
X39288510Y-33752371D01*
X39237648Y-33757895D01*
X39222396Y-33761521D01*
X39101946Y-33806676D01*
X39086351Y-33815214D01*
X38984276Y-33891715D01*
X38971715Y-33904276D01*
X38895214Y-34006351D01*
X38886676Y-34021946D01*
X38841522Y-34142394D01*
X38837895Y-34157649D01*
X38832369Y-34208514D01*
X38832000Y-34215328D01*
X38832000Y-35287885D01*
X35560000Y-35287885D01*
X35560000Y-32063631D01*
X88931860Y-32063631D01*
X88932157Y-32068783D01*
X88932157Y-32068787D01*
X88943558Y-32266499D01*
X88945903Y-32307171D01*
X88947040Y-32312217D01*
X88947041Y-32312223D01*
X88970107Y-32414575D01*
X88999533Y-32545147D01*
X89001475Y-32549929D01*
X89001476Y-32549933D01*
X89043923Y-32654467D01*
X89091311Y-32771169D01*
X89218772Y-32979166D01*
X89378492Y-33163553D01*
X89566183Y-33319377D01*
X89776804Y-33442453D01*
X90004698Y-33529478D01*
X90009764Y-33530509D01*
X90009765Y-33530509D01*
X90238667Y-33577080D01*
X90238671Y-33577080D01*
X90243746Y-33578113D01*
X90248922Y-33578303D01*
X90248924Y-33578303D01*
X90482363Y-33586863D01*
X90482367Y-33586863D01*
X90487527Y-33587052D01*
X90492647Y-33586396D01*
X90492649Y-33586396D01*
X90569377Y-33576567D01*
X90729494Y-33556055D01*
X90734443Y-33554570D01*
X90734449Y-33554569D01*
X90958200Y-33487440D01*
X90958199Y-33487440D01*
X90963150Y-33485955D01*
X91182219Y-33378634D01*
X91186424Y-33375634D01*
X91186430Y-33375631D01*
X91376614Y-33239974D01*
X91376616Y-33239972D01*
X91380818Y-33236975D01*
X91553614Y-33064781D01*
X91695966Y-32866677D01*
X91721279Y-32815461D01*
X91801756Y-32652626D01*
X91801757Y-32652624D01*
X91804050Y-32647984D01*
X91836827Y-32540105D01*
X91873462Y-32419527D01*
X91873463Y-32419521D01*
X91874966Y-32414575D01*
X91906807Y-32172717D01*
X91907823Y-32131135D01*
X91908502Y-32103365D01*
X91908502Y-32103361D01*
X91908584Y-32100000D01*
X91905594Y-32063631D01*
X101131860Y-32063631D01*
X101132157Y-32068783D01*
X101132157Y-32068787D01*
X101143558Y-32266499D01*
X101145903Y-32307171D01*
X101147040Y-32312217D01*
X101147041Y-32312223D01*
X101170107Y-32414575D01*
X101199533Y-32545147D01*
X101201475Y-32549929D01*
X101201476Y-32549933D01*
X101243923Y-32654467D01*
X101291311Y-32771169D01*
X101418772Y-32979166D01*
X101578492Y-33163553D01*
X101766183Y-33319377D01*
X101976804Y-33442453D01*
X102204698Y-33529478D01*
X102209764Y-33530509D01*
X102209765Y-33530509D01*
X102438667Y-33577080D01*
X102438671Y-33577080D01*
X102443746Y-33578113D01*
X102448922Y-33578303D01*
X102448924Y-33578303D01*
X102682363Y-33586863D01*
X102682367Y-33586863D01*
X102687527Y-33587052D01*
X102692647Y-33586396D01*
X102692649Y-33586396D01*
X102769377Y-33576567D01*
X102929494Y-33556055D01*
X102934443Y-33554570D01*
X102934449Y-33554569D01*
X103158200Y-33487440D01*
X103158199Y-33487440D01*
X103163150Y-33485955D01*
X103382219Y-33378634D01*
X103386424Y-33375634D01*
X103386430Y-33375631D01*
X103576614Y-33239974D01*
X103576616Y-33239972D01*
X103580818Y-33236975D01*
X103680931Y-33137211D01*
X122647775Y-33137211D01*
X122660220Y-33396288D01*
X122661356Y-33405543D01*
X122711961Y-33659945D01*
X122714449Y-33668917D01*
X122802095Y-33913033D01*
X122805895Y-33921568D01*
X122928658Y-34150042D01*
X122933666Y-34157904D01*
X123003720Y-34251716D01*
X123014979Y-34260165D01*
X123027397Y-34253393D01*
X124087978Y-33192812D01*
X124094356Y-33181132D01*
X124824408Y-33181132D01*
X124824539Y-33182965D01*
X124828790Y-33189580D01*
X125896094Y-34256884D01*
X125908474Y-34263644D01*
X125916815Y-34257400D01*
X126050832Y-34049048D01*
X126055275Y-34040864D01*
X126161807Y-33804370D01*
X126164997Y-33795605D01*
X126235402Y-33545972D01*
X126237262Y-33536830D01*
X126270187Y-33278019D01*
X126270668Y-33271733D01*
X126272987Y-33183160D01*
X126272836Y-33176851D01*
X126253501Y-32916663D01*
X126252125Y-32907457D01*
X126194878Y-32654467D01*
X126192154Y-32645556D01*
X126098143Y-32403806D01*
X126094132Y-32395397D01*
X125965422Y-32170202D01*
X125960211Y-32162476D01*
X125916996Y-32107658D01*
X125905071Y-32099187D01*
X125893537Y-32105673D01*
X124832022Y-33167188D01*
X124824408Y-33181132D01*
X124094356Y-33181132D01*
X124095592Y-33178868D01*
X124095461Y-33177035D01*
X124091210Y-33170420D01*
X123025816Y-32105026D01*
X123012507Y-32097758D01*
X123002472Y-32104878D01*
X122986937Y-32123556D01*
X122981531Y-32131135D01*
X122846965Y-32352891D01*
X122842736Y-32361192D01*
X122742432Y-32600389D01*
X122739471Y-32609239D01*
X122675628Y-32860625D01*
X122674006Y-32869822D01*
X122648020Y-33127885D01*
X122647775Y-33137211D01*
X103680931Y-33137211D01*
X103753614Y-33064781D01*
X103895966Y-32866677D01*
X103921279Y-32815461D01*
X104001756Y-32652626D01*
X104001757Y-32652624D01*
X104004050Y-32647984D01*
X104036827Y-32540105D01*
X104073462Y-32419527D01*
X104073463Y-32419521D01*
X104074966Y-32414575D01*
X104106807Y-32172717D01*
X104107823Y-32131135D01*
X104108502Y-32103365D01*
X104108502Y-32103361D01*
X104108584Y-32100000D01*
X104088596Y-31856876D01*
X104057402Y-31732689D01*
X123377102Y-31732689D01*
X123381675Y-31742465D01*
X124447188Y-32807978D01*
X124461132Y-32815592D01*
X124462965Y-32815461D01*
X124469580Y-32811210D01*
X125534349Y-31746441D01*
X125540733Y-31734751D01*
X125531321Y-31722641D01*
X125384045Y-31620471D01*
X125376010Y-31615738D01*
X125143376Y-31501016D01*
X125134743Y-31497528D01*
X124887703Y-31418450D01*
X124878643Y-31416274D01*
X124622630Y-31374580D01*
X124613343Y-31373768D01*
X124353992Y-31370373D01*
X124344681Y-31370943D01*
X124087682Y-31405919D01*
X124078546Y-31407860D01*
X123829543Y-31480439D01*
X123820800Y-31483707D01*
X123585252Y-31592296D01*
X123577097Y-31596816D01*
X123386240Y-31721947D01*
X123377102Y-31732689D01*
X104057402Y-31732689D01*
X104029167Y-31620280D01*
X103941409Y-31418450D01*
X103933954Y-31401305D01*
X103933952Y-31401302D01*
X103931894Y-31396568D01*
X103799390Y-31191748D01*
X103635212Y-31011319D01*
X103631161Y-31008120D01*
X103631157Y-31008116D01*
X103447825Y-30863329D01*
X103447821Y-30863327D01*
X103443770Y-30860127D01*
X103230205Y-30742233D01*
X103225336Y-30740509D01*
X103225332Y-30740507D01*
X103005127Y-30662528D01*
X103005123Y-30662527D01*
X103000252Y-30660802D01*
X102995159Y-30659895D01*
X102995156Y-30659894D01*
X102765177Y-30618928D01*
X102765171Y-30618927D01*
X102760088Y-30618022D01*
X102680380Y-30617048D01*
X102521332Y-30615105D01*
X102521330Y-30615105D01*
X102516162Y-30615042D01*
X102275024Y-30651941D01*
X102043150Y-30727729D01*
X101826769Y-30840370D01*
X101822636Y-30843473D01*
X101822633Y-30843475D01*
X101635825Y-30983735D01*
X101631690Y-30986840D01*
X101463153Y-31163204D01*
X101460239Y-31167476D01*
X101460238Y-31167477D01*
X101440719Y-31196091D01*
X101325684Y-31364726D01*
X101222974Y-31585995D01*
X101157783Y-31821067D01*
X101131860Y-32063631D01*
X91905594Y-32063631D01*
X91888596Y-31856876D01*
X91829167Y-31620280D01*
X91741409Y-31418450D01*
X91733954Y-31401305D01*
X91733952Y-31401302D01*
X91731894Y-31396568D01*
X91599390Y-31191748D01*
X91435212Y-31011319D01*
X91431161Y-31008120D01*
X91431157Y-31008116D01*
X91247825Y-30863329D01*
X91247821Y-30863327D01*
X91243770Y-30860127D01*
X91030205Y-30742233D01*
X91025336Y-30740509D01*
X91025332Y-30740507D01*
X90805127Y-30662528D01*
X90805123Y-30662527D01*
X90800252Y-30660802D01*
X90795159Y-30659895D01*
X90795156Y-30659894D01*
X90565177Y-30618928D01*
X90565171Y-30618927D01*
X90560088Y-30618022D01*
X90480380Y-30617048D01*
X90321332Y-30615105D01*
X90321330Y-30615105D01*
X90316162Y-30615042D01*
X90075024Y-30651941D01*
X89843150Y-30727729D01*
X89626769Y-30840370D01*
X89622636Y-30843473D01*
X89622633Y-30843475D01*
X89435825Y-30983735D01*
X89431690Y-30986840D01*
X89263153Y-31163204D01*
X89260239Y-31167476D01*
X89260238Y-31167477D01*
X89240719Y-31196091D01*
X89125684Y-31364726D01*
X89022974Y-31585995D01*
X88957783Y-31821067D01*
X88931860Y-32063631D01*
X35560000Y-32063631D01*
X35560000Y-25526000D01*
X35580002Y-25457879D01*
X35633658Y-25411386D01*
X35686000Y-25400000D01*
X129414000Y-25400000D01*
X129482121Y-25420002D01*
G37*
%TD.AperFunction*%
%TD*%
M02*
