%TF.GenerationSoftware,KiCad,Pcbnew,(6.0.8)*%
%TF.CreationDate,2022-11-07T17:30:20-05:00*%
%TF.ProjectId,Riego_potencia,52696567-6f5f-4706-9f74-656e6369612e,rev?*%
%TF.SameCoordinates,Original*%
%TF.FileFunction,Legend,Top*%
%TF.FilePolarity,Positive*%
%FSLAX46Y46*%
G04 Gerber Fmt 4.6, Leading zero omitted, Abs format (unit mm)*
G04 Created by KiCad (PCBNEW (6.0.8)) date 2022-11-07 17:30:20*
%MOMM*%
%LPD*%
G01*
G04 APERTURE LIST*
%ADD10C,0.150000*%
%ADD11C,0.120000*%
%ADD12C,0.127000*%
G04 APERTURE END LIST*
D10*
%TO.C,Q1*%
X81184761Y-41327619D02*
X81089523Y-41280000D01*
X80994285Y-41184761D01*
X80851428Y-41041904D01*
X80756190Y-40994285D01*
X80660952Y-40994285D01*
X80708571Y-41232380D02*
X80613333Y-41184761D01*
X80518095Y-41089523D01*
X80470476Y-40899047D01*
X80470476Y-40565714D01*
X80518095Y-40375238D01*
X80613333Y-40280000D01*
X80708571Y-40232380D01*
X80899047Y-40232380D01*
X80994285Y-40280000D01*
X81089523Y-40375238D01*
X81137142Y-40565714D01*
X81137142Y-40899047D01*
X81089523Y-41089523D01*
X80994285Y-41184761D01*
X80899047Y-41232380D01*
X80708571Y-41232380D01*
X82089523Y-41232380D02*
X81518095Y-41232380D01*
X81803809Y-41232380D02*
X81803809Y-40232380D01*
X81708571Y-40375238D01*
X81613333Y-40470476D01*
X81518095Y-40518095D01*
%TO.C,RL1*%
X73222380Y-33591428D02*
X72746190Y-33924761D01*
X73222380Y-34162857D02*
X72222380Y-34162857D01*
X72222380Y-33781904D01*
X72270000Y-33686666D01*
X72317619Y-33639047D01*
X72412857Y-33591428D01*
X72555714Y-33591428D01*
X72650952Y-33639047D01*
X72698571Y-33686666D01*
X72746190Y-33781904D01*
X72746190Y-34162857D01*
X73222380Y-32686666D02*
X73222380Y-33162857D01*
X72222380Y-33162857D01*
X73222380Y-31829523D02*
X73222380Y-32400952D01*
X73222380Y-32115238D02*
X72222380Y-32115238D01*
X72365238Y-32210476D01*
X72460476Y-32305714D01*
X72508095Y-32400952D01*
%TO.C,Q5*%
X48164761Y-109907619D02*
X48069523Y-109860000D01*
X47974285Y-109764761D01*
X47831428Y-109621904D01*
X47736190Y-109574285D01*
X47640952Y-109574285D01*
X47688571Y-109812380D02*
X47593333Y-109764761D01*
X47498095Y-109669523D01*
X47450476Y-109479047D01*
X47450476Y-109145714D01*
X47498095Y-108955238D01*
X47593333Y-108860000D01*
X47688571Y-108812380D01*
X47879047Y-108812380D01*
X47974285Y-108860000D01*
X48069523Y-108955238D01*
X48117142Y-109145714D01*
X48117142Y-109479047D01*
X48069523Y-109669523D01*
X47974285Y-109764761D01*
X47879047Y-109812380D01*
X47688571Y-109812380D01*
X49021904Y-108812380D02*
X48545714Y-108812380D01*
X48498095Y-109288571D01*
X48545714Y-109240952D01*
X48640952Y-109193333D01*
X48879047Y-109193333D01*
X48974285Y-109240952D01*
X49021904Y-109288571D01*
X49069523Y-109383809D01*
X49069523Y-109621904D01*
X49021904Y-109717142D01*
X48974285Y-109764761D01*
X48879047Y-109812380D01*
X48640952Y-109812380D01*
X48545714Y-109764761D01*
X48498095Y-109717142D01*
%TO.C,D3*%
X84352380Y-82018095D02*
X83352380Y-82018095D01*
X83352380Y-81780000D01*
X83400000Y-81637142D01*
X83495238Y-81541904D01*
X83590476Y-81494285D01*
X83780952Y-81446666D01*
X83923809Y-81446666D01*
X84114285Y-81494285D01*
X84209523Y-81541904D01*
X84304761Y-81637142D01*
X84352380Y-81780000D01*
X84352380Y-82018095D01*
X83352380Y-81113333D02*
X83352380Y-80494285D01*
X83733333Y-80827619D01*
X83733333Y-80684761D01*
X83780952Y-80589523D01*
X83828571Y-80541904D01*
X83923809Y-80494285D01*
X84161904Y-80494285D01*
X84257142Y-80541904D01*
X84304761Y-80589523D01*
X84352380Y-80684761D01*
X84352380Y-80970476D01*
X84304761Y-81065714D01*
X84257142Y-81113333D01*
%TO.C,RL4*%
X113862380Y-112331428D02*
X113386190Y-112664761D01*
X113862380Y-112902857D02*
X112862380Y-112902857D01*
X112862380Y-112521904D01*
X112910000Y-112426666D01*
X112957619Y-112379047D01*
X113052857Y-112331428D01*
X113195714Y-112331428D01*
X113290952Y-112379047D01*
X113338571Y-112426666D01*
X113386190Y-112521904D01*
X113386190Y-112902857D01*
X113862380Y-111426666D02*
X113862380Y-111902857D01*
X112862380Y-111902857D01*
X113195714Y-110664761D02*
X113862380Y-110664761D01*
X112814761Y-110902857D02*
X113529047Y-111140952D01*
X113529047Y-110521904D01*
%TO.C,Q3*%
X81184761Y-87047619D02*
X81089523Y-87000000D01*
X80994285Y-86904761D01*
X80851428Y-86761904D01*
X80756190Y-86714285D01*
X80660952Y-86714285D01*
X80708571Y-86952380D02*
X80613333Y-86904761D01*
X80518095Y-86809523D01*
X80470476Y-86619047D01*
X80470476Y-86285714D01*
X80518095Y-86095238D01*
X80613333Y-86000000D01*
X80708571Y-85952380D01*
X80899047Y-85952380D01*
X80994285Y-86000000D01*
X81089523Y-86095238D01*
X81137142Y-86285714D01*
X81137142Y-86619047D01*
X81089523Y-86809523D01*
X80994285Y-86904761D01*
X80899047Y-86952380D01*
X80708571Y-86952380D01*
X81470476Y-85952380D02*
X82089523Y-85952380D01*
X81756190Y-86333333D01*
X81899047Y-86333333D01*
X81994285Y-86380952D01*
X82041904Y-86428571D01*
X82089523Y-86523809D01*
X82089523Y-86761904D01*
X82041904Y-86857142D01*
X81994285Y-86904761D01*
X81899047Y-86952380D01*
X81613333Y-86952380D01*
X81518095Y-86904761D01*
X81470476Y-86857142D01*
%TO.C,K5*%
X57411666Y-98174333D02*
X57411666Y-96774333D01*
X58211666Y-98174333D02*
X57611666Y-97374333D01*
X58211666Y-96774333D02*
X57411666Y-97574333D01*
X59478333Y-96774333D02*
X58811666Y-96774333D01*
X58745000Y-97441000D01*
X58811666Y-97374333D01*
X58945000Y-97307666D01*
X59278333Y-97307666D01*
X59411666Y-97374333D01*
X59478333Y-97441000D01*
X59545000Y-97574333D01*
X59545000Y-97907666D01*
X59478333Y-98041000D01*
X59411666Y-98107666D01*
X59278333Y-98174333D01*
X58945000Y-98174333D01*
X58811666Y-98107666D01*
X58745000Y-98041000D01*
%TO.C,DL4*%
X114752380Y-107822857D02*
X113752380Y-107822857D01*
X113752380Y-107584761D01*
X113800000Y-107441904D01*
X113895238Y-107346666D01*
X113990476Y-107299047D01*
X114180952Y-107251428D01*
X114323809Y-107251428D01*
X114514285Y-107299047D01*
X114609523Y-107346666D01*
X114704761Y-107441904D01*
X114752380Y-107584761D01*
X114752380Y-107822857D01*
X114752380Y-106346666D02*
X114752380Y-106822857D01*
X113752380Y-106822857D01*
X114085714Y-105584761D02*
X114752380Y-105584761D01*
X113704761Y-105822857D02*
X114419047Y-106060952D01*
X114419047Y-105441904D01*
%TO.C,DL3*%
X70142380Y-84962857D02*
X69142380Y-84962857D01*
X69142380Y-84724761D01*
X69190000Y-84581904D01*
X69285238Y-84486666D01*
X69380476Y-84439047D01*
X69570952Y-84391428D01*
X69713809Y-84391428D01*
X69904285Y-84439047D01*
X69999523Y-84486666D01*
X70094761Y-84581904D01*
X70142380Y-84724761D01*
X70142380Y-84962857D01*
X70142380Y-83486666D02*
X70142380Y-83962857D01*
X69142380Y-83962857D01*
X69142380Y-83248571D02*
X69142380Y-82629523D01*
X69523333Y-82962857D01*
X69523333Y-82820000D01*
X69570952Y-82724761D01*
X69618571Y-82677142D01*
X69713809Y-82629523D01*
X69951904Y-82629523D01*
X70047142Y-82677142D01*
X70094761Y-82724761D01*
X70142380Y-82820000D01*
X70142380Y-83105714D01*
X70094761Y-83200952D01*
X70047142Y-83248571D01*
%TO.C,RL2*%
X73222380Y-56451428D02*
X72746190Y-56784761D01*
X73222380Y-57022857D02*
X72222380Y-57022857D01*
X72222380Y-56641904D01*
X72270000Y-56546666D01*
X72317619Y-56499047D01*
X72412857Y-56451428D01*
X72555714Y-56451428D01*
X72650952Y-56499047D01*
X72698571Y-56546666D01*
X72746190Y-56641904D01*
X72746190Y-57022857D01*
X73222380Y-55546666D02*
X73222380Y-56022857D01*
X72222380Y-56022857D01*
X72317619Y-55260952D02*
X72270000Y-55213333D01*
X72222380Y-55118095D01*
X72222380Y-54880000D01*
X72270000Y-54784761D01*
X72317619Y-54737142D01*
X72412857Y-54689523D01*
X72508095Y-54689523D01*
X72650952Y-54737142D01*
X73222380Y-55308571D01*
X73222380Y-54689523D01*
%TO.C,J4*%
X117652380Y-89273333D02*
X118366666Y-89273333D01*
X118509523Y-89320952D01*
X118604761Y-89416190D01*
X118652380Y-89559047D01*
X118652380Y-89654285D01*
X117985714Y-88368571D02*
X118652380Y-88368571D01*
X117604761Y-88606666D02*
X118319047Y-88844761D01*
X118319047Y-88225714D01*
%TO.C,RL3*%
X73222380Y-79311428D02*
X72746190Y-79644761D01*
X73222380Y-79882857D02*
X72222380Y-79882857D01*
X72222380Y-79501904D01*
X72270000Y-79406666D01*
X72317619Y-79359047D01*
X72412857Y-79311428D01*
X72555714Y-79311428D01*
X72650952Y-79359047D01*
X72698571Y-79406666D01*
X72746190Y-79501904D01*
X72746190Y-79882857D01*
X73222380Y-78406666D02*
X73222380Y-78882857D01*
X72222380Y-78882857D01*
X72222380Y-78168571D02*
X72222380Y-77549523D01*
X72603333Y-77882857D01*
X72603333Y-77740000D01*
X72650952Y-77644761D01*
X72698571Y-77597142D01*
X72793809Y-77549523D01*
X73031904Y-77549523D01*
X73127142Y-77597142D01*
X73174761Y-77644761D01*
X73222380Y-77740000D01*
X73222380Y-78025714D01*
X73174761Y-78120952D01*
X73127142Y-78168571D01*
%TO.C,RL5*%
X42742380Y-102171428D02*
X42266190Y-102504761D01*
X42742380Y-102742857D02*
X41742380Y-102742857D01*
X41742380Y-102361904D01*
X41790000Y-102266666D01*
X41837619Y-102219047D01*
X41932857Y-102171428D01*
X42075714Y-102171428D01*
X42170952Y-102219047D01*
X42218571Y-102266666D01*
X42266190Y-102361904D01*
X42266190Y-102742857D01*
X42742380Y-101266666D02*
X42742380Y-101742857D01*
X41742380Y-101742857D01*
X41742380Y-100457142D02*
X41742380Y-100933333D01*
X42218571Y-100980952D01*
X42170952Y-100933333D01*
X42123333Y-100838095D01*
X42123333Y-100600000D01*
X42170952Y-100504761D01*
X42218571Y-100457142D01*
X42313809Y-100409523D01*
X42551904Y-100409523D01*
X42647142Y-100457142D01*
X42694761Y-100504761D01*
X42742380Y-100600000D01*
X42742380Y-100838095D01*
X42694761Y-100933333D01*
X42647142Y-100980952D01*
%TO.C,R3*%
X71953333Y-87702380D02*
X71620000Y-87226190D01*
X71381904Y-87702380D02*
X71381904Y-86702380D01*
X71762857Y-86702380D01*
X71858095Y-86750000D01*
X71905714Y-86797619D01*
X71953333Y-86892857D01*
X71953333Y-87035714D01*
X71905714Y-87130952D01*
X71858095Y-87178571D01*
X71762857Y-87226190D01*
X71381904Y-87226190D01*
X72286666Y-86702380D02*
X72905714Y-86702380D01*
X72572380Y-87083333D01*
X72715238Y-87083333D01*
X72810476Y-87130952D01*
X72858095Y-87178571D01*
X72905714Y-87273809D01*
X72905714Y-87511904D01*
X72858095Y-87607142D01*
X72810476Y-87654761D01*
X72715238Y-87702380D01*
X72429523Y-87702380D01*
X72334285Y-87654761D01*
X72286666Y-87607142D01*
%TO.C,D5*%
X51332380Y-104878095D02*
X50332380Y-104878095D01*
X50332380Y-104640000D01*
X50380000Y-104497142D01*
X50475238Y-104401904D01*
X50570476Y-104354285D01*
X50760952Y-104306666D01*
X50903809Y-104306666D01*
X51094285Y-104354285D01*
X51189523Y-104401904D01*
X51284761Y-104497142D01*
X51332380Y-104640000D01*
X51332380Y-104878095D01*
X50332380Y-103401904D02*
X50332380Y-103878095D01*
X50808571Y-103925714D01*
X50760952Y-103878095D01*
X50713333Y-103782857D01*
X50713333Y-103544761D01*
X50760952Y-103449523D01*
X50808571Y-103401904D01*
X50903809Y-103354285D01*
X51141904Y-103354285D01*
X51237142Y-103401904D01*
X51284761Y-103449523D01*
X51332380Y-103544761D01*
X51332380Y-103782857D01*
X51284761Y-103878095D01*
X51237142Y-103925714D01*
%TO.C,DL5*%
X39662380Y-107822857D02*
X38662380Y-107822857D01*
X38662380Y-107584761D01*
X38710000Y-107441904D01*
X38805238Y-107346666D01*
X38900476Y-107299047D01*
X39090952Y-107251428D01*
X39233809Y-107251428D01*
X39424285Y-107299047D01*
X39519523Y-107346666D01*
X39614761Y-107441904D01*
X39662380Y-107584761D01*
X39662380Y-107822857D01*
X39662380Y-106346666D02*
X39662380Y-106822857D01*
X38662380Y-106822857D01*
X38662380Y-105537142D02*
X38662380Y-106013333D01*
X39138571Y-106060952D01*
X39090952Y-106013333D01*
X39043333Y-105918095D01*
X39043333Y-105680000D01*
X39090952Y-105584761D01*
X39138571Y-105537142D01*
X39233809Y-105489523D01*
X39471904Y-105489523D01*
X39567142Y-105537142D01*
X39614761Y-105584761D01*
X39662380Y-105680000D01*
X39662380Y-105918095D01*
X39614761Y-106013333D01*
X39567142Y-106060952D01*
%TO.C,R2*%
X71953333Y-68142380D02*
X71620000Y-67666190D01*
X71381904Y-68142380D02*
X71381904Y-67142380D01*
X71762857Y-67142380D01*
X71858095Y-67190000D01*
X71905714Y-67237619D01*
X71953333Y-67332857D01*
X71953333Y-67475714D01*
X71905714Y-67570952D01*
X71858095Y-67618571D01*
X71762857Y-67666190D01*
X71381904Y-67666190D01*
X72334285Y-67237619D02*
X72381904Y-67190000D01*
X72477142Y-67142380D01*
X72715238Y-67142380D01*
X72810476Y-67190000D01*
X72858095Y-67237619D01*
X72905714Y-67332857D01*
X72905714Y-67428095D01*
X72858095Y-67570952D01*
X72286666Y-68142380D01*
X72905714Y-68142380D01*
%TO.C,R1*%
X71953333Y-45282380D02*
X71620000Y-44806190D01*
X71381904Y-45282380D02*
X71381904Y-44282380D01*
X71762857Y-44282380D01*
X71858095Y-44330000D01*
X71905714Y-44377619D01*
X71953333Y-44472857D01*
X71953333Y-44615714D01*
X71905714Y-44710952D01*
X71858095Y-44758571D01*
X71762857Y-44806190D01*
X71381904Y-44806190D01*
X72905714Y-45282380D02*
X72334285Y-45282380D01*
X72620000Y-45282380D02*
X72620000Y-44282380D01*
X72524761Y-44425238D01*
X72429523Y-44520476D01*
X72334285Y-44568095D01*
%TO.C,D2*%
X84352380Y-59158095D02*
X83352380Y-59158095D01*
X83352380Y-58920000D01*
X83400000Y-58777142D01*
X83495238Y-58681904D01*
X83590476Y-58634285D01*
X83780952Y-58586666D01*
X83923809Y-58586666D01*
X84114285Y-58634285D01*
X84209523Y-58681904D01*
X84304761Y-58777142D01*
X84352380Y-58920000D01*
X84352380Y-59158095D01*
X83447619Y-58205714D02*
X83400000Y-58158095D01*
X83352380Y-58062857D01*
X83352380Y-57824761D01*
X83400000Y-57729523D01*
X83447619Y-57681904D01*
X83542857Y-57634285D01*
X83638095Y-57634285D01*
X83780952Y-57681904D01*
X84352380Y-58253333D01*
X84352380Y-57634285D01*
%TO.C,D4*%
X101972380Y-109958095D02*
X100972380Y-109958095D01*
X100972380Y-109720000D01*
X101020000Y-109577142D01*
X101115238Y-109481904D01*
X101210476Y-109434285D01*
X101400952Y-109386666D01*
X101543809Y-109386666D01*
X101734285Y-109434285D01*
X101829523Y-109481904D01*
X101924761Y-109577142D01*
X101972380Y-109720000D01*
X101972380Y-109958095D01*
X101305714Y-108529523D02*
X101972380Y-108529523D01*
X100924761Y-108767619D02*
X101639047Y-109005714D01*
X101639047Y-108386666D01*
%TO.C,R5*%
X40473333Y-110562380D02*
X40140000Y-110086190D01*
X39901904Y-110562380D02*
X39901904Y-109562380D01*
X40282857Y-109562380D01*
X40378095Y-109610000D01*
X40425714Y-109657619D01*
X40473333Y-109752857D01*
X40473333Y-109895714D01*
X40425714Y-109990952D01*
X40378095Y-110038571D01*
X40282857Y-110086190D01*
X39901904Y-110086190D01*
X41378095Y-109562380D02*
X40901904Y-109562380D01*
X40854285Y-110038571D01*
X40901904Y-109990952D01*
X40997142Y-109943333D01*
X41235238Y-109943333D01*
X41330476Y-109990952D01*
X41378095Y-110038571D01*
X41425714Y-110133809D01*
X41425714Y-110371904D01*
X41378095Y-110467142D01*
X41330476Y-110514761D01*
X41235238Y-110562380D01*
X40997142Y-110562380D01*
X40901904Y-110514761D01*
X40854285Y-110467142D01*
%TO.C,K1*%
X90431666Y-29594333D02*
X90431666Y-28194333D01*
X91231666Y-29594333D02*
X90631666Y-28794333D01*
X91231666Y-28194333D02*
X90431666Y-28994333D01*
X92565000Y-29594333D02*
X91765000Y-29594333D01*
X92165000Y-29594333D02*
X92165000Y-28194333D01*
X92031666Y-28394333D01*
X91898333Y-28527666D01*
X91765000Y-28594333D01*
%TO.C,J5*%
X117652380Y-107053333D02*
X118366666Y-107053333D01*
X118509523Y-107100952D01*
X118604761Y-107196190D01*
X118652380Y-107339047D01*
X118652380Y-107434285D01*
X117652380Y-106100952D02*
X117652380Y-106577142D01*
X118128571Y-106624761D01*
X118080952Y-106577142D01*
X118033333Y-106481904D01*
X118033333Y-106243809D01*
X118080952Y-106148571D01*
X118128571Y-106100952D01*
X118223809Y-106053333D01*
X118461904Y-106053333D01*
X118557142Y-106100952D01*
X118604761Y-106148571D01*
X118652380Y-106243809D01*
X118652380Y-106481904D01*
X118604761Y-106577142D01*
X118557142Y-106624761D01*
%TO.C,Jent1*%
X46352380Y-59880000D02*
X47066666Y-59880000D01*
X47209523Y-59927619D01*
X47304761Y-60022857D01*
X47352380Y-60165714D01*
X47352380Y-60260952D01*
X47304761Y-59022857D02*
X47352380Y-59118095D01*
X47352380Y-59308571D01*
X47304761Y-59403809D01*
X47209523Y-59451428D01*
X46828571Y-59451428D01*
X46733333Y-59403809D01*
X46685714Y-59308571D01*
X46685714Y-59118095D01*
X46733333Y-59022857D01*
X46828571Y-58975238D01*
X46923809Y-58975238D01*
X47019047Y-59451428D01*
X46685714Y-58546666D02*
X47352380Y-58546666D01*
X46780952Y-58546666D02*
X46733333Y-58499047D01*
X46685714Y-58403809D01*
X46685714Y-58260952D01*
X46733333Y-58165714D01*
X46828571Y-58118095D01*
X47352380Y-58118095D01*
X46685714Y-57784761D02*
X46685714Y-57403809D01*
X46352380Y-57641904D02*
X47209523Y-57641904D01*
X47304761Y-57594285D01*
X47352380Y-57499047D01*
X47352380Y-57403809D01*
X47352380Y-56546666D02*
X47352380Y-57118095D01*
X47352380Y-56832380D02*
X46352380Y-56832380D01*
X46495238Y-56927619D01*
X46590476Y-57022857D01*
X46638095Y-57118095D01*
%TO.C,Q2*%
X81184761Y-64187619D02*
X81089523Y-64140000D01*
X80994285Y-64044761D01*
X80851428Y-63901904D01*
X80756190Y-63854285D01*
X80660952Y-63854285D01*
X80708571Y-64092380D02*
X80613333Y-64044761D01*
X80518095Y-63949523D01*
X80470476Y-63759047D01*
X80470476Y-63425714D01*
X80518095Y-63235238D01*
X80613333Y-63140000D01*
X80708571Y-63092380D01*
X80899047Y-63092380D01*
X80994285Y-63140000D01*
X81089523Y-63235238D01*
X81137142Y-63425714D01*
X81137142Y-63759047D01*
X81089523Y-63949523D01*
X80994285Y-64044761D01*
X80899047Y-64092380D01*
X80708571Y-64092380D01*
X81518095Y-63187619D02*
X81565714Y-63140000D01*
X81660952Y-63092380D01*
X81899047Y-63092380D01*
X81994285Y-63140000D01*
X82041904Y-63187619D01*
X82089523Y-63282857D01*
X82089523Y-63378095D01*
X82041904Y-63520952D01*
X81470476Y-64092380D01*
X82089523Y-64092380D01*
%TO.C,J45*%
X50192380Y-84792023D02*
X50906666Y-84792023D01*
X51049523Y-84839642D01*
X51144761Y-84934880D01*
X51192380Y-85077738D01*
X51192380Y-85172976D01*
X50525714Y-83887261D02*
X51192380Y-83887261D01*
X50144761Y-84125357D02*
X50859047Y-84363452D01*
X50859047Y-83744404D01*
X50192380Y-82887261D02*
X50192380Y-83363452D01*
X50668571Y-83411071D01*
X50620952Y-83363452D01*
X50573333Y-83268214D01*
X50573333Y-83030119D01*
X50620952Y-82934880D01*
X50668571Y-82887261D01*
X50763809Y-82839642D01*
X51001904Y-82839642D01*
X51097142Y-82887261D01*
X51144761Y-82934880D01*
X51192380Y-83030119D01*
X51192380Y-83268214D01*
X51144761Y-83363452D01*
X51097142Y-83411071D01*
%TO.C,DL2*%
X70142380Y-62102857D02*
X69142380Y-62102857D01*
X69142380Y-61864761D01*
X69190000Y-61721904D01*
X69285238Y-61626666D01*
X69380476Y-61579047D01*
X69570952Y-61531428D01*
X69713809Y-61531428D01*
X69904285Y-61579047D01*
X69999523Y-61626666D01*
X70094761Y-61721904D01*
X70142380Y-61864761D01*
X70142380Y-62102857D01*
X70142380Y-60626666D02*
X70142380Y-61102857D01*
X69142380Y-61102857D01*
X69237619Y-60340952D02*
X69190000Y-60293333D01*
X69142380Y-60198095D01*
X69142380Y-59960000D01*
X69190000Y-59864761D01*
X69237619Y-59817142D01*
X69332857Y-59769523D01*
X69428095Y-59769523D01*
X69570952Y-59817142D01*
X70142380Y-60388571D01*
X70142380Y-59769523D01*
%TO.C,L1*%
X54422380Y-63666666D02*
X54422380Y-64142857D01*
X53422380Y-64142857D01*
X54422380Y-62809523D02*
X54422380Y-63380952D01*
X54422380Y-63095238D02*
X53422380Y-63095238D01*
X53565238Y-63190476D01*
X53660476Y-63285714D01*
X53708095Y-63380952D01*
%TO.C,K4*%
X92921666Y-117473333D02*
X92921666Y-116073333D01*
X93721666Y-117473333D02*
X93121666Y-116673333D01*
X93721666Y-116073333D02*
X92921666Y-116873333D01*
X94921666Y-116540000D02*
X94921666Y-117473333D01*
X94588333Y-116006666D02*
X94255000Y-117006666D01*
X95121666Y-117006666D01*
%TO.C,R4*%
X111593333Y-103702380D02*
X111260000Y-103226190D01*
X111021904Y-103702380D02*
X111021904Y-102702380D01*
X111402857Y-102702380D01*
X111498095Y-102750000D01*
X111545714Y-102797619D01*
X111593333Y-102892857D01*
X111593333Y-103035714D01*
X111545714Y-103130952D01*
X111498095Y-103178571D01*
X111402857Y-103226190D01*
X111021904Y-103226190D01*
X112450476Y-103035714D02*
X112450476Y-103702380D01*
X112212380Y-102654761D02*
X111974285Y-103369047D01*
X112593333Y-103369047D01*
%TO.C,Q4*%
X104044761Y-104547619D02*
X103949523Y-104500000D01*
X103854285Y-104404761D01*
X103711428Y-104261904D01*
X103616190Y-104214285D01*
X103520952Y-104214285D01*
X103568571Y-104452380D02*
X103473333Y-104404761D01*
X103378095Y-104309523D01*
X103330476Y-104119047D01*
X103330476Y-103785714D01*
X103378095Y-103595238D01*
X103473333Y-103500000D01*
X103568571Y-103452380D01*
X103759047Y-103452380D01*
X103854285Y-103500000D01*
X103949523Y-103595238D01*
X103997142Y-103785714D01*
X103997142Y-104119047D01*
X103949523Y-104309523D01*
X103854285Y-104404761D01*
X103759047Y-104452380D01*
X103568571Y-104452380D01*
X104854285Y-103785714D02*
X104854285Y-104452380D01*
X104616190Y-103404761D02*
X104378095Y-104119047D01*
X104997142Y-104119047D01*
%TO.C,D1*%
X84352380Y-36298095D02*
X83352380Y-36298095D01*
X83352380Y-36060000D01*
X83400000Y-35917142D01*
X83495238Y-35821904D01*
X83590476Y-35774285D01*
X83780952Y-35726666D01*
X83923809Y-35726666D01*
X84114285Y-35774285D01*
X84209523Y-35821904D01*
X84304761Y-35917142D01*
X84352380Y-36060000D01*
X84352380Y-36298095D01*
X84352380Y-34774285D02*
X84352380Y-35345714D01*
X84352380Y-35060000D02*
X83352380Y-35060000D01*
X83495238Y-35155238D01*
X83590476Y-35250476D01*
X83638095Y-35345714D01*
%TO.C,J3*%
X117652380Y-71573333D02*
X118366666Y-71573333D01*
X118509523Y-71620952D01*
X118604761Y-71716190D01*
X118652380Y-71859047D01*
X118652380Y-71954285D01*
X117652380Y-71192380D02*
X117652380Y-70573333D01*
X118033333Y-70906666D01*
X118033333Y-70763809D01*
X118080952Y-70668571D01*
X118128571Y-70620952D01*
X118223809Y-70573333D01*
X118461904Y-70573333D01*
X118557142Y-70620952D01*
X118604761Y-70668571D01*
X118652380Y-70763809D01*
X118652380Y-71049523D01*
X118604761Y-71144761D01*
X118557142Y-71192380D01*
%TO.C,K3*%
X90431666Y-74293333D02*
X90431666Y-72893333D01*
X91231666Y-74293333D02*
X90631666Y-73493333D01*
X91231666Y-72893333D02*
X90431666Y-73693333D01*
X91698333Y-72893333D02*
X92565000Y-72893333D01*
X92098333Y-73426666D01*
X92298333Y-73426666D01*
X92431666Y-73493333D01*
X92498333Y-73560000D01*
X92565000Y-73693333D01*
X92565000Y-74026666D01*
X92498333Y-74160000D01*
X92431666Y-74226666D01*
X92298333Y-74293333D01*
X91898333Y-74293333D01*
X91765000Y-74226666D01*
X91698333Y-74160000D01*
%TO.C,J2*%
X117652380Y-53713333D02*
X118366666Y-53713333D01*
X118509523Y-53760952D01*
X118604761Y-53856190D01*
X118652380Y-53999047D01*
X118652380Y-54094285D01*
X117747619Y-53284761D02*
X117700000Y-53237142D01*
X117652380Y-53141904D01*
X117652380Y-52903809D01*
X117700000Y-52808571D01*
X117747619Y-52760952D01*
X117842857Y-52713333D01*
X117938095Y-52713333D01*
X118080952Y-52760952D01*
X118652380Y-53332380D01*
X118652380Y-52713333D01*
%TO.C,K2*%
X90406666Y-51433333D02*
X90406666Y-50033333D01*
X91206666Y-51433333D02*
X90606666Y-50633333D01*
X91206666Y-50033333D02*
X90406666Y-50833333D01*
X91740000Y-50166666D02*
X91806666Y-50100000D01*
X91940000Y-50033333D01*
X92273333Y-50033333D01*
X92406666Y-50100000D01*
X92473333Y-50166666D01*
X92540000Y-50300000D01*
X92540000Y-50433333D01*
X92473333Y-50633333D01*
X91673333Y-51433333D01*
X92540000Y-51433333D01*
%TO.C,DL1*%
X69032380Y-38442857D02*
X68032380Y-38442857D01*
X68032380Y-38204761D01*
X68080000Y-38061904D01*
X68175238Y-37966666D01*
X68270476Y-37919047D01*
X68460952Y-37871428D01*
X68603809Y-37871428D01*
X68794285Y-37919047D01*
X68889523Y-37966666D01*
X68984761Y-38061904D01*
X69032380Y-38204761D01*
X69032380Y-38442857D01*
X69032380Y-36966666D02*
X69032380Y-37442857D01*
X68032380Y-37442857D01*
X69032380Y-36109523D02*
X69032380Y-36680952D01*
X69032380Y-36395238D02*
X68032380Y-36395238D01*
X68175238Y-36490476D01*
X68270476Y-36585714D01*
X68318095Y-36680952D01*
%TO.C,L2*%
X58253333Y-45542380D02*
X57777142Y-45542380D01*
X57777142Y-44542380D01*
X58539047Y-44637619D02*
X58586666Y-44590000D01*
X58681904Y-44542380D01*
X58920000Y-44542380D01*
X59015238Y-44590000D01*
X59062857Y-44637619D01*
X59110476Y-44732857D01*
X59110476Y-44828095D01*
X59062857Y-44970952D01*
X58491428Y-45542380D01*
X59110476Y-45542380D01*
%TO.C,Jent2*%
X46352380Y-39560000D02*
X47066666Y-39560000D01*
X47209523Y-39607619D01*
X47304761Y-39702857D01*
X47352380Y-39845714D01*
X47352380Y-39940952D01*
X47304761Y-38702857D02*
X47352380Y-38798095D01*
X47352380Y-38988571D01*
X47304761Y-39083809D01*
X47209523Y-39131428D01*
X46828571Y-39131428D01*
X46733333Y-39083809D01*
X46685714Y-38988571D01*
X46685714Y-38798095D01*
X46733333Y-38702857D01*
X46828571Y-38655238D01*
X46923809Y-38655238D01*
X47019047Y-39131428D01*
X46685714Y-38226666D02*
X47352380Y-38226666D01*
X46780952Y-38226666D02*
X46733333Y-38179047D01*
X46685714Y-38083809D01*
X46685714Y-37940952D01*
X46733333Y-37845714D01*
X46828571Y-37798095D01*
X47352380Y-37798095D01*
X46685714Y-37464761D02*
X46685714Y-37083809D01*
X46352380Y-37321904D02*
X47209523Y-37321904D01*
X47304761Y-37274285D01*
X47352380Y-37179047D01*
X47352380Y-37083809D01*
X46447619Y-36798095D02*
X46400000Y-36750476D01*
X46352380Y-36655238D01*
X46352380Y-36417142D01*
X46400000Y-36321904D01*
X46447619Y-36274285D01*
X46542857Y-36226666D01*
X46638095Y-36226666D01*
X46780952Y-36274285D01*
X47352380Y-36845714D01*
X47352380Y-36226666D01*
%TO.C,J1*%
X117652380Y-36013333D02*
X118366666Y-36013333D01*
X118509523Y-36060952D01*
X118604761Y-36156190D01*
X118652380Y-36299047D01*
X118652380Y-36394285D01*
X118652380Y-35013333D02*
X118652380Y-35584761D01*
X118652380Y-35299047D02*
X117652380Y-35299047D01*
X117795238Y-35394285D01*
X117890476Y-35489523D01*
X117938095Y-35584761D01*
D11*
%TO.C,Q1*%
X81280000Y-44740000D02*
X80630000Y-44740000D01*
X81280000Y-41620000D02*
X79605000Y-41620000D01*
X81280000Y-44740000D02*
X81930000Y-44740000D01*
X81280000Y-41620000D02*
X81930000Y-41620000D01*
%TO.C,RL1*%
X71855000Y-32792936D02*
X71855000Y-33247064D01*
X70385000Y-32792936D02*
X70385000Y-33247064D01*
%TO.C,Q5*%
X48260000Y-113320000D02*
X47610000Y-113320000D01*
X48260000Y-110200000D02*
X46585000Y-110200000D01*
X48260000Y-113320000D02*
X48910000Y-113320000D01*
X48260000Y-110200000D02*
X48910000Y-110200000D01*
%TO.C,D3*%
X83215000Y-84430000D02*
X83215000Y-77270000D01*
X83215000Y-77270000D02*
X79345000Y-77270000D01*
X79345000Y-77270000D02*
X79345000Y-84430000D01*
%TO.C,RL4*%
X112495000Y-111532936D02*
X112495000Y-111987064D01*
X111025000Y-111532936D02*
X111025000Y-111987064D01*
%TO.C,Q3*%
X81280000Y-90460000D02*
X80630000Y-90460000D01*
X81280000Y-90460000D02*
X81930000Y-90460000D01*
X81280000Y-87340000D02*
X79605000Y-87340000D01*
X81280000Y-87340000D02*
X81930000Y-87340000D01*
D12*
%TO.C,K5*%
X73000000Y-98930000D02*
X73000000Y-114430000D01*
X54000000Y-98930000D02*
X73000000Y-98930000D01*
X54000000Y-114430000D02*
X54000000Y-98930000D01*
X73000000Y-114430000D02*
X54000000Y-114430000D01*
D11*
%TO.C,DL4*%
X111025000Y-105020000D02*
X111025000Y-107480000D01*
X112495000Y-107480000D02*
X112495000Y-105020000D01*
X112495000Y-105020000D02*
X111025000Y-105020000D01*
%TO.C,DL3*%
X71855000Y-85480000D02*
X71855000Y-83020000D01*
X70385000Y-85480000D02*
X71855000Y-85480000D01*
X70385000Y-83020000D02*
X70385000Y-85480000D01*
%TO.C,RL2*%
X70385000Y-55652936D02*
X70385000Y-56107064D01*
X71855000Y-55652936D02*
X71855000Y-56107064D01*
%TO.C,J4*%
X129120000Y-94000000D02*
X129120000Y-83880000D01*
X125483000Y-87667000D02*
X125529000Y-87714000D01*
X119199000Y-83880000D02*
X129120000Y-83880000D01*
X123185000Y-85370000D02*
X123221000Y-85405000D01*
X127060000Y-94000000D02*
X127060000Y-83880000D01*
X119199000Y-94000000D02*
X119199000Y-83880000D01*
X128620000Y-94240000D02*
X129360000Y-94240000D01*
X128560000Y-94000000D02*
X128560000Y-83880000D01*
X129360000Y-94240000D02*
X129360000Y-93740000D01*
X119199000Y-94000000D02*
X129120000Y-94000000D01*
X123391000Y-85165000D02*
X123437000Y-85212000D01*
X125699000Y-87474000D02*
X125734000Y-87509000D01*
X122159000Y-94000000D02*
X122159000Y-83880000D01*
X125995000Y-92124000D02*
G75*
G03*
X126140253Y-91411195I-1535001J683999D01*
G01*
X122925000Y-90756000D02*
G75*
G03*
X122924573Y-92123042I1534993J-684001D01*
G01*
X125144000Y-89904999D02*
G75*
G03*
X123776958Y-89904573I-684000J-1535001D01*
G01*
X126140000Y-91440000D02*
G75*
G03*
X125994756Y-90756682I-1680000J0D01*
G01*
X123776000Y-92975000D02*
G75*
G03*
X125143042Y-92975427I684001J1534993D01*
G01*
X126140000Y-86440000D02*
G75*
G03*
X126140000Y-86440000I-1680000J0D01*
G01*
%TO.C,RL3*%
X71855000Y-78512936D02*
X71855000Y-78967064D01*
X70385000Y-78512936D02*
X70385000Y-78967064D01*
%TO.C,RL5*%
X39905000Y-101372936D02*
X39905000Y-101827064D01*
X41375000Y-101372936D02*
X41375000Y-101827064D01*
%TO.C,R3*%
X71892936Y-88165000D02*
X72347064Y-88165000D01*
X71892936Y-89635000D02*
X72347064Y-89635000D01*
%TO.C,D5*%
X50195000Y-100130000D02*
X46325000Y-100130000D01*
X50195000Y-107290000D02*
X50195000Y-100130000D01*
X46325000Y-100130000D02*
X46325000Y-107290000D01*
%TO.C,DL5*%
X39905000Y-105880000D02*
X39905000Y-108340000D01*
X41375000Y-108340000D02*
X41375000Y-105880000D01*
X39905000Y-108340000D02*
X41375000Y-108340000D01*
%TO.C,R2*%
X72347064Y-65305000D02*
X71892936Y-65305000D01*
X72347064Y-66775000D02*
X71892936Y-66775000D01*
%TO.C,R1*%
X72347064Y-43915000D02*
X71892936Y-43915000D01*
X72347064Y-42445000D02*
X71892936Y-42445000D01*
%TO.C,D2*%
X83215000Y-54410000D02*
X79345000Y-54410000D01*
X83215000Y-61570000D02*
X83215000Y-54410000D01*
X79345000Y-54410000D02*
X79345000Y-61570000D01*
%TO.C,D4*%
X102205000Y-106070000D02*
X102205000Y-113230000D01*
X106075000Y-113230000D02*
X106075000Y-106070000D01*
X102205000Y-113230000D02*
X106075000Y-113230000D01*
%TO.C,R5*%
X40412936Y-111025000D02*
X40867064Y-111025000D01*
X40412936Y-112495000D02*
X40867064Y-112495000D01*
D12*
%TO.C,K1*%
X87020000Y-45850000D02*
X87020000Y-30350000D01*
X106020000Y-45850000D02*
X87020000Y-45850000D01*
X106020000Y-30350000D02*
X106020000Y-45850000D01*
X87020000Y-30350000D02*
X106020000Y-30350000D01*
D11*
%TO.C,J5*%
X119199000Y-101660000D02*
X129120000Y-101660000D01*
X125483000Y-105447000D02*
X125529000Y-105494000D01*
X129120000Y-111780000D02*
X129120000Y-101660000D01*
X128560000Y-111780000D02*
X128560000Y-101660000D01*
X123185000Y-103150000D02*
X123221000Y-103185000D01*
X122159000Y-111780000D02*
X122159000Y-101660000D01*
X128620000Y-112020000D02*
X129360000Y-112020000D01*
X127060000Y-111780000D02*
X127060000Y-101660000D01*
X119199000Y-111780000D02*
X129120000Y-111780000D01*
X119199000Y-111780000D02*
X119199000Y-101660000D01*
X129360000Y-112020000D02*
X129360000Y-111520000D01*
X125699000Y-105254000D02*
X125734000Y-105289000D01*
X123391000Y-102945000D02*
X123437000Y-102992000D01*
X125995000Y-109904000D02*
G75*
G03*
X126140253Y-109191195I-1535001J683999D01*
G01*
X126140000Y-109220000D02*
G75*
G03*
X125994756Y-108536682I-1680000J0D01*
G01*
X122925000Y-108536000D02*
G75*
G03*
X122924573Y-109903042I1534993J-684001D01*
G01*
X123776000Y-110755000D02*
G75*
G03*
X125143042Y-110755427I684001J1534993D01*
G01*
X125144000Y-107684999D02*
G75*
G03*
X123776958Y-107684573I-684000J-1535001D01*
G01*
X126140000Y-104220000D02*
G75*
G03*
X126140000Y-104220000I-1680000J0D01*
G01*
%TO.C,Jent1*%
X36480000Y-53080000D02*
X35740000Y-53080000D01*
X38040000Y-53320000D02*
X38040000Y-63440000D01*
X39617000Y-59653000D02*
X39571000Y-59606000D01*
X36540000Y-53320000D02*
X36540000Y-63440000D01*
X39401000Y-59846000D02*
X39366000Y-59811000D01*
X45901000Y-63440000D02*
X35980000Y-63440000D01*
X42941000Y-53320000D02*
X42941000Y-63440000D01*
X45901000Y-53320000D02*
X35980000Y-53320000D01*
X41709000Y-62155000D02*
X41663000Y-62108000D01*
X41915000Y-61950000D02*
X41879000Y-61915000D01*
X45901000Y-53320000D02*
X45901000Y-63440000D01*
X35980000Y-53320000D02*
X35980000Y-63440000D01*
X35740000Y-53080000D02*
X35740000Y-53580000D01*
X38960000Y-55880000D02*
G75*
G03*
X39105244Y-56563318I1680000J0D01*
G01*
X41324000Y-54345000D02*
G75*
G03*
X39956958Y-54344573I-684001J-1534993D01*
G01*
X42175000Y-56564000D02*
G75*
G03*
X42175427Y-55196958I-1534993J684001D01*
G01*
X39956000Y-57415001D02*
G75*
G03*
X41323042Y-57415427I684000J1535001D01*
G01*
X39105000Y-55196000D02*
G75*
G03*
X38959747Y-55908805I1535001J-683999D01*
G01*
X42320000Y-60880000D02*
G75*
G03*
X42320000Y-60880000I-1680000J0D01*
G01*
%TO.C,Q2*%
X81280000Y-67600000D02*
X81930000Y-67600000D01*
X81280000Y-64480000D02*
X81930000Y-64480000D01*
X81280000Y-64480000D02*
X79605000Y-64480000D01*
X81280000Y-67600000D02*
X80630000Y-67600000D01*
%TO.C,J45*%
X49620000Y-91742500D02*
X49620000Y-76222500D01*
X45240000Y-75537500D02*
X45740000Y-76037500D01*
X45740000Y-76037500D02*
X46240000Y-75537500D01*
X49620000Y-91742500D02*
X31660000Y-91742500D01*
X49620000Y-76222500D02*
X31660000Y-76222500D01*
X31660000Y-76222500D02*
X31660000Y-91742500D01*
X46240000Y-75537500D02*
X45240000Y-75537500D01*
%TO.C,DL2*%
X71855000Y-62620000D02*
X71855000Y-60160000D01*
X70385000Y-62620000D02*
X71855000Y-62620000D01*
X70385000Y-60160000D02*
X70385000Y-62620000D01*
%TO.C,L1*%
X56920000Y-66800000D02*
X55220000Y-66800000D01*
X61620000Y-66800000D02*
X59920000Y-66800000D01*
X59920000Y-60200000D02*
X61620000Y-60200000D01*
X61620000Y-60200000D02*
X61620000Y-66800000D01*
X55220000Y-66800000D02*
X55220000Y-60200000D01*
X55220000Y-60200000D02*
X56920000Y-60200000D01*
D12*
%TO.C,K4*%
X79400000Y-98930000D02*
X98400000Y-98930000D01*
X98400000Y-114430000D02*
X79400000Y-114430000D01*
X98400000Y-98930000D02*
X98400000Y-114430000D01*
X79400000Y-114430000D02*
X79400000Y-98930000D01*
D11*
%TO.C,R4*%
X111987064Y-102335000D02*
X111532936Y-102335000D01*
X111987064Y-100865000D02*
X111532936Y-100865000D01*
%TO.C,Q4*%
X104140000Y-103160000D02*
X103490000Y-103160000D01*
X104140000Y-103160000D02*
X105815000Y-103160000D01*
X104140000Y-100040000D02*
X104790000Y-100040000D01*
X104140000Y-100040000D02*
X103490000Y-100040000D01*
%TO.C,D1*%
X83215000Y-38710000D02*
X83215000Y-31550000D01*
X83215000Y-31550000D02*
X79345000Y-31550000D01*
X79345000Y-31550000D02*
X79345000Y-38710000D01*
%TO.C,J3*%
X119199000Y-76300000D02*
X129120000Y-76300000D01*
X125699000Y-69774000D02*
X125734000Y-69809000D01*
X125483000Y-69967000D02*
X125529000Y-70014000D01*
X127060000Y-76300000D02*
X127060000Y-66180000D01*
X129360000Y-76540000D02*
X129360000Y-76040000D01*
X128620000Y-76540000D02*
X129360000Y-76540000D01*
X129120000Y-76300000D02*
X129120000Y-66180000D01*
X119199000Y-76300000D02*
X119199000Y-66180000D01*
X122159000Y-76300000D02*
X122159000Y-66180000D01*
X119199000Y-66180000D02*
X129120000Y-66180000D01*
X128560000Y-76300000D02*
X128560000Y-66180000D01*
X123185000Y-67670000D02*
X123221000Y-67705000D01*
X123391000Y-67465000D02*
X123437000Y-67512000D01*
X125995000Y-74424000D02*
G75*
G03*
X126140253Y-73711195I-1535001J683999D01*
G01*
X125144000Y-72204999D02*
G75*
G03*
X123776958Y-72204573I-684000J-1535001D01*
G01*
X122925000Y-73056000D02*
G75*
G03*
X122924573Y-74423042I1534993J-684001D01*
G01*
X126140000Y-73740000D02*
G75*
G03*
X125994756Y-73056682I-1680000J0D01*
G01*
X123776000Y-75275000D02*
G75*
G03*
X125143042Y-75275427I684001J1534993D01*
G01*
X126140000Y-68740000D02*
G75*
G03*
X126140000Y-68740000I-1680000J0D01*
G01*
D12*
%TO.C,K3*%
X87020000Y-91570000D02*
X87020000Y-76070000D01*
X87020000Y-76070000D02*
X106020000Y-76070000D01*
X106020000Y-76070000D02*
X106020000Y-91570000D01*
X106020000Y-91570000D02*
X87020000Y-91570000D01*
D11*
%TO.C,J2*%
X119199000Y-58440000D02*
X129120000Y-58440000D01*
X123391000Y-49605000D02*
X123437000Y-49652000D01*
X127060000Y-58440000D02*
X127060000Y-48320000D01*
X128620000Y-58680000D02*
X129360000Y-58680000D01*
X129360000Y-58680000D02*
X129360000Y-58180000D01*
X119199000Y-58440000D02*
X119199000Y-48320000D01*
X119199000Y-48320000D02*
X129120000Y-48320000D01*
X123185000Y-49810000D02*
X123221000Y-49845000D01*
X128560000Y-58440000D02*
X128560000Y-48320000D01*
X129120000Y-58440000D02*
X129120000Y-48320000D01*
X125483000Y-52107000D02*
X125529000Y-52154000D01*
X125699000Y-51914000D02*
X125734000Y-51949000D01*
X122159000Y-58440000D02*
X122159000Y-48320000D01*
X123776000Y-57415000D02*
G75*
G03*
X125143042Y-57415427I684001J1534993D01*
G01*
X126140000Y-55880000D02*
G75*
G03*
X125994756Y-55196682I-1680000J0D01*
G01*
X125144000Y-54344999D02*
G75*
G03*
X123776958Y-54344573I-684000J-1535001D01*
G01*
X125995000Y-56564000D02*
G75*
G03*
X126140253Y-55851195I-1535001J683999D01*
G01*
X122925000Y-55196000D02*
G75*
G03*
X122924573Y-56563042I1534993J-684001D01*
G01*
X126140000Y-50880000D02*
G75*
G03*
X126140000Y-50880000I-1680000J0D01*
G01*
D12*
%TO.C,K2*%
X87020000Y-68710000D02*
X87020000Y-53210000D01*
X87020000Y-53210000D02*
X106020000Y-53210000D01*
X106020000Y-53210000D02*
X106020000Y-68710000D01*
X106020000Y-68710000D02*
X87020000Y-68710000D01*
D11*
%TO.C,DL1*%
X71855000Y-39760000D02*
X71855000Y-37300000D01*
X70385000Y-37300000D02*
X70385000Y-39760000D01*
X70385000Y-39760000D02*
X71855000Y-39760000D01*
%TO.C,L2*%
X61720000Y-43840000D02*
X55120000Y-43840000D01*
X55120000Y-39140000D02*
X55120000Y-37440000D01*
X55120000Y-37440000D02*
X61720000Y-37440000D01*
X55120000Y-43840000D02*
X55120000Y-42140000D01*
X61720000Y-37440000D02*
X61720000Y-39140000D01*
X61720000Y-42140000D02*
X61720000Y-43840000D01*
%TO.C,Jent2*%
X36540000Y-33000000D02*
X36540000Y-43120000D01*
X35980000Y-33000000D02*
X35980000Y-43120000D01*
X45901000Y-33000000D02*
X45901000Y-43120000D01*
X39401000Y-39526000D02*
X39366000Y-39491000D01*
X41709000Y-41835000D02*
X41663000Y-41788000D01*
X39617000Y-39333000D02*
X39571000Y-39286000D01*
X45901000Y-33000000D02*
X35980000Y-33000000D01*
X36480000Y-32760000D02*
X35740000Y-32760000D01*
X45901000Y-43120000D02*
X35980000Y-43120000D01*
X35740000Y-32760000D02*
X35740000Y-33260000D01*
X42941000Y-33000000D02*
X42941000Y-43120000D01*
X38040000Y-33000000D02*
X38040000Y-43120000D01*
X41915000Y-41630000D02*
X41879000Y-41595000D01*
X39105000Y-34876000D02*
G75*
G03*
X38959747Y-35588805I1535001J-683999D01*
G01*
X42175000Y-36244000D02*
G75*
G03*
X42175427Y-34876958I-1534993J684001D01*
G01*
X41324000Y-34025000D02*
G75*
G03*
X39956958Y-34024573I-684001J-1534993D01*
G01*
X39956000Y-37095001D02*
G75*
G03*
X41323042Y-37095427I684000J1535001D01*
G01*
X38960000Y-35560000D02*
G75*
G03*
X39105244Y-36243318I1680000J0D01*
G01*
X42320000Y-40560000D02*
G75*
G03*
X42320000Y-40560000I-1680000J0D01*
G01*
%TO.C,J1*%
X122159000Y-40740000D02*
X122159000Y-30620000D01*
X128560000Y-40740000D02*
X128560000Y-30620000D01*
X119199000Y-30620000D02*
X129120000Y-30620000D01*
X129120000Y-40740000D02*
X129120000Y-30620000D01*
X128620000Y-40980000D02*
X129360000Y-40980000D01*
X119199000Y-40740000D02*
X129120000Y-40740000D01*
X123391000Y-31905000D02*
X123437000Y-31952000D01*
X125699000Y-34214000D02*
X125734000Y-34249000D01*
X125483000Y-34407000D02*
X125529000Y-34454000D01*
X127060000Y-40740000D02*
X127060000Y-30620000D01*
X119199000Y-40740000D02*
X119199000Y-30620000D01*
X123185000Y-32110000D02*
X123221000Y-32145000D01*
X129360000Y-40980000D02*
X129360000Y-40480000D01*
X122925000Y-37496000D02*
G75*
G03*
X122924573Y-38863042I1534993J-684001D01*
G01*
X125995000Y-38864000D02*
G75*
G03*
X126140253Y-38151195I-1535001J683999D01*
G01*
X123776000Y-39715000D02*
G75*
G03*
X125143042Y-39715427I684001J1534993D01*
G01*
X125144000Y-36644999D02*
G75*
G03*
X123776958Y-36644573I-684000J-1535001D01*
G01*
X126140000Y-38180000D02*
G75*
G03*
X125994756Y-37496682I-1680000J0D01*
G01*
X126140000Y-33180000D02*
G75*
G03*
X126140000Y-33180000I-1680000J0D01*
G01*
%TD*%
M02*
