M48
; DRILL file {KiCad (6.0.8)} date Mon Nov  7 01:23:48 2022
; FORMAT={-:-/ absolute / metric / decimal}
; #@! TF.CreationDate,2022-11-07T01:23:48-05:00
; #@! TF.GenerationSoftware,Kicad,Pcbnew,(6.0.8)
; #@! TF.FileFunction,Plated,1,2,PTH
FMAT,2
METRIC
; #@! TA.AperFunction,Plated,PTH,ViaDrill
T1C0.400
; #@! TA.AperFunction,Plated,PTH,ComponentDrill
T2C0.760
; #@! TA.AperFunction,Plated,PTH,ComponentDrill
T3C1.300
; #@! TA.AperFunction,Plated,PTH,ViaDrill
T4C3.400
%
G90
G05
T1
X43.536Y-111.391
X69.586Y-66.588
X71.2Y-45.232
X90.42Y-84.301
T2
X45.74Y-79.537
X45.74Y-82.078
X45.74Y-84.617
X45.74Y-87.157
X48.28Y-80.807
X48.28Y-83.347
X48.28Y-85.888
X48.28Y-88.427
T3
X40.64Y-35.56
X40.64Y-40.56
X40.64Y-55.88
X40.64Y-60.88
X57.4Y-100.68
X57.4Y-112.68
X69.6Y-100.68
X69.6Y-112.68
X71.6Y-106.68
X80.8Y-106.68
X82.8Y-100.68
X82.8Y-112.68
X90.42Y-32.1
X90.42Y-44.1
X90.42Y-54.96
X90.42Y-66.96
X90.42Y-77.82
X90.42Y-89.82
X95.0Y-100.68
X95.0Y-112.68
X102.62Y-32.1
X102.62Y-44.1
X102.62Y-54.96
X102.62Y-66.96
X102.62Y-77.82
X102.62Y-89.82
X104.62Y-38.1
X104.62Y-60.96
X104.62Y-83.82
X124.46Y-33.18
X124.46Y-38.18
X124.46Y-50.88
X124.46Y-55.88
X124.46Y-68.74
X124.46Y-73.74
X124.46Y-86.44
X124.46Y-91.44
X124.46Y-104.22
X124.46Y-109.22
T4
X35.56Y-25.4
X35.56Y-119.38
X129.54Y-25.4
X129.54Y-119.38
T0
M30
