%TF.GenerationSoftware,KiCad,Pcbnew,(6.0.8)*%
%TF.CreationDate,2022-11-07T17:30:20-05:00*%
%TF.ProjectId,Riego_potencia,52696567-6f5f-4706-9f74-656e6369612e,rev?*%
%TF.SameCoordinates,Original*%
%TF.FileFunction,Legend,Bot*%
%TF.FilePolarity,Positive*%
%FSLAX46Y46*%
G04 Gerber Fmt 4.6, Leading zero omitted, Abs format (unit mm)*
G04 Created by KiCad (PCBNEW (6.0.8)) date 2022-11-07 17:30:20*
%MOMM*%
%LPD*%
G01*
G04 APERTURE LIST*
%ADD10C,0.300000*%
G04 APERTURE END LIST*
D10*
X83267857Y-51686071D02*
X83267857Y-52900357D01*
X83196428Y-53043214D01*
X83125000Y-53114642D01*
X82982142Y-53186071D01*
X82696428Y-53186071D01*
X82553571Y-53114642D01*
X82482142Y-53043214D01*
X82410714Y-52900357D01*
X82410714Y-51686071D01*
X81696428Y-52186071D02*
X81696428Y-53186071D01*
X81696428Y-52328928D02*
X81625000Y-52257500D01*
X81482142Y-52186071D01*
X81267857Y-52186071D01*
X81125000Y-52257500D01*
X81053571Y-52400357D01*
X81053571Y-53186071D01*
X80339285Y-53186071D02*
X80339285Y-52186071D01*
X80339285Y-51686071D02*
X80410714Y-51757500D01*
X80339285Y-51828928D01*
X80267857Y-51757500D01*
X80339285Y-51686071D01*
X80339285Y-51828928D01*
X79767857Y-52186071D02*
X79410714Y-53186071D01*
X79053571Y-52186071D01*
X77910714Y-53114642D02*
X78053571Y-53186071D01*
X78339285Y-53186071D01*
X78482142Y-53114642D01*
X78553571Y-52971785D01*
X78553571Y-52400357D01*
X78482142Y-52257500D01*
X78339285Y-52186071D01*
X78053571Y-52186071D01*
X77910714Y-52257500D01*
X77839285Y-52400357D01*
X77839285Y-52543214D01*
X78553571Y-52686071D01*
X77196428Y-53186071D02*
X77196428Y-52186071D01*
X77196428Y-52471785D02*
X77125000Y-52328928D01*
X77053571Y-52257500D01*
X76910714Y-52186071D01*
X76767857Y-52186071D01*
X76339285Y-53114642D02*
X76196428Y-53186071D01*
X75910714Y-53186071D01*
X75767857Y-53114642D01*
X75696428Y-52971785D01*
X75696428Y-52900357D01*
X75767857Y-52757500D01*
X75910714Y-52686071D01*
X76125000Y-52686071D01*
X76267857Y-52614642D01*
X76339285Y-52471785D01*
X76339285Y-52400357D01*
X76267857Y-52257500D01*
X76125000Y-52186071D01*
X75910714Y-52186071D01*
X75767857Y-52257500D01*
X75053571Y-53186071D02*
X75053571Y-52186071D01*
X75053571Y-51686071D02*
X75125000Y-51757500D01*
X75053571Y-51828928D01*
X74982142Y-51757500D01*
X75053571Y-51686071D01*
X75053571Y-51828928D01*
X73696428Y-53186071D02*
X73696428Y-51686071D01*
X73696428Y-53114642D02*
X73839285Y-53186071D01*
X74125000Y-53186071D01*
X74267857Y-53114642D01*
X74339285Y-53043214D01*
X74410714Y-52900357D01*
X74410714Y-52471785D01*
X74339285Y-52328928D01*
X74267857Y-52257500D01*
X74125000Y-52186071D01*
X73839285Y-52186071D01*
X73696428Y-52257500D01*
X72339285Y-53186071D02*
X72339285Y-52400357D01*
X72410714Y-52257500D01*
X72553571Y-52186071D01*
X72839285Y-52186071D01*
X72982142Y-52257500D01*
X72339285Y-53114642D02*
X72482142Y-53186071D01*
X72839285Y-53186071D01*
X72982142Y-53114642D01*
X73053571Y-52971785D01*
X73053571Y-52828928D01*
X72982142Y-52686071D01*
X72839285Y-52614642D01*
X72482142Y-52614642D01*
X72339285Y-52543214D01*
X70982142Y-53186071D02*
X70982142Y-51686071D01*
X70982142Y-53114642D02*
X71125000Y-53186071D01*
X71410714Y-53186071D01*
X71553571Y-53114642D01*
X71625000Y-53043214D01*
X71696428Y-52900357D01*
X71696428Y-52471785D01*
X71625000Y-52328928D01*
X71553571Y-52257500D01*
X71410714Y-52186071D01*
X71125000Y-52186071D01*
X70982142Y-52257500D01*
X69125000Y-53186071D02*
X69125000Y-51686071D01*
X68267857Y-53186071D01*
X68267857Y-51686071D01*
X66910714Y-53186071D02*
X66910714Y-52400357D01*
X66982142Y-52257500D01*
X67125000Y-52186071D01*
X67410714Y-52186071D01*
X67553571Y-52257500D01*
X66910714Y-53114642D02*
X67053571Y-53186071D01*
X67410714Y-53186071D01*
X67553571Y-53114642D01*
X67625000Y-52971785D01*
X67625000Y-52828928D01*
X67553571Y-52686071D01*
X67410714Y-52614642D01*
X67053571Y-52614642D01*
X66910714Y-52543214D01*
X65553571Y-53114642D02*
X65696428Y-53186071D01*
X65982142Y-53186071D01*
X66124999Y-53114642D01*
X66196428Y-53043214D01*
X66267857Y-52900357D01*
X66267857Y-52471785D01*
X66196428Y-52328928D01*
X66124999Y-52257500D01*
X65982142Y-52186071D01*
X65696428Y-52186071D01*
X65553571Y-52257500D01*
X64910714Y-53186071D02*
X64910714Y-52186071D01*
X64910714Y-51686071D02*
X64982142Y-51757500D01*
X64910714Y-51828928D01*
X64839285Y-51757500D01*
X64910714Y-51686071D01*
X64910714Y-51828928D01*
X63982142Y-53186071D02*
X64124999Y-53114642D01*
X64196428Y-53043214D01*
X64267857Y-52900357D01*
X64267857Y-52471785D01*
X64196428Y-52328928D01*
X64124999Y-52257500D01*
X63982142Y-52186071D01*
X63767857Y-52186071D01*
X63624999Y-52257500D01*
X63553571Y-52328928D01*
X63482142Y-52471785D01*
X63482142Y-52900357D01*
X63553571Y-53043214D01*
X63624999Y-53114642D01*
X63767857Y-53186071D01*
X63982142Y-53186071D01*
X62839285Y-52186071D02*
X62839285Y-53186071D01*
X62839285Y-52328928D02*
X62767857Y-52257500D01*
X62624999Y-52186071D01*
X62410714Y-52186071D01*
X62267857Y-52257500D01*
X62196428Y-52400357D01*
X62196428Y-53186071D01*
X60839285Y-53186071D02*
X60839285Y-52400357D01*
X60910714Y-52257500D01*
X61053571Y-52186071D01*
X61339285Y-52186071D01*
X61482142Y-52257500D01*
X60839285Y-53114642D02*
X60982142Y-53186071D01*
X61339285Y-53186071D01*
X61482142Y-53114642D01*
X61553571Y-52971785D01*
X61553571Y-52828928D01*
X61482142Y-52686071D01*
X61339285Y-52614642D01*
X60982142Y-52614642D01*
X60839285Y-52543214D01*
X59910714Y-53186071D02*
X60053571Y-53114642D01*
X60124999Y-52971785D01*
X60124999Y-51686071D01*
X57553571Y-53186071D02*
X57553571Y-51686071D01*
X57553571Y-53114642D02*
X57696428Y-53186071D01*
X57982142Y-53186071D01*
X58124999Y-53114642D01*
X58196428Y-53043214D01*
X58267857Y-52900357D01*
X58267857Y-52471785D01*
X58196428Y-52328928D01*
X58124999Y-52257500D01*
X57982142Y-52186071D01*
X57696428Y-52186071D01*
X57553571Y-52257500D01*
X56267857Y-53114642D02*
X56410714Y-53186071D01*
X56696428Y-53186071D01*
X56839285Y-53114642D01*
X56910714Y-52971785D01*
X56910714Y-52400357D01*
X56839285Y-52257500D01*
X56696428Y-52186071D01*
X56410714Y-52186071D01*
X56267857Y-52257500D01*
X56196428Y-52400357D01*
X56196428Y-52543214D01*
X56910714Y-52686071D01*
X53553571Y-53043214D02*
X53625000Y-53114642D01*
X53839285Y-53186071D01*
X53982142Y-53186071D01*
X54196428Y-53114642D01*
X54339285Y-52971785D01*
X54410714Y-52828928D01*
X54482142Y-52543214D01*
X54482142Y-52328928D01*
X54410714Y-52043214D01*
X54339285Y-51900357D01*
X54196428Y-51757500D01*
X53982142Y-51686071D01*
X53839285Y-51686071D01*
X53625000Y-51757500D01*
X53553571Y-51828928D01*
X52696428Y-53186071D02*
X52839285Y-53114642D01*
X52910714Y-53043214D01*
X52982142Y-52900357D01*
X52982142Y-52471785D01*
X52910714Y-52328928D01*
X52839285Y-52257500D01*
X52696428Y-52186071D01*
X52482142Y-52186071D01*
X52339285Y-52257500D01*
X52267857Y-52328928D01*
X52196428Y-52471785D01*
X52196428Y-52900357D01*
X52267857Y-53043214D01*
X52339285Y-53114642D01*
X52482142Y-53186071D01*
X52696428Y-53186071D01*
X51339285Y-53186071D02*
X51482142Y-53114642D01*
X51553571Y-52971785D01*
X51553571Y-51686071D01*
X50553571Y-53186071D02*
X50696428Y-53114642D01*
X50767857Y-53043214D01*
X50839285Y-52900357D01*
X50839285Y-52471785D01*
X50767857Y-52328928D01*
X50696428Y-52257500D01*
X50553571Y-52186071D01*
X50339285Y-52186071D01*
X50196428Y-52257500D01*
X50124999Y-52328928D01*
X50053571Y-52471785D01*
X50053571Y-52900357D01*
X50124999Y-53043214D01*
X50196428Y-53114642D01*
X50339285Y-53186071D01*
X50553571Y-53186071D01*
X49410714Y-53186071D02*
X49410714Y-52186071D01*
X49410714Y-52328928D02*
X49339285Y-52257500D01*
X49196428Y-52186071D01*
X48982142Y-52186071D01*
X48839285Y-52257500D01*
X48767857Y-52400357D01*
X48767857Y-53186071D01*
X48767857Y-52400357D02*
X48696428Y-52257500D01*
X48553571Y-52186071D01*
X48339285Y-52186071D01*
X48196428Y-52257500D01*
X48124999Y-52400357D01*
X48124999Y-53186071D01*
X47410714Y-53186071D02*
X47410714Y-51686071D01*
X47410714Y-52257500D02*
X47267857Y-52186071D01*
X46982142Y-52186071D01*
X46839285Y-52257500D01*
X46767857Y-52328928D01*
X46696428Y-52471785D01*
X46696428Y-52900357D01*
X46767857Y-53043214D01*
X46839285Y-53114642D01*
X46982142Y-53186071D01*
X47267857Y-53186071D01*
X47410714Y-53114642D01*
X46053571Y-53186071D02*
X46053571Y-52186071D01*
X46053571Y-51686071D02*
X46124999Y-51757500D01*
X46053571Y-51828928D01*
X45982142Y-51757500D01*
X46053571Y-51686071D01*
X46053571Y-51828928D01*
X44696428Y-53186071D02*
X44696428Y-52400357D01*
X44767857Y-52257500D01*
X44910714Y-52186071D01*
X45196428Y-52186071D01*
X45339285Y-52257500D01*
X44696428Y-53114642D02*
X44839285Y-53186071D01*
X45196428Y-53186071D01*
X45339285Y-53114642D01*
X45410714Y-52971785D01*
X45410714Y-52828928D01*
X45339285Y-52686071D01*
X45196428Y-52614642D01*
X44839285Y-52614642D01*
X44696428Y-52543214D01*
X83267857Y-55601071D02*
X83267857Y-54101071D01*
X82910714Y-54101071D01*
X82696428Y-54172500D01*
X82553571Y-54315357D01*
X82482142Y-54458214D01*
X82410714Y-54743928D01*
X82410714Y-54958214D01*
X82482142Y-55243928D01*
X82553571Y-55386785D01*
X82696428Y-55529642D01*
X82910714Y-55601071D01*
X83267857Y-55601071D01*
X81767857Y-55601071D02*
X81767857Y-54601071D01*
X81767857Y-54101071D02*
X81839285Y-54172500D01*
X81767857Y-54243928D01*
X81696428Y-54172500D01*
X81767857Y-54101071D01*
X81767857Y-54243928D01*
X81125000Y-55529642D02*
X80982142Y-55601071D01*
X80696428Y-55601071D01*
X80553571Y-55529642D01*
X80482142Y-55386785D01*
X80482142Y-55315357D01*
X80553571Y-55172500D01*
X80696428Y-55101071D01*
X80910714Y-55101071D01*
X81053571Y-55029642D01*
X81125000Y-54886785D01*
X81125000Y-54815357D01*
X81053571Y-54672500D01*
X80910714Y-54601071D01*
X80696428Y-54601071D01*
X80553571Y-54672500D01*
X79267857Y-55529642D02*
X79410714Y-55601071D01*
X79696428Y-55601071D01*
X79839285Y-55529642D01*
X79910714Y-55386785D01*
X79910714Y-54815357D01*
X79839285Y-54672500D01*
X79696428Y-54601071D01*
X79410714Y-54601071D01*
X79267857Y-54672500D01*
X79196428Y-54815357D01*
X79196428Y-54958214D01*
X79910714Y-55101071D01*
X78553571Y-54601071D02*
X78553571Y-55601071D01*
X78553571Y-54743928D02*
X78482142Y-54672500D01*
X78339285Y-54601071D01*
X78125000Y-54601071D01*
X77982142Y-54672500D01*
X77910714Y-54815357D01*
X77910714Y-55601071D01*
X78625000Y-54243928D02*
X78553571Y-54172500D01*
X78410714Y-54101071D01*
X78125000Y-54243928D01*
X77982142Y-54172500D01*
X77910714Y-54101071D01*
X76982142Y-55601071D02*
X77125000Y-55529642D01*
X77196428Y-55458214D01*
X77267857Y-55315357D01*
X77267857Y-54886785D01*
X77196428Y-54743928D01*
X77125000Y-54672500D01*
X76982142Y-54601071D01*
X76767857Y-54601071D01*
X76625000Y-54672500D01*
X76553571Y-54743928D01*
X76482142Y-54886785D01*
X76482142Y-55315357D01*
X76553571Y-55458214D01*
X76625000Y-55529642D01*
X76767857Y-55601071D01*
X76982142Y-55601071D01*
X74053571Y-55601071D02*
X74053571Y-54101071D01*
X74053571Y-55529642D02*
X74196428Y-55601071D01*
X74482142Y-55601071D01*
X74625000Y-55529642D01*
X74696428Y-55458214D01*
X74767857Y-55315357D01*
X74767857Y-54886785D01*
X74696428Y-54743928D01*
X74625000Y-54672500D01*
X74482142Y-54601071D01*
X74196428Y-54601071D01*
X74053571Y-54672500D01*
X72767857Y-55529642D02*
X72910714Y-55601071D01*
X73196428Y-55601071D01*
X73339285Y-55529642D01*
X73410714Y-55386785D01*
X73410714Y-54815357D01*
X73339285Y-54672500D01*
X73196428Y-54601071D01*
X72910714Y-54601071D01*
X72767857Y-54672500D01*
X72696428Y-54815357D01*
X72696428Y-54958214D01*
X73410714Y-55101071D01*
X70982142Y-55529642D02*
X70767857Y-55601071D01*
X70410714Y-55601071D01*
X70267857Y-55529642D01*
X70196428Y-55458214D01*
X70125000Y-55315357D01*
X70125000Y-55172500D01*
X70196428Y-55029642D01*
X70267857Y-54958214D01*
X70410714Y-54886785D01*
X70696428Y-54815357D01*
X70839285Y-54743928D01*
X70910714Y-54672500D01*
X70982142Y-54529642D01*
X70982142Y-54386785D01*
X70910714Y-54243928D01*
X70839285Y-54172500D01*
X70696428Y-54101071D01*
X70339285Y-54101071D01*
X70125000Y-54172500D01*
X69482142Y-55601071D02*
X69482142Y-54601071D01*
X69482142Y-54101071D02*
X69553571Y-54172500D01*
X69482142Y-54243928D01*
X69410714Y-54172500D01*
X69482142Y-54101071D01*
X69482142Y-54243928D01*
X68839285Y-55529642D02*
X68696428Y-55601071D01*
X68410714Y-55601071D01*
X68267857Y-55529642D01*
X68196428Y-55386785D01*
X68196428Y-55315357D01*
X68267857Y-55172500D01*
X68410714Y-55101071D01*
X68625000Y-55101071D01*
X68767857Y-55029642D01*
X68839285Y-54886785D01*
X68839285Y-54815357D01*
X68767857Y-54672500D01*
X68625000Y-54601071D01*
X68410714Y-54601071D01*
X68267857Y-54672500D01*
X67767857Y-54601071D02*
X67196428Y-54601071D01*
X67553571Y-54101071D02*
X67553571Y-55386785D01*
X67482142Y-55529642D01*
X67339285Y-55601071D01*
X67196428Y-55601071D01*
X66124999Y-55529642D02*
X66267857Y-55601071D01*
X66553571Y-55601071D01*
X66696428Y-55529642D01*
X66767857Y-55386785D01*
X66767857Y-54815357D01*
X66696428Y-54672500D01*
X66553571Y-54601071D01*
X66267857Y-54601071D01*
X66124999Y-54672500D01*
X66053571Y-54815357D01*
X66053571Y-54958214D01*
X66767857Y-55101071D01*
X65410714Y-55601071D02*
X65410714Y-54601071D01*
X65410714Y-54743928D02*
X65339285Y-54672500D01*
X65196428Y-54601071D01*
X64982142Y-54601071D01*
X64839285Y-54672500D01*
X64767857Y-54815357D01*
X64767857Y-55601071D01*
X64767857Y-54815357D02*
X64696428Y-54672500D01*
X64553571Y-54601071D01*
X64339285Y-54601071D01*
X64196428Y-54672500D01*
X64124999Y-54815357D01*
X64124999Y-55601071D01*
X62767857Y-55601071D02*
X62767857Y-54815357D01*
X62839285Y-54672500D01*
X62982142Y-54601071D01*
X63267857Y-54601071D01*
X63410714Y-54672500D01*
X62767857Y-55529642D02*
X62910714Y-55601071D01*
X63267857Y-55601071D01*
X63410714Y-55529642D01*
X63482142Y-55386785D01*
X63482142Y-55243928D01*
X63410714Y-55101071D01*
X63267857Y-55029642D01*
X62910714Y-55029642D01*
X62767857Y-54958214D01*
X62124999Y-55529642D02*
X61982142Y-55601071D01*
X61696428Y-55601071D01*
X61553571Y-55529642D01*
X61482142Y-55386785D01*
X61482142Y-55315357D01*
X61553571Y-55172500D01*
X61696428Y-55101071D01*
X61910714Y-55101071D01*
X62053571Y-55029642D01*
X62124999Y-54886785D01*
X62124999Y-54815357D01*
X62053571Y-54672500D01*
X61910714Y-54601071D01*
X61696428Y-54601071D01*
X61553571Y-54672500D01*
X59696428Y-54815357D02*
X59196428Y-54815357D01*
X58982142Y-55601071D02*
X59696428Y-55601071D01*
X59696428Y-54101071D01*
X58982142Y-54101071D01*
X58124999Y-55601071D02*
X58267857Y-55529642D01*
X58339285Y-55386785D01*
X58339285Y-54101071D01*
X56982142Y-55529642D02*
X57124999Y-55601071D01*
X57410714Y-55601071D01*
X57553571Y-55529642D01*
X57624999Y-55386785D01*
X57624999Y-54815357D01*
X57553571Y-54672500D01*
X57410714Y-54601071D01*
X57124999Y-54601071D01*
X56982142Y-54672500D01*
X56910714Y-54815357D01*
X56910714Y-54958214D01*
X57624999Y-55101071D01*
X55624999Y-55529642D02*
X55767857Y-55601071D01*
X56053571Y-55601071D01*
X56196428Y-55529642D01*
X56267857Y-55458214D01*
X56339285Y-55315357D01*
X56339285Y-54886785D01*
X56267857Y-54743928D01*
X56196428Y-54672500D01*
X56053571Y-54601071D01*
X55767857Y-54601071D01*
X55624999Y-54672500D01*
X55196428Y-54601071D02*
X54624999Y-54601071D01*
X54982142Y-54101071D02*
X54982142Y-55386785D01*
X54910714Y-55529642D01*
X54767857Y-55601071D01*
X54624999Y-55601071D01*
X54124999Y-55601071D02*
X54124999Y-54601071D01*
X54124999Y-54886785D02*
X54053571Y-54743928D01*
X53982142Y-54672500D01*
X53839285Y-54601071D01*
X53696428Y-54601071D01*
X52982142Y-55601071D02*
X53124999Y-55529642D01*
X53196428Y-55458214D01*
X53267857Y-55315357D01*
X53267857Y-54886785D01*
X53196428Y-54743928D01*
X53124999Y-54672500D01*
X52982142Y-54601071D01*
X52767857Y-54601071D01*
X52624999Y-54672500D01*
X52553571Y-54743928D01*
X52482142Y-54886785D01*
X52482142Y-55315357D01*
X52553571Y-55458214D01*
X52624999Y-55529642D01*
X52767857Y-55601071D01*
X52982142Y-55601071D01*
X52696428Y-54029642D02*
X52910714Y-54243928D01*
X51839285Y-54601071D02*
X51839285Y-55601071D01*
X51839285Y-54743928D02*
X51767857Y-54672500D01*
X51624999Y-54601071D01*
X51410714Y-54601071D01*
X51267857Y-54672500D01*
X51196428Y-54815357D01*
X51196428Y-55601071D01*
X50482142Y-55601071D02*
X50482142Y-54601071D01*
X50482142Y-54101071D02*
X50553571Y-54172500D01*
X50482142Y-54243928D01*
X50410714Y-54172500D01*
X50482142Y-54101071D01*
X50482142Y-54243928D01*
X49124999Y-55529642D02*
X49267857Y-55601071D01*
X49553571Y-55601071D01*
X49696428Y-55529642D01*
X49767857Y-55458214D01*
X49839285Y-55315357D01*
X49839285Y-54886785D01*
X49767857Y-54743928D01*
X49696428Y-54672500D01*
X49553571Y-54601071D01*
X49267857Y-54601071D01*
X49124999Y-54672500D01*
X48267857Y-55601071D02*
X48410714Y-55529642D01*
X48482142Y-55458214D01*
X48553571Y-55315357D01*
X48553571Y-54886785D01*
X48482142Y-54743928D01*
X48410714Y-54672500D01*
X48267857Y-54601071D01*
X48053571Y-54601071D01*
X47910714Y-54672500D01*
X47839285Y-54743928D01*
X47767857Y-54886785D01*
X47767857Y-55315357D01*
X47839285Y-55458214D01*
X47910714Y-55529642D01*
X48053571Y-55601071D01*
X48267857Y-55601071D01*
X47196428Y-55529642D02*
X47053571Y-55601071D01*
X46767857Y-55601071D01*
X46624999Y-55529642D01*
X46553571Y-55386785D01*
X46553571Y-55315357D01*
X46624999Y-55172500D01*
X46767857Y-55101071D01*
X46982142Y-55101071D01*
X47124999Y-55029642D01*
X47196428Y-54886785D01*
X47196428Y-54815357D01*
X47124999Y-54672500D01*
X46982142Y-54601071D01*
X46767857Y-54601071D01*
X46624999Y-54672500D01*
X83339285Y-57944642D02*
X83125000Y-58016071D01*
X82767857Y-58016071D01*
X82625000Y-57944642D01*
X82553571Y-57873214D01*
X82482142Y-57730357D01*
X82482142Y-57587500D01*
X82553571Y-57444642D01*
X82625000Y-57373214D01*
X82767857Y-57301785D01*
X83053571Y-57230357D01*
X83196428Y-57158928D01*
X83267857Y-57087500D01*
X83339285Y-56944642D01*
X83339285Y-56801785D01*
X83267857Y-56658928D01*
X83196428Y-56587500D01*
X83053571Y-56516071D01*
X82696428Y-56516071D01*
X82482142Y-56587500D01*
X81267857Y-57944642D02*
X81410714Y-58016071D01*
X81696428Y-58016071D01*
X81839285Y-57944642D01*
X81910714Y-57801785D01*
X81910714Y-57230357D01*
X81839285Y-57087500D01*
X81696428Y-57016071D01*
X81410714Y-57016071D01*
X81267857Y-57087500D01*
X81196428Y-57230357D01*
X81196428Y-57373214D01*
X81910714Y-57516071D01*
X80553571Y-58016071D02*
X80553571Y-57016071D01*
X80553571Y-57158928D02*
X80482142Y-57087500D01*
X80339285Y-57016071D01*
X80125000Y-57016071D01*
X79982142Y-57087500D01*
X79910714Y-57230357D01*
X79910714Y-58016071D01*
X79910714Y-57230357D02*
X79839285Y-57087500D01*
X79696428Y-57016071D01*
X79482142Y-57016071D01*
X79339285Y-57087500D01*
X79267857Y-57230357D01*
X79267857Y-58016071D01*
X77982142Y-57944642D02*
X78125000Y-58016071D01*
X78410714Y-58016071D01*
X78553571Y-57944642D01*
X78625000Y-57801785D01*
X78625000Y-57230357D01*
X78553571Y-57087500D01*
X78410714Y-57016071D01*
X78125000Y-57016071D01*
X77982142Y-57087500D01*
X77910714Y-57230357D01*
X77910714Y-57373214D01*
X78625000Y-57516071D01*
X77339285Y-57944642D02*
X77196428Y-58016071D01*
X76910714Y-58016071D01*
X76767857Y-57944642D01*
X76696428Y-57801785D01*
X76696428Y-57730357D01*
X76767857Y-57587500D01*
X76910714Y-57516071D01*
X77125000Y-57516071D01*
X77267857Y-57444642D01*
X77339285Y-57301785D01*
X77339285Y-57230357D01*
X77267857Y-57087500D01*
X77125000Y-57016071D01*
X76910714Y-57016071D01*
X76767857Y-57087500D01*
X76267857Y-57016071D02*
X75696428Y-57016071D01*
X76053571Y-56516071D02*
X76053571Y-57801785D01*
X75982142Y-57944642D01*
X75839285Y-58016071D01*
X75696428Y-58016071D01*
X75196428Y-58016071D02*
X75196428Y-57016071D01*
X75196428Y-57301785D02*
X75125000Y-57158928D01*
X75053571Y-57087500D01*
X74910714Y-57016071D01*
X74767857Y-57016071D01*
X73696428Y-57944642D02*
X73839285Y-58016071D01*
X74125000Y-58016071D01*
X74267857Y-57944642D01*
X74339285Y-57801785D01*
X74339285Y-57230357D01*
X74267857Y-57087500D01*
X74125000Y-57016071D01*
X73839285Y-57016071D01*
X73696428Y-57087500D01*
X73625000Y-57230357D01*
X73625000Y-57373214D01*
X74339285Y-57516071D01*
X71910714Y-56658928D02*
X71839285Y-56587500D01*
X71696428Y-56516071D01*
X71339285Y-56516071D01*
X71196428Y-56587500D01*
X71125000Y-56658928D01*
X71053571Y-56801785D01*
X71053571Y-56944642D01*
X71125000Y-57158928D01*
X71982142Y-58016071D01*
X71053571Y-58016071D01*
X70125000Y-56516071D02*
X69982142Y-56516071D01*
X69839285Y-56587500D01*
X69767857Y-56658928D01*
X69696428Y-56801785D01*
X69625000Y-57087500D01*
X69625000Y-57444642D01*
X69696428Y-57730357D01*
X69767857Y-57873214D01*
X69839285Y-57944642D01*
X69982142Y-58016071D01*
X70125000Y-58016071D01*
X70267857Y-57944642D01*
X70339285Y-57873214D01*
X70410714Y-57730357D01*
X70482142Y-57444642D01*
X70482142Y-57087500D01*
X70410714Y-56801785D01*
X70339285Y-56658928D01*
X70267857Y-56587500D01*
X70125000Y-56516071D01*
X69053571Y-56658928D02*
X68982142Y-56587500D01*
X68839285Y-56516071D01*
X68482142Y-56516071D01*
X68339285Y-56587500D01*
X68267857Y-56658928D01*
X68196428Y-56801785D01*
X68196428Y-56944642D01*
X68267857Y-57158928D01*
X69125000Y-58016071D01*
X68196428Y-58016071D01*
X67625000Y-56658928D02*
X67553571Y-56587500D01*
X67410714Y-56516071D01*
X67053571Y-56516071D01*
X66910714Y-56587500D01*
X66839285Y-56658928D01*
X66767857Y-56801785D01*
X66767857Y-56944642D01*
X66839285Y-57158928D01*
X67696428Y-58016071D01*
X66767857Y-58016071D01*
X66125000Y-57444642D02*
X64982142Y-57444642D01*
X64339285Y-56658928D02*
X64267857Y-56587500D01*
X64125000Y-56516071D01*
X63767857Y-56516071D01*
X63625000Y-56587500D01*
X63553571Y-56658928D01*
X63482142Y-56801785D01*
X63482142Y-56944642D01*
X63553571Y-57158928D01*
X64410714Y-58016071D01*
X63482142Y-58016071D01*
X83339285Y-62417500D02*
X82625000Y-62417500D01*
X83482142Y-62846071D02*
X82982142Y-61346071D01*
X82482142Y-62846071D01*
X81339285Y-61846071D02*
X81339285Y-62846071D01*
X81982142Y-61846071D02*
X81982142Y-62631785D01*
X81910714Y-62774642D01*
X81767857Y-62846071D01*
X81553571Y-62846071D01*
X81410714Y-62774642D01*
X81339285Y-62703214D01*
X80839285Y-61846071D02*
X80267857Y-61846071D01*
X80625000Y-61346071D02*
X80625000Y-62631785D01*
X80553571Y-62774642D01*
X80410714Y-62846071D01*
X80267857Y-62846071D01*
X79553571Y-62846071D02*
X79696428Y-62774642D01*
X79767857Y-62703214D01*
X79839285Y-62560357D01*
X79839285Y-62131785D01*
X79767857Y-61988928D01*
X79696428Y-61917500D01*
X79553571Y-61846071D01*
X79339285Y-61846071D01*
X79196428Y-61917500D01*
X79125000Y-61988928D01*
X79053571Y-62131785D01*
X79053571Y-62560357D01*
X79125000Y-62703214D01*
X79196428Y-62774642D01*
X79339285Y-62846071D01*
X79553571Y-62846071D01*
X78410714Y-62846071D02*
X78410714Y-61846071D01*
X78410714Y-62131785D02*
X78339285Y-61988928D01*
X78267857Y-61917500D01*
X78125000Y-61846071D01*
X77982142Y-61846071D01*
X76910714Y-62774642D02*
X77053571Y-62846071D01*
X77339285Y-62846071D01*
X77482142Y-62774642D01*
X77553571Y-62631785D01*
X77553571Y-62060357D01*
X77482142Y-61917500D01*
X77339285Y-61846071D01*
X77053571Y-61846071D01*
X76910714Y-61917500D01*
X76839285Y-62060357D01*
X76839285Y-62203214D01*
X77553571Y-62346071D01*
X76267857Y-62774642D02*
X76125000Y-62846071D01*
X75839285Y-62846071D01*
X75696428Y-62774642D01*
X75625000Y-62631785D01*
X75625000Y-62560357D01*
X75696428Y-62417500D01*
X75839285Y-62346071D01*
X76053571Y-62346071D01*
X76196428Y-62274642D01*
X76267857Y-62131785D01*
X76267857Y-62060357D01*
X76196428Y-61917500D01*
X76053571Y-61846071D01*
X75839285Y-61846071D01*
X75696428Y-61917500D01*
X74982142Y-62703214D02*
X74910714Y-62774642D01*
X74982142Y-62846071D01*
X75053571Y-62774642D01*
X74982142Y-62703214D01*
X74982142Y-62846071D01*
X74982142Y-61917500D02*
X74910714Y-61988928D01*
X74982142Y-62060357D01*
X75053571Y-61988928D01*
X74982142Y-61917500D01*
X74982142Y-62060357D01*
X82839285Y-63761071D02*
X82839285Y-64832500D01*
X82910714Y-65046785D01*
X83053571Y-65189642D01*
X83267857Y-65261071D01*
X83410714Y-65261071D01*
X81482142Y-65261071D02*
X81482142Y-64475357D01*
X81553571Y-64332500D01*
X81696428Y-64261071D01*
X81982142Y-64261071D01*
X82125000Y-64332500D01*
X81482142Y-65189642D02*
X81625000Y-65261071D01*
X81982142Y-65261071D01*
X82125000Y-65189642D01*
X82196428Y-65046785D01*
X82196428Y-64903928D01*
X82125000Y-64761071D01*
X81982142Y-64689642D01*
X81625000Y-64689642D01*
X81482142Y-64618214D01*
X80767857Y-65261071D02*
X80767857Y-64261071D01*
X80767857Y-64403928D02*
X80696428Y-64332500D01*
X80553571Y-64261071D01*
X80339285Y-64261071D01*
X80196428Y-64332500D01*
X80125000Y-64475357D01*
X80125000Y-65261071D01*
X80125000Y-64475357D02*
X80053571Y-64332500D01*
X79910714Y-64261071D01*
X79696428Y-64261071D01*
X79553571Y-64332500D01*
X79482142Y-64475357D01*
X79482142Y-65261071D01*
X78196428Y-65189642D02*
X78339285Y-65261071D01*
X78625000Y-65261071D01*
X78767857Y-65189642D01*
X78839285Y-65046785D01*
X78839285Y-64475357D01*
X78767857Y-64332500D01*
X78625000Y-64261071D01*
X78339285Y-64261071D01*
X78196428Y-64332500D01*
X78125000Y-64475357D01*
X78125000Y-64618214D01*
X78839285Y-64761071D01*
X77553571Y-65189642D02*
X77410714Y-65261071D01*
X77125000Y-65261071D01*
X76982142Y-65189642D01*
X76910714Y-65046785D01*
X76910714Y-64975357D01*
X76982142Y-64832500D01*
X77125000Y-64761071D01*
X77339285Y-64761071D01*
X77482142Y-64689642D01*
X77553571Y-64546785D01*
X77553571Y-64475357D01*
X77482142Y-64332500D01*
X77339285Y-64261071D01*
X77125000Y-64261071D01*
X76982142Y-64332500D01*
X75125000Y-65261071D02*
X75125000Y-63761071D01*
X74625000Y-64832500D01*
X74125000Y-63761071D01*
X74125000Y-65261071D01*
X72767857Y-65261071D02*
X72767857Y-64475357D01*
X72839285Y-64332500D01*
X72982142Y-64261071D01*
X73267857Y-64261071D01*
X73410714Y-64332500D01*
X72767857Y-65189642D02*
X72910714Y-65261071D01*
X73267857Y-65261071D01*
X73410714Y-65189642D01*
X73482142Y-65046785D01*
X73482142Y-64903928D01*
X73410714Y-64761071D01*
X73267857Y-64689642D01*
X72910714Y-64689642D01*
X72767857Y-64618214D01*
X71410714Y-64261071D02*
X71410714Y-65261071D01*
X72053571Y-64261071D02*
X72053571Y-65046785D01*
X71982142Y-65189642D01*
X71839285Y-65261071D01*
X71625000Y-65261071D01*
X71482142Y-65189642D01*
X71410714Y-65118214D01*
X70696428Y-65261071D02*
X70696428Y-64261071D01*
X70696428Y-64546785D02*
X70625000Y-64403928D01*
X70553571Y-64332500D01*
X70410714Y-64261071D01*
X70267857Y-64261071D01*
X69767857Y-65261071D02*
X69767857Y-64261071D01*
X69767857Y-63761071D02*
X69839285Y-63832500D01*
X69767857Y-63903928D01*
X69696428Y-63832500D01*
X69767857Y-63761071D01*
X69767857Y-63903928D01*
X68410714Y-65189642D02*
X68553571Y-65261071D01*
X68839285Y-65261071D01*
X68982142Y-65189642D01*
X69053571Y-65118214D01*
X69125000Y-64975357D01*
X69125000Y-64546785D01*
X69053571Y-64403928D01*
X68982142Y-64332500D01*
X68839285Y-64261071D01*
X68553571Y-64261071D01*
X68410714Y-64332500D01*
X67767857Y-65261071D02*
X67767857Y-64261071D01*
X67767857Y-63761071D02*
X67839285Y-63832500D01*
X67767857Y-63903928D01*
X67696428Y-63832500D01*
X67767857Y-63761071D01*
X67767857Y-63903928D01*
X66839285Y-65261071D02*
X66982142Y-65189642D01*
X67053571Y-65118214D01*
X67125000Y-64975357D01*
X67125000Y-64546785D01*
X67053571Y-64403928D01*
X66982142Y-64332500D01*
X66839285Y-64261071D01*
X66625000Y-64261071D01*
X66482142Y-64332500D01*
X66410714Y-64403928D01*
X66339285Y-64546785D01*
X66339285Y-64975357D01*
X66410714Y-65118214D01*
X66482142Y-65189642D01*
X66625000Y-65261071D01*
X66839285Y-65261071D01*
X64553571Y-65261071D02*
X64553571Y-63761071D01*
X64196428Y-63761071D01*
X63982142Y-63832500D01*
X63839285Y-63975357D01*
X63767857Y-64118214D01*
X63696428Y-64403928D01*
X63696428Y-64618214D01*
X63767857Y-64903928D01*
X63839285Y-65046785D01*
X63982142Y-65189642D01*
X64196428Y-65261071D01*
X64553571Y-65261071D01*
X62410714Y-65261071D02*
X62410714Y-64475357D01*
X62482142Y-64332500D01*
X62625000Y-64261071D01*
X62910714Y-64261071D01*
X63053571Y-64332500D01*
X62410714Y-65189642D02*
X62553571Y-65261071D01*
X62910714Y-65261071D01*
X63053571Y-65189642D01*
X63125000Y-65046785D01*
X63125000Y-64903928D01*
X63053571Y-64761071D01*
X62910714Y-64689642D01*
X62553571Y-64689642D01*
X62410714Y-64618214D01*
X61839285Y-64261071D02*
X61053571Y-64261071D01*
X61839285Y-65261071D01*
X61053571Y-65261071D01*
X59839285Y-65261071D02*
X59839285Y-64475357D01*
X59910714Y-64332500D01*
X60053571Y-64261071D01*
X60339285Y-64261071D01*
X60482142Y-64332500D01*
X59839285Y-65189642D02*
X59982142Y-65261071D01*
X60339285Y-65261071D01*
X60482142Y-65189642D01*
X60553571Y-65046785D01*
X60553571Y-64903928D01*
X60482142Y-64761071D01*
X60339285Y-64689642D01*
X59982142Y-64689642D01*
X59839285Y-64618214D01*
X57696428Y-63761071D02*
X57410714Y-63761071D01*
X57267857Y-63832500D01*
X57125000Y-63975357D01*
X57053571Y-64261071D01*
X57053571Y-64761071D01*
X57125000Y-65046785D01*
X57267857Y-65189642D01*
X57410714Y-65261071D01*
X57696428Y-65261071D01*
X57839285Y-65189642D01*
X57982142Y-65046785D01*
X58053571Y-64761071D01*
X58053571Y-64261071D01*
X57982142Y-63975357D01*
X57839285Y-63832500D01*
X57696428Y-63761071D01*
X56410714Y-65261071D02*
X56410714Y-63761071D01*
X56410714Y-64332500D02*
X56267857Y-64261071D01*
X55982142Y-64261071D01*
X55839285Y-64332500D01*
X55767857Y-64403928D01*
X55696428Y-64546785D01*
X55696428Y-64975357D01*
X55767857Y-65118214D01*
X55839285Y-65189642D01*
X55982142Y-65261071D01*
X56267857Y-65261071D01*
X56410714Y-65189642D01*
X54410714Y-65261071D02*
X54410714Y-64475357D01*
X54482142Y-64332500D01*
X54625000Y-64261071D01*
X54910714Y-64261071D01*
X55053571Y-64332500D01*
X54410714Y-65189642D02*
X54553571Y-65261071D01*
X54910714Y-65261071D01*
X55053571Y-65189642D01*
X55125000Y-65046785D01*
X55125000Y-64903928D01*
X55053571Y-64761071D01*
X54910714Y-64689642D01*
X54553571Y-64689642D01*
X54410714Y-64618214D01*
X53696428Y-64261071D02*
X53696428Y-65261071D01*
X53696428Y-64403928D02*
X53625000Y-64332500D01*
X53482142Y-64261071D01*
X53267857Y-64261071D01*
X53125000Y-64332500D01*
X53053571Y-64475357D01*
X53053571Y-65261071D01*
X51696428Y-65261071D02*
X51696428Y-63761071D01*
X51696428Y-65189642D02*
X51839285Y-65261071D01*
X52125000Y-65261071D01*
X52267857Y-65189642D01*
X52339285Y-65118214D01*
X52410714Y-64975357D01*
X52410714Y-64546785D01*
X52339285Y-64403928D01*
X52267857Y-64332500D01*
X52125000Y-64261071D01*
X51839285Y-64261071D01*
X51696428Y-64332500D01*
X50767857Y-65261071D02*
X50910714Y-65189642D01*
X50982142Y-65118214D01*
X51053571Y-64975357D01*
X51053571Y-64546785D01*
X50982142Y-64403928D01*
X50910714Y-64332500D01*
X50767857Y-64261071D01*
X50553571Y-64261071D01*
X50410714Y-64332500D01*
X50339285Y-64403928D01*
X50267857Y-64546785D01*
X50267857Y-64975357D01*
X50339285Y-65118214D01*
X50410714Y-65189642D01*
X50553571Y-65261071D01*
X50767857Y-65261071D01*
X82839285Y-66176071D02*
X82839285Y-67247500D01*
X82910714Y-67461785D01*
X83053571Y-67604642D01*
X83267857Y-67676071D01*
X83410714Y-67676071D01*
X81482142Y-66676071D02*
X81482142Y-67676071D01*
X82125000Y-66676071D02*
X82125000Y-67461785D01*
X82053571Y-67604642D01*
X81910714Y-67676071D01*
X81696428Y-67676071D01*
X81553571Y-67604642D01*
X81482142Y-67533214D01*
X80553571Y-67676071D02*
X80696428Y-67604642D01*
X80767857Y-67461785D01*
X80767857Y-66176071D01*
X79982142Y-67676071D02*
X79982142Y-66676071D01*
X79982142Y-66176071D02*
X80053571Y-66247500D01*
X79982142Y-66318928D01*
X79910714Y-66247500D01*
X79982142Y-66176071D01*
X79982142Y-66318928D01*
X78625000Y-67676071D02*
X78625000Y-66890357D01*
X78696428Y-66747500D01*
X78839285Y-66676071D01*
X79125000Y-66676071D01*
X79267857Y-66747500D01*
X78625000Y-67604642D02*
X78767857Y-67676071D01*
X79125000Y-67676071D01*
X79267857Y-67604642D01*
X79339285Y-67461785D01*
X79339285Y-67318928D01*
X79267857Y-67176071D01*
X79125000Y-67104642D01*
X78767857Y-67104642D01*
X78625000Y-67033214D01*
X78839285Y-66104642D02*
X79053571Y-66318928D01*
X77910714Y-66676071D02*
X77910714Y-67676071D01*
X77910714Y-66818928D02*
X77839285Y-66747500D01*
X77696428Y-66676071D01*
X77482142Y-66676071D01*
X77339285Y-66747500D01*
X77267857Y-66890357D01*
X77267857Y-67676071D01*
X75482142Y-67247500D02*
X74767857Y-67247500D01*
X75625000Y-67676071D02*
X75125000Y-66176071D01*
X74625000Y-67676071D01*
X74125000Y-66676071D02*
X74125000Y-67676071D01*
X74125000Y-66818928D02*
X74053571Y-66747500D01*
X73910714Y-66676071D01*
X73696428Y-66676071D01*
X73553571Y-66747500D01*
X73482142Y-66890357D01*
X73482142Y-67676071D01*
X72125000Y-67676071D02*
X72125000Y-66176071D01*
X72125000Y-67604642D02*
X72267857Y-67676071D01*
X72553571Y-67676071D01*
X72696428Y-67604642D01*
X72767857Y-67533214D01*
X72839285Y-67390357D01*
X72839285Y-66961785D01*
X72767857Y-66818928D01*
X72696428Y-66747500D01*
X72553571Y-66676071D01*
X72267857Y-66676071D01*
X72125000Y-66747500D01*
X71410714Y-67676071D02*
X71410714Y-66676071D01*
X71410714Y-66961785D02*
X71339285Y-66818928D01*
X71267857Y-66747500D01*
X71125000Y-66676071D01*
X70982142Y-66676071D01*
X69910714Y-67604642D02*
X70053571Y-67676071D01*
X70339285Y-67676071D01*
X70482142Y-67604642D01*
X70553571Y-67461785D01*
X70553571Y-66890357D01*
X70482142Y-66747500D01*
X70339285Y-66676071D01*
X70053571Y-66676071D01*
X69910714Y-66747500D01*
X69839285Y-66890357D01*
X69839285Y-67033214D01*
X70553571Y-67176071D01*
X70053571Y-66104642D02*
X70267857Y-66318928D01*
X69267857Y-67604642D02*
X69124999Y-67676071D01*
X68839285Y-67676071D01*
X68696428Y-67604642D01*
X68624999Y-67461785D01*
X68624999Y-67390357D01*
X68696428Y-67247500D01*
X68839285Y-67176071D01*
X69053571Y-67176071D01*
X69196428Y-67104642D01*
X69267857Y-66961785D01*
X69267857Y-66890357D01*
X69196428Y-66747500D01*
X69053571Y-66676071D01*
X68839285Y-66676071D01*
X68696428Y-66747500D01*
X66910714Y-67604642D02*
X66696428Y-67676071D01*
X66339285Y-67676071D01*
X66196428Y-67604642D01*
X66124999Y-67533214D01*
X66053571Y-67390357D01*
X66053571Y-67247500D01*
X66124999Y-67104642D01*
X66196428Y-67033214D01*
X66339285Y-66961785D01*
X66624999Y-66890357D01*
X66767857Y-66818928D01*
X66839285Y-66747500D01*
X66910714Y-66604642D01*
X66910714Y-66461785D01*
X66839285Y-66318928D01*
X66767857Y-66247500D01*
X66624999Y-66176071D01*
X66267857Y-66176071D01*
X66053571Y-66247500D01*
X65410714Y-67676071D02*
X65410714Y-66676071D01*
X65410714Y-66176071D02*
X65482142Y-66247500D01*
X65410714Y-66318928D01*
X65339285Y-66247500D01*
X65410714Y-66176071D01*
X65410714Y-66318928D01*
X64482142Y-67676071D02*
X64624999Y-67604642D01*
X64696428Y-67461785D01*
X64696428Y-66176071D01*
X64053571Y-66676071D02*
X63696428Y-67676071D01*
X63339285Y-66676071D01*
X62124999Y-67676071D02*
X62124999Y-66890357D01*
X62196428Y-66747500D01*
X62339285Y-66676071D01*
X62624999Y-66676071D01*
X62767857Y-66747500D01*
X62124999Y-67604642D02*
X62267857Y-67676071D01*
X62624999Y-67676071D01*
X62767857Y-67604642D01*
X62839285Y-67461785D01*
X62839285Y-67318928D01*
X62767857Y-67176071D01*
X62624999Y-67104642D01*
X62267857Y-67104642D01*
X62124999Y-67033214D01*
X59410714Y-67533214D02*
X59482142Y-67604642D01*
X59696428Y-67676071D01*
X59839285Y-67676071D01*
X60053571Y-67604642D01*
X60196428Y-67461785D01*
X60267857Y-67318928D01*
X60339285Y-67033214D01*
X60339285Y-66818928D01*
X60267857Y-66533214D01*
X60196428Y-66390357D01*
X60053571Y-66247500D01*
X59839285Y-66176071D01*
X59696428Y-66176071D01*
X59482142Y-66247500D01*
X59410714Y-66318928D01*
X58124999Y-66676071D02*
X58124999Y-67676071D01*
X58767857Y-66676071D02*
X58767857Y-67461785D01*
X58696428Y-67604642D01*
X58553571Y-67676071D01*
X58339285Y-67676071D01*
X58196428Y-67604642D01*
X58124999Y-67533214D01*
X56767857Y-67676071D02*
X56767857Y-66890357D01*
X56839285Y-66747500D01*
X56982142Y-66676071D01*
X57267857Y-66676071D01*
X57410714Y-66747500D01*
X56767857Y-67604642D02*
X56910714Y-67676071D01*
X57267857Y-67676071D01*
X57410714Y-67604642D01*
X57482142Y-67461785D01*
X57482142Y-67318928D01*
X57410714Y-67176071D01*
X57267857Y-67104642D01*
X56910714Y-67104642D01*
X56767857Y-67033214D01*
X55410714Y-67676071D02*
X55410714Y-66176071D01*
X55410714Y-67604642D02*
X55553571Y-67676071D01*
X55839285Y-67676071D01*
X55982142Y-67604642D01*
X56053571Y-67533214D01*
X56124999Y-67390357D01*
X56124999Y-66961785D01*
X56053571Y-66818928D01*
X55982142Y-66747500D01*
X55839285Y-66676071D01*
X55553571Y-66676071D01*
X55410714Y-66747500D01*
X54696428Y-67676071D02*
X54696428Y-66676071D01*
X54696428Y-66961785D02*
X54624999Y-66818928D01*
X54553571Y-66747500D01*
X54410714Y-66676071D01*
X54267857Y-66676071D01*
X53553571Y-67676071D02*
X53696428Y-67604642D01*
X53767857Y-67533214D01*
X53839285Y-67390357D01*
X53839285Y-66961785D01*
X53767857Y-66818928D01*
X53696428Y-66747500D01*
X53553571Y-66676071D01*
X53339285Y-66676071D01*
X53196428Y-66747500D01*
X53124999Y-66818928D01*
X53053571Y-66961785D01*
X53053571Y-67390357D01*
X53124999Y-67533214D01*
X53196428Y-67604642D01*
X53339285Y-67676071D01*
X53553571Y-67676071D01*
X52482142Y-67604642D02*
X52339285Y-67676071D01*
X52053571Y-67676071D01*
X51910714Y-67604642D01*
X51839285Y-67461785D01*
X51839285Y-67390357D01*
X51910714Y-67247500D01*
X52053571Y-67176071D01*
X52267857Y-67176071D01*
X52410714Y-67104642D01*
X52482142Y-66961785D01*
X52482142Y-66890357D01*
X52410714Y-66747500D01*
X52267857Y-66676071D01*
X52053571Y-66676071D01*
X51910714Y-66747500D01*
X83267857Y-70091071D02*
X83267857Y-68591071D01*
X82696428Y-69091071D02*
X82339285Y-70091071D01*
X81982142Y-69091071D01*
X80767857Y-70091071D02*
X80767857Y-69305357D01*
X80839285Y-69162500D01*
X80982142Y-69091071D01*
X81267857Y-69091071D01*
X81410714Y-69162500D01*
X80767857Y-70019642D02*
X80910714Y-70091071D01*
X81267857Y-70091071D01*
X81410714Y-70019642D01*
X81482142Y-69876785D01*
X81482142Y-69733928D01*
X81410714Y-69591071D01*
X81267857Y-69519642D01*
X80910714Y-69519642D01*
X80767857Y-69448214D01*
X80053571Y-69091071D02*
X80053571Y-70091071D01*
X80053571Y-69233928D02*
X79982142Y-69162500D01*
X79839285Y-69091071D01*
X79625000Y-69091071D01*
X79482142Y-69162500D01*
X79410714Y-69305357D01*
X79410714Y-70091071D01*
X76839285Y-70091071D02*
X77553571Y-70091071D01*
X77553571Y-68591071D01*
X75767857Y-70019642D02*
X75910714Y-70091071D01*
X76196428Y-70091071D01*
X76339285Y-70019642D01*
X76410714Y-69876785D01*
X76410714Y-69305357D01*
X76339285Y-69162500D01*
X76196428Y-69091071D01*
X75910714Y-69091071D01*
X75767857Y-69162500D01*
X75696428Y-69305357D01*
X75696428Y-69448214D01*
X76410714Y-69591071D01*
X74839285Y-70091071D02*
X74982142Y-70019642D01*
X75053571Y-69948214D01*
X75125000Y-69805357D01*
X75125000Y-69376785D01*
X75053571Y-69233928D01*
X74982142Y-69162500D01*
X74839285Y-69091071D01*
X74625000Y-69091071D01*
X74482142Y-69162500D01*
X74410714Y-69233928D01*
X74339285Y-69376785D01*
X74339285Y-69805357D01*
X74410714Y-69948214D01*
X74482142Y-70019642D01*
X74625000Y-70091071D01*
X74839285Y-70091071D01*
X73696428Y-69091071D02*
X73696428Y-70091071D01*
X73696428Y-69233928D02*
X73625000Y-69162500D01*
X73482142Y-69091071D01*
X73267857Y-69091071D01*
X73125000Y-69162500D01*
X73053571Y-69305357D01*
X73053571Y-70091071D01*
X71696428Y-70091071D02*
X71696428Y-69305357D01*
X71767857Y-69162500D01*
X71910714Y-69091071D01*
X72196428Y-69091071D01*
X72339285Y-69162500D01*
X71696428Y-70019642D02*
X71839285Y-70091071D01*
X72196428Y-70091071D01*
X72339285Y-70019642D01*
X72410714Y-69876785D01*
X72410714Y-69733928D01*
X72339285Y-69591071D01*
X72196428Y-69519642D01*
X71839285Y-69519642D01*
X71696428Y-69448214D01*
X70982142Y-70091071D02*
X70982142Y-69091071D01*
X70982142Y-69376785D02*
X70910714Y-69233928D01*
X70839285Y-69162500D01*
X70696428Y-69091071D01*
X70553571Y-69091071D01*
X69410714Y-70091071D02*
X69410714Y-68591071D01*
X69410714Y-70019642D02*
X69553571Y-70091071D01*
X69839285Y-70091071D01*
X69982142Y-70019642D01*
X70053571Y-69948214D01*
X70125000Y-69805357D01*
X70125000Y-69376785D01*
X70053571Y-69233928D01*
X69982142Y-69162500D01*
X69839285Y-69091071D01*
X69553571Y-69091071D01*
X69410714Y-69162500D01*
X68482142Y-70091071D02*
X68625000Y-70019642D01*
X68696428Y-69948214D01*
X68767857Y-69805357D01*
X68767857Y-69376785D01*
X68696428Y-69233928D01*
X68625000Y-69162500D01*
X68482142Y-69091071D01*
X68267857Y-69091071D01*
X68125000Y-69162500D01*
X68053571Y-69233928D01*
X67982142Y-69376785D01*
X67982142Y-69805357D01*
X68053571Y-69948214D01*
X68125000Y-70019642D01*
X68267857Y-70091071D01*
X68482142Y-70091071D01*
X66410714Y-68591071D02*
X65553571Y-68591071D01*
X65982142Y-70091071D02*
X65982142Y-68591071D01*
X64410714Y-70091071D02*
X64410714Y-69305357D01*
X64482142Y-69162500D01*
X64625000Y-69091071D01*
X64910714Y-69091071D01*
X65053571Y-69162500D01*
X64410714Y-70019642D02*
X64553571Y-70091071D01*
X64910714Y-70091071D01*
X65053571Y-70019642D01*
X65125000Y-69876785D01*
X65125000Y-69733928D01*
X65053571Y-69591071D01*
X64910714Y-69519642D01*
X64553571Y-69519642D01*
X64410714Y-69448214D01*
X63696428Y-70091071D02*
X63696428Y-69091071D01*
X63696428Y-69233928D02*
X63625000Y-69162500D01*
X63482142Y-69091071D01*
X63267857Y-69091071D01*
X63125000Y-69162500D01*
X63053571Y-69305357D01*
X63053571Y-70091071D01*
X63053571Y-69305357D02*
X62982142Y-69162500D01*
X62839285Y-69091071D01*
X62625000Y-69091071D01*
X62482142Y-69162500D01*
X62410714Y-69305357D01*
X62410714Y-70091071D01*
X61053571Y-70091071D02*
X61053571Y-69305357D01*
X61125000Y-69162500D01*
X61267857Y-69091071D01*
X61553571Y-69091071D01*
X61696428Y-69162500D01*
X61053571Y-70019642D02*
X61196428Y-70091071D01*
X61553571Y-70091071D01*
X61696428Y-70019642D01*
X61767857Y-69876785D01*
X61767857Y-69733928D01*
X61696428Y-69591071D01*
X61553571Y-69519642D01*
X61196428Y-69519642D01*
X61053571Y-69448214D01*
X60482142Y-69091071D02*
X60125000Y-70091071D01*
X59767857Y-69091071D02*
X60125000Y-70091071D01*
X60267857Y-70448214D01*
X60339285Y-70519642D01*
X60482142Y-70591071D01*
X58982142Y-70091071D02*
X59125000Y-70019642D01*
X59196428Y-69948214D01*
X59267857Y-69805357D01*
X59267857Y-69376785D01*
X59196428Y-69233928D01*
X59125000Y-69162500D01*
X58982142Y-69091071D01*
X58767857Y-69091071D01*
X58625000Y-69162500D01*
X58553571Y-69233928D01*
X58482142Y-69376785D01*
X58482142Y-69805357D01*
X58553571Y-69948214D01*
X58625000Y-70019642D01*
X58767857Y-70091071D01*
X58982142Y-70091071D01*
X56696428Y-70091071D02*
X56696428Y-68591071D01*
X56125000Y-68591071D01*
X55982142Y-68662500D01*
X55910714Y-68733928D01*
X55839285Y-68876785D01*
X55839285Y-69091071D01*
X55910714Y-69233928D01*
X55982142Y-69305357D01*
X56125000Y-69376785D01*
X56696428Y-69376785D01*
X54625000Y-70019642D02*
X54767857Y-70091071D01*
X55053571Y-70091071D01*
X55196428Y-70019642D01*
X55267857Y-69876785D01*
X55267857Y-69305357D01*
X55196428Y-69162500D01*
X55053571Y-69091071D01*
X54767857Y-69091071D01*
X54625000Y-69162500D01*
X54553571Y-69305357D01*
X54553571Y-69448214D01*
X55267857Y-69591071D01*
X54767857Y-68519642D02*
X54982142Y-68733928D01*
X53910714Y-70091071D02*
X53910714Y-69091071D01*
X53910714Y-69376785D02*
X53839285Y-69233928D01*
X53767857Y-69162500D01*
X53625000Y-69091071D01*
X53482142Y-69091071D01*
X52410714Y-70019642D02*
X52553571Y-70091071D01*
X52839285Y-70091071D01*
X52982142Y-70019642D01*
X53053571Y-69876785D01*
X53053571Y-69305357D01*
X52982142Y-69162500D01*
X52839285Y-69091071D01*
X52553571Y-69091071D01*
X52410714Y-69162500D01*
X52339285Y-69305357D01*
X52339285Y-69448214D01*
X53053571Y-69591071D01*
X51839285Y-69091071D02*
X51053571Y-69091071D01*
X51839285Y-70091071D01*
X51053571Y-70091071D01*
%TO.C,G\u002A\u002A\u002A*%
G36*
X84564968Y-33253674D02*
G01*
X84336325Y-33594656D01*
X83969916Y-33843651D01*
X83829307Y-33917062D01*
X83599779Y-34068917D01*
X83462717Y-34203680D01*
X83388798Y-34312380D01*
X83329647Y-34374667D01*
X83322537Y-34369408D01*
X83264688Y-34267423D01*
X83178735Y-34076400D01*
X83117188Y-33837249D01*
X83159161Y-33554053D01*
X83336625Y-33346284D01*
X83355765Y-33301316D01*
X83320765Y-33128560D01*
X83206278Y-32861544D01*
X83122763Y-32698263D01*
X83033119Y-32552540D01*
X82979814Y-32532022D01*
X82943100Y-32618467D01*
X82942112Y-32622217D01*
X82883276Y-32743145D01*
X82798833Y-32710033D01*
X82762912Y-32656664D01*
X82735804Y-32505038D01*
X82768662Y-32365564D01*
X82851362Y-32314471D01*
X82860873Y-32311794D01*
X82893123Y-32205869D01*
X82908895Y-31970360D01*
X82905637Y-31637138D01*
X82900813Y-31464795D01*
X82903468Y-31342488D01*
X83069885Y-31342488D01*
X83084623Y-31704648D01*
X83093807Y-31788462D01*
X83198965Y-32292233D01*
X83374030Y-32768519D01*
X83594160Y-33147000D01*
X83666403Y-33260686D01*
X83649341Y-33359636D01*
X83509615Y-33488537D01*
X83372458Y-33639549D01*
X83324880Y-33835379D01*
X83348676Y-33943192D01*
X83399859Y-33956748D01*
X83522665Y-33848595D01*
X83594877Y-33777048D01*
X83630014Y-33720731D01*
X83542872Y-33744012D01*
X83438589Y-33759764D01*
X83447378Y-33663696D01*
X83524704Y-33566964D01*
X83702339Y-33475757D01*
X83833658Y-33434137D01*
X83904666Y-33389007D01*
X83889276Y-33344887D01*
X83815903Y-33183984D01*
X83702442Y-32953685D01*
X83634648Y-32813671D01*
X83443373Y-32334089D01*
X83308929Y-31859029D01*
X83237858Y-31424259D01*
X83236701Y-31065548D01*
X83312000Y-30818667D01*
X83355656Y-30787241D01*
X83385479Y-30884836D01*
X83395370Y-31138837D01*
X83432495Y-31512108D01*
X83540275Y-31986295D01*
X83699039Y-32468626D01*
X83888984Y-32888888D01*
X84029345Y-33147000D01*
X84056622Y-32921156D01*
X84057969Y-32901174D01*
X84028788Y-32697318D01*
X83945129Y-32405321D01*
X83822650Y-32081388D01*
X83792617Y-32009913D01*
X83679372Y-31721021D01*
X83605755Y-31500793D01*
X83586489Y-31392199D01*
X83622018Y-31395638D01*
X83709115Y-31515027D01*
X83828803Y-31727650D01*
X83964433Y-31998482D01*
X84099354Y-32292497D01*
X84216917Y-32574667D01*
X84300471Y-32809968D01*
X84333367Y-32963373D01*
X84333661Y-32978006D01*
X84340973Y-33145472D01*
X84364826Y-33155672D01*
X84423318Y-33020000D01*
X84440603Y-32972317D01*
X84474622Y-32731695D01*
X84422180Y-32449021D01*
X84275019Y-32095757D01*
X84024878Y-31643363D01*
X83891897Y-31409986D01*
X83722785Y-31048138D01*
X83669085Y-30798377D01*
X83729984Y-30653673D01*
X83904666Y-30607000D01*
X83931901Y-30607426D01*
X84076171Y-30651730D01*
X84109611Y-30797500D01*
X84109944Y-30832234D01*
X84167060Y-30965019D01*
X84281999Y-30967880D01*
X84404208Y-30834471D01*
X84441279Y-30725131D01*
X84406850Y-30506562D01*
X84253340Y-30329554D01*
X84012481Y-30242094D01*
X83937747Y-30237116D01*
X83637091Y-30285855D01*
X83402746Y-30467124D01*
X83208570Y-30799032D01*
X83113795Y-31055250D01*
X83069885Y-31342488D01*
X82903468Y-31342488D01*
X82908412Y-31114705D01*
X82950168Y-30861787D01*
X83032637Y-30655352D01*
X83222552Y-30379575D01*
X83515116Y-30141575D01*
X83839425Y-30029670D01*
X84162830Y-30053779D01*
X84452685Y-30223825D01*
X84595885Y-30419785D01*
X84651953Y-30675966D01*
X84594258Y-30913839D01*
X84435374Y-31089071D01*
X84187878Y-31157333D01*
X84061598Y-31166406D01*
X83989333Y-31196810D01*
X83990176Y-31200905D01*
X84043660Y-31302242D01*
X84163958Y-31501493D01*
X84328000Y-31760269D01*
X84397409Y-31869772D01*
X84561725Y-32168090D01*
X84644065Y-32416056D01*
X84666535Y-32673293D01*
X84664629Y-32731695D01*
X84662065Y-32810257D01*
X84564968Y-33253674D01*
G37*
G36*
X58017880Y-34205773D02*
G01*
X58086410Y-34224478D01*
X58129784Y-34292749D01*
X58153706Y-34440523D01*
X58163877Y-34697739D01*
X58166000Y-35094333D01*
X58165916Y-35205703D01*
X58162353Y-35565484D01*
X58149349Y-35793200D01*
X58121202Y-35918788D01*
X58072208Y-35972187D01*
X57996666Y-35983333D01*
X57975453Y-35982893D01*
X57906923Y-35964188D01*
X57863549Y-35895917D01*
X57839627Y-35748143D01*
X57829456Y-35490928D01*
X57827333Y-35094333D01*
X57827417Y-34982964D01*
X57830980Y-34623182D01*
X57843984Y-34395467D01*
X57872131Y-34269878D01*
X57921125Y-34216480D01*
X57996666Y-34205333D01*
X58017880Y-34205773D01*
G37*
G36*
X80740892Y-47111750D02*
G01*
X80732033Y-47124826D01*
X80540033Y-47287072D01*
X80313260Y-47324810D01*
X80111600Y-47227067D01*
X80065244Y-47160500D01*
X80014448Y-46936378D01*
X80017348Y-46907925D01*
X80194849Y-46907925D01*
X80270151Y-47025309D01*
X80353716Y-47081130D01*
X80496833Y-47099793D01*
X80546080Y-47064360D01*
X80598133Y-46912688D01*
X80574457Y-46722041D01*
X80477777Y-46568418D01*
X80426899Y-46532516D01*
X80339157Y-46540240D01*
X80251095Y-46688179D01*
X80224811Y-46749310D01*
X80194849Y-46907925D01*
X80017348Y-46907925D01*
X80040409Y-46681632D01*
X80140001Y-46478683D01*
X80209754Y-46386399D01*
X80179066Y-46327335D01*
X80006070Y-46282247D01*
X79960650Y-46274350D01*
X79684080Y-46284102D01*
X79490338Y-46390848D01*
X79417333Y-46575693D01*
X79419188Y-46648605D01*
X79450589Y-46699146D01*
X79553303Y-46612125D01*
X79608513Y-46569797D01*
X79758509Y-46547004D01*
X79866641Y-46627082D01*
X79871421Y-46777977D01*
X79782280Y-46897042D01*
X79591959Y-46946375D01*
X79363070Y-46862969D01*
X79314794Y-46827996D01*
X79181870Y-46646697D01*
X79184379Y-46454970D01*
X79298638Y-46278368D01*
X79500961Y-46142443D01*
X79767665Y-46072747D01*
X80075064Y-46094833D01*
X80098398Y-46100401D01*
X80249640Y-46132376D01*
X80381534Y-46141640D01*
X80556417Y-46127851D01*
X80836625Y-46090670D01*
X81036791Y-46077783D01*
X81347648Y-46140542D01*
X81547810Y-46308564D01*
X81618666Y-46570433D01*
X81572861Y-46787752D01*
X81409507Y-46919596D01*
X81401357Y-46923211D01*
X81182730Y-46952919D01*
X81010918Y-46867002D01*
X80941333Y-46692358D01*
X80941802Y-46679691D01*
X81012947Y-46562671D01*
X81148291Y-46538113D01*
X81266044Y-46623389D01*
X81291629Y-46660701D01*
X81372360Y-46688870D01*
X81420631Y-46605618D01*
X81401148Y-46454948D01*
X81278489Y-46329973D01*
X81054107Y-46263937D01*
X80796019Y-46281853D01*
X80762193Y-46290946D01*
X80668523Y-46335444D01*
X80666438Y-46424807D01*
X80748249Y-46612211D01*
X80830554Y-46812818D01*
X80829142Y-46912688D01*
X80828598Y-46951202D01*
X80740892Y-47111750D01*
G37*
G36*
X75283839Y-40940032D02*
G01*
X75100927Y-41335121D01*
X74788788Y-41750508D01*
X74646885Y-41925894D01*
X74460747Y-42191491D01*
X74342671Y-42405114D01*
X74332553Y-42428478D01*
X74224236Y-42601222D01*
X74117115Y-42672000D01*
X74019981Y-42628195D01*
X73889091Y-42453998D01*
X73773888Y-42187621D01*
X73692201Y-41872867D01*
X73667443Y-41612303D01*
X73880552Y-41612303D01*
X73939100Y-42100500D01*
X73999858Y-42261178D01*
X74063780Y-42331812D01*
X74116168Y-42293063D01*
X74241607Y-42146939D01*
X74400354Y-41929645D01*
X74504425Y-41777861D01*
X74708763Y-41479877D01*
X74878311Y-41232667D01*
X74902776Y-41195214D01*
X75048984Y-40898731D01*
X75139280Y-40597667D01*
X75154573Y-40502085D01*
X75160211Y-40405584D01*
X75126564Y-40424631D01*
X75042140Y-40571519D01*
X74895450Y-40858540D01*
X74760252Y-41117054D01*
X74589654Y-41408999D01*
X74463932Y-41585379D01*
X74392469Y-41640847D01*
X74384649Y-41570057D01*
X74449854Y-41367663D01*
X74597468Y-41028319D01*
X74687946Y-40830142D01*
X74810133Y-40541007D01*
X74885102Y-40333307D01*
X74899277Y-40242388D01*
X74844997Y-40257589D01*
X74735924Y-40387130D01*
X74600181Y-40602469D01*
X74459633Y-40865224D01*
X74336143Y-41137010D01*
X74251576Y-41379447D01*
X74195799Y-41570140D01*
X74118058Y-41777452D01*
X74061808Y-41860763D01*
X74037610Y-41807817D01*
X74056026Y-41606359D01*
X74061879Y-41570974D01*
X74126707Y-41289469D01*
X74221776Y-40976716D01*
X74329457Y-40681646D01*
X74432124Y-40453190D01*
X74512148Y-40340279D01*
X74529591Y-40327283D01*
X74591333Y-40201303D01*
X74590552Y-40187649D01*
X74540474Y-40162296D01*
X74428735Y-40254696D01*
X74278363Y-40440999D01*
X74112388Y-40697354D01*
X73945765Y-41112610D01*
X73880552Y-41612303D01*
X73667443Y-41612303D01*
X73661859Y-41553539D01*
X73662438Y-41510085D01*
X73748230Y-40970595D01*
X73984251Y-40500200D01*
X74377725Y-40084073D01*
X74557439Y-39933259D01*
X74804726Y-39721021D01*
X74985352Y-39560500D01*
X75000995Y-39546141D01*
X75146301Y-39421269D01*
X75223454Y-39370000D01*
X75236510Y-39376586D01*
X75282840Y-39493288D01*
X75324246Y-39721126D01*
X75354014Y-40014751D01*
X75365428Y-40328818D01*
X75363084Y-40405584D01*
X75359892Y-40510090D01*
X75283839Y-40940032D01*
G37*
G36*
X62089059Y-42554586D02*
G01*
X62143963Y-42607677D01*
X62177700Y-42735825D01*
X62197903Y-42970452D01*
X62212206Y-43342982D01*
X62216741Y-43532257D01*
X62218018Y-43868219D01*
X62210038Y-44123217D01*
X62193697Y-44253148D01*
X62165554Y-44288687D01*
X61987634Y-44346352D01*
X61649865Y-44365333D01*
X61477662Y-44363334D01*
X61263726Y-44343742D01*
X61153577Y-44292356D01*
X61104801Y-44196000D01*
X61097960Y-44167383D01*
X61104488Y-44075739D01*
X61202323Y-44035568D01*
X61430297Y-44026667D01*
X61800074Y-44026667D01*
X61824537Y-43285833D01*
X61834045Y-43035060D01*
X61852732Y-42771863D01*
X61884002Y-42624141D01*
X61936366Y-42559363D01*
X62018333Y-42545000D01*
X62089059Y-42554586D01*
G37*
G36*
X56836152Y-42578286D02*
G01*
X56843166Y-42586140D01*
X56924159Y-42726892D01*
X57035402Y-42973637D01*
X57155000Y-43278301D01*
X57375744Y-43880212D01*
X57653389Y-43191439D01*
X57731691Y-43002900D01*
X57871321Y-42710974D01*
X57984745Y-42551239D01*
X58085144Y-42502667D01*
X58146376Y-42508789D01*
X58226591Y-42560652D01*
X58284197Y-42690811D01*
X58330100Y-42929512D01*
X58375208Y-43307000D01*
X58400069Y-43528178D01*
X58440767Y-43850508D01*
X58476233Y-44090167D01*
X58494771Y-44237098D01*
X58465231Y-44341323D01*
X58349944Y-44365333D01*
X58269185Y-44347193D01*
X58195241Y-44262437D01*
X58140652Y-44084878D01*
X58098152Y-43789011D01*
X58060474Y-43349333D01*
X58051525Y-43251952D01*
X58030220Y-43182806D01*
X57988849Y-43224008D01*
X57915197Y-43391961D01*
X57797051Y-43703066D01*
X57745126Y-43841063D01*
X57635692Y-44108425D01*
X57552079Y-44253587D01*
X57474490Y-44304601D01*
X57383127Y-44289515D01*
X57329863Y-44258236D01*
X57183882Y-44074005D01*
X57043240Y-43766449D01*
X56953523Y-43531448D01*
X56847893Y-43303614D01*
X56777584Y-43235139D01*
X56738241Y-43323265D01*
X56725510Y-43565233D01*
X56716413Y-43866111D01*
X56673048Y-44157126D01*
X56587629Y-44316699D01*
X56453178Y-44365333D01*
X56428867Y-44364901D01*
X56338398Y-44336510D01*
X56311632Y-44231603D01*
X56333740Y-44005500D01*
X56358563Y-43814651D01*
X56400385Y-43465151D01*
X56439767Y-43109335D01*
X56482222Y-42832745D01*
X56569756Y-42586030D01*
X56688533Y-42500138D01*
X56836152Y-42578286D01*
G37*
G36*
X78808217Y-41381351D02*
G01*
X78651614Y-41747615D01*
X78580820Y-41962097D01*
X78555075Y-42225083D01*
X78553202Y-42370772D01*
X78502707Y-42478032D01*
X78364729Y-42502667D01*
X78357884Y-42502558D01*
X78258687Y-42473901D01*
X78143100Y-42380501D01*
X77993926Y-42201957D01*
X77793965Y-41917868D01*
X77526017Y-41507833D01*
X77458478Y-41402174D01*
X77292071Y-41138085D01*
X78324467Y-41138085D01*
X78328298Y-41449255D01*
X78337390Y-41661914D01*
X78350717Y-41740667D01*
X78373409Y-41726467D01*
X78436415Y-41599120D01*
X78499692Y-41387319D01*
X78547515Y-41149691D01*
X78564160Y-40944866D01*
X78562114Y-40904269D01*
X78521003Y-40631304D01*
X78446037Y-40343667D01*
X78424114Y-40277935D01*
X78381398Y-40167426D01*
X78354326Y-40153466D01*
X78338755Y-40254250D01*
X78338588Y-40259000D01*
X78335613Y-40343667D01*
X78330542Y-40487974D01*
X78326918Y-40767000D01*
X78325544Y-40872833D01*
X78324467Y-41138085D01*
X77292071Y-41138085D01*
X77228455Y-41037126D01*
X77063517Y-40768721D01*
X77649154Y-40768721D01*
X77664400Y-41000997D01*
X77679313Y-41041183D01*
X77694404Y-40967789D01*
X77699784Y-40767000D01*
X77695975Y-40610418D01*
X77682643Y-40518909D01*
X77670618Y-40555333D01*
X77663245Y-40577664D01*
X77649154Y-40768721D01*
X77063517Y-40768721D01*
X77034743Y-40721897D01*
X76896931Y-40488766D01*
X77398470Y-40488766D01*
X77411637Y-40703500D01*
X77419552Y-40727522D01*
X77441530Y-40709369D01*
X77450357Y-40555333D01*
X77449538Y-40497888D01*
X77436177Y-40380816D01*
X77411637Y-40407167D01*
X77398470Y-40488766D01*
X76896931Y-40488766D01*
X76896006Y-40487201D01*
X76830904Y-40363755D01*
X76826010Y-40343667D01*
X77131333Y-40343667D01*
X77173666Y-40386000D01*
X77216000Y-40343667D01*
X77893333Y-40343667D01*
X77935666Y-40386000D01*
X77978000Y-40343667D01*
X77935666Y-40301333D01*
X77893333Y-40343667D01*
X77216000Y-40343667D01*
X77173666Y-40301333D01*
X77131333Y-40343667D01*
X76826010Y-40343667D01*
X76805381Y-40259000D01*
X78062666Y-40259000D01*
X78105000Y-40301333D01*
X78147333Y-40259000D01*
X78105000Y-40216667D01*
X78062666Y-40259000D01*
X76805381Y-40259000D01*
X76805079Y-40257760D01*
X76863797Y-40099551D01*
X77068198Y-40020026D01*
X77414214Y-40021574D01*
X77520341Y-40031527D01*
X77763348Y-40033380D01*
X77938550Y-39977570D01*
X78120063Y-39845620D01*
X78361879Y-39678951D01*
X78550739Y-39629214D01*
X78655812Y-39707289D01*
X78661327Y-39911264D01*
X78669921Y-40006943D01*
X78711678Y-40224201D01*
X78777652Y-40506752D01*
X78805718Y-40626033D01*
X78846263Y-40944866D01*
X78857205Y-41030912D01*
X78808217Y-41381351D01*
G37*
G36*
X78083833Y-32969541D02*
G01*
X77998696Y-33071594D01*
X77986526Y-33101175D01*
X78085879Y-33027642D01*
X78101736Y-33015765D01*
X78245651Y-32954798D01*
X78301564Y-33007325D01*
X78233698Y-33144954D01*
X78122829Y-33234096D01*
X77912741Y-33262385D01*
X77724000Y-33147000D01*
X77671836Y-33066121D01*
X77710976Y-33020000D01*
X77752303Y-32999410D01*
X77752336Y-32887053D01*
X77724600Y-32835589D01*
X77659398Y-32842208D01*
X77548842Y-32986545D01*
X77545762Y-32991243D01*
X77450289Y-33157796D01*
X77454352Y-33274239D01*
X77560183Y-33427243D01*
X77664990Y-33596687D01*
X77713365Y-33891621D01*
X77592531Y-34186020D01*
X77461062Y-34373718D01*
X77264701Y-34145435D01*
X77044378Y-33958364D01*
X76782336Y-33823774D01*
X76539075Y-33668468D01*
X76324407Y-33394382D01*
X76172788Y-33054905D01*
X76117798Y-32717482D01*
X76377056Y-32717482D01*
X76384779Y-33147000D01*
X76531659Y-32681333D01*
X76592429Y-32507794D01*
X76739730Y-32162223D01*
X76891627Y-31877000D01*
X76953420Y-31777274D01*
X77083291Y-31557367D01*
X77160747Y-31411333D01*
X77189953Y-31383232D01*
X77182011Y-31496000D01*
X77142449Y-31647518D01*
X77049859Y-31915179D01*
X76929631Y-32215667D01*
X76832489Y-32470801D01*
X76747599Y-32765075D01*
X76716752Y-32977667D01*
X76718391Y-33021271D01*
X76736877Y-33094673D01*
X76785629Y-33060293D01*
X76877608Y-32902535D01*
X77025774Y-32605803D01*
X77114079Y-32418122D01*
X77252548Y-32062514D01*
X77329858Y-31721115D01*
X77369029Y-31306808D01*
X77373736Y-31233781D01*
X77410362Y-30917513D01*
X77456770Y-30764097D01*
X77502829Y-30774451D01*
X77538406Y-30949491D01*
X77553370Y-31290133D01*
X77553147Y-31326449D01*
X77490598Y-31861356D01*
X77329194Y-32449031D01*
X77086256Y-33025133D01*
X76890730Y-33411266D01*
X77138032Y-33504612D01*
X77143691Y-33506771D01*
X77314548Y-33598169D01*
X77385333Y-33687321D01*
X77358798Y-33728677D01*
X77237166Y-33723519D01*
X77159312Y-33699713D01*
X77131333Y-33707801D01*
X77239893Y-33801316D01*
X77385539Y-33902427D01*
X77453337Y-33888395D01*
X77470000Y-33763624D01*
X77430195Y-33603129D01*
X77247879Y-33453975D01*
X77129406Y-33393743D01*
X77079400Y-33318372D01*
X77153348Y-33207552D01*
X77251319Y-33088176D01*
X77496027Y-32667960D01*
X77517083Y-32592903D01*
X77731284Y-32592903D01*
X77798160Y-32703911D01*
X77809311Y-32714850D01*
X77871334Y-32755430D01*
X77845556Y-32656515D01*
X77803333Y-32577501D01*
X77740351Y-32552093D01*
X77731284Y-32592903D01*
X77517083Y-32592903D01*
X77634960Y-32172720D01*
X77679810Y-31565999D01*
X77679843Y-31550262D01*
X77673557Y-31174311D01*
X77647630Y-30919902D01*
X77593770Y-30741190D01*
X77503685Y-30592332D01*
X77278120Y-30370298D01*
X76969727Y-30243945D01*
X76644500Y-30275195D01*
X76539082Y-30320775D01*
X76436654Y-30435968D01*
X76411666Y-30650213D01*
X76442830Y-30874361D01*
X76545765Y-30969172D01*
X76638776Y-30949865D01*
X76672765Y-30800999D01*
X76672326Y-30772481D01*
X76716988Y-30641316D01*
X76877333Y-30607000D01*
X76975898Y-30618368D01*
X77106626Y-30724939D01*
X77113303Y-30940512D01*
X76996362Y-31261227D01*
X76756238Y-31683229D01*
X76727407Y-31728452D01*
X76541263Y-32037664D01*
X76433807Y-32270161D01*
X76385563Y-32479061D01*
X76377056Y-32717482D01*
X76117798Y-32717482D01*
X76115333Y-32702354D01*
X76124439Y-32589757D01*
X76225058Y-32238642D01*
X76419959Y-31837210D01*
X76687932Y-31432500D01*
X76897431Y-31157333D01*
X76638183Y-31157333D01*
X76455825Y-31128599D01*
X76247134Y-30969161D01*
X76135920Y-30746533D01*
X76150106Y-30512918D01*
X76316028Y-30256121D01*
X76553302Y-30072727D01*
X76859577Y-30006349D01*
X77179664Y-30075788D01*
X77480352Y-30273176D01*
X77728429Y-30590648D01*
X77828208Y-30830358D01*
X77915219Y-31263685D01*
X77925110Y-31550262D01*
X77931890Y-31746702D01*
X77872566Y-32215667D01*
X77866958Y-32241095D01*
X77845407Y-32368728D01*
X77861415Y-32363833D01*
X77885889Y-32316653D01*
X77972861Y-32254714D01*
X78037999Y-32325821D01*
X78045895Y-32503221D01*
X78041212Y-32537943D01*
X78046179Y-32688885D01*
X78120952Y-32705829D01*
X78217614Y-32700199D01*
X78211385Y-32755430D01*
X78207074Y-32793653D01*
X78083833Y-32969541D01*
G37*
G36*
X78049089Y-46081687D02*
G01*
X77916755Y-46176438D01*
X77681666Y-46237012D01*
X77593883Y-46268778D01*
X77429994Y-46365025D01*
X77320424Y-46440053D01*
X77252520Y-46482000D01*
X77250184Y-46473443D01*
X77244376Y-46355539D01*
X77242051Y-46143333D01*
X77242564Y-46102287D01*
X77254674Y-46016333D01*
X77470000Y-46016333D01*
X77512333Y-46058667D01*
X77554666Y-46016333D01*
X77808666Y-46016333D01*
X77851000Y-46058667D01*
X77893333Y-46016333D01*
X77851000Y-45974000D01*
X77808666Y-46016333D01*
X77554666Y-46016333D01*
X77512333Y-45974000D01*
X77470000Y-46016333D01*
X77254674Y-46016333D01*
X77273412Y-45883329D01*
X77346347Y-45804667D01*
X77347145Y-45804663D01*
X77492113Y-45767197D01*
X77503099Y-45762333D01*
X77808666Y-45762333D01*
X77851000Y-45804667D01*
X77893333Y-45762333D01*
X77851000Y-45720000D01*
X77808666Y-45762333D01*
X77503099Y-45762333D01*
X77693155Y-45678188D01*
X77709586Y-45669680D01*
X77954911Y-45568164D01*
X78100350Y-45577485D01*
X78173637Y-45698833D01*
X78180014Y-45721669D01*
X78210182Y-45760479D01*
X78232196Y-45635333D01*
X78248292Y-45505167D01*
X78271156Y-45513280D01*
X78316666Y-45677667D01*
X78338210Y-45762333D01*
X78381299Y-45931667D01*
X78391316Y-45656500D01*
X78392220Y-45636337D01*
X78399953Y-45583752D01*
X78753302Y-45583752D01*
X78773514Y-45697069D01*
X78802416Y-45695758D01*
X78817982Y-45585944D01*
X78804424Y-45502721D01*
X78766830Y-45534792D01*
X78753302Y-45583752D01*
X78399953Y-45583752D01*
X78418856Y-45455209D01*
X78464833Y-45380177D01*
X78547019Y-45368007D01*
X78725055Y-45326342D01*
X78848939Y-45305987D01*
X78901099Y-45365756D01*
X78894389Y-45551523D01*
X78891631Y-45577737D01*
X78889597Y-45585944D01*
X78849124Y-45749223D01*
X78738788Y-45851498D01*
X78511165Y-45933912D01*
X78413343Y-45960413D01*
X78211010Y-45998593D01*
X78108998Y-45992109D01*
X78092822Y-45981820D01*
X78074572Y-46016333D01*
X78062666Y-46038850D01*
X78049089Y-46081687D01*
G37*
G36*
X65864154Y-42619961D02*
G01*
X66161896Y-42850708D01*
X66323600Y-43136636D01*
X66382131Y-43479068D01*
X66330148Y-43814682D01*
X66175268Y-44097459D01*
X65925107Y-44281379D01*
X65744011Y-44333440D01*
X65465997Y-44357412D01*
X65206310Y-44329569D01*
X65014303Y-44256707D01*
X64939333Y-44145623D01*
X64948733Y-44108450D01*
X65059003Y-44053811D01*
X65311121Y-44046511D01*
X65384127Y-44048373D01*
X65695947Y-44005239D01*
X65892062Y-43859172D01*
X66000180Y-43591891D01*
X66012752Y-43369437D01*
X65958210Y-43115732D01*
X65850849Y-42917082D01*
X65712228Y-42830487D01*
X65709030Y-42830239D01*
X65526913Y-42819637D01*
X65285894Y-42809320D01*
X65097838Y-42780646D01*
X64975738Y-42705930D01*
X64986511Y-42615431D01*
X65145542Y-42538804D01*
X65492462Y-42513968D01*
X65864154Y-42619961D01*
G37*
G36*
X64513601Y-43590121D02*
G01*
X64490597Y-43828915D01*
X64413761Y-43990921D01*
X64255504Y-44146140D01*
X64083675Y-44261676D01*
X63754092Y-44355584D01*
X63428651Y-44316234D01*
X63138280Y-44163183D01*
X62913904Y-43915987D01*
X62786450Y-43594206D01*
X62786557Y-43492699D01*
X63162630Y-43492699D01*
X63166287Y-43618449D01*
X63217999Y-43836779D01*
X63349505Y-43979532D01*
X63356050Y-43984095D01*
X63574475Y-44094781D01*
X63760121Y-44070231D01*
X63969515Y-43903515D01*
X64059098Y-43795482D01*
X64168603Y-43535554D01*
X64173494Y-43270812D01*
X64090088Y-43035769D01*
X63934706Y-42864942D01*
X63723667Y-42792846D01*
X63473290Y-42853996D01*
X63406219Y-42891367D01*
X63253230Y-43019752D01*
X63181309Y-43201125D01*
X63162630Y-43492699D01*
X62786557Y-43492699D01*
X62786846Y-43217395D01*
X62852124Y-43016395D01*
X63060974Y-42739930D01*
X63356211Y-42563744D01*
X63695057Y-42509095D01*
X64034733Y-42597243D01*
X64301941Y-42794884D01*
X64462574Y-43086047D01*
X64486151Y-43270812D01*
X64514117Y-43489974D01*
X64513601Y-43590121D01*
G37*
G36*
X53707059Y-42554586D02*
G01*
X53761963Y-42607677D01*
X53795700Y-42735825D01*
X53815903Y-42970452D01*
X53830206Y-43342982D01*
X53834659Y-43531469D01*
X53835491Y-43869072D01*
X53826698Y-44126559D01*
X53809296Y-44259406D01*
X53762932Y-44317488D01*
X53615423Y-44349264D01*
X53556310Y-44324536D01*
X53509886Y-44249610D01*
X53482793Y-44096192D01*
X53470131Y-43834021D01*
X53467000Y-43432840D01*
X53467081Y-43323253D01*
X53470626Y-42963197D01*
X53483611Y-42735301D01*
X53511748Y-42609607D01*
X53560751Y-42556159D01*
X53636333Y-42545000D01*
X53707059Y-42554586D01*
G37*
G36*
X68900873Y-43342982D02*
G01*
X68905408Y-43532257D01*
X68906685Y-43868219D01*
X68898704Y-44123217D01*
X68882364Y-44253148D01*
X68831539Y-44302640D01*
X68635881Y-44350061D01*
X68286324Y-44365333D01*
X67999007Y-44360695D01*
X67826519Y-44338554D01*
X67750407Y-44287466D01*
X67733333Y-44196000D01*
X67733479Y-44183835D01*
X67763650Y-44083752D01*
X67876238Y-44037746D01*
X68114333Y-44026667D01*
X68258069Y-44025231D01*
X68420519Y-44002831D01*
X68484289Y-43928855D01*
X68495333Y-43772667D01*
X68494799Y-43718125D01*
X68470357Y-43583051D01*
X68373822Y-43528697D01*
X68156666Y-43518667D01*
X68059302Y-43516362D01*
X67873923Y-43479973D01*
X67818000Y-43391667D01*
X67824146Y-43355155D01*
X67921181Y-43285638D01*
X68156666Y-43264667D01*
X68186160Y-43264591D01*
X68389658Y-43249986D01*
X68476848Y-43189373D01*
X68495333Y-43053000D01*
X68493575Y-42991259D01*
X68459109Y-42891547D01*
X68345645Y-42849782D01*
X68108125Y-42841333D01*
X68088076Y-42841300D01*
X67859279Y-42829337D01*
X67758968Y-42785149D01*
X67749451Y-42693167D01*
X67767381Y-42641920D01*
X67847571Y-42581663D01*
X68021662Y-42552562D01*
X68327159Y-42545000D01*
X68876333Y-42545000D01*
X68900873Y-43342982D01*
G37*
G36*
X82240749Y-45531869D02*
G01*
X82249197Y-45642565D01*
X82230131Y-45664749D01*
X82119435Y-45673197D01*
X82097251Y-45654131D01*
X82088802Y-45543435D01*
X82107869Y-45521251D01*
X82218565Y-45512802D01*
X82240749Y-45531869D01*
G37*
G36*
X79855678Y-34148664D02*
G01*
X79749705Y-34205333D01*
X79674799Y-34245389D01*
X79423635Y-34332333D01*
X79353833Y-34356496D01*
X78930555Y-34471051D01*
X78505877Y-34532709D01*
X78193632Y-34500511D01*
X77978000Y-34374667D01*
X77940643Y-34332333D01*
X78486000Y-34332333D01*
X78528333Y-34374667D01*
X78570666Y-34332333D01*
X78528333Y-34290000D01*
X78486000Y-34332333D01*
X77940643Y-34332333D01*
X77936825Y-34328006D01*
X77845574Y-34167725D01*
X77844387Y-34163000D01*
X78570666Y-34163000D01*
X78613000Y-34205333D01*
X78655333Y-34163000D01*
X78653631Y-34161298D01*
X78842756Y-34161298D01*
X78842928Y-34163000D01*
X78852889Y-34261778D01*
X78878355Y-34275023D01*
X78909333Y-34205333D01*
X78903223Y-34160511D01*
X78852889Y-34148889D01*
X78842756Y-34161298D01*
X78653631Y-34161298D01*
X78613000Y-34120667D01*
X78570666Y-34163000D01*
X77844387Y-34163000D01*
X77823108Y-34078333D01*
X79078666Y-34078333D01*
X79121000Y-34120667D01*
X79163333Y-34078333D01*
X79121000Y-34036000D01*
X79078666Y-34078333D01*
X77823108Y-34078333D01*
X77806890Y-34013802D01*
X77827592Y-33915043D01*
X77914500Y-33920256D01*
X77969435Y-33936977D01*
X77907211Y-33844294D01*
X77851216Y-33745267D01*
X77848708Y-33616375D01*
X77863818Y-33580880D01*
X77854299Y-33568631D01*
X78165422Y-33568631D01*
X78175555Y-33669111D01*
X78201022Y-33682357D01*
X78232000Y-33612667D01*
X78225890Y-33567844D01*
X78175555Y-33556222D01*
X78165422Y-33568631D01*
X77854299Y-33568631D01*
X77822722Y-33528000D01*
X77780562Y-33514176D01*
X77694483Y-33403868D01*
X77683346Y-33365915D01*
X77721173Y-33311249D01*
X77886823Y-33327731D01*
X78066396Y-33336055D01*
X78184395Y-33282529D01*
X78278838Y-33197792D01*
X78364756Y-33211261D01*
X78369028Y-33320731D01*
X78354215Y-33385027D01*
X78396453Y-33404016D01*
X78421357Y-33393384D01*
X78522758Y-33434312D01*
X78541596Y-33578525D01*
X78521833Y-33612667D01*
X78440832Y-33752600D01*
X78241619Y-33890402D01*
X78020333Y-33985832D01*
X78275511Y-34014789D01*
X78455242Y-34008948D01*
X78555919Y-33991965D01*
X79350756Y-33991965D01*
X79359466Y-34078333D01*
X79360889Y-34092444D01*
X79386355Y-34105690D01*
X79417333Y-34036000D01*
X79411223Y-33991178D01*
X79360889Y-33979555D01*
X79350756Y-33991965D01*
X78555919Y-33991965D01*
X78750599Y-33959125D01*
X79072686Y-33875058D01*
X79377220Y-33795215D01*
X79685465Y-33770779D01*
X79866300Y-33847497D01*
X79925333Y-34026364D01*
X79924451Y-34036000D01*
X79923082Y-34050947D01*
X79855678Y-34148664D01*
G37*
G36*
X55387498Y-44365333D02*
G01*
X54984720Y-44324012D01*
X54652566Y-44202672D01*
X54434425Y-44015869D01*
X54371123Y-43824058D01*
X54779333Y-43824058D01*
X54792626Y-43939002D01*
X54874768Y-44010359D01*
X55075666Y-44026667D01*
X55271690Y-44013314D01*
X55355480Y-43943319D01*
X55372000Y-43772667D01*
X55370807Y-43718556D01*
X55329320Y-43561905D01*
X55209591Y-43518667D01*
X55046167Y-43531852D01*
X54845294Y-43629228D01*
X54779333Y-43824058D01*
X54371123Y-43824058D01*
X54356000Y-43778233D01*
X54405613Y-43666247D01*
X54533800Y-43510200D01*
X54544892Y-43498976D01*
X54651145Y-43347874D01*
X54618466Y-43239267D01*
X54538412Y-43078859D01*
X54539170Y-43053000D01*
X54906333Y-43053000D01*
X54957574Y-43187460D01*
X55139166Y-43249124D01*
X55242210Y-43256180D01*
X55348394Y-43211822D01*
X55372000Y-43053000D01*
X55366987Y-42954923D01*
X55307893Y-42860062D01*
X55139166Y-42856876D01*
X54962390Y-42914482D01*
X54906333Y-43053000D01*
X54539170Y-43053000D01*
X54545007Y-42853814D01*
X54651208Y-42672933D01*
X54724260Y-42635378D01*
X54944026Y-42582510D01*
X55222708Y-42556733D01*
X55668333Y-42545000D01*
X55681746Y-43053000D01*
X55692364Y-43455167D01*
X55700747Y-43772667D01*
X55716395Y-44365333D01*
X55387498Y-44365333D01*
G37*
G36*
X86590320Y-36609338D02*
G01*
X86486083Y-37118623D01*
X86456185Y-37229208D01*
X86387453Y-37603142D01*
X86360000Y-37954973D01*
X86360000Y-38375701D01*
X86084833Y-38165028D01*
X86022092Y-38114694D01*
X85651892Y-37702302D01*
X85393887Y-37199746D01*
X85275546Y-36658175D01*
X85265965Y-36452169D01*
X85504196Y-36452169D01*
X85528372Y-36890214D01*
X85627796Y-37260275D01*
X85633526Y-37273022D01*
X85767825Y-37527247D01*
X85910042Y-37739329D01*
X85950515Y-37788119D01*
X86009835Y-37837853D01*
X86058629Y-37814595D01*
X86109205Y-37695381D01*
X86173874Y-37457246D01*
X86264944Y-37077225D01*
X86284768Y-36992614D01*
X86370673Y-36591288D01*
X86412502Y-36300130D01*
X86414509Y-36074951D01*
X86380945Y-35871562D01*
X86295669Y-35517667D01*
X86284178Y-35941000D01*
X86273984Y-36095593D01*
X86237058Y-36392729D01*
X86182695Y-36718844D01*
X86120319Y-37024663D01*
X86059356Y-37260914D01*
X86009232Y-37378323D01*
X85998593Y-37326027D01*
X85991221Y-37135790D01*
X85989088Y-36837749D01*
X85992778Y-36464253D01*
X85996982Y-36149225D01*
X85995928Y-35883425D01*
X85986486Y-35767423D01*
X85967506Y-35790265D01*
X85937838Y-35941000D01*
X85921617Y-36047099D01*
X85879770Y-36423101D01*
X85859417Y-36771497D01*
X85853402Y-36914342D01*
X85819972Y-37094249D01*
X85756264Y-37119492D01*
X85753190Y-37117400D01*
X85706141Y-36997444D01*
X85689957Y-36725839D01*
X85704162Y-36295073D01*
X85704731Y-36285080D01*
X85723408Y-35933061D01*
X85727875Y-35730067D01*
X85714774Y-35656583D01*
X85680747Y-35693092D01*
X85622435Y-35820078D01*
X85555578Y-36030006D01*
X85504196Y-36452169D01*
X85265965Y-36452169D01*
X85265955Y-36451954D01*
X85285210Y-36191458D01*
X85359163Y-35930709D01*
X85503451Y-35596891D01*
X85516142Y-35569635D01*
X85576145Y-35433000D01*
X86190666Y-35433000D01*
X86233000Y-35475333D01*
X86275333Y-35433000D01*
X86233000Y-35390667D01*
X86190666Y-35433000D01*
X85576145Y-35433000D01*
X85643178Y-35280357D01*
X85733166Y-35046152D01*
X85767333Y-34915494D01*
X85768696Y-34889784D01*
X85828360Y-34808092D01*
X85955163Y-34838144D01*
X86119844Y-34959354D01*
X86293143Y-35151131D01*
X86445800Y-35392888D01*
X86460836Y-35433000D01*
X86537937Y-35638689D01*
X86603801Y-36074951D01*
X86607166Y-36097239D01*
X86590320Y-36609338D01*
G37*
G36*
X79417333Y-30776333D02*
G01*
X79375000Y-30818667D01*
X79332666Y-30776333D01*
X79375000Y-30734000D01*
X79417333Y-30776333D01*
G37*
G36*
X76442186Y-46766526D02*
G01*
X76268677Y-46847945D01*
X76206287Y-46857625D01*
X75960951Y-46867778D01*
X75676459Y-46854602D01*
X75422234Y-46822963D01*
X75267695Y-46777733D01*
X75216341Y-46704341D01*
X75184000Y-46529311D01*
X75197379Y-46418006D01*
X75279614Y-46351008D01*
X75480333Y-46340513D01*
X75647270Y-46354336D01*
X75755718Y-46416572D01*
X75786684Y-46563371D01*
X75796177Y-46693898D01*
X75816385Y-46687646D01*
X75838499Y-46607298D01*
X75964089Y-46607298D01*
X75974222Y-46707778D01*
X75999688Y-46721023D01*
X76030666Y-46651333D01*
X76024895Y-46609000D01*
X76284666Y-46609000D01*
X76327000Y-46651333D01*
X76369333Y-46609000D01*
X76327000Y-46566667D01*
X76284666Y-46609000D01*
X76024895Y-46609000D01*
X76024556Y-46606511D01*
X75974222Y-46594889D01*
X75964089Y-46607298D01*
X75838499Y-46607298D01*
X75861333Y-46524333D01*
X75866567Y-46504130D01*
X75887123Y-46439667D01*
X76284666Y-46439667D01*
X76327000Y-46482000D01*
X76369333Y-46439667D01*
X76327000Y-46397333D01*
X76284666Y-46439667D01*
X75887123Y-46439667D01*
X75911893Y-46361986D01*
X75935983Y-46344200D01*
X75962159Y-46368712D01*
X76063740Y-46320352D01*
X76218209Y-46247752D01*
X76444572Y-46204151D01*
X76454734Y-46203390D01*
X76633765Y-46171390D01*
X76707832Y-46122167D01*
X76710184Y-46107440D01*
X76792666Y-46058667D01*
X76857521Y-46098189D01*
X76866576Y-46262817D01*
X76815790Y-46439667D01*
X76787805Y-46537119D01*
X76772150Y-46576558D01*
X76696964Y-46696995D01*
X76630254Y-46662532D01*
X76569791Y-46600340D01*
X76563649Y-46609000D01*
X76513293Y-46680000D01*
X76442186Y-46766526D01*
G37*
G36*
X87527621Y-38999017D02*
G01*
X87443964Y-39204432D01*
X87257466Y-39420800D01*
X87048032Y-39603275D01*
X86846707Y-39688436D01*
X86570172Y-39708667D01*
X86481715Y-39707542D01*
X86250773Y-39677818D01*
X86065262Y-39582423D01*
X85849899Y-39387821D01*
X85790165Y-39323881D01*
X85549515Y-38936687D01*
X85497226Y-38735000D01*
X85661122Y-38735000D01*
X85804518Y-39016836D01*
X85961318Y-39228432D01*
X86235904Y-39419003D01*
X86383646Y-39479209D01*
X86552907Y-39525765D01*
X86701152Y-39506321D01*
X86912385Y-39421143D01*
X87132066Y-39276990D01*
X87311194Y-39007611D01*
X87354612Y-38685873D01*
X87249000Y-38354000D01*
X87170469Y-38223203D01*
X87133173Y-38207098D01*
X87125000Y-38328032D01*
X87093560Y-38471051D01*
X86938819Y-38648222D01*
X86692184Y-38747295D01*
X86395486Y-38754933D01*
X86090557Y-38657802D01*
X85973713Y-38600221D01*
X85897687Y-38586811D01*
X85910317Y-38661455D01*
X85960743Y-38737388D01*
X86148529Y-38878050D01*
X86400495Y-38987352D01*
X86648830Y-39031333D01*
X86837312Y-38982701D01*
X87034035Y-38846035D01*
X87120163Y-38764511D01*
X87196899Y-38736568D01*
X87185413Y-38824183D01*
X87079561Y-39005790D01*
X87067647Y-39022287D01*
X86834952Y-39210833D01*
X86541414Y-39254660D01*
X86209679Y-39155459D01*
X85862394Y-38914920D01*
X85661122Y-38735000D01*
X85497226Y-38735000D01*
X85435209Y-38495788D01*
X85463533Y-38057272D01*
X85517302Y-37843042D01*
X85840875Y-38183187D01*
X86008547Y-38345294D01*
X86220900Y-38483623D01*
X86432274Y-38523333D01*
X86591320Y-38516311D01*
X86650604Y-38472400D01*
X86598645Y-38360875D01*
X86567020Y-38296335D01*
X86573123Y-38115064D01*
X86712188Y-37982235D01*
X86956888Y-37930667D01*
X87111626Y-37955992D01*
X87339032Y-38112884D01*
X87490372Y-38388666D01*
X87534976Y-38685873D01*
X87545333Y-38754885D01*
X87527621Y-38999017D01*
G37*
G36*
X81259825Y-30728491D02*
G01*
X81314856Y-30887027D01*
X81347924Y-31136167D01*
X81352262Y-31294116D01*
X81334237Y-31502947D01*
X81287082Y-31580667D01*
X81249680Y-31598826D01*
X81249455Y-31707856D01*
X81272003Y-31911376D01*
X81186081Y-32154236D01*
X81006674Y-32319430D01*
X80972682Y-32334574D01*
X80727789Y-32400700D01*
X80574059Y-32360603D01*
X80535673Y-32219418D01*
X80549307Y-32168735D01*
X80660586Y-32046232D01*
X80816703Y-32013547D01*
X80944223Y-32093342D01*
X80947142Y-32097481D01*
X80987287Y-32064158D01*
X81028949Y-31893487D01*
X81064730Y-31614839D01*
X81093920Y-31305571D01*
X81120146Y-31029527D01*
X81136362Y-30861000D01*
X81150491Y-30769876D01*
X81199485Y-30682221D01*
X81259825Y-30728491D01*
G37*
G36*
X51919509Y-38767117D02*
G01*
X51943000Y-39942234D01*
X52747333Y-38767521D01*
X53040777Y-38340624D01*
X53260495Y-38029944D01*
X53422440Y-37819959D01*
X53545446Y-37690940D01*
X53648347Y-37623160D01*
X53749976Y-37596891D01*
X53869166Y-37592404D01*
X54186666Y-37592000D01*
X54186666Y-40894000D01*
X53598778Y-40894000D01*
X53575222Y-39742145D01*
X53551666Y-38590289D01*
X52722878Y-39784478D01*
X52501297Y-40097835D01*
X52241823Y-40448971D01*
X52022620Y-40728034D01*
X51861758Y-40912205D01*
X51777302Y-40978667D01*
X51673535Y-40976411D01*
X51570537Y-40955557D01*
X51496408Y-40894568D01*
X51446402Y-40771911D01*
X51415772Y-40566053D01*
X51399771Y-40255460D01*
X51393651Y-39818601D01*
X51392666Y-39233941D01*
X51392666Y-37592000D01*
X51896017Y-37592000D01*
X51919509Y-38767117D01*
G37*
G36*
X79183571Y-45383793D02*
G01*
X79248000Y-45466000D01*
X79245540Y-45486237D01*
X79163333Y-45550667D01*
X79143096Y-45548206D01*
X79078666Y-45466000D01*
X79081127Y-45445762D01*
X79163333Y-45381333D01*
X79183571Y-45383793D01*
G37*
G36*
X55145103Y-35681296D02*
G01*
X55195634Y-35854199D01*
X55197699Y-35944056D01*
X55155867Y-35978043D01*
X55074706Y-35983333D01*
X54928719Y-35943471D01*
X54829232Y-35771667D01*
X54777104Y-35642620D01*
X54663288Y-35575667D01*
X54436958Y-35560000D01*
X54244110Y-35570549D01*
X54100391Y-35630845D01*
X54017333Y-35771667D01*
X53933978Y-35905926D01*
X53765429Y-35983333D01*
X53665225Y-35972880D01*
X53594000Y-35928287D01*
X53609564Y-35869123D01*
X53673563Y-35677035D01*
X53775622Y-35388543D01*
X53868202Y-35135374D01*
X54235444Y-35135374D01*
X54267562Y-35208107D01*
X54408443Y-35221333D01*
X54484738Y-35218645D01*
X54581226Y-35171959D01*
X54563856Y-35030833D01*
X54541118Y-34960499D01*
X54455480Y-34792845D01*
X54371709Y-34793283D01*
X54286256Y-34960919D01*
X54235444Y-35135374D01*
X53868202Y-35135374D01*
X53903340Y-35039287D01*
X54003093Y-34775546D01*
X54123921Y-34485423D01*
X54219302Y-34311749D01*
X54305314Y-34227420D01*
X54398034Y-34205333D01*
X54472482Y-34219217D01*
X54558187Y-34288651D01*
X54651910Y-34440277D01*
X54769104Y-34700151D01*
X54925222Y-35094333D01*
X54954938Y-35171959D01*
X55041536Y-35398174D01*
X55145103Y-35681296D01*
G37*
G36*
X86953594Y-42396833D02*
G01*
X86924013Y-42443371D01*
X86796386Y-42606204D01*
X86702085Y-42672000D01*
X86688695Y-42669191D01*
X86590327Y-42577576D01*
X86476283Y-42396833D01*
X86372725Y-42224096D01*
X86185548Y-41954327D01*
X85972841Y-41677670D01*
X85798228Y-41443125D01*
X85618377Y-41155552D01*
X85509457Y-40924588D01*
X85493669Y-40866998D01*
X85460862Y-40624399D01*
X85685981Y-40624399D01*
X85694861Y-40752675D01*
X85743668Y-40915005D01*
X85849671Y-41116887D01*
X86029386Y-41388952D01*
X86299332Y-41761833D01*
X86372659Y-41860537D01*
X86555390Y-42102100D01*
X86687505Y-42270250D01*
X86744359Y-42333333D01*
X86763893Y-42316718D01*
X86820537Y-42187847D01*
X86882411Y-41982555D01*
X86932220Y-41762586D01*
X86952666Y-41589689D01*
X86908554Y-41243883D01*
X86726495Y-40779515D01*
X86425246Y-40358473D01*
X86097773Y-40005000D01*
X86310272Y-40343667D01*
X86379341Y-40468827D01*
X86503952Y-40757513D01*
X86618888Y-41089525D01*
X86709417Y-41415327D01*
X86760807Y-41685385D01*
X86758326Y-41850164D01*
X86738966Y-41861813D01*
X86683835Y-41772125D01*
X86616657Y-41571809D01*
X86478750Y-41169186D01*
X86252732Y-40691791D01*
X85999197Y-40301333D01*
X85831002Y-40089667D01*
X85894440Y-40301333D01*
X85898513Y-40314370D01*
X85971906Y-40506565D01*
X86092945Y-40788695D01*
X86237630Y-41104586D01*
X86268951Y-41171376D01*
X86390408Y-41443053D01*
X86469079Y-41640343D01*
X86489186Y-41724369D01*
X86453495Y-41706008D01*
X86349243Y-41582279D01*
X86205999Y-41380156D01*
X86050416Y-41139638D01*
X85909153Y-40900728D01*
X85808862Y-40703426D01*
X85733987Y-40543477D01*
X85696556Y-40515658D01*
X85685981Y-40624399D01*
X85460862Y-40624399D01*
X85457872Y-40602285D01*
X85446979Y-40271257D01*
X85459433Y-39932568D01*
X85493677Y-39644871D01*
X85548154Y-39466821D01*
X85565315Y-39453306D01*
X85685431Y-39481865D01*
X85880859Y-39601685D01*
X86121743Y-39787029D01*
X86378225Y-40012159D01*
X86620446Y-40251338D01*
X86818550Y-40478829D01*
X86942677Y-40668894D01*
X87076986Y-41046063D01*
X87144908Y-41536893D01*
X87140280Y-41589689D01*
X87103890Y-42004849D01*
X86953594Y-42396833D01*
G37*
G36*
X66470888Y-34220611D02*
G01*
X66475975Y-34221407D01*
X66555577Y-34246367D01*
X66605627Y-34311822D01*
X66632653Y-34449973D01*
X66643184Y-34693021D01*
X66643749Y-35073167D01*
X66642542Y-35295627D01*
X66640317Y-35615375D01*
X66638088Y-35843441D01*
X66636194Y-35941000D01*
X66602829Y-35965456D01*
X66463333Y-35983333D01*
X66440551Y-35982815D01*
X66372734Y-35963520D01*
X66329817Y-35894278D01*
X66306154Y-35745247D01*
X66296097Y-35486583D01*
X66294000Y-35088445D01*
X66294187Y-34907072D01*
X66298173Y-34571005D01*
X66311919Y-34363354D01*
X66341343Y-34255090D01*
X66392360Y-34217185D01*
X66470888Y-34220611D01*
G37*
G36*
X58270615Y-40174511D02*
G01*
X58006563Y-40564943D01*
X57642791Y-40840970D01*
X57592130Y-40864306D01*
X57239042Y-40948123D01*
X56813482Y-40955868D01*
X56380533Y-40890895D01*
X56005279Y-40756559D01*
X55692539Y-40522200D01*
X55419003Y-40180860D01*
X55247948Y-39810742D01*
X55197978Y-39539353D01*
X55815751Y-39539353D01*
X55907226Y-39939445D01*
X56094170Y-40253701D01*
X56250276Y-40387676D01*
X56441229Y-40453804D01*
X56731090Y-40470667D01*
X56799984Y-40470190D01*
X57060280Y-40446497D01*
X57248461Y-40364553D01*
X57444238Y-40193362D01*
X57578619Y-40025921D01*
X57741850Y-39658704D01*
X57807425Y-39243725D01*
X57775835Y-38827850D01*
X57647571Y-38457946D01*
X57423126Y-38180879D01*
X57418805Y-38177498D01*
X57114161Y-38039388D01*
X56759000Y-38024622D01*
X56410003Y-38126358D01*
X56123855Y-38337750D01*
X56105859Y-38358550D01*
X55915896Y-38695456D01*
X55818917Y-39106873D01*
X55815751Y-39539353D01*
X55197978Y-39539353D01*
X55151796Y-39288535D01*
X55192807Y-38757309D01*
X55372259Y-38269333D01*
X55550188Y-38015187D01*
X55894111Y-37729869D01*
X56298894Y-37566131D01*
X56735997Y-37518628D01*
X57176878Y-37582018D01*
X57592999Y-37750956D01*
X57955817Y-38020099D01*
X58236793Y-38384102D01*
X58407387Y-38837622D01*
X58453558Y-39170960D01*
X58449415Y-39243725D01*
X58423447Y-39699806D01*
X58270615Y-40174511D01*
G37*
G36*
X80625035Y-29000710D02*
G01*
X80806547Y-29167667D01*
X80888518Y-29302014D01*
X80889076Y-29367600D01*
X80783010Y-29379333D01*
X80657770Y-29414536D01*
X80557881Y-29559847D01*
X80575328Y-29768878D01*
X80586321Y-29847360D01*
X80516848Y-29972711D01*
X80462075Y-29997327D01*
X80303316Y-30001460D01*
X80252337Y-29955118D01*
X80184155Y-29778483D01*
X80148997Y-29536040D01*
X80153977Y-29292798D01*
X80206205Y-29113768D01*
X80239015Y-29069052D01*
X80418604Y-28966289D01*
X80625035Y-29000710D01*
G37*
G36*
X83032741Y-40219214D02*
G01*
X83325581Y-40231980D01*
X83516911Y-40260944D01*
X83643106Y-40312040D01*
X83740539Y-40391205D01*
X83852210Y-40548676D01*
X83887733Y-40707733D01*
X83875652Y-40750632D01*
X83771836Y-40861780D01*
X83636681Y-40855961D01*
X83542540Y-40728766D01*
X83534009Y-40698312D01*
X83462712Y-40561519D01*
X83390464Y-40572620D01*
X83334486Y-40713802D01*
X83312000Y-40967248D01*
X83346401Y-41305730D01*
X83477317Y-41589331D01*
X83508595Y-41630476D01*
X83587866Y-41787846D01*
X83545051Y-41897082D01*
X83518404Y-41922537D01*
X83399308Y-41985614D01*
X83285421Y-41923073D01*
X83141739Y-41719500D01*
X83031787Y-41461941D01*
X82973650Y-40999833D01*
X82970798Y-40798313D01*
X82948015Y-40635094D01*
X82885036Y-40568216D01*
X82761666Y-40555333D01*
X82708081Y-40556274D01*
X82618849Y-40578504D01*
X82571679Y-40658805D01*
X82553189Y-40834259D01*
X82550000Y-41141952D01*
X82549914Y-41171316D01*
X82521760Y-41573389D01*
X82436291Y-41830609D01*
X82283467Y-41959878D01*
X82053246Y-41978096D01*
X81904839Y-41931873D01*
X81807725Y-41824719D01*
X81826615Y-41710924D01*
X81973551Y-41641370D01*
X82070199Y-41616213D01*
X82138212Y-41542094D01*
X82174017Y-41380657D01*
X82194041Y-41090896D01*
X82194252Y-41086469D01*
X82203021Y-40800356D01*
X82186230Y-40641437D01*
X82131279Y-40568557D01*
X82025572Y-40540563D01*
X81900381Y-40491956D01*
X81803823Y-40364833D01*
X81803016Y-40360422D01*
X81807965Y-40295758D01*
X81868885Y-40253893D01*
X82014108Y-40229984D01*
X82271967Y-40219189D01*
X82670792Y-40216667D01*
X83032741Y-40219214D01*
G37*
G36*
X67076794Y-40176307D02*
G01*
X67200264Y-40512038D01*
X67281044Y-40739345D01*
X67310000Y-40833450D01*
X67307822Y-40840827D01*
X67211706Y-40878610D01*
X67017148Y-40894000D01*
X66883891Y-40888719D01*
X66759449Y-40843612D01*
X66670295Y-40717788D01*
X66573942Y-40470667D01*
X66423587Y-40047333D01*
X65130673Y-40047333D01*
X65021842Y-40436041D01*
X64963384Y-40621842D01*
X64857795Y-40809734D01*
X64701528Y-40884093D01*
X64450893Y-40878799D01*
X64200332Y-40851667D01*
X64699711Y-39507645D01*
X65362666Y-39507645D01*
X65391157Y-39519044D01*
X65544425Y-39533629D01*
X65786000Y-39539333D01*
X65834056Y-39539276D01*
X66047317Y-39529864D01*
X66161771Y-39483216D01*
X66186455Y-39369315D01*
X66130406Y-39158138D01*
X66002664Y-38819667D01*
X65804732Y-38311667D01*
X65702088Y-38565667D01*
X65656416Y-38680747D01*
X65555468Y-38945770D01*
X65460609Y-39205930D01*
X65390215Y-39410224D01*
X65362666Y-39507645D01*
X64699711Y-39507645D01*
X64813770Y-39200667D01*
X64937210Y-38871090D01*
X65135680Y-38357895D01*
X65291162Y-37984011D01*
X65410115Y-37735286D01*
X65498998Y-37597573D01*
X65564271Y-37556722D01*
X65609686Y-37558895D01*
X65776225Y-37567947D01*
X65905663Y-37591636D01*
X66012256Y-37650342D01*
X66110260Y-37764447D01*
X66213933Y-37954330D01*
X66337531Y-38240371D01*
X66495311Y-38642951D01*
X66701530Y-39182450D01*
X66738307Y-39278690D01*
X66772692Y-39369315D01*
X66919764Y-39756931D01*
X67076794Y-40176307D01*
G37*
G36*
X87337515Y-34928848D02*
G01*
X87162656Y-35062073D01*
X86863832Y-35136999D01*
X86511945Y-35061226D01*
X86096519Y-34833953D01*
X85879607Y-34694603D01*
X85593900Y-34527604D01*
X85373968Y-34417290D01*
X85188110Y-34311048D01*
X84967859Y-34048935D01*
X84839040Y-33662959D01*
X84796974Y-33153407D01*
X84997903Y-33153407D01*
X85007489Y-33443333D01*
X85011365Y-33489725D01*
X85029963Y-33549848D01*
X85056948Y-33446670D01*
X85093244Y-33177330D01*
X85115718Y-33014502D01*
X85177392Y-32704916D01*
X85250797Y-32453655D01*
X85324160Y-32297171D01*
X85385705Y-32271915D01*
X85390050Y-32320071D01*
X85372463Y-32495762D01*
X85331716Y-32750120D01*
X85307419Y-32906577D01*
X85276621Y-33240330D01*
X85276487Y-33512120D01*
X85281748Y-33570994D01*
X85299109Y-33690606D01*
X85325332Y-33690980D01*
X85371191Y-33557113D01*
X85447459Y-33274000D01*
X85591686Y-32723667D01*
X85531702Y-33880749D01*
X85755351Y-33671707D01*
X85764765Y-33663017D01*
X85964435Y-33506879D01*
X86204635Y-33353175D01*
X86427474Y-33235971D01*
X86575065Y-33189333D01*
X86544168Y-33235120D01*
X86408808Y-33357627D01*
X86198269Y-33529969D01*
X85988049Y-33700455D01*
X85821171Y-33850888D01*
X85788159Y-33908451D01*
X85889872Y-33870672D01*
X86127166Y-33735076D01*
X86487000Y-33516694D01*
X86130445Y-33861014D01*
X85982711Y-34012253D01*
X85878413Y-34156777D01*
X85911340Y-34205333D01*
X85979870Y-34218282D01*
X86180176Y-34297368D01*
X86422763Y-34424496D01*
X86511132Y-34474131D01*
X86793315Y-34587865D01*
X87016487Y-34588506D01*
X87119629Y-34565337D01*
X87184607Y-34576064D01*
X87126418Y-34665676D01*
X87094314Y-34700199D01*
X86906328Y-34787791D01*
X86646546Y-34747965D01*
X86297292Y-34578869D01*
X86156399Y-34501192D01*
X85970809Y-34417478D01*
X85879795Y-34403316D01*
X85912891Y-34454573D01*
X86059809Y-34565051D01*
X86288608Y-34706319D01*
X86503021Y-34821449D01*
X86730473Y-34924820D01*
X86868000Y-34963964D01*
X87022745Y-34937328D01*
X87217994Y-34792648D01*
X87291333Y-34553904D01*
X87290626Y-34503382D01*
X87258213Y-34306403D01*
X87175539Y-34270036D01*
X87039886Y-34392539D01*
X86894126Y-34572545D01*
X86597905Y-34346606D01*
X86524059Y-34293634D01*
X86305525Y-34169057D01*
X86140341Y-34117974D01*
X86054034Y-34113968D01*
X86033096Y-34083338D01*
X86148333Y-33991220D01*
X86354479Y-33828781D01*
X86607370Y-33562702D01*
X86719245Y-33317085D01*
X86732716Y-33214714D01*
X86688462Y-33124339D01*
X86520538Y-33104667D01*
X86511226Y-33104802D01*
X86263784Y-33175389D01*
X85999748Y-33351807D01*
X85718270Y-33598947D01*
X85753212Y-33299644D01*
X85753599Y-33136801D01*
X85714999Y-32873580D01*
X85645286Y-32593858D01*
X85558550Y-32343621D01*
X85468882Y-32168854D01*
X85390373Y-32115542D01*
X85286759Y-32200435D01*
X85158811Y-32401760D01*
X85053939Y-32653425D01*
X85003229Y-32893000D01*
X84997903Y-33153407D01*
X84796974Y-33153407D01*
X84795901Y-33140409D01*
X84800237Y-32855656D01*
X84829226Y-32611210D01*
X84898640Y-32425962D01*
X85023764Y-32239479D01*
X85076994Y-32175057D01*
X85295880Y-31973459D01*
X85510597Y-31848307D01*
X85513574Y-31847270D01*
X85688234Y-31797735D01*
X85755979Y-31840619D01*
X85767333Y-32007189D01*
X85769596Y-32068221D01*
X85804125Y-32337071D01*
X85867048Y-32628392D01*
X85966762Y-33001213D01*
X86952666Y-32911815D01*
X86952666Y-33165759D01*
X86947705Y-33227504D01*
X86873829Y-33478775D01*
X86739601Y-33733673D01*
X86699443Y-33795997D01*
X86602706Y-33993487D01*
X86580032Y-34126296D01*
X86630313Y-34164702D01*
X86752446Y-34078983D01*
X86845889Y-34007253D01*
X87004896Y-33951333D01*
X87151020Y-34004668D01*
X87334133Y-34160077D01*
X87483545Y-34359567D01*
X87545333Y-34544000D01*
X87545054Y-34553469D01*
X87544901Y-34553904D01*
X87480667Y-34736703D01*
X87337515Y-34928848D01*
G37*
G36*
X70917516Y-34208933D02*
G01*
X70981211Y-34246644D01*
X71016679Y-34353070D01*
X71032020Y-34561734D01*
X71035333Y-34906161D01*
X71034457Y-35018907D01*
X71005022Y-35450894D01*
X70927169Y-35744891D01*
X70791869Y-35923256D01*
X70590088Y-36008345D01*
X70464865Y-36032847D01*
X70349467Y-36056470D01*
X70223711Y-36044895D01*
X70010096Y-35964151D01*
X69803043Y-35845313D01*
X69678879Y-35725994D01*
X69669806Y-35704946D01*
X69632290Y-35520031D01*
X69605944Y-35230167D01*
X69596000Y-34888233D01*
X69596604Y-34713415D01*
X69605021Y-34440376D01*
X69629914Y-34287239D01*
X69679510Y-34220170D01*
X69762037Y-34205333D01*
X69815549Y-34210330D01*
X69877189Y-34253800D01*
X69915007Y-34369309D01*
X69937343Y-34589288D01*
X69952537Y-34946167D01*
X69977000Y-35687000D01*
X70226825Y-35715430D01*
X70314358Y-35720531D01*
X70497845Y-35673631D01*
X70615513Y-35522282D01*
X70678181Y-35245963D01*
X70696666Y-34824151D01*
X70696830Y-34735140D01*
X70703657Y-34450089D01*
X70727650Y-34290442D01*
X70778526Y-34220693D01*
X70866000Y-34205333D01*
X70917516Y-34208933D01*
G37*
G36*
X78354694Y-31118399D02*
G01*
X78393839Y-31312505D01*
X78426058Y-31651279D01*
X78493718Y-32143883D01*
X78674496Y-32859126D01*
X78951823Y-33633833D01*
X78971677Y-33720141D01*
X78919610Y-33782000D01*
X78908157Y-33779947D01*
X78810899Y-33686388D01*
X78684672Y-33487642D01*
X78552180Y-33230933D01*
X78436131Y-32963483D01*
X78359230Y-32732516D01*
X78344183Y-32585254D01*
X78355664Y-32499354D01*
X78319079Y-32468175D01*
X78305947Y-32472798D01*
X78245460Y-32402335D01*
X78194903Y-32201383D01*
X78160215Y-31902141D01*
X78147333Y-31536808D01*
X78148634Y-31446087D01*
X78182540Y-31165939D01*
X78262722Y-31046504D01*
X78301961Y-31044295D01*
X78354694Y-31118399D01*
G37*
G36*
X77917849Y-35554120D02*
G01*
X78144673Y-35653750D01*
X78347335Y-35802456D01*
X78449762Y-35955043D01*
X78422464Y-36080736D01*
X78391508Y-36103923D01*
X78257414Y-36104902D01*
X78037704Y-35994069D01*
X77858506Y-35899609D01*
X77543052Y-35817042D01*
X77284938Y-35856587D01*
X77110648Y-36010811D01*
X77046666Y-36272278D01*
X77053229Y-36389238D01*
X77125418Y-36590779D01*
X77302912Y-36741204D01*
X77617364Y-36873883D01*
X77677520Y-36896880D01*
X77871826Y-37009220D01*
X77964668Y-37126630D01*
X77968071Y-37201252D01*
X77899865Y-37237772D01*
X77710668Y-37209251D01*
X77378005Y-37112149D01*
X77005969Y-36899775D01*
X76782540Y-36606717D01*
X76708000Y-36233253D01*
X76748647Y-35995144D01*
X76918978Y-35733037D01*
X77192285Y-35560004D01*
X77536073Y-35494285D01*
X77917849Y-35554120D01*
G37*
G36*
X85177115Y-40661591D02*
G01*
X84984010Y-41454073D01*
X84713516Y-42114362D01*
X84358980Y-42655054D01*
X83913745Y-43088744D01*
X83371158Y-43428025D01*
X83365007Y-43431086D01*
X83074756Y-43563641D01*
X82677324Y-43729649D01*
X82224244Y-43908216D01*
X81767049Y-44078447D01*
X81656034Y-44118770D01*
X81191910Y-44299073D01*
X80892219Y-44439243D01*
X80756905Y-44539318D01*
X80785914Y-44599336D01*
X80979192Y-44619333D01*
X80981201Y-44619338D01*
X81210218Y-44650171D01*
X81554745Y-44732665D01*
X81974186Y-44854284D01*
X82427945Y-45002494D01*
X82875425Y-45164759D01*
X83276029Y-45328544D01*
X83942335Y-45622392D01*
X83991411Y-45505676D01*
X84243333Y-45505676D01*
X84270714Y-45576768D01*
X84404356Y-45631097D01*
X84599131Y-45610910D01*
X84798549Y-45515233D01*
X84894757Y-45437484D01*
X84887155Y-45384721D01*
X84730254Y-45336769D01*
X84504635Y-45308834D01*
X84313686Y-45363470D01*
X84243333Y-45505676D01*
X83991411Y-45505676D01*
X84045173Y-45377813D01*
X84076839Y-45312501D01*
X84265786Y-45121193D01*
X84528730Y-45074960D01*
X84848048Y-45178181D01*
X84867272Y-45187928D01*
X85139950Y-45280070D01*
X85401527Y-45306098D01*
X85636308Y-45322353D01*
X85822219Y-45437484D01*
X85853786Y-45457033D01*
X85967414Y-45698938D01*
X85980340Y-45726457D01*
X86021333Y-46137821D01*
X86007293Y-46456032D01*
X86004654Y-46515835D01*
X85933935Y-46841484D01*
X85795811Y-47060027D01*
X85577478Y-47202169D01*
X85365591Y-47279257D01*
X85144978Y-47317572D01*
X84898044Y-47308508D01*
X84599567Y-47246791D01*
X84224327Y-47127148D01*
X83747100Y-46944302D01*
X83142666Y-46692980D01*
X82508086Y-46430824D01*
X81982337Y-46233416D01*
X81541039Y-46095538D01*
X81150905Y-46008195D01*
X80778654Y-45962387D01*
X80391000Y-45949117D01*
X80305839Y-45949623D01*
X79942754Y-45966757D01*
X79591683Y-46014802D01*
X79219902Y-46102663D01*
X78794689Y-46239244D01*
X78283320Y-46433451D01*
X77653071Y-46694188D01*
X77573440Y-46727850D01*
X76979383Y-46970526D01*
X76508094Y-47143013D01*
X76134486Y-47251393D01*
X75833477Y-47301744D01*
X75579983Y-47300146D01*
X75348920Y-47252681D01*
X75089803Y-47127426D01*
X74886155Y-46883096D01*
X74784629Y-46521204D01*
X74783900Y-46454869D01*
X75014666Y-46454869D01*
X75024085Y-46644412D01*
X75085399Y-46826630D01*
X75229112Y-46957273D01*
X75352412Y-47019398D01*
X75608637Y-47066797D01*
X75942554Y-47040851D01*
X76371087Y-46938190D01*
X76911157Y-46755445D01*
X77579686Y-46489246D01*
X78122926Y-46265903D01*
X78674861Y-46053827D01*
X79132024Y-45902040D01*
X79526018Y-45802859D01*
X79888444Y-45748604D01*
X80250904Y-45731591D01*
X80645000Y-45744141D01*
X80787212Y-45753834D01*
X81149639Y-45794187D01*
X81506844Y-45862803D01*
X81890176Y-45969146D01*
X82330987Y-46122680D01*
X82860625Y-46332870D01*
X83510441Y-46609179D01*
X83610984Y-46652252D01*
X84276037Y-46903282D01*
X84816864Y-47040952D01*
X85234931Y-47065161D01*
X85531703Y-46975810D01*
X85708645Y-46772801D01*
X85767224Y-46456032D01*
X85767115Y-46101000D01*
X85111057Y-46094833D01*
X84806860Y-46085359D01*
X84546332Y-46054250D01*
X84286777Y-45988553D01*
X83993663Y-45881321D01*
X84664349Y-45881321D01*
X84767292Y-45919274D01*
X85019988Y-45959085D01*
X85303192Y-45951643D01*
X85547553Y-45899317D01*
X85709816Y-45811839D01*
X85746728Y-45698938D01*
X85698655Y-45631456D01*
X85518310Y-45574015D01*
X85250314Y-45598581D01*
X84933399Y-45704871D01*
X84817401Y-45757740D01*
X84675242Y-45834976D01*
X84664349Y-45881321D01*
X83993663Y-45881321D01*
X83977049Y-45875243D01*
X83566000Y-45701290D01*
X83497626Y-45671566D01*
X82806810Y-45381860D01*
X82228703Y-45164339D01*
X81730687Y-45010141D01*
X81280144Y-44910408D01*
X80844454Y-44856279D01*
X80391000Y-44838895D01*
X80240520Y-44838730D01*
X79896420Y-44846548D01*
X79611701Y-44874578D01*
X79332045Y-44933069D01*
X79003139Y-45032272D01*
X78570666Y-45182437D01*
X78249995Y-45298878D01*
X77741921Y-45489781D01*
X77249417Y-45681265D01*
X76844778Y-45845552D01*
X76758457Y-45881271D01*
X76651156Y-45925671D01*
X76326358Y-46047299D01*
X76072260Y-46113351D01*
X75833224Y-46135969D01*
X75553611Y-46127292D01*
X75014666Y-46092975D01*
X75014666Y-46454869D01*
X74783900Y-46454869D01*
X74779217Y-46028846D01*
X74820444Y-45725529D01*
X74826298Y-45711433D01*
X75071951Y-45711433D01*
X75201422Y-45841207D01*
X75355616Y-45914944D01*
X75685227Y-45961909D01*
X76057961Y-45914457D01*
X76126205Y-45881271D01*
X76088559Y-45819358D01*
X75910101Y-45712612D01*
X75883844Y-45698906D01*
X75626045Y-45598575D01*
X75386213Y-45555059D01*
X75194090Y-45562962D01*
X75079422Y-45616885D01*
X75071951Y-45711433D01*
X74826298Y-45711433D01*
X74929033Y-45464060D01*
X74942563Y-45454364D01*
X75963942Y-45454364D01*
X76040986Y-45558836D01*
X76100423Y-45591418D01*
X76306681Y-45639093D01*
X76471367Y-45593816D01*
X76538666Y-45466000D01*
X76536647Y-45427226D01*
X76473337Y-45324476D01*
X76289663Y-45296667D01*
X76201354Y-45301969D01*
X76026787Y-45358843D01*
X75963942Y-45454364D01*
X74942563Y-45454364D01*
X75115291Y-45330580D01*
X75395666Y-45305797D01*
X75442915Y-45306506D01*
X75702759Y-45263249D01*
X75972874Y-45164654D01*
X76013712Y-45144764D01*
X76216760Y-45062107D01*
X76361213Y-45059624D01*
X76523207Y-45132926D01*
X76687573Y-45274418D01*
X76778237Y-45454136D01*
X76782377Y-45466000D01*
X76818488Y-45569497D01*
X76905237Y-45604207D01*
X77058020Y-45536995D01*
X77684202Y-45275895D01*
X78285909Y-45046350D01*
X78821166Y-44863778D01*
X79248000Y-44743599D01*
X79642924Y-44651123D01*
X79899576Y-44587983D01*
X80039094Y-44545179D01*
X80085306Y-44513082D01*
X80062038Y-44482064D01*
X79993117Y-44442496D01*
X79969175Y-44430534D01*
X79798030Y-44358572D01*
X79510999Y-44246546D01*
X79141541Y-44107331D01*
X78723117Y-43953803D01*
X78426504Y-43845788D01*
X77962075Y-43671678D01*
X77611327Y-43529079D01*
X77343579Y-43402849D01*
X77128151Y-43277848D01*
X76934362Y-43138935D01*
X76731531Y-42970969D01*
X76535164Y-42773055D01*
X76210305Y-42308346D01*
X75932666Y-41734982D01*
X75716353Y-41090710D01*
X75575475Y-40413273D01*
X75524137Y-39740417D01*
X75524023Y-39685688D01*
X75526224Y-39582344D01*
X75717488Y-39582344D01*
X75739974Y-39856833D01*
X75752091Y-39970079D01*
X75902350Y-40877472D01*
X76134643Y-41642358D01*
X76452338Y-42271598D01*
X76858805Y-42772055D01*
X77357414Y-43150590D01*
X77386068Y-43166766D01*
X77630075Y-43285061D01*
X77983799Y-43436916D01*
X78404299Y-43604495D01*
X78848635Y-43769965D01*
X78971801Y-43814192D01*
X79378915Y-43961306D01*
X79727798Y-44088738D01*
X79984689Y-44184099D01*
X80115833Y-44235002D01*
X80140606Y-44243878D01*
X80183615Y-44239277D01*
X80215299Y-44186323D01*
X80237370Y-44064853D01*
X80251534Y-43854704D01*
X80259502Y-43535714D01*
X80262982Y-43087720D01*
X80263682Y-42490558D01*
X80263680Y-42481500D01*
X80518317Y-42481500D01*
X80518333Y-42490558D01*
X80518657Y-42676740D01*
X80523332Y-43188417D01*
X80532817Y-43628932D01*
X80546249Y-43973744D01*
X80562764Y-44198311D01*
X80581500Y-44278092D01*
X80628203Y-44267480D01*
X80772125Y-44200994D01*
X80772856Y-44200569D01*
X80901258Y-44144438D01*
X81153462Y-44047772D01*
X81493334Y-43924027D01*
X81884738Y-43786659D01*
X82264464Y-43651735D01*
X82666841Y-43500477D01*
X83003350Y-43365441D01*
X83226531Y-43265076D01*
X83301311Y-43225630D01*
X83856291Y-42833114D01*
X84306224Y-42316299D01*
X84653117Y-41671561D01*
X84898980Y-40895280D01*
X85045819Y-39983833D01*
X85048495Y-39956914D01*
X85074212Y-39648374D01*
X85072252Y-39470715D01*
X85038226Y-39389427D01*
X84967744Y-39370000D01*
X84955504Y-39369279D01*
X84797398Y-39301893D01*
X84616636Y-39158333D01*
X84571473Y-39114213D01*
X84484406Y-39045084D01*
X84377156Y-38998176D01*
X84219892Y-38969184D01*
X83982786Y-38953805D01*
X83636007Y-38947734D01*
X83149726Y-38946667D01*
X81894482Y-38946667D01*
X81878396Y-39067926D01*
X81838266Y-39370442D01*
X81822429Y-39465857D01*
X81651833Y-39907438D01*
X81339399Y-40265956D01*
X81231234Y-40329721D01*
X80897108Y-40526694D01*
X80518635Y-40682333D01*
X80518317Y-42481500D01*
X80263680Y-42481500D01*
X80263365Y-40682333D01*
X79884892Y-40526694D01*
X79770617Y-40464716D01*
X80457157Y-40464716D01*
X80660995Y-40389601D01*
X80733179Y-40329721D01*
X80666983Y-40279151D01*
X80590330Y-40268334D01*
X80502605Y-40335740D01*
X80485331Y-40349013D01*
X80465322Y-40406308D01*
X80457157Y-40464716D01*
X79770617Y-40464716D01*
X79574756Y-40358489D01*
X80058738Y-40358489D01*
X80172176Y-40408660D01*
X80286612Y-40418631D01*
X80348666Y-40335740D01*
X80344980Y-40290092D01*
X80274332Y-40222196D01*
X80108676Y-40290883D01*
X80102018Y-40295185D01*
X80058738Y-40358489D01*
X79574756Y-40358489D01*
X79504773Y-40320533D01*
X79182885Y-39996206D01*
X79007926Y-39587801D01*
X78979587Y-39094833D01*
X78980279Y-39080859D01*
X78964515Y-39028477D01*
X78899958Y-38991743D01*
X78762502Y-38967926D01*
X78528042Y-38954295D01*
X78172473Y-38948118D01*
X77671687Y-38946667D01*
X77274090Y-38947047D01*
X76885808Y-38950755D01*
X76617460Y-38961764D01*
X76441120Y-38984051D01*
X76328860Y-39021591D01*
X76252754Y-39078359D01*
X76184873Y-39158333D01*
X76020007Y-39307261D01*
X75854448Y-39370000D01*
X75779838Y-39378609D01*
X75727682Y-39436093D01*
X75717488Y-39582344D01*
X75526224Y-39582344D01*
X75529637Y-39422062D01*
X75559483Y-39277658D01*
X75632009Y-39209156D01*
X75765663Y-39173234D01*
X75856446Y-39146575D01*
X76027860Y-39007933D01*
X76058800Y-38819667D01*
X79169058Y-38819667D01*
X79206093Y-39277284D01*
X79214118Y-39361011D01*
X79289991Y-39704157D01*
X79436064Y-39941225D01*
X79553958Y-40061111D01*
X79749940Y-40207395D01*
X79915961Y-40227675D01*
X80092315Y-40133773D01*
X80296182Y-39979996D01*
X80083276Y-40020696D01*
X79843493Y-39996339D01*
X79815034Y-39977853D01*
X80518173Y-39977853D01*
X80520937Y-39979996D01*
X80587291Y-40031448D01*
X80730128Y-40148453D01*
X80845859Y-40231732D01*
X80960516Y-40238918D01*
X81131815Y-40149398D01*
X81389544Y-39903460D01*
X81559359Y-39531892D01*
X81618666Y-39067926D01*
X81616453Y-38922960D01*
X81600281Y-38742752D01*
X81574481Y-38722537D01*
X81546309Y-38856836D01*
X81523020Y-39140169D01*
X81511286Y-39243000D01*
X81495036Y-39385417D01*
X81483619Y-39412333D01*
X81411793Y-39581667D01*
X81405209Y-39597189D01*
X81262726Y-39751000D01*
X81215665Y-39801803D01*
X81174784Y-39835667D01*
X81058269Y-39932182D01*
X80881304Y-40016418D01*
X80702536Y-40005756D01*
X80556301Y-39974315D01*
X80518173Y-39977853D01*
X79815034Y-39977853D01*
X79597019Y-39836237D01*
X79596583Y-39835667D01*
X80264000Y-39835667D01*
X80306333Y-39878000D01*
X80348666Y-39835667D01*
X80306333Y-39793333D01*
X80264000Y-39835667D01*
X79596583Y-39835667D01*
X79531885Y-39751000D01*
X80010000Y-39751000D01*
X80052333Y-39793333D01*
X80094666Y-39751000D01*
X80052333Y-39708667D01*
X80010000Y-39751000D01*
X79531885Y-39751000D01*
X79402490Y-39581667D01*
X79756000Y-39581667D01*
X79798333Y-39624000D01*
X79840666Y-39581667D01*
X80941333Y-39581667D01*
X80983666Y-39624000D01*
X81026000Y-39581667D01*
X80983666Y-39539333D01*
X80970630Y-39552369D01*
X80941333Y-39581667D01*
X79840666Y-39581667D01*
X79798333Y-39539333D01*
X79756000Y-39581667D01*
X79402490Y-39581667D01*
X79391923Y-39567838D01*
X79260060Y-39222047D01*
X79169058Y-38819667D01*
X76058800Y-38819667D01*
X76060158Y-38811402D01*
X75939717Y-38601717D01*
X75799038Y-38495127D01*
X75637423Y-38438667D01*
X75568085Y-38421617D01*
X75534495Y-38344459D01*
X75536840Y-38171522D01*
X75570977Y-37867167D01*
X75573877Y-37843845D01*
X75609499Y-37459166D01*
X75635259Y-37005452D01*
X75645754Y-36576000D01*
X75645786Y-36490519D01*
X75636359Y-36137881D01*
X75601810Y-35882299D01*
X75529725Y-35663582D01*
X75407694Y-35421539D01*
X75357282Y-35328557D01*
X75249409Y-35096002D01*
X75222984Y-34944455D01*
X75438000Y-34944455D01*
X75458213Y-35006226D01*
X75535841Y-35184992D01*
X75651756Y-35429691D01*
X75659055Y-35444706D01*
X75823917Y-35873196D01*
X75906237Y-36327935D01*
X75909882Y-36851425D01*
X75838713Y-37486167D01*
X75811305Y-37670039D01*
X75771840Y-37976396D01*
X75762950Y-38158768D01*
X75784555Y-38246599D01*
X75836574Y-38269333D01*
X75848173Y-38270218D01*
X75991548Y-38338097D01*
X76165363Y-38481000D01*
X76224914Y-38538442D01*
X76311213Y-38602279D01*
X76422217Y-38645514D01*
X76586852Y-38672160D01*
X76834042Y-38686227D01*
X77192713Y-38691725D01*
X77691792Y-38692667D01*
X79006554Y-38692667D01*
X78984435Y-38275930D01*
X78986411Y-38013299D01*
X79004050Y-37951833D01*
X79244755Y-37951833D01*
X79246174Y-37991281D01*
X79250809Y-38166989D01*
X79256439Y-38417500D01*
X79257962Y-38480646D01*
X79269214Y-38668707D01*
X79292083Y-38706079D01*
X79332666Y-38608000D01*
X79337659Y-38592490D01*
X79379693Y-38483343D01*
X79399734Y-38515696D01*
X79408894Y-38703466D01*
X79409245Y-38713763D01*
X79456877Y-38960310D01*
X79558195Y-39126800D01*
X79629590Y-39182824D01*
X79658900Y-39179325D01*
X79595037Y-39047806D01*
X79537181Y-38896969D01*
X79530915Y-38751473D01*
X79552648Y-38738300D01*
X79624689Y-38818779D01*
X79717653Y-39007800D01*
X79766327Y-39117173D01*
X79860376Y-39280478D01*
X79924425Y-39328228D01*
X80018775Y-39351110D01*
X80166511Y-39460893D01*
X80172449Y-39466383D01*
X80297108Y-39558733D01*
X80348666Y-39552369D01*
X80299387Y-39466685D01*
X80242369Y-39417690D01*
X80552067Y-39417690D01*
X80576503Y-39452092D01*
X80606428Y-39449444D01*
X80663405Y-39412333D01*
X81195333Y-39412333D01*
X81237666Y-39454667D01*
X81280000Y-39412333D01*
X81237666Y-39370000D01*
X81195333Y-39412333D01*
X80663405Y-39412333D01*
X80730520Y-39368619D01*
X80752628Y-39341630D01*
X80848565Y-39322659D01*
X80906019Y-39291441D01*
X80940566Y-39243000D01*
X81110666Y-39243000D01*
X81153000Y-39285333D01*
X81195333Y-39243000D01*
X81153000Y-39200667D01*
X81110666Y-39243000D01*
X80940566Y-39243000D01*
X81000721Y-39158653D01*
X81096588Y-38979481D01*
X81162237Y-38813444D01*
X81166286Y-38720064D01*
X81150848Y-38720776D01*
X81066046Y-38807368D01*
X80944409Y-38984023D01*
X80941195Y-38989000D01*
X80907129Y-39041747D01*
X80751205Y-39243941D01*
X80617252Y-39366901D01*
X80552067Y-39417690D01*
X80242369Y-39417690D01*
X80158166Y-39345336D01*
X80089887Y-39286114D01*
X79954128Y-39126614D01*
X79856729Y-38989000D01*
X80010000Y-38989000D01*
X80052333Y-39031333D01*
X80094666Y-38989000D01*
X80052333Y-38946667D01*
X80010000Y-38989000D01*
X79856729Y-38989000D01*
X79813146Y-38927423D01*
X79694462Y-38731704D01*
X79625595Y-38582620D01*
X79634067Y-38523333D01*
X79719877Y-38578515D01*
X79855606Y-38713833D01*
X79937358Y-38800008D01*
X79932785Y-38772271D01*
X79831202Y-38613658D01*
X79801423Y-38565667D01*
X79925333Y-38565667D01*
X79967666Y-38608000D01*
X80010000Y-38565667D01*
X80348666Y-38565667D01*
X80391000Y-38608000D01*
X80433333Y-38565667D01*
X80772000Y-38565667D01*
X80814333Y-38608000D01*
X80856666Y-38565667D01*
X80814333Y-38523333D01*
X80772000Y-38565667D01*
X80433333Y-38565667D01*
X80391000Y-38523333D01*
X80348666Y-38565667D01*
X80010000Y-38565667D01*
X79967666Y-38523333D01*
X79925333Y-38565667D01*
X79801423Y-38565667D01*
X79721441Y-38436769D01*
X79706452Y-38365835D01*
X79783484Y-38378919D01*
X79826713Y-38394243D01*
X79888106Y-38386276D01*
X79839647Y-38267428D01*
X79794472Y-38154005D01*
X79837688Y-38100000D01*
X79860074Y-38102278D01*
X79925333Y-38168484D01*
X79955430Y-38249752D01*
X80056432Y-38401318D01*
X80130805Y-38487090D01*
X80130767Y-38485997D01*
X80602666Y-38485997D01*
X80603491Y-38497833D01*
X80652501Y-38516478D01*
X80737751Y-38425585D01*
X80758352Y-38378269D01*
X80700415Y-38388248D01*
X80662803Y-38414384D01*
X80602666Y-38485997D01*
X80130767Y-38485997D01*
X80129640Y-38453636D01*
X80051289Y-38284760D01*
X80033960Y-38247559D01*
X79961654Y-38040700D01*
X79951423Y-37903760D01*
X79956097Y-37894273D01*
X80016542Y-37910819D01*
X80102924Y-38049158D01*
X80218049Y-38294650D01*
X80274918Y-38091492D01*
X80310618Y-37939771D01*
X80340227Y-37737188D01*
X80340942Y-37688257D01*
X80302267Y-37629190D01*
X80169031Y-37682180D01*
X80121047Y-37704386D01*
X79890837Y-37777205D01*
X79615453Y-37833325D01*
X79506597Y-37852127D01*
X79317931Y-37902721D01*
X79244755Y-37951833D01*
X79004050Y-37951833D01*
X79057969Y-37763945D01*
X79225607Y-37631161D01*
X79499070Y-37593084D01*
X80415248Y-37593084D01*
X80477252Y-37825375D01*
X80519373Y-38006815D01*
X80542739Y-38163500D01*
X80543018Y-38171084D01*
X80561892Y-38258080D01*
X80618621Y-38217293D01*
X80731357Y-38036500D01*
X80865456Y-37803667D01*
X80813404Y-38051285D01*
X80789747Y-38183071D01*
X80806059Y-38245209D01*
X80893676Y-38189085D01*
X80923744Y-38166089D01*
X81011843Y-38140013D01*
X81013090Y-38212769D01*
X80920166Y-38342083D01*
X80900967Y-38361874D01*
X80891943Y-38378269D01*
X80871047Y-38416232D01*
X80979308Y-38385841D01*
X81007891Y-38375054D01*
X81091734Y-38354023D01*
X81080185Y-38409095D01*
X80975796Y-38565667D01*
X80972024Y-38571325D01*
X80925828Y-38638539D01*
X80788307Y-38850738D01*
X80736592Y-38953444D01*
X80773872Y-38936516D01*
X80903334Y-38789810D01*
X80920864Y-38768567D01*
X81064575Y-38611854D01*
X81150257Y-38575708D01*
X81213434Y-38643351D01*
X81238512Y-38720064D01*
X81246532Y-38744598D01*
X81237124Y-38948375D01*
X81212085Y-39048638D01*
X81217850Y-39116000D01*
X81249920Y-39109976D01*
X81334948Y-38989816D01*
X81364666Y-38727944D01*
X81364789Y-38712104D01*
X81387947Y-38519603D01*
X81439036Y-38424555D01*
X81444052Y-38422108D01*
X81511910Y-38317090D01*
X81572764Y-38121167D01*
X81584702Y-38064868D01*
X81599184Y-37912584D01*
X81526806Y-37854973D01*
X81326341Y-37846000D01*
X81310941Y-37845848D01*
X81011565Y-37806769D01*
X80717905Y-37719542D01*
X80415248Y-37593084D01*
X79499070Y-37593084D01*
X79506855Y-37592000D01*
X79531275Y-37591775D01*
X79811825Y-37565684D01*
X80046821Y-37509429D01*
X80056005Y-37505933D01*
X80143565Y-37466603D01*
X80202285Y-37407864D01*
X80237928Y-37299733D01*
X80256253Y-37112224D01*
X80263023Y-36815352D01*
X80263982Y-36387164D01*
X80518000Y-36387164D01*
X80518927Y-36783551D01*
X80525771Y-37082763D01*
X80544598Y-37272257D01*
X80581476Y-37383164D01*
X80642471Y-37446616D01*
X80733650Y-37493743D01*
X80739959Y-37496560D01*
X80981050Y-37564062D01*
X81256150Y-37592000D01*
X81482432Y-37611229D01*
X81699734Y-37716028D01*
X81794489Y-37912584D01*
X81802614Y-37929439D01*
X81806967Y-38271058D01*
X81766456Y-38692667D01*
X83111528Y-38692667D01*
X83317769Y-38692519D01*
X83769711Y-38689692D01*
X84088538Y-38680905D01*
X84300679Y-38663102D01*
X84432565Y-38633226D01*
X84510625Y-38588221D01*
X84561290Y-38525033D01*
X84675318Y-38407662D01*
X84882454Y-38303067D01*
X84949279Y-38283661D01*
X85059023Y-38198971D01*
X85055662Y-38026201D01*
X85015617Y-37813409D01*
X84917090Y-37165578D01*
X84882401Y-36632375D01*
X84913078Y-36180424D01*
X85010653Y-35776348D01*
X85176654Y-35386770D01*
X85219168Y-35301178D01*
X85308121Y-35102639D01*
X85343139Y-34991873D01*
X85330674Y-34968951D01*
X85210263Y-34883438D01*
X85003533Y-34782720D01*
X84860426Y-34715039D01*
X84690413Y-34575583D01*
X84612458Y-34378791D01*
X84558297Y-34182195D01*
X84468459Y-34084826D01*
X84321684Y-34121822D01*
X84088956Y-34288161D01*
X83992289Y-34361912D01*
X83429945Y-34670265D01*
X82799947Y-34843232D01*
X82139037Y-34874207D01*
X81483956Y-34756583D01*
X81329302Y-34709970D01*
X81134552Y-34652439D01*
X81051234Y-34629583D01*
X81023114Y-34660224D01*
X80921976Y-34796033D01*
X80776067Y-35003755D01*
X80683964Y-35141549D01*
X80604639Y-35288147D01*
X80555722Y-35446652D01*
X80529871Y-35656419D01*
X80519744Y-35956805D01*
X80518033Y-36379132D01*
X80518000Y-36387164D01*
X80263982Y-36387164D01*
X80264000Y-36379132D01*
X80262616Y-35949993D01*
X80253894Y-35639849D01*
X80231026Y-35425200D01*
X80187204Y-35268628D01*
X80115621Y-35132713D01*
X80009469Y-34980036D01*
X79913788Y-34850053D01*
X79791004Y-34691212D01*
X79734302Y-34629583D01*
X79697345Y-34638827D01*
X79537347Y-34684936D01*
X79298044Y-34756583D01*
X78715603Y-34874442D01*
X78042575Y-34859025D01*
X77394030Y-34676935D01*
X76777372Y-34329428D01*
X76560799Y-34185445D01*
X76351927Y-34093445D01*
X76235874Y-34124071D01*
X76200000Y-34276158D01*
X76136234Y-34502149D01*
X75950374Y-34715989D01*
X75691895Y-34840356D01*
X75686190Y-34841621D01*
X75510707Y-34894711D01*
X75438000Y-34944455D01*
X75222984Y-34944455D01*
X75222006Y-34938846D01*
X75263472Y-34807706D01*
X75352608Y-34703515D01*
X75561931Y-34628667D01*
X75762786Y-34583087D01*
X75955420Y-34417977D01*
X76030666Y-34177319D01*
X76062134Y-34048573D01*
X76193641Y-33890287D01*
X76199766Y-33886529D01*
X76302666Y-33850417D01*
X76430873Y-33874692D01*
X76621071Y-33973140D01*
X76909939Y-34159552D01*
X77060590Y-34255950D01*
X77668522Y-34546161D01*
X78274793Y-34670293D01*
X78894897Y-34629919D01*
X79544333Y-34426610D01*
X79571759Y-34415040D01*
X79708326Y-34370593D01*
X79813550Y-34392300D01*
X79931161Y-34503696D01*
X80104889Y-34728320D01*
X80411444Y-35137911D01*
X80975780Y-34319357D01*
X81403057Y-34484218D01*
X81609442Y-34554239D01*
X82251134Y-34658456D01*
X82895819Y-34602287D01*
X83519732Y-34389780D01*
X84099106Y-34024983D01*
X84239108Y-33915599D01*
X84384622Y-33828827D01*
X84495977Y-33829807D01*
X84630971Y-33905563D01*
X84631725Y-33906058D01*
X84764398Y-34028073D01*
X84789067Y-34128109D01*
X84783779Y-34263381D01*
X84881887Y-34430492D01*
X85041228Y-34570167D01*
X85215973Y-34628667D01*
X85419695Y-34671503D01*
X85531199Y-34823960D01*
X85520585Y-34991873D01*
X85514626Y-35086141D01*
X85369842Y-35457337D01*
X85262359Y-35693582D01*
X85181367Y-35950892D01*
X85144678Y-36235618D01*
X85138211Y-36618333D01*
X85152132Y-37026882D01*
X85184494Y-37477961D01*
X85227989Y-37859523D01*
X85311889Y-38423380D01*
X85052778Y-38497692D01*
X84951673Y-38531787D01*
X84824718Y-38633677D01*
X84793666Y-38822835D01*
X84801848Y-38941541D01*
X84876108Y-39071859D01*
X85069381Y-39154830D01*
X85345096Y-39235993D01*
X85306721Y-39648374D01*
X85293558Y-39789830D01*
X85177115Y-40661591D01*
G37*
G36*
X64379073Y-34210116D02*
G01*
X64477100Y-34281395D01*
X64574499Y-34460676D01*
X64688909Y-34776833D01*
X64694005Y-34792391D01*
X64794212Y-35082486D01*
X64880294Y-35305068D01*
X64934110Y-35413065D01*
X64942983Y-35416358D01*
X65006013Y-35339675D01*
X65099909Y-35143878D01*
X65207875Y-34862731D01*
X65275654Y-34676314D01*
X65390149Y-34415067D01*
X65493579Y-34273220D01*
X65604577Y-34220611D01*
X65715818Y-34216906D01*
X65786000Y-34254491D01*
X65770521Y-34315214D01*
X65706556Y-34509328D01*
X65604459Y-34799367D01*
X65476660Y-35149380D01*
X65378849Y-35408069D01*
X65257346Y-35700310D01*
X65161527Y-35875573D01*
X65075381Y-35960900D01*
X64982898Y-35983333D01*
X64925667Y-35975835D01*
X64837966Y-35918180D01*
X64746440Y-35780650D01*
X64634847Y-35536212D01*
X64486946Y-35157833D01*
X64391510Y-34901750D01*
X64280135Y-34593014D01*
X64204210Y-34369981D01*
X64176375Y-34268833D01*
X64205373Y-34233039D01*
X64339764Y-34205333D01*
X64379073Y-34210116D01*
G37*
G36*
X82014584Y-31005633D02*
G01*
X82044604Y-30952580D01*
X82125359Y-30936551D01*
X82207168Y-31040405D01*
X82270544Y-31231490D01*
X82296000Y-31477156D01*
X82294874Y-31644192D01*
X82279625Y-31780567D01*
X82230250Y-31792612D01*
X82126666Y-31707667D01*
X82014213Y-31614177D01*
X81967910Y-31633294D01*
X81967191Y-31792333D01*
X81967155Y-31800378D01*
X81968273Y-31823847D01*
X81986631Y-31937721D01*
X82015670Y-31898301D01*
X82020293Y-31881253D01*
X82071627Y-31798276D01*
X82168943Y-31864848D01*
X82220788Y-31963821D01*
X82224956Y-32219915D01*
X82215847Y-32258000D01*
X82161815Y-32483908D01*
X82138444Y-32581620D01*
X81964834Y-33028506D01*
X81881885Y-33209110D01*
X81750740Y-33461111D01*
X81669795Y-33555740D01*
X81636441Y-33495079D01*
X81648071Y-33281206D01*
X81690965Y-32907412D01*
X81479799Y-33261523D01*
X81401865Y-33380970D01*
X81274098Y-33529728D01*
X81189649Y-33566820D01*
X81162488Y-33554774D01*
X81110666Y-33595336D01*
X81123443Y-33613830D01*
X81251244Y-33682250D01*
X81479541Y-33770932D01*
X81762774Y-33865276D01*
X82055384Y-33950681D01*
X82170347Y-33978416D01*
X82311813Y-34012545D01*
X82486500Y-34036268D01*
X82494100Y-34036184D01*
X82618652Y-33994028D01*
X82607670Y-33909000D01*
X82804000Y-33909000D01*
X82846333Y-33951333D01*
X82888666Y-33909000D01*
X82846333Y-33866667D01*
X82804000Y-33909000D01*
X82607670Y-33909000D01*
X82607468Y-33907437D01*
X82465333Y-33824333D01*
X82351971Y-33748455D01*
X82298817Y-33543461D01*
X82301633Y-33316333D01*
X82457639Y-33503233D01*
X82581028Y-33619919D01*
X82662889Y-33640889D01*
X82643999Y-33563410D01*
X82525233Y-33440111D01*
X82412344Y-33316750D01*
X82399787Y-33226890D01*
X82455959Y-33210266D01*
X82586220Y-33268926D01*
X82672477Y-33316666D01*
X82863433Y-33333146D01*
X82898579Y-33323571D01*
X82944365Y-33297285D01*
X82828145Y-33283821D01*
X82691296Y-33238555D01*
X82543129Y-33091828D01*
X82528143Y-33062333D01*
X82804000Y-33062333D01*
X82846333Y-33104667D01*
X82888666Y-33062333D01*
X82846333Y-33020000D01*
X82804000Y-33062333D01*
X82528143Y-33062333D01*
X82505769Y-33018295D01*
X82495059Y-32943977D01*
X82594459Y-32966767D01*
X82629697Y-32979806D01*
X82697429Y-32985791D01*
X82634577Y-32892892D01*
X82568846Y-32756916D01*
X82616061Y-32694725D01*
X82744702Y-32751920D01*
X82836971Y-32801295D01*
X82969933Y-32742819D01*
X82999599Y-32716475D01*
X83053107Y-32702787D01*
X83035111Y-32829500D01*
X83019582Y-32950896D01*
X83048694Y-33020000D01*
X83075099Y-33040464D01*
X83079606Y-33062333D01*
X83101004Y-33166172D01*
X83093389Y-33340405D01*
X83051748Y-33485667D01*
X83042581Y-33507152D01*
X83007158Y-33672014D01*
X82981312Y-33909000D01*
X82976253Y-33962416D01*
X82946249Y-34093080D01*
X82917955Y-34216298D01*
X82905463Y-34240611D01*
X82825712Y-34395833D01*
X82674015Y-34496965D01*
X82399015Y-34536741D01*
X82007589Y-34489067D01*
X81485718Y-34353500D01*
X81420171Y-34333221D01*
X81417786Y-34332333D01*
X82126666Y-34332333D01*
X82169000Y-34374667D01*
X82211333Y-34332333D01*
X82169000Y-34290000D01*
X82126666Y-34332333D01*
X81417786Y-34332333D01*
X81078563Y-34206051D01*
X80892679Y-34084285D01*
X80856550Y-33972500D01*
X81202017Y-33972500D01*
X81217301Y-34067832D01*
X81303619Y-34116446D01*
X81360062Y-34069086D01*
X81547302Y-34069086D01*
X81567514Y-34182403D01*
X81596416Y-34181092D01*
X81598981Y-34163000D01*
X81731555Y-34163000D01*
X81731798Y-34201479D01*
X81748102Y-34283654D01*
X81809608Y-34238419D01*
X82393969Y-34238419D01*
X82410719Y-34332333D01*
X82414180Y-34351736D01*
X82443082Y-34350425D01*
X82458649Y-34240611D01*
X82458292Y-34238419D01*
X82563302Y-34238419D01*
X82563693Y-34240611D01*
X82583514Y-34351736D01*
X82612416Y-34350425D01*
X82627982Y-34240611D01*
X82614424Y-34157388D01*
X82576830Y-34189458D01*
X82563302Y-34238419D01*
X82458292Y-34238419D01*
X82445091Y-34157388D01*
X82407496Y-34189458D01*
X82393969Y-34238419D01*
X81809608Y-34238419D01*
X81816222Y-34233555D01*
X81838208Y-34207561D01*
X81868907Y-34093080D01*
X81802111Y-34036000D01*
X81769765Y-34050223D01*
X81762631Y-34071278D01*
X81731555Y-34163000D01*
X81598981Y-34163000D01*
X81611982Y-34071278D01*
X81598424Y-33988055D01*
X81560830Y-34020125D01*
X81547302Y-34069086D01*
X81360062Y-34069086D01*
X81415085Y-34022918D01*
X81435128Y-33978416D01*
X81384980Y-33981112D01*
X81341788Y-33994772D01*
X81251582Y-33930694D01*
X81223560Y-33891944D01*
X81202017Y-33972500D01*
X80856550Y-33972500D01*
X80851526Y-33956955D01*
X80944109Y-33813091D01*
X80981640Y-33744714D01*
X80974967Y-33578192D01*
X80974491Y-33576960D01*
X80882147Y-33475117D01*
X80699324Y-33485717D01*
X80570668Y-33514590D01*
X80533076Y-33492929D01*
X80626363Y-33379260D01*
X80667949Y-33323268D01*
X80737404Y-33145182D01*
X80752282Y-32962940D01*
X80713141Y-32831545D01*
X80620541Y-32806003D01*
X80545619Y-32801458D01*
X80533333Y-32668755D01*
X80595090Y-32537157D01*
X80786593Y-32463984D01*
X80904646Y-32469969D01*
X81035667Y-32534110D01*
X81076419Y-32627671D01*
X80991833Y-32708817D01*
X80967310Y-32721983D01*
X80906031Y-32848668D01*
X80924550Y-33032315D01*
X81006778Y-33206630D01*
X81136622Y-33305319D01*
X81257373Y-33335624D01*
X81321115Y-33317561D01*
X81355349Y-33211282D01*
X81390372Y-32977667D01*
X81412870Y-32824277D01*
X81733388Y-32824277D01*
X81744196Y-32829057D01*
X81798158Y-32766449D01*
X81848612Y-32627459D01*
X81867300Y-32483908D01*
X81840868Y-32472226D01*
X81820199Y-32512000D01*
X81780814Y-32587792D01*
X81735680Y-32730200D01*
X81733388Y-32824277D01*
X81412870Y-32824277D01*
X81440046Y-32639000D01*
X81292685Y-32917384D01*
X81197787Y-33076580D01*
X81118733Y-33147125D01*
X81091780Y-33072565D01*
X81119163Y-32862646D01*
X81203118Y-32527110D01*
X81218621Y-32467965D01*
X81467422Y-32467965D01*
X81477555Y-32568444D01*
X81503022Y-32581690D01*
X81534000Y-32512000D01*
X81527890Y-32467178D01*
X81477555Y-32455555D01*
X81467422Y-32467965D01*
X81218621Y-32467965D01*
X81282053Y-32225965D01*
X81284618Y-32213965D01*
X81552089Y-32213965D01*
X81562222Y-32314444D01*
X81587688Y-32327690D01*
X81618666Y-32258000D01*
X81612663Y-32213965D01*
X81890756Y-32213965D01*
X81895197Y-32258000D01*
X81900889Y-32314444D01*
X81926355Y-32327690D01*
X81957333Y-32258000D01*
X81951223Y-32213178D01*
X81900889Y-32201555D01*
X81890756Y-32213965D01*
X81612663Y-32213965D01*
X81612556Y-32213178D01*
X81562222Y-32201555D01*
X81552089Y-32213965D01*
X81284618Y-32213965D01*
X81341811Y-31946434D01*
X81364666Y-31766439D01*
X81370128Y-31699095D01*
X81425699Y-31623813D01*
X81517226Y-31682860D01*
X81614767Y-31864497D01*
X81625432Y-31891385D01*
X81667740Y-31949845D01*
X81703440Y-31876953D01*
X81718825Y-31792333D01*
X81788000Y-31792333D01*
X81830333Y-31834667D01*
X81872666Y-31792333D01*
X81830333Y-31750000D01*
X81788000Y-31792333D01*
X81718825Y-31792333D01*
X81743956Y-31654108D01*
X81758692Y-31542566D01*
X81775808Y-31281423D01*
X81763611Y-31103774D01*
X81749643Y-31072245D01*
X81726565Y-31128425D01*
X81713155Y-31312555D01*
X81708650Y-31408847D01*
X81671772Y-31602854D01*
X81597500Y-31644449D01*
X81570809Y-31621367D01*
X81516891Y-31468596D01*
X81479622Y-31220244D01*
X81461193Y-30928082D01*
X81461888Y-30852180D01*
X81556930Y-30852180D01*
X81558241Y-30881082D01*
X81668055Y-30896649D01*
X81751278Y-30883091D01*
X81719208Y-30845496D01*
X81670247Y-30831969D01*
X81556930Y-30852180D01*
X81461888Y-30852180D01*
X81463795Y-30643879D01*
X81480675Y-30497158D01*
X81636077Y-30497158D01*
X81647260Y-30670500D01*
X81676659Y-30684862D01*
X81689965Y-30564667D01*
X81678163Y-30448197D01*
X81647260Y-30458833D01*
X81636077Y-30497158D01*
X81480675Y-30497158D01*
X81489621Y-30419404D01*
X81540861Y-30306426D01*
X81577575Y-30271346D01*
X81582183Y-30150799D01*
X81518089Y-30079470D01*
X81412585Y-30076079D01*
X81364666Y-30213045D01*
X81318279Y-30373788D01*
X81195333Y-30564666D01*
X81076810Y-30724546D01*
X81026000Y-30840680D01*
X81001331Y-30876365D01*
X80882580Y-30866415D01*
X80815674Y-30842560D01*
X80786076Y-30855040D01*
X80875274Y-30963190D01*
X80922495Y-31027735D01*
X80933575Y-31066620D01*
X80977162Y-31219589D01*
X80965349Y-31517167D01*
X80960993Y-31552395D01*
X80952244Y-31623145D01*
X80909639Y-31818321D01*
X80834500Y-31906326D01*
X80697489Y-31932671D01*
X80529674Y-31937520D01*
X80348666Y-31930206D01*
X80239807Y-31919634D01*
X80025896Y-31906285D01*
X79978233Y-31902604D01*
X79864346Y-31843566D01*
X79847546Y-31675917D01*
X79844202Y-31504252D01*
X79842404Y-31496000D01*
X80052333Y-31496000D01*
X80069711Y-31521338D01*
X80141997Y-31580667D01*
X80150446Y-31578465D01*
X80179333Y-31496000D01*
X80178986Y-31493660D01*
X80264000Y-31493660D01*
X80264665Y-31496000D01*
X80283525Y-31562344D01*
X80376362Y-31628725D01*
X80469330Y-31590919D01*
X80476056Y-31545543D01*
X80390514Y-31465196D01*
X80357164Y-31457978D01*
X80573703Y-31457978D01*
X80603232Y-31513479D01*
X80647691Y-31545543D01*
X80696392Y-31580667D01*
X80762468Y-31552395D01*
X80753171Y-31464375D01*
X80649312Y-31382370D01*
X80577461Y-31372069D01*
X80573703Y-31457978D01*
X80357164Y-31457978D01*
X80326225Y-31451282D01*
X80264000Y-31493660D01*
X80178986Y-31493660D01*
X80175888Y-31472794D01*
X80089670Y-31411333D01*
X80059046Y-31417981D01*
X80052333Y-31496000D01*
X79842404Y-31496000D01*
X79800215Y-31302346D01*
X79783238Y-31184376D01*
X79839130Y-31077159D01*
X80019574Y-31077159D01*
X80108290Y-31053066D01*
X80184961Y-31038710D01*
X80328793Y-31086660D01*
X80379202Y-31123357D01*
X80468822Y-31083741D01*
X80519724Y-31045249D01*
X80666104Y-31050147D01*
X80715220Y-31068106D01*
X80763122Y-31066620D01*
X80684560Y-30970521D01*
X80642086Y-30926231D01*
X80556836Y-30880688D01*
X80484781Y-30968422D01*
X80468634Y-30995918D01*
X80400060Y-31057246D01*
X80314368Y-30970973D01*
X80285210Y-30932933D01*
X80203472Y-30885499D01*
X80096360Y-30973071D01*
X80057314Y-31015693D01*
X80019574Y-31077159D01*
X79839130Y-31077159D01*
X79889151Y-30981203D01*
X79963474Y-30896242D01*
X79988850Y-30841580D01*
X79899420Y-30866415D01*
X79810122Y-30881724D01*
X79756000Y-30798514D01*
X79719738Y-30687798D01*
X79596865Y-30531563D01*
X79572940Y-30506815D01*
X79458464Y-30307628D01*
X79384198Y-30052774D01*
X79370596Y-29979327D01*
X79314315Y-29792748D01*
X79254573Y-29718000D01*
X79200209Y-29761258D01*
X79089392Y-29920983D01*
X78959240Y-30157957D01*
X78933353Y-30210906D01*
X78814905Y-30509594D01*
X78755968Y-30816559D01*
X78740000Y-31211294D01*
X78740013Y-31223770D01*
X78756220Y-31590294D01*
X78800556Y-31819187D01*
X78869341Y-31900171D01*
X78958898Y-31822966D01*
X78980258Y-31774154D01*
X78922415Y-31784248D01*
X78863190Y-31759922D01*
X78826987Y-31608095D01*
X78816408Y-31364356D01*
X78829654Y-31067253D01*
X78843404Y-30945667D01*
X78909333Y-30945667D01*
X78951666Y-30988000D01*
X78994000Y-30945667D01*
X78951666Y-30903333D01*
X78909333Y-30945667D01*
X78843404Y-30945667D01*
X78864928Y-30755335D01*
X78920432Y-30467151D01*
X78994369Y-30241249D01*
X79054913Y-30121956D01*
X79165362Y-29966483D01*
X79246739Y-29928887D01*
X79287004Y-29980591D01*
X79248229Y-30140905D01*
X79196356Y-30247097D01*
X79169595Y-30365381D01*
X79242150Y-30356616D01*
X79270884Y-30342393D01*
X79357316Y-30367279D01*
X79378041Y-30492579D01*
X79320604Y-30668750D01*
X79216044Y-30861000D01*
X79155795Y-30649333D01*
X79114936Y-30514628D01*
X79095665Y-30516044D01*
X79087106Y-30679558D01*
X79086297Y-30729662D01*
X79114008Y-30866316D01*
X79205666Y-30872715D01*
X79298035Y-30875010D01*
X79319864Y-30945667D01*
X79340302Y-31011824D01*
X79347012Y-31082193D01*
X79374345Y-31080963D01*
X79428172Y-30921482D01*
X79432332Y-30907348D01*
X79513822Y-30727975D01*
X79591391Y-30706871D01*
X79650750Y-30833876D01*
X79677609Y-31098830D01*
X79677863Y-31110916D01*
X79690913Y-31325992D01*
X79717061Y-31575810D01*
X79733614Y-31697738D01*
X79750177Y-31819735D01*
X79784136Y-32017136D01*
X79812809Y-32127379D01*
X79830069Y-32109833D01*
X79889045Y-32040523D01*
X80052333Y-32004000D01*
X80135770Y-32007817D01*
X80221576Y-32049947D01*
X80257036Y-32174424D01*
X80264000Y-32424676D01*
X80258523Y-32610244D01*
X80225540Y-32775877D01*
X80158166Y-32804939D01*
X80078370Y-32834490D01*
X80035165Y-33011739D01*
X80050610Y-33188098D01*
X80140999Y-33306152D01*
X80162437Y-33315290D01*
X80257560Y-33406097D01*
X80234884Y-33485855D01*
X80106620Y-33489460D01*
X80008266Y-33480837D01*
X79846430Y-33563389D01*
X79773367Y-33624060D01*
X79636921Y-33646324D01*
X79625837Y-33641649D01*
X79536982Y-33531244D01*
X79560459Y-33389513D01*
X79685444Y-33294842D01*
X79770012Y-33247934D01*
X79840666Y-33101716D01*
X79846941Y-33015846D01*
X79897388Y-32801369D01*
X79917613Y-32705876D01*
X79846916Y-32719804D01*
X79776776Y-32736301D01*
X79772097Y-32627860D01*
X79812756Y-32542634D01*
X79943185Y-32493079D01*
X80016869Y-32492060D01*
X80143697Y-32416497D01*
X80165064Y-32369203D01*
X80114093Y-32372994D01*
X80014050Y-32391574D01*
X79827659Y-32338228D01*
X79657690Y-32226685D01*
X79579982Y-32096243D01*
X79569451Y-32035658D01*
X79532590Y-32061510D01*
X79527194Y-32135179D01*
X79532764Y-32173333D01*
X79557185Y-32340600D01*
X79623941Y-32606044D01*
X79635256Y-32644237D01*
X79716554Y-32932979D01*
X79748611Y-33097737D01*
X79734489Y-33172019D01*
X79677250Y-33189333D01*
X79628890Y-33148773D01*
X79533698Y-32987324D01*
X79427662Y-32744833D01*
X79351154Y-32557401D01*
X79277795Y-32415605D01*
X79254196Y-32422866D01*
X79272754Y-32512000D01*
X79284893Y-32570303D01*
X79374425Y-32849037D01*
X79421037Y-32995382D01*
X79459230Y-33211557D01*
X79425288Y-33293136D01*
X79330931Y-33229904D01*
X79187882Y-33011640D01*
X79147068Y-32937623D01*
X79063101Y-32796676D01*
X79041148Y-32791305D01*
X79081017Y-32928915D01*
X79182512Y-33216914D01*
X79223899Y-33386119D01*
X79187078Y-33538122D01*
X79135513Y-33539850D01*
X79027628Y-33409330D01*
X78885207Y-33129540D01*
X78766873Y-32847245D01*
X78641055Y-32486889D01*
X78636303Y-32467965D01*
X78927422Y-32467965D01*
X78937555Y-32568444D01*
X78963022Y-32581690D01*
X78994000Y-32512000D01*
X78987890Y-32467178D01*
X78937555Y-32455555D01*
X78927422Y-32467965D01*
X78636303Y-32467965D01*
X78570633Y-32206419D01*
X78837969Y-32206419D01*
X78858180Y-32319736D01*
X78887082Y-32318425D01*
X78902649Y-32208611D01*
X78889728Y-32129298D01*
X79181422Y-32129298D01*
X79189420Y-32208611D01*
X79191555Y-32229778D01*
X79217022Y-32243023D01*
X79248000Y-32173333D01*
X79241890Y-32128511D01*
X79191555Y-32116889D01*
X79181422Y-32129298D01*
X78889728Y-32129298D01*
X78889091Y-32125388D01*
X78851496Y-32157458D01*
X78837969Y-32206419D01*
X78570633Y-32206419D01*
X78566858Y-32191383D01*
X78551158Y-31990160D01*
X78572402Y-31957011D01*
X79078666Y-31957011D01*
X79223590Y-31750104D01*
X79368513Y-31543196D01*
X79418871Y-31752431D01*
X79448916Y-31868530D01*
X79478998Y-31900720D01*
X79517570Y-31780539D01*
X79534380Y-31697738D01*
X79522285Y-31529441D01*
X79445638Y-31467286D01*
X79329180Y-31542534D01*
X79285031Y-31593674D01*
X79211042Y-31632457D01*
X79152105Y-31525375D01*
X79128525Y-31475942D01*
X79097430Y-31489712D01*
X79084617Y-31663005D01*
X79078666Y-31957011D01*
X78572402Y-31957011D01*
X78600833Y-31912649D01*
X78643024Y-31903313D01*
X78591833Y-31863260D01*
X78571024Y-31848795D01*
X78509673Y-31705615D01*
X78486000Y-31463544D01*
X78488383Y-31385706D01*
X78525016Y-31145169D01*
X78591833Y-30992512D01*
X78595981Y-30988035D01*
X78655316Y-30912855D01*
X78591833Y-30938242D01*
X78525929Y-30953341D01*
X78479143Y-30874580D01*
X78488736Y-30705983D01*
X78544230Y-30485447D01*
X78635146Y-30250871D01*
X78751007Y-30040151D01*
X78881334Y-29891184D01*
X78909257Y-29868597D01*
X79014716Y-29761543D01*
X79008716Y-29718000D01*
X78907079Y-29753369D01*
X78740910Y-29911218D01*
X78585147Y-30153736D01*
X78474290Y-30434655D01*
X78454765Y-30506823D01*
X78392038Y-30737230D01*
X78351988Y-30882167D01*
X78290378Y-30974020D01*
X78195405Y-30965964D01*
X78147805Y-30839833D01*
X78206490Y-30473063D01*
X78373576Y-30071752D01*
X78613260Y-29743139D01*
X78769892Y-29609778D01*
X79053558Y-29478265D01*
X79308161Y-29490620D01*
X79506903Y-29641952D01*
X79622983Y-29927372D01*
X79643322Y-30028068D01*
X79700779Y-30188008D01*
X79788677Y-30201805D01*
X79939833Y-30085878D01*
X80017399Y-30018332D01*
X80082566Y-29992905D01*
X80094666Y-30085878D01*
X80098298Y-30121204D01*
X80179114Y-30202399D01*
X80391000Y-30226000D01*
X80465710Y-30224283D01*
X80637422Y-30186069D01*
X80687333Y-30085878D01*
X80691106Y-30018433D01*
X80731863Y-29997516D01*
X80851331Y-30094172D01*
X81028342Y-30192041D01*
X81150083Y-30134293D01*
X81195333Y-29930717D01*
X81239832Y-29732470D01*
X81408899Y-29538933D01*
X81660551Y-29464000D01*
X81758575Y-29476441D01*
X82015781Y-29607271D01*
X82260151Y-29847523D01*
X82462215Y-30155871D01*
X82592499Y-30490987D01*
X82621533Y-30811544D01*
X82623028Y-30976231D01*
X82668970Y-31144340D01*
X82693764Y-31243727D01*
X82701808Y-31473879D01*
X82682166Y-31763840D01*
X82653366Y-31995808D01*
X82599784Y-32300831D01*
X82542473Y-32457000D01*
X82477628Y-32477590D01*
X82472391Y-32475653D01*
X82435446Y-32542811D01*
X82417166Y-32719641D01*
X82413039Y-32767069D01*
X82362231Y-32963339D01*
X82269891Y-33196551D01*
X82156452Y-33427697D01*
X82042348Y-33617767D01*
X81948013Y-33727751D01*
X81893880Y-33718640D01*
X81892208Y-33685761D01*
X81926565Y-33512537D01*
X82005914Y-33241619D01*
X82118359Y-32915554D01*
X82154429Y-32816336D01*
X82269271Y-32462597D01*
X82338464Y-32146365D01*
X82373843Y-31798797D01*
X82387238Y-31351046D01*
X82388906Y-31061096D01*
X82379486Y-30736401D01*
X82349405Y-30503853D01*
X82291525Y-30317247D01*
X82198712Y-30130377D01*
X82130750Y-30017630D01*
X81986685Y-29826667D01*
X81872666Y-29733772D01*
X81855862Y-29729423D01*
X81827257Y-29762251D01*
X81930527Y-29896886D01*
X82024567Y-30012777D01*
X82222721Y-30393882D01*
X82296000Y-30792212D01*
X82294407Y-30859628D01*
X82264374Y-30952843D01*
X82177857Y-30910684D01*
X82175228Y-30908445D01*
X82077842Y-30756946D01*
X82007517Y-30534401D01*
X81947489Y-30343590D01*
X81836910Y-30120077D01*
X81707082Y-29921994D01*
X81586747Y-29792706D01*
X81504641Y-29775581D01*
X81473296Y-29814344D01*
X81458393Y-29919834D01*
X81552353Y-29950833D01*
X81609676Y-29964020D01*
X81726039Y-30090379D01*
X81839234Y-30307356D01*
X81925644Y-30564667D01*
X81926202Y-30566328D01*
X81963886Y-30818667D01*
X81965920Y-30871879D01*
X81967499Y-30883091D01*
X81984872Y-31006438D01*
X82014584Y-31005633D01*
G37*
G36*
X84844693Y-46693667D02*
G01*
X84836607Y-46788125D01*
X84783093Y-46876837D01*
X84645500Y-46857514D01*
X84521552Y-46805858D01*
X84428363Y-46729565D01*
X84394808Y-46701520D01*
X84266307Y-46712811D01*
X84178695Y-46728383D01*
X84190071Y-46693667D01*
X84582000Y-46693667D01*
X84624333Y-46736000D01*
X84666666Y-46693667D01*
X84624333Y-46651333D01*
X84582000Y-46693667D01*
X84190071Y-46693667D01*
X84206164Y-46644555D01*
X84239757Y-46565197D01*
X84249780Y-46439667D01*
X84582000Y-46439667D01*
X84624333Y-46482000D01*
X84666666Y-46439667D01*
X84624333Y-46397333D01*
X84582000Y-46439667D01*
X84249780Y-46439667D01*
X84255560Y-46367283D01*
X84250646Y-46301828D01*
X84290819Y-46249446D01*
X84421615Y-46243739D01*
X84681006Y-46276616D01*
X84845601Y-46298534D01*
X85145132Y-46328336D01*
X85365166Y-46337723D01*
X85463572Y-46340278D01*
X85573152Y-46397922D01*
X85598000Y-46569500D01*
X85569576Y-46742203D01*
X85492166Y-46849260D01*
X85299463Y-46901618D01*
X85138758Y-46854011D01*
X85077314Y-46672500D01*
X85064628Y-46439667D01*
X84977460Y-46947667D01*
X84856034Y-46439667D01*
X84846017Y-46678205D01*
X84844693Y-46693667D01*
G37*
G36*
X57138392Y-35484789D02*
G01*
X57130569Y-35739473D01*
X57113831Y-35870799D01*
X57004084Y-35950516D01*
X56784070Y-35983917D01*
X56507245Y-35971745D01*
X56226460Y-35916389D01*
X55994562Y-35820236D01*
X55911982Y-35762959D01*
X55680414Y-35483373D01*
X55583216Y-35143052D01*
X55965880Y-35143052D01*
X56015917Y-35406143D01*
X56119500Y-35589211D01*
X56267354Y-35677261D01*
X56500500Y-35729333D01*
X56588550Y-35726895D01*
X56668047Y-35697814D01*
X56709090Y-35606492D01*
X56724391Y-35417230D01*
X56726666Y-35094333D01*
X56722985Y-34819356D01*
X56704209Y-34598071D01*
X56663469Y-34488699D01*
X56594100Y-34459333D01*
X56410393Y-34499796D01*
X56184325Y-34611858D01*
X56029463Y-34747175D01*
X55978299Y-34883259D01*
X55965880Y-35143052D01*
X55583216Y-35143052D01*
X55580206Y-35132513D01*
X55626486Y-34754194D01*
X55671422Y-34643399D01*
X55883331Y-34387925D01*
X56213724Y-34248321D01*
X56667245Y-34222217D01*
X57107666Y-34247667D01*
X57132340Y-35002966D01*
X57134774Y-35094333D01*
X57136325Y-35152536D01*
X57138392Y-35484789D01*
G37*
G36*
X86332562Y-44049366D02*
G01*
X86087645Y-44317860D01*
X86068132Y-44330954D01*
X85815264Y-44430479D01*
X85555449Y-44437306D01*
X85360933Y-44348400D01*
X85332625Y-44322860D01*
X85274882Y-44324102D01*
X85259333Y-44472421D01*
X85231291Y-44624194D01*
X85083384Y-44792207D01*
X84888840Y-44850638D01*
X84728213Y-44793721D01*
X84666666Y-44619816D01*
X84666556Y-44594702D01*
X84650950Y-44500315D01*
X84577016Y-44498725D01*
X84399456Y-44583831D01*
X84393203Y-44587053D01*
X84116990Y-44716238D01*
X83827956Y-44834040D01*
X83329775Y-44944374D01*
X82767826Y-44918240D01*
X82234917Y-44742228D01*
X82118858Y-44683970D01*
X82078920Y-44662131D01*
X82613150Y-44662131D01*
X82719333Y-44704000D01*
X82721827Y-44704795D01*
X83151732Y-44758175D01*
X83648355Y-44664268D01*
X84217962Y-44421897D01*
X84222974Y-44419306D01*
X84487584Y-44321301D01*
X84744471Y-44280667D01*
X84813983Y-44278983D01*
X84945780Y-44244266D01*
X84950083Y-44150535D01*
X84901350Y-44070495D01*
X84695779Y-43918676D01*
X84393431Y-43812579D01*
X84043405Y-43772667D01*
X83982004Y-43775333D01*
X83749553Y-43809966D01*
X83471713Y-43874442D01*
X83190689Y-43955764D01*
X82948690Y-44040932D01*
X82787923Y-44116949D01*
X82750593Y-44170815D01*
X82825646Y-44171703D01*
X83023010Y-44137413D01*
X83293688Y-44073745D01*
X83368260Y-44055115D01*
X83870452Y-43967425D01*
X84302235Y-43957479D01*
X84624333Y-44026667D01*
X84685396Y-44070771D01*
X84605410Y-44097100D01*
X84370333Y-44110263D01*
X84101074Y-44135042D01*
X83724724Y-44199350D01*
X83560854Y-44238333D01*
X83354333Y-44287462D01*
X82761666Y-44453830D01*
X83296550Y-44404731D01*
X83553678Y-44376817D01*
X83813897Y-44338628D01*
X83966606Y-44303761D01*
X84039000Y-44287365D01*
X84046995Y-44340531D01*
X84000117Y-44382646D01*
X83807440Y-44466313D01*
X83521894Y-44543214D01*
X83193516Y-44601112D01*
X82872341Y-44627773D01*
X82823853Y-44629004D01*
X82642871Y-44639683D01*
X82613150Y-44662131D01*
X82078920Y-44662131D01*
X81869175Y-44547437D01*
X81740870Y-44439016D01*
X81741601Y-44341805D01*
X81879025Y-44238903D01*
X81880305Y-44238333D01*
X82465333Y-44238333D01*
X82507666Y-44280667D01*
X82550000Y-44238333D01*
X82507666Y-44196000D01*
X82465333Y-44238333D01*
X81880305Y-44238333D01*
X82160800Y-44113409D01*
X82594585Y-43948421D01*
X82975137Y-43812468D01*
X83363614Y-43684598D01*
X83684506Y-43590219D01*
X83892744Y-43543394D01*
X83946696Y-43538270D01*
X84268624Y-43567406D01*
X84610419Y-43672657D01*
X84909022Y-43829500D01*
X85101370Y-44013411D01*
X85165545Y-44110093D01*
X85225722Y-44128141D01*
X85301922Y-43999261D01*
X85394215Y-43885268D01*
X85539452Y-43826759D01*
X85545505Y-43827225D01*
X85657058Y-43806596D01*
X85669246Y-43701896D01*
X85586039Y-43483894D01*
X85529214Y-43372602D01*
X85447617Y-43321963D01*
X85313200Y-43395243D01*
X85234908Y-43439495D01*
X84940163Y-43510091D01*
X84615742Y-43492302D01*
X84346839Y-43386866D01*
X84334794Y-43378363D01*
X84185239Y-43240701D01*
X84188211Y-43208372D01*
X84455451Y-43208372D01*
X84696833Y-43288833D01*
X84862582Y-43315806D01*
X85120357Y-43236119D01*
X85333556Y-43013575D01*
X85481624Y-42664528D01*
X85521048Y-42519190D01*
X85562802Y-42391740D01*
X85581663Y-42410957D01*
X85589688Y-42565829D01*
X85609970Y-42731066D01*
X85677132Y-43029108D01*
X85773460Y-43347667D01*
X85846894Y-43595427D01*
X85896678Y-43857875D01*
X85894755Y-44025337D01*
X85868646Y-44150535D01*
X85867409Y-44156468D01*
X85915769Y-44181395D01*
X86055381Y-44065190D01*
X86152642Y-43925771D01*
X86262849Y-43636580D01*
X86321118Y-43313307D01*
X86308062Y-43035005D01*
X86292557Y-42977196D01*
X86201944Y-42726196D01*
X86080955Y-42462469D01*
X85957967Y-42243669D01*
X85861359Y-42127451D01*
X85843722Y-42146146D01*
X85869547Y-42280001D01*
X85944816Y-42503614D01*
X85990335Y-42640789D01*
X86070454Y-43001204D01*
X86098946Y-43329075D01*
X86091892Y-43730333D01*
X85974183Y-43244709D01*
X85923358Y-43059977D01*
X85794570Y-42685029D01*
X85655496Y-42363625D01*
X85454517Y-41968164D01*
X85428250Y-42164000D01*
X85405459Y-42333919D01*
X85378992Y-42472437D01*
X85266529Y-42781267D01*
X85107584Y-43028991D01*
X84932861Y-43161824D01*
X84912381Y-43162871D01*
X84913680Y-43085651D01*
X85001196Y-42913162D01*
X85025469Y-42871645D01*
X85130607Y-42642051D01*
X85172491Y-42460333D01*
X85163661Y-42415413D01*
X85109174Y-42455315D01*
X85010672Y-42644002D01*
X84965626Y-42733254D01*
X84809633Y-42961189D01*
X84652923Y-43102688D01*
X84455451Y-43208372D01*
X84188211Y-43208372D01*
X84195074Y-43133728D01*
X84365855Y-43028112D01*
X84422183Y-42999415D01*
X84645163Y-42804171D01*
X84825831Y-42485246D01*
X84945217Y-42119965D01*
X85192756Y-42119965D01*
X85202889Y-42220444D01*
X85228355Y-42233690D01*
X85259333Y-42164000D01*
X85253223Y-42119178D01*
X85202889Y-42107555D01*
X85192756Y-42119965D01*
X84945217Y-42119965D01*
X84977841Y-42020147D01*
X85019290Y-41861855D01*
X85108042Y-41562626D01*
X85193905Y-41412250D01*
X85306183Y-41400071D01*
X85474181Y-41515436D01*
X85727203Y-41747690D01*
X85747209Y-41766666D01*
X86006851Y-42039639D01*
X86229984Y-42318253D01*
X86370229Y-42545000D01*
X86463946Y-42803768D01*
X86527455Y-43250016D01*
X86520667Y-43313307D01*
X86481413Y-43679317D01*
X86332562Y-44049366D01*
G37*
G36*
X82489089Y-45381724D02*
G01*
X82583674Y-45457265D01*
X82608326Y-45610252D01*
X82549105Y-45763411D01*
X82499617Y-45841250D01*
X82533927Y-45889333D01*
X82596579Y-45856956D01*
X82677000Y-45720000D01*
X82694785Y-45670358D01*
X82780582Y-45560864D01*
X82873891Y-45614098D01*
X82963276Y-45825833D01*
X82970855Y-45852036D01*
X83020544Y-46010178D01*
X83041928Y-46014276D01*
X83050364Y-45872571D01*
X83066589Y-45725070D01*
X83136662Y-45683418D01*
X83312000Y-45732687D01*
X83312241Y-45732771D01*
X83493019Y-45836143D01*
X83567296Y-45961116D01*
X83567446Y-45972675D01*
X83583791Y-46053210D01*
X83647102Y-45976869D01*
X83679665Y-45934224D01*
X83742087Y-45937724D01*
X83815139Y-46088214D01*
X83875812Y-46280148D01*
X83904666Y-46445178D01*
X83896025Y-46498491D01*
X83820000Y-46566667D01*
X83800264Y-46564826D01*
X83735333Y-46500017D01*
X83701264Y-46458050D01*
X83560395Y-46420190D01*
X83478752Y-46404518D01*
X83252202Y-46328316D01*
X82988895Y-46213180D01*
X82839953Y-46143085D01*
X82627156Y-46053513D01*
X82507666Y-46017840D01*
X82462391Y-45970742D01*
X82425615Y-45816508D01*
X82414332Y-45620803D01*
X82431524Y-45452715D01*
X82480176Y-45381333D01*
X82489089Y-45381724D01*
G37*
G36*
X75223953Y-37600592D02*
G01*
X74840142Y-38052284D01*
X74708363Y-38168535D01*
X74546105Y-38302018D01*
X74466206Y-38354000D01*
X74451697Y-38287548D01*
X74473176Y-38119284D01*
X74477711Y-38083947D01*
X74468220Y-37860738D01*
X74421047Y-37545651D01*
X74344060Y-37195011D01*
X74329538Y-37137489D01*
X74208433Y-36554827D01*
X74172358Y-36087678D01*
X74179928Y-36032911D01*
X74437158Y-36032911D01*
X74450457Y-36351438D01*
X74482965Y-36670167D01*
X74544711Y-37099141D01*
X74615393Y-37465000D01*
X74734201Y-37973000D01*
X74997895Y-37559837D01*
X75217692Y-37122008D01*
X75328424Y-36605675D01*
X75276031Y-36104313D01*
X75259656Y-36045955D01*
X75179093Y-35796056D01*
X75122581Y-35702876D01*
X75088077Y-35769380D01*
X75073536Y-35998537D01*
X75076914Y-36393314D01*
X75080434Y-36586728D01*
X75076599Y-36905766D01*
X75056262Y-37057197D01*
X75019365Y-37041667D01*
X75001067Y-36991864D01*
X74954800Y-36765820D01*
X74931071Y-36491333D01*
X74928518Y-36429232D01*
X74896207Y-36085982D01*
X74843310Y-35771667D01*
X74826127Y-35704886D01*
X74800908Y-35670086D01*
X74787664Y-35776270D01*
X74785719Y-36032791D01*
X74794399Y-36449000D01*
X74803881Y-36811504D01*
X74808376Y-37106958D01*
X74802947Y-37264706D01*
X74785090Y-37301975D01*
X74752298Y-37235997D01*
X74702068Y-37084000D01*
X74643747Y-36834150D01*
X74591616Y-36468120D01*
X74565358Y-36095533D01*
X74565244Y-36091327D01*
X74547806Y-35779185D01*
X74517721Y-35618056D01*
X74476663Y-35616972D01*
X74475042Y-35620036D01*
X74446005Y-35770841D01*
X74437158Y-36032911D01*
X74179928Y-36032911D01*
X74225195Y-35705428D01*
X74370826Y-35377463D01*
X74613135Y-35073167D01*
X74686446Y-34998980D01*
X74875348Y-34837894D01*
X74981476Y-34811649D01*
X75014666Y-34916402D01*
X75044423Y-35028409D01*
X75136305Y-35248579D01*
X75268666Y-35517666D01*
X75450872Y-35969015D01*
X75532998Y-36537188D01*
X75523446Y-36605675D01*
X75456132Y-37088304D01*
X75223953Y-37600592D01*
G37*
G36*
X77066904Y-46145793D02*
G01*
X77131333Y-46228000D01*
X77128873Y-46248237D01*
X77046666Y-46312667D01*
X77026429Y-46310206D01*
X76962000Y-46228000D01*
X76964460Y-46207762D01*
X77046666Y-46143333D01*
X77066904Y-46145793D01*
G37*
G36*
X60649298Y-43822709D02*
G01*
X60447957Y-44128401D01*
X60418989Y-44157091D01*
X60240825Y-44303982D01*
X60065696Y-44356695D01*
X59809521Y-44343568D01*
X59781489Y-44340203D01*
X59412984Y-44237663D01*
X59162121Y-44026653D01*
X59001786Y-43685072D01*
X58989183Y-43639853D01*
X58977800Y-43487715D01*
X59351333Y-43487715D01*
X59355841Y-43620846D01*
X59408592Y-43837823D01*
X59539505Y-43979532D01*
X59546050Y-43984095D01*
X59764475Y-44094781D01*
X59950121Y-44070231D01*
X60159515Y-43903515D01*
X60201245Y-43858427D01*
X60348294Y-43592331D01*
X60376249Y-43313420D01*
X60296488Y-43063025D01*
X60120390Y-42882478D01*
X59859333Y-42813111D01*
X59769636Y-42818031D01*
X59532271Y-42911608D01*
X59395324Y-43131533D01*
X59351333Y-43487715D01*
X58977800Y-43487715D01*
X58960344Y-43254394D01*
X59067005Y-42924334D01*
X59286349Y-42676687D01*
X59595557Y-42538467D01*
X59971810Y-42536689D01*
X60212190Y-42618961D01*
X60483975Y-42837276D01*
X60655375Y-43137262D01*
X60685829Y-43313420D01*
X60714460Y-43479034D01*
X60649298Y-43822709D01*
G37*
G36*
X61891249Y-35205703D02*
G01*
X61887686Y-35565484D01*
X61874683Y-35793200D01*
X61846535Y-35918788D01*
X61797542Y-35972187D01*
X61722000Y-35983333D01*
X61624261Y-35964159D01*
X61566867Y-35866235D01*
X61552666Y-35644667D01*
X61545001Y-35468270D01*
X61499600Y-35339568D01*
X61396192Y-35306000D01*
X61385627Y-35306440D01*
X61235205Y-35399745D01*
X61087000Y-35644667D01*
X61021636Y-35776174D01*
X60891393Y-35937339D01*
X60735474Y-35983333D01*
X60689274Y-35983359D01*
X60581726Y-35973989D01*
X60554367Y-35922873D01*
X60607781Y-35794531D01*
X60742553Y-35553481D01*
X60846544Y-35365207D01*
X60900447Y-35220924D01*
X60878400Y-35113686D01*
X60784886Y-34983088D01*
X60649373Y-34761620D01*
X60649324Y-34755667D01*
X61044666Y-34755667D01*
X61072712Y-34884601D01*
X61178591Y-35000608D01*
X61194996Y-35006806D01*
X61410525Y-35052863D01*
X61521337Y-34974658D01*
X61552666Y-34755667D01*
X61523784Y-34534894D01*
X61432591Y-34459333D01*
X61318258Y-34468268D01*
X61115807Y-34564333D01*
X61044666Y-34755667D01*
X60649324Y-34755667D01*
X60647811Y-34570879D01*
X60790666Y-34374667D01*
X60896375Y-34292954D01*
X61105028Y-34224845D01*
X61425666Y-34205333D01*
X61891333Y-34205333D01*
X61891333Y-35094333D01*
X61891249Y-35205703D01*
G37*
G36*
X50530374Y-40894000D02*
G01*
X50206325Y-40894000D01*
X50037354Y-40887871D01*
X49914199Y-40841811D01*
X49830042Y-40715148D01*
X49740531Y-40467248D01*
X49598787Y-40040496D01*
X48961621Y-40065081D01*
X48324456Y-40089667D01*
X48184457Y-40470667D01*
X48130385Y-40611591D01*
X48038195Y-40776146D01*
X47911246Y-40849412D01*
X47694148Y-40877331D01*
X47343838Y-40902995D01*
X47857371Y-39539333D01*
X48525635Y-39539333D01*
X49424316Y-39539333D01*
X49234777Y-39010167D01*
X49139464Y-38742147D01*
X49053582Y-38496705D01*
X49005724Y-38354980D01*
X48995016Y-38343004D01*
X48937832Y-38410979D01*
X48850078Y-38600979D01*
X48745922Y-38884147D01*
X48525635Y-39539333D01*
X47857371Y-39539333D01*
X47973390Y-39231249D01*
X48036496Y-39063867D01*
X48218857Y-38582466D01*
X48378102Y-38165430D01*
X48505159Y-37836310D01*
X48590954Y-37618659D01*
X48626417Y-37536027D01*
X48633400Y-37533063D01*
X48749660Y-37535431D01*
X48954937Y-37562055D01*
X49067813Y-37584464D01*
X49212352Y-37651261D01*
X49317998Y-37790214D01*
X49428737Y-38046278D01*
X49455222Y-38114549D01*
X49564803Y-38397384D01*
X49713542Y-38781624D01*
X49885299Y-39225565D01*
X50006635Y-39539333D01*
X50063932Y-39687500D01*
X50530374Y-40894000D01*
G37*
G36*
X67643583Y-34221356D02*
G01*
X67699888Y-34297695D01*
X67731537Y-34470752D01*
X67750631Y-34776833D01*
X67775666Y-35348333D01*
X68156666Y-34778595D01*
X68217658Y-34688683D01*
X68428690Y-34408159D01*
X68591972Y-34254516D01*
X68728166Y-34207095D01*
X68771765Y-34207699D01*
X68841869Y-34226814D01*
X68885154Y-34294960D01*
X68908077Y-34442212D01*
X68917095Y-34698645D01*
X68918666Y-35094333D01*
X68918607Y-35185995D01*
X68915191Y-35552695D01*
X68902491Y-35785906D01*
X68874943Y-35915502D01*
X68826982Y-35971354D01*
X68753042Y-35983333D01*
X68747294Y-35983296D01*
X68661838Y-35962340D01*
X68610047Y-35878611D01*
X68580692Y-35696589D01*
X68562542Y-35380754D01*
X68537666Y-34778176D01*
X68126493Y-35380754D01*
X67901747Y-35687348D01*
X67697150Y-35907875D01*
X67554993Y-35983333D01*
X67544004Y-35983180D01*
X67475934Y-35965514D01*
X67432331Y-35897549D01*
X67407829Y-35749531D01*
X67397063Y-35491710D01*
X67394666Y-35094333D01*
X67394725Y-35003549D01*
X67398135Y-34636542D01*
X67410821Y-34403085D01*
X67438344Y-34273311D01*
X67486260Y-34217349D01*
X67560131Y-34205333D01*
X67643583Y-34221356D01*
G37*
G36*
X80744174Y-33921141D02*
G01*
X80741113Y-34135438D01*
X80790434Y-34274568D01*
X80829610Y-34355055D01*
X80751236Y-34492192D01*
X80662580Y-34559242D01*
X80570413Y-34568190D01*
X80537371Y-34576461D01*
X80518000Y-34699222D01*
X80494063Y-34810835D01*
X80391000Y-34882667D01*
X80332480Y-34872396D01*
X80264000Y-34791952D01*
X80241093Y-34717233D01*
X80137000Y-34574238D01*
X80121595Y-34558009D01*
X80030199Y-34403704D01*
X80016477Y-34265333D01*
X80088619Y-34205333D01*
X80157108Y-34228601D01*
X80294238Y-34332333D01*
X80405054Y-34430824D01*
X80486955Y-34433387D01*
X80542532Y-34290000D01*
X80554615Y-34227722D01*
X80515999Y-34141728D01*
X80349798Y-34120667D01*
X80261351Y-34112712D01*
X80075503Y-34003294D01*
X80022964Y-33822631D01*
X80366756Y-33822631D01*
X80376889Y-33923111D01*
X80402355Y-33936357D01*
X80433333Y-33866667D01*
X80427223Y-33821844D01*
X80376889Y-33810222D01*
X80366756Y-33822631D01*
X80022964Y-33822631D01*
X80010000Y-33778054D01*
X80024996Y-33727443D01*
X80151763Y-33627826D01*
X80354377Y-33570898D01*
X80567809Y-33579775D01*
X80691109Y-33621810D01*
X80759247Y-33716080D01*
X80748850Y-33866667D01*
X80745824Y-33910502D01*
X80744174Y-33921141D01*
G37*
G36*
X52658462Y-35983333D02*
G01*
X52536195Y-35979987D01*
X52097602Y-35894528D01*
X51781384Y-35697274D01*
X51592898Y-35392987D01*
X51549899Y-35077438D01*
X51900561Y-35077438D01*
X51951345Y-35350731D01*
X52070000Y-35560000D01*
X52231995Y-35670446D01*
X52451000Y-35729333D01*
X52525344Y-35726999D01*
X52603257Y-35697985D01*
X52644189Y-35606649D01*
X52660029Y-35417321D01*
X52662666Y-35094333D01*
X52658985Y-34819356D01*
X52640209Y-34598071D01*
X52599469Y-34488699D01*
X52530100Y-34459333D01*
X52346393Y-34499796D01*
X52120325Y-34611858D01*
X51965463Y-34747175D01*
X51928571Y-34825043D01*
X51900561Y-35077438D01*
X51549899Y-35077438D01*
X51537498Y-34986431D01*
X51541217Y-34920686D01*
X51614609Y-34667421D01*
X51809490Y-34440486D01*
X51884928Y-34376178D01*
X52059992Y-34267576D01*
X52269056Y-34217472D01*
X52579336Y-34205333D01*
X53086000Y-34205333D01*
X53086000Y-35983333D01*
X52658462Y-35983333D01*
G37*
G36*
X70521026Y-44345594D02*
G01*
X70236026Y-44293410D01*
X69862141Y-44125915D01*
X69598472Y-43872866D01*
X69480379Y-43593626D01*
X69860143Y-43593626D01*
X69937645Y-43862899D01*
X70063248Y-43982198D01*
X70318645Y-44026667D01*
X70612000Y-44026667D01*
X70612000Y-42841333D01*
X70371122Y-42841333D01*
X70177888Y-42879783D01*
X69990122Y-42996167D01*
X69954240Y-43043830D01*
X69867307Y-43293647D01*
X69860143Y-43593626D01*
X69480379Y-43593626D01*
X69464252Y-43555493D01*
X69478716Y-43195028D01*
X69512988Y-43087145D01*
X69700697Y-42808234D01*
X70015708Y-42624510D01*
X70468814Y-42528708D01*
X70950666Y-42478976D01*
X70950666Y-44386877D01*
X70521026Y-44345594D01*
G37*
G36*
X75041100Y-39345484D02*
G01*
X74781367Y-39575817D01*
X74675574Y-39626083D01*
X74280635Y-39710492D01*
X73890203Y-39654077D01*
X73555502Y-39461612D01*
X73446473Y-39358649D01*
X73336541Y-39208452D01*
X73289162Y-39022601D01*
X73280661Y-38781551D01*
X73489448Y-38781551D01*
X73550956Y-39056333D01*
X73681166Y-39264298D01*
X73863288Y-39395452D01*
X74083333Y-39489331D01*
X74145687Y-39498648D01*
X74439868Y-39459215D01*
X74736137Y-39317640D01*
X74961470Y-39105816D01*
X75038390Y-38988721D01*
X75093741Y-38862848D01*
X75039809Y-38860394D01*
X74880977Y-38987785D01*
X74589505Y-39181075D01*
X74270546Y-39256131D01*
X73982466Y-39192473D01*
X73860957Y-39116488D01*
X73657851Y-38913444D01*
X73578026Y-38702415D01*
X73579628Y-38687276D01*
X73636740Y-38691107D01*
X73750812Y-38808248D01*
X73869762Y-38924315D01*
X74140874Y-39031670D01*
X74441929Y-38994359D01*
X74734779Y-38812226D01*
X74843898Y-38706423D01*
X74885120Y-38640298D01*
X74803000Y-38656595D01*
X74417533Y-38754451D01*
X74077205Y-38740811D01*
X73830906Y-38609572D01*
X73717021Y-38448944D01*
X73697725Y-38293145D01*
X73706430Y-38269729D01*
X73711739Y-38205392D01*
X73619605Y-38267725D01*
X73589022Y-38298350D01*
X73500763Y-38506655D01*
X73489448Y-38781551D01*
X73280661Y-38781551D01*
X73279000Y-38734464D01*
X73279878Y-38630630D01*
X73300526Y-38375866D01*
X73362505Y-38214331D01*
X73484154Y-38088248D01*
X73638391Y-37996430D01*
X73949821Y-37947562D01*
X74099058Y-37972781D01*
X74190653Y-38055580D01*
X74209515Y-38248167D01*
X74215760Y-38384251D01*
X74269842Y-38496874D01*
X74409976Y-38523333D01*
X74476852Y-38512839D01*
X74695808Y-38399871D01*
X74949921Y-38184667D01*
X75095227Y-38042375D01*
X75248559Y-37900801D01*
X75320961Y-37846000D01*
X75334393Y-37888535D01*
X75348044Y-38058899D01*
X75353333Y-38315039D01*
X75338465Y-38559221D01*
X75264585Y-38862848D01*
X75232844Y-38993294D01*
X75041100Y-39345484D01*
G37*
G36*
X81403505Y-45505890D02*
G01*
X81439307Y-45507238D01*
X81425369Y-45360167D01*
X81419084Y-45308015D01*
X81438870Y-45158505D01*
X81507553Y-45136140D01*
X81590773Y-45261432D01*
X81644551Y-45346296D01*
X81715116Y-45282599D01*
X81761810Y-45238095D01*
X81851687Y-45266190D01*
X81924917Y-45406568D01*
X81956037Y-45623225D01*
X81955704Y-45656328D01*
X81921515Y-45773658D01*
X81809166Y-45761410D01*
X81684955Y-45720801D01*
X81458096Y-45673778D01*
X81318080Y-45633749D01*
X81184226Y-45535594D01*
X81135216Y-45475182D01*
X81111963Y-45526843D01*
X81099259Y-45566928D01*
X81001695Y-45586705D01*
X80853202Y-45523682D01*
X80708500Y-45395653D01*
X80678024Y-45358606D01*
X80615254Y-45310430D01*
X80602666Y-45404394D01*
X80585621Y-45472135D01*
X80479224Y-45528220D01*
X80242833Y-45542713D01*
X80016594Y-45548253D01*
X79658666Y-45592063D01*
X79423892Y-45673613D01*
X79408326Y-45676676D01*
X79370599Y-45594174D01*
X79364336Y-45403707D01*
X79366552Y-45370379D01*
X79416360Y-45146141D01*
X79526792Y-45058086D01*
X79615324Y-45064986D01*
X79676700Y-45184625D01*
X79679487Y-45231869D01*
X79701833Y-45267171D01*
X79710370Y-45249336D01*
X80348666Y-45249336D01*
X80362649Y-45388666D01*
X80400232Y-45477269D01*
X80439811Y-45444833D01*
X80448018Y-45416523D01*
X80469878Y-45245086D01*
X80785302Y-45245086D01*
X80805514Y-45358403D01*
X80834416Y-45357092D01*
X80838291Y-45329752D01*
X80954636Y-45329752D01*
X80974847Y-45443069D01*
X81003749Y-45441758D01*
X81019316Y-45331944D01*
X81005758Y-45248721D01*
X80968163Y-45280792D01*
X80954636Y-45329752D01*
X80838291Y-45329752D01*
X80849982Y-45247278D01*
X80836424Y-45164055D01*
X80798830Y-45196125D01*
X80797506Y-45200916D01*
X80785302Y-45245086D01*
X80469878Y-45245086D01*
X80475510Y-45200916D01*
X80425792Y-45080339D01*
X80373422Y-45105934D01*
X80348666Y-45249336D01*
X79710370Y-45249336D01*
X79758638Y-45148500D01*
X79799639Y-45074806D01*
X79921561Y-44975164D01*
X80041720Y-44966667D01*
X80101351Y-45063833D01*
X80112486Y-45126225D01*
X80150740Y-45063833D01*
X80229528Y-44984972D01*
X80385841Y-44956028D01*
X80535714Y-44996872D01*
X80602666Y-45101182D01*
X80604552Y-45155268D01*
X80634102Y-45186236D01*
X80723967Y-45080015D01*
X80730133Y-45071743D01*
X80843174Y-44971072D01*
X80945950Y-45014884D01*
X81007757Y-45056551D01*
X81163317Y-45069325D01*
X81234751Y-45067656D01*
X81281296Y-45181775D01*
X81289535Y-45247278D01*
X81292400Y-45270057D01*
X81317728Y-45331944D01*
X81372591Y-45466000D01*
X81403505Y-45505890D01*
G37*
G36*
X84140653Y-37486167D02*
G01*
X84137249Y-37490067D01*
X83984763Y-37559915D01*
X83735570Y-37591061D01*
X83454696Y-37584776D01*
X83207164Y-37542332D01*
X83058000Y-37465000D01*
X83004826Y-37374504D01*
X83039630Y-37232167D01*
X83062389Y-37189833D01*
X83313285Y-37189833D01*
X83326944Y-37218969D01*
X83439000Y-37253333D01*
X83511522Y-37218541D01*
X83551848Y-37081303D01*
X83557698Y-36893500D01*
X83742017Y-36893500D01*
X83742955Y-37015738D01*
X83775620Y-37198328D01*
X83857929Y-37253333D01*
X83887107Y-37252076D01*
X83933746Y-37226401D01*
X83935801Y-37141665D01*
X83889480Y-36964282D01*
X83790989Y-36660667D01*
X83777585Y-36639107D01*
X83754240Y-36705265D01*
X83747515Y-36808833D01*
X83742017Y-36893500D01*
X83557698Y-36893500D01*
X83560336Y-36808833D01*
X83554672Y-36364333D01*
X83434621Y-36745333D01*
X83397834Y-36864943D01*
X83337632Y-37077301D01*
X83313285Y-37189833D01*
X83062389Y-37189833D01*
X83094230Y-37130607D01*
X83182036Y-36904219D01*
X83273154Y-36618333D01*
X83343473Y-36377996D01*
X83416046Y-36138125D01*
X83459548Y-36004500D01*
X83430952Y-35932151D01*
X83303227Y-35899228D01*
X83140112Y-35914986D01*
X83007899Y-35982634D01*
X82899451Y-36020256D01*
X82655530Y-35965292D01*
X82631813Y-35956635D01*
X82440201Y-35908954D01*
X82331159Y-35919951D01*
X82325984Y-35927843D01*
X82324314Y-36056623D01*
X82365918Y-36286049D01*
X82436955Y-36566119D01*
X82523587Y-36846832D01*
X82611972Y-37078185D01*
X82648668Y-37141665D01*
X82688272Y-37210177D01*
X82706363Y-37229224D01*
X82744004Y-37332245D01*
X82645453Y-37455238D01*
X82501257Y-37538691D01*
X82269729Y-37588489D01*
X82012700Y-37588807D01*
X81769036Y-37546948D01*
X81577606Y-37470213D01*
X81477276Y-37365906D01*
X81506915Y-37241328D01*
X81521356Y-37221562D01*
X81585923Y-37090409D01*
X81813699Y-37090409D01*
X81822334Y-37219592D01*
X81908273Y-37253333D01*
X81911402Y-37253305D01*
X81990563Y-37214439D01*
X82028911Y-37078043D01*
X82034204Y-36893500D01*
X82218017Y-36893500D01*
X82218955Y-37015738D01*
X82251620Y-37198328D01*
X82333929Y-37253333D01*
X82363107Y-37252076D01*
X82409746Y-37226401D01*
X82411801Y-37141665D01*
X82365480Y-36964282D01*
X82266989Y-36660667D01*
X82253585Y-36639107D01*
X82230240Y-36705265D01*
X82223515Y-36808833D01*
X82218017Y-36893500D01*
X82034204Y-36893500D01*
X82036633Y-36808833D01*
X82034348Y-36716006D01*
X82013388Y-36532255D01*
X81972396Y-36515295D01*
X81912440Y-36664231D01*
X81834590Y-36978167D01*
X81813699Y-37090409D01*
X81585923Y-37090409D01*
X81606032Y-37049561D01*
X81697039Y-36796707D01*
X81781312Y-36510916D01*
X81845786Y-36240103D01*
X81877396Y-36032184D01*
X81863079Y-35935074D01*
X81837013Y-35916067D01*
X81822633Y-35831212D01*
X81959476Y-35750828D01*
X82232944Y-35684794D01*
X82315058Y-35669519D01*
X82552774Y-35605993D01*
X82701053Y-35537665D01*
X82795638Y-35495176D01*
X82997386Y-35542438D01*
X83042228Y-35562052D01*
X83275614Y-35634128D01*
X83551846Y-35690828D01*
X83624006Y-35702236D01*
X83813350Y-35747666D01*
X83882465Y-35816997D01*
X83870007Y-35940569D01*
X83867007Y-35956288D01*
X83876347Y-36146150D01*
X83932405Y-36431684D01*
X84024680Y-36757442D01*
X84131113Y-37120528D01*
X84134527Y-37141665D01*
X84169848Y-37360359D01*
X84140653Y-37486167D01*
G37*
G36*
X60113333Y-40894000D02*
G01*
X59436000Y-40894000D01*
X59436000Y-37592000D01*
X60113333Y-37592000D01*
X60113333Y-40894000D01*
G37*
G36*
X75832872Y-34026166D02*
G01*
X75670558Y-34281437D01*
X75475244Y-34410712D01*
X75471505Y-34411683D01*
X75295351Y-34485302D01*
X75035979Y-34624319D01*
X74748130Y-34799465D01*
X74552796Y-34918263D01*
X74169493Y-35090227D01*
X73848647Y-35131379D01*
X73565714Y-35046852D01*
X73418792Y-34932882D01*
X73304480Y-34716977D01*
X73293424Y-34475773D01*
X73301424Y-34452019D01*
X73516904Y-34452019D01*
X73519803Y-34649398D01*
X73656616Y-34812285D01*
X73712011Y-34853981D01*
X73900775Y-34938520D01*
X74112730Y-34927055D01*
X74381080Y-34812726D01*
X74739034Y-34588674D01*
X74882119Y-34485650D01*
X74972069Y-34398217D01*
X74928035Y-34386783D01*
X74760279Y-34451236D01*
X74479062Y-34591466D01*
X74319144Y-34668901D01*
X74018212Y-34764895D01*
X73797578Y-34763032D01*
X73684443Y-34660933D01*
X73708422Y-34604982D01*
X73860480Y-34605806D01*
X74087314Y-34581941D01*
X74391490Y-34425373D01*
X74483262Y-34367122D01*
X74713440Y-34251356D01*
X74884278Y-34205333D01*
X74903392Y-34204945D01*
X74964542Y-34179431D01*
X74911905Y-34098753D01*
X74733268Y-33941578D01*
X74659474Y-33878877D01*
X74498516Y-33717063D01*
X74466687Y-33638177D01*
X74560622Y-33654721D01*
X74776958Y-33779196D01*
X74837612Y-33817808D01*
X74896901Y-33840803D01*
X74830403Y-33761476D01*
X74635985Y-33576766D01*
X74623094Y-33564867D01*
X74429413Y-33375221D01*
X74313357Y-33240551D01*
X74299646Y-33189333D01*
X74339826Y-33196068D01*
X74522750Y-33286077D01*
X74769913Y-33459291D01*
X75040247Y-33688054D01*
X75277495Y-33906805D01*
X75219171Y-33315236D01*
X75217096Y-33293887D01*
X75196716Y-32974158D01*
X75209408Y-32818879D01*
X75250398Y-32827533D01*
X75314914Y-32999606D01*
X75398183Y-33334581D01*
X75505315Y-33824333D01*
X75511971Y-33358667D01*
X75510122Y-33193976D01*
X75485922Y-32847453D01*
X75442209Y-32563586D01*
X75427029Y-32497336D01*
X75396863Y-32332403D01*
X75419599Y-32299123D01*
X75503436Y-32371817D01*
X75556188Y-32449820D01*
X75637737Y-32725657D01*
X75691810Y-33166897D01*
X75713234Y-33437859D01*
X75733555Y-33638510D01*
X75752219Y-33695823D01*
X75775401Y-33624018D01*
X75809279Y-33437313D01*
X75822163Y-33348953D01*
X75816854Y-32894010D01*
X75698976Y-32486060D01*
X75481285Y-32174227D01*
X75477026Y-32170228D01*
X75337062Y-32047773D01*
X75279338Y-32038923D01*
X75267434Y-32137408D01*
X75261781Y-32198102D01*
X75213822Y-32417710D01*
X75133158Y-32681333D01*
X75118010Y-32727186D01*
X75047958Y-33062838D01*
X75046670Y-33358667D01*
X75055518Y-33415406D01*
X75073200Y-33571496D01*
X75042989Y-33584598D01*
X74948112Y-33474409D01*
X74862861Y-33381063D01*
X74570157Y-33179793D01*
X74258233Y-33104667D01*
X74219743Y-33106813D01*
X74098057Y-33178310D01*
X74095749Y-33333156D01*
X74206893Y-33546905D01*
X74425565Y-33795109D01*
X74564378Y-33937227D01*
X74665458Y-34069581D01*
X74662949Y-34120667D01*
X74621893Y-34129154D01*
X74454835Y-34207201D01*
X74241022Y-34340403D01*
X74186945Y-34376576D01*
X73946157Y-34492805D01*
X73796270Y-34476327D01*
X73744666Y-34327336D01*
X73737929Y-34263466D01*
X73679595Y-34205206D01*
X73594154Y-34267404D01*
X73521849Y-34431285D01*
X73516904Y-34452019D01*
X73301424Y-34452019D01*
X73370205Y-34247790D01*
X73519405Y-34071548D01*
X73725605Y-33985566D01*
X73973387Y-34028365D01*
X74069585Y-34066206D01*
X74227444Y-34083070D01*
X74264571Y-34008611D01*
X74161531Y-33860197D01*
X74081097Y-33768497D01*
X73898897Y-33437932D01*
X73829333Y-33088979D01*
X73839397Y-33003381D01*
X73899329Y-32949814D01*
X74048736Y-32935995D01*
X74327074Y-32950984D01*
X74824815Y-32986988D01*
X74959705Y-32558994D01*
X75003409Y-32399302D01*
X75049287Y-32131542D01*
X75046256Y-31946236D01*
X75031027Y-31877961D01*
X75054520Y-31794968D01*
X75196792Y-31809756D01*
X75423276Y-31911653D01*
X75697120Y-32143424D01*
X75911711Y-32444295D01*
X75967173Y-32578361D01*
X76029336Y-32920996D01*
X76021508Y-33304283D01*
X76013495Y-33348953D01*
X75952938Y-33686561D01*
X75832872Y-34026166D01*
G37*
G36*
X46566666Y-40894000D02*
G01*
X45559725Y-40894000D01*
X45136271Y-40891181D01*
X44817600Y-40875889D01*
X44616493Y-40838544D01*
X44506093Y-40769575D01*
X44459547Y-40659409D01*
X44450000Y-40498475D01*
X44451096Y-40481108D01*
X44487560Y-40427640D01*
X44598720Y-40403377D01*
X44815711Y-40405389D01*
X45169666Y-40430747D01*
X45889333Y-40490695D01*
X45889333Y-37592000D01*
X46566666Y-37592000D01*
X46566666Y-40894000D01*
G37*
G36*
X52875146Y-44077480D02*
G01*
X52909144Y-44217167D01*
X52878878Y-44336747D01*
X52780115Y-44360329D01*
X52656197Y-44280749D01*
X52552083Y-44111333D01*
X52477587Y-43958439D01*
X52355390Y-43875949D01*
X52131700Y-43857333D01*
X51927857Y-43870900D01*
X51800461Y-43942258D01*
X51718646Y-44111333D01*
X51624221Y-44285062D01*
X51469051Y-44365333D01*
X51378597Y-44351721D01*
X51308000Y-44287012D01*
X51324652Y-44215300D01*
X51388794Y-44009327D01*
X51489895Y-43709174D01*
X51554527Y-43525691D01*
X51953906Y-43525691D01*
X51993115Y-43591905D01*
X52129437Y-43603333D01*
X52237045Y-43596902D01*
X52307970Y-43536994D01*
X52284854Y-43370500D01*
X52245751Y-43233070D01*
X52168732Y-43088649D01*
X52090247Y-43112769D01*
X52008104Y-43304913D01*
X51992335Y-43356793D01*
X51953906Y-43525691D01*
X51554527Y-43525691D01*
X51615952Y-43351313D01*
X51743005Y-43006058D01*
X51851693Y-42743375D01*
X51937588Y-42592290D01*
X52016115Y-42526442D01*
X52102701Y-42519467D01*
X52195495Y-42561385D01*
X52303077Y-42690404D01*
X52429874Y-42930525D01*
X52591560Y-43307000D01*
X52668735Y-43500731D01*
X52682324Y-43536994D01*
X52790052Y-43824461D01*
X52875146Y-44077480D01*
G37*
G36*
X78700906Y-37547496D02*
G01*
X78528333Y-37676667D01*
X78524174Y-37678258D01*
X78351613Y-37779676D01*
X78337948Y-37878173D01*
X78486000Y-37955199D01*
X78584650Y-37998449D01*
X78655333Y-38092073D01*
X78621188Y-38129750D01*
X78446526Y-38170129D01*
X78147333Y-38184667D01*
X78088263Y-38184165D01*
X77801357Y-38160308D01*
X77656687Y-38105824D01*
X77663196Y-38027795D01*
X77829833Y-37933305D01*
X77926900Y-37879634D01*
X77898790Y-37851367D01*
X77894797Y-37851292D01*
X77749566Y-37905510D01*
X77573222Y-38036500D01*
X77369197Y-38227000D01*
X77398432Y-38015333D01*
X77496622Y-37817838D01*
X77745166Y-37648527D01*
X77762990Y-37639769D01*
X77959531Y-37522245D01*
X77992797Y-37469997D01*
X78232000Y-37469997D01*
X78234201Y-37478446D01*
X78316666Y-37507333D01*
X78339873Y-37503888D01*
X78401333Y-37417670D01*
X78394685Y-37387046D01*
X78316666Y-37380333D01*
X78291329Y-37397711D01*
X78232000Y-37469997D01*
X77992797Y-37469997D01*
X78044396Y-37388955D01*
X78062666Y-37172277D01*
X78062651Y-37159526D01*
X78046335Y-36951315D01*
X77970591Y-36850196D01*
X77793055Y-36797244D01*
X77752739Y-36788245D01*
X77486744Y-36680378D01*
X77291734Y-36522257D01*
X77216000Y-36351211D01*
X77218731Y-36334703D01*
X77279875Y-36287771D01*
X77439274Y-36257824D01*
X77720552Y-36241974D01*
X78147333Y-36237333D01*
X78282339Y-36237667D01*
X78666170Y-36245143D01*
X78911085Y-36264634D01*
X79040709Y-36299027D01*
X79078666Y-36351211D01*
X79078603Y-36355607D01*
X79000050Y-36523929D01*
X78806970Y-36682675D01*
X78549500Y-36790249D01*
X78491028Y-36807318D01*
X78340358Y-36905863D01*
X78352351Y-37028752D01*
X78528333Y-37153261D01*
X78664409Y-37251212D01*
X78737677Y-37417670D01*
X78740000Y-37422947D01*
X78700906Y-37547496D01*
G37*
G36*
X68749333Y-39993472D02*
G01*
X69566898Y-38792736D01*
X69612046Y-38726434D01*
X69898166Y-38308293D01*
X70110209Y-38008058D01*
X70266764Y-37806202D01*
X70386422Y-37683197D01*
X70487771Y-37619513D01*
X70589400Y-37595623D01*
X70709898Y-37592000D01*
X71035333Y-37592000D01*
X71035333Y-40894000D01*
X70442666Y-40894000D01*
X70442666Y-38494314D01*
X69585979Y-39736490D01*
X69335859Y-40093233D01*
X69078558Y-40446881D01*
X68864295Y-40727040D01*
X68710219Y-40911364D01*
X68633479Y-40977510D01*
X68538880Y-40966743D01*
X68347166Y-40925302D01*
X68307266Y-40913721D01*
X68251841Y-40883907D01*
X68212017Y-40822173D01*
X68185216Y-40705617D01*
X68168858Y-40511336D01*
X68160366Y-40216429D01*
X68157162Y-39797992D01*
X68156666Y-39233125D01*
X68156666Y-37592000D01*
X68749333Y-37592000D01*
X68749333Y-39993472D01*
G37*
G36*
X59422922Y-34213561D02*
G01*
X59739204Y-34297760D01*
X59951240Y-34457800D01*
X60028666Y-34674848D01*
X60015840Y-34739022D01*
X59890466Y-34927484D01*
X59660089Y-35135089D01*
X59360142Y-35327260D01*
X59310455Y-35355064D01*
X59142749Y-35489562D01*
X59137170Y-35594223D01*
X59288723Y-35661384D01*
X59592410Y-35683385D01*
X59643094Y-35683162D01*
X59882910Y-35694815D01*
X59998630Y-35738140D01*
X60028666Y-35825663D01*
X59990679Y-35923108D01*
X59838166Y-36010749D01*
X59670778Y-36033431D01*
X59329805Y-36010767D01*
X59038223Y-35906842D01*
X58835215Y-35739281D01*
X58759963Y-35525711D01*
X58768769Y-35408592D01*
X58832734Y-35252984D01*
X58987557Y-35113663D01*
X59266979Y-34952479D01*
X59385563Y-34886373D01*
X59593952Y-34729506D01*
X59643596Y-34608089D01*
X59534499Y-34529966D01*
X59266666Y-34502980D01*
X59234980Y-34502859D01*
X58952963Y-34472173D01*
X58806801Y-34392969D01*
X58811583Y-34272876D01*
X58850930Y-34249873D01*
X59021731Y-34217886D01*
X59271663Y-34205333D01*
X59422922Y-34213561D01*
G37*
G36*
X62284235Y-37554917D02*
G01*
X62788300Y-37717041D01*
X63197170Y-38015187D01*
X63503712Y-38445944D01*
X63518053Y-38475468D01*
X63625324Y-38837503D01*
X63668380Y-39274328D01*
X63644949Y-39710661D01*
X63552761Y-40071219D01*
X63522903Y-40134811D01*
X63299475Y-40454818D01*
X63000501Y-40727803D01*
X62686834Y-40895816D01*
X62652098Y-40905642D01*
X62386554Y-40941857D01*
X62042748Y-40949032D01*
X61682351Y-40930027D01*
X61367031Y-40887703D01*
X61158459Y-40824921D01*
X61092127Y-40772268D01*
X61020111Y-40625613D01*
X61018306Y-40468103D01*
X61081291Y-40356861D01*
X61203642Y-40349008D01*
X61314259Y-40387756D01*
X61696249Y-40449367D01*
X62097795Y-40433909D01*
X62433480Y-40341877D01*
X62608675Y-40239882D01*
X62830534Y-40001353D01*
X62953859Y-39664041D01*
X62992000Y-39200667D01*
X62985952Y-39000406D01*
X62911496Y-38576912D01*
X62746817Y-38281837D01*
X62485136Y-38100470D01*
X62289619Y-38052471D01*
X61952635Y-38035092D01*
X61592690Y-38065659D01*
X61287590Y-38141507D01*
X61264940Y-38148849D01*
X61152166Y-38116627D01*
X61059814Y-37937724D01*
X61054874Y-37923154D01*
X61017449Y-37737257D01*
X61042521Y-37635659D01*
X61120847Y-37611660D01*
X61330194Y-37574554D01*
X61608964Y-37539702D01*
X61692108Y-37532225D01*
X62284235Y-37554917D01*
G37*
G36*
X63669333Y-35983333D02*
G01*
X63076666Y-35983333D01*
X62891121Y-35981482D01*
X62644180Y-35964826D01*
X62518854Y-35925334D01*
X62484000Y-35856333D01*
X62499492Y-35802467D01*
X62613878Y-35745954D01*
X62865000Y-35729333D01*
X63008736Y-35727897D01*
X63171185Y-35705498D01*
X63234955Y-35631522D01*
X63246000Y-35475333D01*
X63245466Y-35420792D01*
X63221024Y-35285718D01*
X63124489Y-35231363D01*
X62907333Y-35221333D01*
X62809969Y-35219028D01*
X62624590Y-35182640D01*
X62568666Y-35094333D01*
X62574813Y-35057822D01*
X62671848Y-34988304D01*
X62907333Y-34967333D01*
X62980055Y-34966932D01*
X63160154Y-34948601D01*
X63232626Y-34876200D01*
X63246000Y-34713333D01*
X63243846Y-34617509D01*
X63210247Y-34509209D01*
X63099283Y-34466696D01*
X62865000Y-34459333D01*
X62703403Y-34454169D01*
X62533862Y-34416041D01*
X62484000Y-34332333D01*
X62492641Y-34292573D01*
X62570367Y-34239657D01*
X62754661Y-34212802D01*
X63076666Y-34205333D01*
X63669333Y-34205333D01*
X63669333Y-35983333D01*
G37*
G36*
X79064766Y-44383742D02*
G01*
X79017605Y-44488116D01*
X78836704Y-44607738D01*
X78728349Y-44660881D01*
X78528333Y-44758980D01*
X78298914Y-44851719D01*
X77798564Y-44949672D01*
X77273782Y-44903518D01*
X76693621Y-44712472D01*
X76650443Y-44694287D01*
X76389986Y-44596596D01*
X76218550Y-44553743D01*
X76168307Y-44574198D01*
X76177116Y-44617583D01*
X76115973Y-44748107D01*
X75963964Y-44832988D01*
X75780926Y-44832352D01*
X75753950Y-44821780D01*
X75607610Y-44678192D01*
X75536717Y-44464953D01*
X75571583Y-44264312D01*
X75571874Y-44263814D01*
X75570039Y-44249601D01*
X75794168Y-44249601D01*
X75821683Y-44312358D01*
X75990977Y-44300883D01*
X76098042Y-44298711D01*
X76366343Y-44355767D01*
X76690745Y-44477775D01*
X76736682Y-44498056D01*
X77246900Y-44676814D01*
X77699911Y-44750930D01*
X78062666Y-44714695D01*
X78120115Y-44694345D01*
X78141720Y-44660881D01*
X78026171Y-44631948D01*
X77757456Y-44601615D01*
X77525221Y-44569478D01*
X77215654Y-44497669D01*
X76995456Y-44412415D01*
X76750333Y-44271877D01*
X76983225Y-44320233D01*
X77053627Y-44333579D01*
X77320287Y-44374678D01*
X77618225Y-44411525D01*
X77707418Y-44420774D01*
X77847446Y-44430740D01*
X77854165Y-44415877D01*
X77717573Y-44369550D01*
X77427666Y-44285124D01*
X77237847Y-44238333D01*
X78232000Y-44238333D01*
X78274333Y-44280667D01*
X78316666Y-44238333D01*
X78274333Y-44196000D01*
X78232000Y-44238333D01*
X77237847Y-44238333D01*
X77096469Y-44203483D01*
X76735882Y-44138491D01*
X76454000Y-44112264D01*
X76275465Y-44105504D01*
X76165606Y-44078493D01*
X76200000Y-44026667D01*
X76283951Y-43987958D01*
X76579392Y-43947807D01*
X76997720Y-43976464D01*
X77517033Y-44073157D01*
X77525960Y-44075223D01*
X77811137Y-44135897D01*
X78022118Y-44171032D01*
X78113810Y-44173078D01*
X78114582Y-44171818D01*
X78047957Y-44127718D01*
X77861312Y-44047225D01*
X77592564Y-43946798D01*
X77200023Y-43835557D01*
X76709488Y-43784238D01*
X76296745Y-43849213D01*
X75985570Y-44029262D01*
X75908273Y-44104614D01*
X75794168Y-44249601D01*
X75570039Y-44249601D01*
X75567475Y-44229749D01*
X75467054Y-44301833D01*
X75458155Y-44309487D01*
X75198197Y-44438583D01*
X74927173Y-44424005D01*
X74671096Y-44286341D01*
X74455977Y-44046178D01*
X74307830Y-43724105D01*
X74252666Y-43340709D01*
X74253499Y-43329010D01*
X74506666Y-43329010D01*
X74519249Y-43581242D01*
X74583669Y-43806183D01*
X74725092Y-44000779D01*
X74777688Y-44057756D01*
X74888725Y-44168092D01*
X74920804Y-44160207D01*
X74900304Y-44040004D01*
X74895453Y-43937637D01*
X74932820Y-43688788D01*
X75014783Y-43405004D01*
X75071368Y-43242909D01*
X75167557Y-42943385D01*
X75231009Y-42714333D01*
X75261938Y-42592047D01*
X75295631Y-42538050D01*
X75333376Y-42623382D01*
X75389605Y-42861429D01*
X75401255Y-42905547D01*
X75551193Y-43148732D01*
X75791684Y-43291704D01*
X76069715Y-43300259D01*
X76296028Y-43243458D01*
X76083351Y-43021229D01*
X76077148Y-43014680D01*
X75892188Y-42772270D01*
X75742318Y-42502667D01*
X75698617Y-42407399D01*
X75633890Y-42312155D01*
X75611667Y-42375667D01*
X75620603Y-42443561D01*
X75693209Y-42657342D01*
X75815398Y-42905339D01*
X75882672Y-43024620D01*
X75955493Y-43172314D01*
X75946097Y-43214859D01*
X75858652Y-43178565D01*
X75839023Y-43167538D01*
X75676338Y-43020979D01*
X75536203Y-42771827D01*
X75399472Y-42387079D01*
X75292676Y-42037000D01*
X75106536Y-42457387D01*
X75050877Y-42591492D01*
X74924028Y-42952301D01*
X74833516Y-43282887D01*
X74800674Y-43422508D01*
X74742767Y-43613214D01*
X74699558Y-43688000D01*
X74692449Y-43686551D01*
X74663849Y-43593998D01*
X74672842Y-43388801D01*
X74711828Y-43115278D01*
X74773210Y-42817745D01*
X74849388Y-42540518D01*
X74932764Y-42327914D01*
X75022806Y-42139392D01*
X75048583Y-42040139D01*
X74988726Y-42065728D01*
X74841472Y-42235069D01*
X74671435Y-42561662D01*
X74551850Y-42947229D01*
X74506666Y-43329010D01*
X74253499Y-43329010D01*
X74274067Y-43039996D01*
X74389143Y-42644235D01*
X74620787Y-42257336D01*
X74988057Y-41840417D01*
X75102550Y-41727919D01*
X75331863Y-41520989D01*
X75507018Y-41387874D01*
X75597069Y-41353323D01*
X75635104Y-41406193D01*
X75707610Y-41588933D01*
X75779654Y-41846239D01*
X75811155Y-41972363D01*
X75976808Y-42457063D01*
X76177273Y-42801687D01*
X76404875Y-42992167D01*
X76418244Y-42998342D01*
X76589412Y-43114556D01*
X76594553Y-43237575D01*
X76588272Y-43243458D01*
X76435161Y-43386866D01*
X76358977Y-43430813D01*
X76060350Y-43508078D01*
X75733844Y-43495462D01*
X75464841Y-43392471D01*
X75338421Y-43320209D01*
X75263956Y-43357888D01*
X75192002Y-43532105D01*
X75146246Y-43664364D01*
X75108311Y-43799631D01*
X75130930Y-43834273D01*
X75217687Y-43806602D01*
X75345667Y-43825072D01*
X75503265Y-43940680D01*
X75586832Y-44024981D01*
X75670107Y-44064258D01*
X75722578Y-43984436D01*
X75764176Y-43927581D01*
X75931451Y-43800265D01*
X76169690Y-43673958D01*
X76397482Y-43589026D01*
X76642769Y-43544771D01*
X76916223Y-43554706D01*
X77249209Y-43623089D01*
X77673092Y-43754178D01*
X78219237Y-43952231D01*
X78341083Y-43998408D01*
X78732777Y-44155259D01*
X78894305Y-44238333D01*
X78971914Y-44278247D01*
X79064766Y-44383742D01*
G37*
G36*
X84094237Y-46315127D02*
G01*
X84158666Y-46397333D01*
X84156206Y-46417571D01*
X84074000Y-46482000D01*
X84053762Y-46479540D01*
X83989333Y-46397333D01*
X83991793Y-46377096D01*
X84074000Y-46312667D01*
X84094237Y-46315127D01*
G37*
%TD*%
M02*
