%TF.GenerationSoftware,KiCad,Pcbnew,(6.0.8)*%
%TF.CreationDate,2022-11-07T17:30:20-05:00*%
%TF.ProjectId,Riego_potencia,52696567-6f5f-4706-9f74-656e6369612e,rev?*%
%TF.SameCoordinates,Original*%
%TF.FileFunction,Soldermask,Bot*%
%TF.FilePolarity,Negative*%
%FSLAX46Y46*%
G04 Gerber Fmt 4.6, Leading zero omitted, Abs format (unit mm)*
G04 Created by KiCad (PCBNEW (6.0.8)) date 2022-11-07 17:30:20*
%MOMM*%
%LPD*%
G01*
G04 APERTURE LIST*
%ADD10C,1.950000*%
%ADD11R,2.600000X2.600000*%
%ADD12C,2.600000*%
%ADD13C,3.200000*%
%ADD14R,1.500000X1.500000*%
%ADD15C,1.500000*%
G04 APERTURE END LIST*
D10*
%TO.C,K5*%
X57400000Y-100680000D03*
X57400000Y-112680000D03*
X71600000Y-106680000D03*
X69600000Y-100680000D03*
X69600000Y-112680000D03*
%TD*%
D11*
%TO.C,J4*%
X124460000Y-91440000D03*
D12*
X124460000Y-86440000D03*
%TD*%
D10*
%TO.C,K1*%
X90420000Y-32100000D03*
X90420000Y-44100000D03*
X104620000Y-38100000D03*
X102620000Y-32100000D03*
X102620000Y-44100000D03*
%TD*%
D11*
%TO.C,J5*%
X124460000Y-109220000D03*
D12*
X124460000Y-104220000D03*
%TD*%
D11*
%TO.C,Jent1*%
X40640000Y-55880000D03*
D12*
X40640000Y-60880000D03*
%TD*%
D13*
%TO.C,J45*%
X39390000Y-78267500D03*
X39390000Y-89697500D03*
D14*
X45740000Y-79537500D03*
D15*
X48280000Y-80807500D03*
X45740000Y-82077500D03*
X48280000Y-83347500D03*
X45740000Y-84617500D03*
X48280000Y-85887500D03*
X45740000Y-87157500D03*
X48280000Y-88427500D03*
%TD*%
D10*
%TO.C,K4*%
X95000000Y-112680000D03*
X95000000Y-100680000D03*
X80800000Y-106680000D03*
X82800000Y-112680000D03*
X82800000Y-100680000D03*
%TD*%
D11*
%TO.C,J3*%
X124460000Y-73740000D03*
D12*
X124460000Y-68740000D03*
%TD*%
D10*
%TO.C,K3*%
X90420000Y-77820000D03*
X90420000Y-89820000D03*
X104620000Y-83820000D03*
X102620000Y-77820000D03*
X102620000Y-89820000D03*
%TD*%
D11*
%TO.C,J2*%
X124460000Y-55880000D03*
D12*
X124460000Y-50880000D03*
%TD*%
D10*
%TO.C,K2*%
X90420000Y-54960000D03*
X90420000Y-66960000D03*
X104620000Y-60960000D03*
X102620000Y-54960000D03*
X102620000Y-66960000D03*
%TD*%
D11*
%TO.C,Jent2*%
X40640000Y-35560000D03*
D12*
X40640000Y-40560000D03*
%TD*%
D11*
%TO.C,J1*%
X124460000Y-38180000D03*
D12*
X124460000Y-33180000D03*
%TD*%
M02*
